<svg width="4467" height="4141" viewBox="0 0 4467 4141" fill="none" xmlns="http://www.w3.org/2000/svg">
<path d="M2110.19 4140.04H60.6066C44.5328 4140.04 29.1172 4133.65 17.7513 4122.29C6.38533 4110.92 0 4095.51 0 4079.43V60.0759C0.139951 44.0942 6.587 28.8147 17.9378 17.5632C29.2886 6.31182 44.6243 -0.00061271 60.6066 4.46064e-08H2110.19C2118.15 4.46064e-08 2126.03 1.56762 2133.39 4.61339C2140.74 7.65916 2147.42 12.1234 2153.05 17.7513C2158.68 23.3791 2163.14 30.0604 2166.19 37.4135C2169.23 44.7666 2170.8 52.6477 2170.8 60.6066V4079.43C2170.8 4087.39 2169.23 4095.27 2166.19 4102.63C2163.14 4109.98 2158.68 4116.66 2153.05 4122.29C2147.42 4127.92 2140.74 4132.38 2133.39 4135.43C2126.03 4138.47 2118.15 4140.04 2110.19 4140.04V4140.04ZM60.6066 2.12283C45.2451 2.15089 30.5208 8.26565 19.6586 19.1279C8.79634 29.9901 2.68159 44.7144 2.65353 60.0759V4079.43C2.68159 4094.79 8.79634 4109.52 19.6586 4120.38C30.5208 4131.24 45.2451 4137.36 60.6066 4137.39H2110.19C2125.56 4137.36 2140.28 4131.24 2151.14 4120.38C2162 4109.52 2168.12 4094.79 2168.15 4079.43V60.0759C2168.12 44.7144 2162 29.9901 2151.14 19.1279C2140.28 8.26565 2125.56 2.15089 2110.19 2.12283H60.6066Z" fill="#EBEBEB"/>
<path d="M4406.03 4140.04H2356.44C2340.37 4140.04 2324.95 4133.65 2313.59 4122.29C2302.22 4110.92 2295.83 4095.51 2295.83 4079.43V60.0759C2295.97 44.0942 2302.42 28.8147 2313.77 17.5632C2325.12 6.31182 2340.46 -0.00061271 2356.44 4.46064e-08H4406.03C4422.1 4.46065e-08 4437.52 6.38533 4448.88 17.7513C4460.25 29.1172 4466.64 44.5328 4466.64 60.6066V4079.43C4466.64 4087.39 4465.07 4095.27 4462.02 4102.63C4458.98 4109.98 4454.51 4116.66 4448.88 4122.29C4443.26 4127.92 4436.58 4132.38 4429.22 4135.43C4421.87 4138.47 4413.99 4140.04 4406.03 4140.04V4140.04ZM2356.44 2.12283C2341.08 2.15089 2326.36 8.26565 2315.49 19.1279C2304.63 29.9901 2298.52 44.7144 2298.49 60.0759V4079.43C2298.52 4094.79 2304.63 4109.52 2315.49 4120.38C2326.36 4131.24 2341.08 4137.36 2356.44 4137.39H4406.03C4421.39 4137.36 4436.11 4131.24 4446.98 4120.38C4457.84 4109.52 4463.95 4094.79 4463.98 4079.43V60.0759C4463.95 44.7144 4457.84 29.9901 4446.98 19.1279C4436.11 8.26565 4421.39 2.15089 4406.03 2.12283H2356.44Z" fill="#EBEBEB"/>
<path d="M779.713 1202.05L796.908 1236.76L835.331 1242.38L807.522 1269.45L814.103 1307.66L779.713 1289.62L745.429 1307.66L752.01 1269.45L724.201 1242.38L762.624 1236.76L779.713 1202.05Z" fill="#EBEBEB"/>
<path d="M4214.97 2839.07L4232.17 2873.88L4270.59 2879.51L4242.78 2906.47L4249.36 2944.78L4214.97 2926.74L4180.69 2944.78L4187.27 2906.47L4159.46 2879.51L4197.89 2873.88L4214.97 2839.07Z" fill="#F5F5F5"/>
<path d="M3534.61 3848.36L3551.8 3883.07L3590.12 3888.7L3562.31 3915.76L3568.89 3953.97L3534.61 3935.93L3500.33 3953.97L3506.8 3915.76L3479.1 3888.7L3517.41 3883.07L3534.61 3848.36Z" fill="#F5F5F5"/>
<path d="M1977.94 585.369L1984.31 598.318L1998.64 600.441C1999.44 600.546 2000.19 600.876 2000.81 601.393C2001.43 601.91 2001.89 602.593 2002.13 603.361C2002.38 604.129 2002.4 604.952 2002.19 605.732C2001.99 606.511 2001.57 607.217 2000.97 607.765L1990.36 617.848L1992.8 632.071C1992.93 632.863 1992.83 633.674 1992.53 634.414C1992.22 635.155 1991.71 635.797 1991.07 636.269C1990.42 636.741 1989.65 637.025 1988.85 637.09C1988.06 637.154 1987.25 636.997 1986.54 636.635L1973.8 629.842L1961.07 636.635C1960.35 636.997 1959.55 637.154 1958.75 637.09C1957.95 637.025 1957.19 636.741 1956.54 636.269C1955.89 635.797 1955.39 635.155 1955.08 634.414C1954.77 633.674 1954.68 632.863 1954.8 632.071L1957.14 617.848L1946.52 607.765C1945.93 607.21 1945.51 606.496 1945.31 605.708C1945.11 604.92 1945.14 604.091 1945.39 603.32C1945.65 602.548 1946.13 601.867 1946.76 601.357C1947.39 600.846 1948.16 600.529 1948.97 600.441L1963.19 598.318L1969.56 585.369C1969.81 584.453 1970.36 583.646 1971.12 583.07C1971.87 582.495 1972.8 582.184 1973.75 582.184C1974.7 582.184 1975.63 582.495 1976.38 583.07C1977.14 583.646 1977.69 584.453 1977.94 585.369V585.369Z" fill="#EBEBEB"/>
<path d="M224.913 3683.1L231.282 3695.94L245.505 3698.07C246.312 3698.18 247.072 3698.51 247.698 3699.04C248.324 3699.56 248.791 3700.25 249.045 3701.02C249.3 3701.79 249.331 3702.62 249.137 3703.42C248.943 3704.21 248.53 3704.93 247.946 3705.5L237.332 3715.47L239.773 3729.7C239.898 3730.49 239.803 3731.3 239.496 3732.04C239.19 3732.78 238.686 3733.42 238.038 3733.89C237.39 3734.37 236.625 3734.65 235.826 3734.72C235.027 3734.78 234.226 3734.62 233.511 3734.26L220.774 3727.57L208.037 3734.26C207.321 3734.62 206.52 3734.78 205.721 3734.72C204.923 3734.65 204.157 3734.37 203.509 3733.89C202.862 3733.42 202.357 3732.78 202.051 3732.04C201.745 3731.3 201.649 3730.49 201.774 3729.7L204.216 3715.47L193.601 3705.5C193.019 3704.94 192.605 3704.22 192.405 3703.44C192.206 3702.66 192.228 3701.83 192.471 3701.06C192.713 3700.29 193.166 3699.6 193.778 3699.07C194.39 3698.54 195.138 3698.19 195.937 3698.07L210.159 3695.94L216.634 3683.1C216.918 3682.23 217.471 3681.46 218.215 3680.92C218.958 3680.38 219.854 3680.09 220.774 3680.09C221.693 3680.09 222.589 3680.38 223.332 3680.92C224.076 3681.46 224.629 3682.23 224.913 3683.1V3683.1Z" fill="#F5F5F5"/>
<path d="M511.176 448.977L517.544 461.926L531.874 463.943C532.672 464.071 533.42 464.418 534.032 464.947C534.644 465.475 535.097 466.164 535.339 466.936C535.582 467.707 535.605 468.531 535.405 469.315C535.205 470.099 534.791 470.812 534.209 471.373L523.595 481.987L526.036 496.104C526.205 496.905 526.14 497.739 525.846 498.503C525.553 499.268 525.045 499.932 524.383 500.414C523.721 500.897 522.933 501.177 522.116 501.222C521.298 501.267 520.484 501.075 519.773 500.668L507.037 493.981L494.3 500.668C493.589 501.075 492.775 501.267 491.957 501.222C491.14 501.177 490.352 500.897 489.69 500.414C489.028 499.932 488.52 499.268 488.227 498.503C487.933 497.739 487.868 496.905 488.037 496.104L490.372 481.987L479.758 471.373C479.174 470.805 478.761 470.084 478.567 469.292C478.373 468.5 478.404 467.67 478.659 466.896C478.913 466.121 479.38 465.434 480.006 464.912C480.632 464.39 481.392 464.054 482.199 463.943L496.422 461.926L503.215 448.977C503.556 448.206 504.114 447.55 504.821 447.09C505.527 446.63 506.352 446.385 507.196 446.385C508.039 446.385 508.864 446.63 509.571 447.09C510.277 447.55 510.835 448.206 511.176 448.977Z" fill="#EBEBEB"/>
<path d="M493.981 3007.19C494.002 3009.99 493.192 3012.73 491.654 3015.07C490.115 3017.4 487.918 3019.23 485.341 3020.31C482.763 3021.4 479.921 3021.69 477.176 3021.16C474.431 3020.63 471.905 3019.29 469.921 3017.32C467.936 3015.35 466.581 3012.83 466.027 3010.09C465.474 3007.35 465.747 3004.51 466.812 3001.92C467.878 2999.34 469.687 2997.13 472.011 2995.57C474.334 2994.01 477.068 2993.18 479.864 2993.18C483.59 2993.18 487.165 2994.66 489.809 2997.28C492.453 2999.9 493.953 3003.47 493.981 3007.19V3007.19Z" fill="#EBEBEB"/>
<path d="M2505.78 1240.68C2505.8 1243.48 2504.99 1246.22 2503.46 1248.56C2501.92 1250.89 2499.72 1252.72 2497.14 1253.8C2494.56 1254.89 2491.72 1255.18 2488.98 1254.65C2486.23 1254.12 2483.71 1252.78 2481.72 1250.81C2479.74 1248.84 2478.38 1246.33 2477.83 1243.58C2477.28 1240.84 2477.55 1238 2478.61 1235.41C2479.68 1232.83 2481.49 1230.62 2483.81 1229.06C2486.14 1227.5 2488.87 1226.67 2491.67 1226.67C2493.51 1226.66 2495.35 1227.01 2497.06 1227.71C2498.77 1228.41 2500.33 1229.44 2501.64 1230.74C2502.95 1232.04 2504 1233.59 2504.71 1235.3C2505.42 1237.01 2505.78 1238.84 2505.78 1240.68V1240.68Z" fill="#EBEBEB"/>
<path d="M1773.83 460.653C1773.83 463.445 1773 466.174 1771.45 468.496C1769.9 470.817 1767.7 472.627 1765.12 473.695C1762.54 474.764 1759.7 475.043 1756.96 474.498C1754.22 473.954 1751.71 472.609 1749.73 470.635C1747.76 468.661 1746.41 466.145 1745.87 463.407C1745.33 460.669 1745.6 457.83 1746.67 455.251C1747.74 452.671 1749.55 450.466 1751.87 448.915C1754.19 447.364 1756.92 446.536 1759.72 446.536C1763.45 446.564 1767.03 448.06 1769.67 450.702C1772.31 453.343 1773.8 456.918 1773.83 460.653V460.653Z" fill="#F5F5F5"/>
<path d="M1796.19 3901.15C1838.12 3891.26 1864.09 3849.24 1854.19 3807.31C1844.3 3765.37 1802.28 3739.4 1760.35 3749.3C1718.41 3759.2 1692.44 3801.21 1702.34 3843.15C1712.24 3885.08 1754.25 3911.05 1796.19 3901.15Z" fill="#F0F0F0"/>
<path d="M1751.44 3779.58C1735.46 3779.55 1719.88 3784.61 1706.96 3794.02C1700.37 3809.15 1698.75 3825.99 1702.34 3842.1C1705.93 3858.21 1714.55 3872.77 1726.94 3883.66C1739.34 3894.56 1754.88 3901.24 1771.32 3902.74C1787.76 3904.23 1804.25 3900.47 1818.41 3891.99C1818.41 3891.99 1818.41 3891.99 1818.41 3891.99C1824.68 3880.39 1827.83 3867.37 1827.55 3854.19C1827.27 3841.01 1823.58 3828.13 1816.83 3816.81C1810.08 3805.49 1800.5 3796.12 1789.04 3789.61C1777.57 3783.1 1764.62 3779.68 1751.44 3779.69V3779.58Z" fill="#E6E6E6"/>
<path d="M1147.28 2469.27H501.411V2177.7L1147.28 1409.87H1456.36V2194.26H1616.53V2469.27H1456.36V2707.88H1147.28V2469.27ZM1147.28 2194.26V1792.62L805.93 2194.26H1147.28Z" fill="#2447F9"/>
<path d="M1727.02 2064.55C1727.02 1821.91 1770.68 1652.09 1858 1555.08C1945.32 1458.06 2078.39 1409.59 2257.2 1409.66C2343.03 1409.66 2413.55 1420.28 2468.74 1441.5C2518.88 1459.57 2564.79 1487.71 2603.64 1524.19C2636.4 1555.46 2664.14 1591.58 2685.9 1631.29C2707.44 1672.74 2723.67 1716.75 2734.2 1762.26C2758.2 1859.5 2770.17 1959.31 2769.86 2059.46C2769.86 2290.99 2730.7 2460.43 2652.36 2567.77C2574.03 2675.11 2439.13 2728.82 2247.65 2728.89C2140.23 2728.89 2053.44 2711.77 1987.28 2677.52C1920.59 2642.71 1864.41 2590.72 1824.57 2526.91C1793.79 2479.92 1769.83 2415.63 1752.71 2334.05C1734.93 2245.33 1726.33 2155.03 1727.02 2064.55V2064.55ZM2078.78 2065.4C2078.78 2228.15 2093.11 2339.14 2121.76 2398.37C2150.42 2457.59 2192.06 2487.35 2246.69 2487.63C2264.03 2487.83 2281.23 2484.58 2297.3 2478.07C2313.37 2471.57 2327.99 2461.94 2340.31 2449.74C2366.77 2424.48 2386.23 2384.57 2398.69 2330.01C2411.14 2275.46 2417.37 2190.54 2417.37 2075.27C2417.37 1905.87 2403 1791.98 2374.27 1733.61C2345.54 1675.23 2302.45 1646.07 2244.99 1646.14C2186.4 1646.14 2143.95 1675.9 2117.62 1735.41C2091.3 1794.92 2078.35 1904.92 2078.78 2065.4Z" fill="#2447F9"/>
<path d="M3525.48 2469.27H2879.61V2177.7L3525.48 1409.87H3834.56V2194.26H3995.26V2469.27H3834.56V2707.88H3525.48V2469.27ZM3525.48 2194.26V1792.62L3184.24 2194.26H3525.48Z" fill="#2447F9"/>
<g opacity="0.3">
<path d="M1713.23 961.852C1713.23 965.782 1712.06 969.623 1709.87 972.89C1707.69 976.156 1704.58 978.7 1700.95 980.199C1697.32 981.698 1693.32 982.085 1689.47 981.311C1685.61 980.536 1682.08 978.635 1679.31 975.849C1676.53 973.062 1674.65 969.516 1673.9 965.658C1673.14 961.801 1673.55 957.807 1675.07 954.182C1676.59 950.557 1679.15 947.465 1682.43 945.296C1685.71 943.128 1689.55 941.982 1693.48 942.003C1696.09 942.003 1698.66 942.517 1701.06 943.516C1703.47 944.515 1705.65 945.979 1707.48 947.823C1709.32 949.668 1710.77 951.856 1711.75 954.264C1712.74 956.671 1713.24 959.25 1713.23 961.852V961.852Z" fill="#2447F9"/>
<path d="M354.3 1724.26C362.038 1724.26 368.31 1717.99 368.31 1710.25C368.31 1702.52 362.038 1696.24 354.3 1696.24C346.562 1696.24 340.289 1702.52 340.289 1710.25C340.289 1717.99 346.562 1724.26 354.3 1724.26Z" fill="#2447F9"/>
<path d="M2669.03 3770.35C2680.11 3770.35 2689.09 3761.37 2689.09 3750.29C2689.09 3739.21 2680.11 3730.23 2669.03 3730.23C2657.95 3730.23 2648.97 3739.21 2648.97 3750.29C2648.97 3761.37 2657.95 3770.35 2669.03 3770.35Z" fill="#2447F9"/>
<path d="M3151.44 2954.12C3159.18 2954.12 3165.45 2947.85 3165.45 2940.11C3165.45 2932.37 3159.18 2926.1 3151.44 2926.1C3143.7 2926.1 3137.43 2932.37 3137.43 2940.11C3137.43 2947.85 3143.7 2954.12 3151.44 2954.12Z" fill="#2447F9"/>
<path d="M4081.98 431.145C4081.98 433.916 4081.16 436.625 4079.62 438.929C4078.08 441.233 4075.89 443.029 4073.33 444.09C4070.77 445.15 4067.95 445.427 4065.24 444.887C4062.52 444.346 4060.02 443.012 4058.06 441.052C4056.1 439.093 4054.77 436.597 4054.23 433.879C4053.69 431.161 4053.97 428.344 4055.03 425.784C4056.09 423.224 4057.88 421.035 4060.19 419.496C4062.49 417.956 4065.2 417.135 4067.97 417.135C4071.69 417.135 4075.25 418.611 4077.88 421.238C4080.5 423.866 4081.98 427.43 4081.98 431.145V431.145Z" fill="#2447F9"/>
<path d="M1413.38 148.598C1413.38 151.369 1412.56 154.077 1411.02 156.381C1409.48 158.685 1407.29 160.481 1404.73 161.542C1402.17 162.602 1399.35 162.88 1396.63 162.339C1393.92 161.798 1391.42 160.464 1389.46 158.505C1387.5 156.545 1386.17 154.049 1385.62 151.331C1385.08 148.613 1385.36 145.796 1386.42 143.236C1387.48 140.676 1389.28 138.488 1391.58 136.948C1393.89 135.409 1396.6 134.587 1399.37 134.587C1403.07 134.615 1406.62 136.1 1409.24 138.721C1411.86 141.343 1413.35 144.89 1413.38 148.598V148.598Z" fill="#2447F9"/>
<path d="M2527.33 883.732C2535.07 883.732 2541.34 877.459 2541.34 869.721C2541.34 861.983 2535.07 855.71 2527.33 855.71C2519.59 855.71 2513.32 861.983 2513.32 869.721C2513.32 877.459 2519.59 883.732 2527.33 883.732Z" fill="#2447F9"/>
</g>
<path d="M1078.82 883.838C1207.26 883.838 1311.38 779.719 1311.38 651.283C1311.38 522.846 1207.26 418.727 1078.82 418.727C950.383 418.727 846.265 522.846 846.265 651.283C846.265 779.719 950.383 883.838 1078.82 883.838Z" fill="#2447F9"/>
<path opacity="0.7" d="M1078.82 883.838C1207.26 883.838 1311.38 779.719 1311.38 651.283C1311.38 522.846 1207.26 418.727 1078.82 418.727C950.383 418.727 846.265 522.846 846.265 651.283C846.265 779.719 950.383 883.838 1078.82 883.838Z" fill="white"/>
<path opacity="0.2" d="M998.683 475.831C967.012 475.734 935.657 482.128 906.552 494.618C870.782 533.932 849.552 584.308 846.392 637.365C843.233 690.422 858.335 742.961 889.186 786.242C920.037 829.523 964.777 860.936 1015.96 875.255C1067.15 889.574 1121.69 885.936 1170.53 864.945V864.945C1200.8 831.581 1220.74 790.144 1227.91 745.667C1235.09 701.19 1229.2 655.586 1210.96 614.392C1192.72 573.198 1162.91 538.186 1125.15 513.608C1087.39 489.03 1043.31 475.944 998.258 475.937L998.683 475.831Z" fill="#2447F9"/>
<path opacity="0.2" d="M975.544 537.287C975.544 541.485 974.299 545.59 971.967 549.081C969.634 552.572 966.319 555.292 962.44 556.899C958.561 558.506 954.293 558.926 950.175 558.107C946.057 557.288 942.274 555.266 939.305 552.297C936.337 549.329 934.315 545.546 933.496 541.428C932.677 537.31 933.097 533.042 934.704 529.163C936.311 525.284 939.031 521.969 942.522 519.636C946.013 517.304 950.118 516.059 954.316 516.059C959.946 516.059 965.346 518.295 969.327 522.276C973.308 526.257 975.544 531.657 975.544 537.287Z" fill="#2447F9"/>
<path opacity="0.2" d="M1225.61 516.058C1225.61 520.257 1224.37 524.361 1222.04 527.852C1219.7 531.343 1216.39 534.064 1212.51 535.671C1208.63 537.277 1204.36 537.698 1200.24 536.879C1196.13 536.06 1192.34 534.038 1189.37 531.069C1186.4 528.1 1184.38 524.318 1183.56 520.2C1182.75 516.082 1183.17 511.814 1184.77 507.935C1186.38 504.056 1189.1 500.74 1192.59 498.408C1196.08 496.075 1200.19 494.83 1204.38 494.83C1210.01 494.83 1215.41 497.067 1219.4 501.048C1223.38 505.029 1225.61 510.428 1225.61 516.058Z" fill="#2447F9"/>
<path opacity="0.2" d="M1183.16 667.628C1183.16 674.514 1181.12 681.245 1177.29 686.97C1173.46 692.695 1168.03 697.158 1161.67 699.793C1155.3 702.428 1148.3 703.117 1141.55 701.774C1134.8 700.43 1128.59 697.115 1123.73 692.246C1118.86 687.377 1115.54 681.173 1114.2 674.42C1112.85 667.667 1113.54 660.667 1116.18 654.305C1118.81 647.944 1123.28 642.507 1129 638.681C1134.73 634.856 1141.46 632.814 1148.34 632.814C1157.58 632.814 1166.43 636.482 1172.96 643.011C1179.49 649.54 1183.16 658.395 1183.16 667.628V667.628Z" fill="#2447F9"/>
<path opacity="0.2" d="M1072.56 766.87C1072.56 776.065 1069.83 785.053 1064.72 792.699C1059.61 800.344 1052.35 806.302 1043.86 809.821C1035.36 813.34 1026.02 814.261 1017 812.467C1007.98 810.673 999.696 806.245 993.195 799.743C986.693 793.242 982.265 784.958 980.471 775.94C978.678 766.922 979.598 757.574 983.117 749.079C986.636 740.584 992.594 733.324 1000.24 728.215C1007.88 723.107 1016.87 720.38 1026.07 720.38C1038.4 720.38 1050.22 725.278 1058.94 733.997C1067.66 742.715 1072.56 754.54 1072.56 766.87V766.87Z" fill="#2447F9"/>
<path d="M3834.99 3456.45C3860.88 3346.74 3792.93 3236.8 3683.22 3210.91C3573.51 3185.02 3463.58 3252.96 3437.68 3362.68C3411.79 3472.39 3479.74 3582.32 3589.45 3608.21C3699.16 3634.11 3809.09 3566.16 3834.99 3456.45Z" fill="#2447F9"/>
<path opacity="0.3" d="M3834.99 3456.45C3860.88 3346.74 3792.93 3236.8 3683.22 3210.91C3573.51 3185.02 3463.58 3252.96 3437.68 3362.68C3411.79 3472.39 3479.74 3582.32 3589.45 3608.21C3699.16 3634.11 3809.09 3566.16 3834.99 3456.45Z" fill="white"/>
<path opacity="0.4" d="M3765.25 3251.53C3720.01 3237.87 3671.42 3240.35 3627.8 3258.54C3584.18 3276.73 3548.22 3309.5 3526.08 3351.25C3503.94 3393.01 3496.98 3441.16 3506.39 3487.47C3515.81 3533.79 3541.01 3575.4 3577.7 3605.19C3596.73 3610.97 3616.51 3613.91 3636.4 3613.9C3678.54 3613.89 3719.64 3600.84 3754.06 3576.54C3788.49 3552.23 3814.55 3517.87 3828.67 3478.17C3842.78 3438.47 3844.27 3395.37 3832.91 3354.79C3821.56 3314.21 3797.93 3278.14 3765.25 3251.53V3251.53Z" fill="#2447F9"/>
<path d="M3441.52 3470.82C3223.62 3573.35 3386.12 3652.43 3693.18 3542.04C3977.54 3439.83 4085.91 3310.97 3831.17 3350.98C3844.86 3404.59 3488.76 3543.31 3441.52 3470.82Z" fill="#2447F9"/>
<path opacity="0.2" d="M3762.81 1409.87C3477.4 1602.73 3107.92 1857.47 3005.92 2469.27H2984.16C3083.4 1864.26 3439.4 1603.48 3724.92 1409.87H3762.81Z" fill="black"/>
<path d="M2286.39 3325.09C2105.95 3325.09 1927.52 3243.68 1840.6 3110.79C1786.99 3028.63 1724.69 2856.58 1910.22 2627L1926.68 2640.37C1795.49 2802.77 1771.29 2965.69 1858.43 3099.22C1964.57 3261.61 2214.96 3343.34 2428.72 3285.18C2647.69 3225.63 2780.58 3035.22 2793.43 2762.75C2837.26 1830.72 3332.41 1543.61 3693.93 1333.98C3918.63 1203.75 4080.92 1109.71 4045.26 911.117C4040.27 883.626 4029.33 864.627 4011.61 852.951C3965.44 822.489 3875.22 843.611 3770.77 867.917C3565.82 915.681 3285.18 981.064 3118.01 696.711L3136.37 686.097C3295.58 957.076 3556.37 896.257 3766 847.432C3875.22 822.064 3969.47 800.093 4023.28 835.438C4046.1 850.404 4060.12 874.073 4065.74 907.614C4104.06 1120.75 3927.76 1223.07 3704.33 1352.56C3346.95 1559.75 2857.64 1843.46 2814.34 2764.24C2800.96 3046.57 2662.34 3244.1 2433.92 3306.19C2385.8 3319.01 2336.19 3325.36 2286.39 3325.09Z" fill="#2447F9"/>
<path opacity="0.2" d="M2286.39 3325.09C2105.95 3325.09 1927.52 3243.68 1840.6 3110.79C1786.99 3028.63 1724.69 2856.58 1910.22 2627L1926.68 2640.37C1795.49 2802.77 1771.29 2965.69 1858.43 3099.22C1964.57 3261.61 2214.96 3343.34 2428.72 3285.18C2647.69 3225.63 2780.58 3035.22 2793.43 2762.75C2837.26 1830.72 3332.41 1543.61 3693.93 1333.98C3918.63 1203.75 4080.92 1109.71 4045.26 911.117C4040.27 883.626 4029.33 864.627 4011.61 852.951C3965.44 822.489 3875.22 843.611 3770.77 867.917C3565.82 915.681 3285.18 981.064 3118.01 696.711L3136.37 686.097C3295.58 957.076 3556.37 896.257 3766 847.432C3875.22 822.064 3969.47 800.093 4023.28 835.438C4046.1 850.404 4060.12 874.073 4065.74 907.614C4104.06 1120.75 3927.76 1223.07 3704.33 1352.56C3346.95 1559.75 2857.64 1843.46 2814.34 2764.24C2800.96 3046.57 2662.34 3244.1 2433.92 3306.19C2385.8 3319.01 2336.19 3325.36 2286.39 3325.09Z" fill="white"/>
<path d="M2899.46 445.793C2948.37 446.076 2996.96 453.697 3043.6 468.402C3043.6 468.402 3160.36 667.629 3174.15 713.269C3169.27 758.273 3093.38 832.041 3093.38 832.041L2899.46 445.793Z" fill="#2447F9"/>
<path opacity="0.3" d="M2899.46 445.793C2948.37 446.076 2996.96 453.697 3043.6 468.402C3043.6 468.402 3160.36 667.629 3174.15 713.269C3169.27 758.273 3093.38 832.041 3093.38 832.041L2899.46 445.793Z" fill="white"/>
<path d="M3245.27 1413.06C3200.31 1358.08 3159.3 1299.98 3122.57 1239.2C3113.65 1223.84 3105.2 1208.21 3097.2 1192.28C3092.64 1183.26 3088.29 1174.24 3084.04 1165.11C3078.47 1156.23 3074.15 1146.62 3071.2 1136.56C3058.46 1002.08 3104.53 903.05 3060.58 795.104L2885.66 863.459C2885.66 863.459 2900.52 1055.79 2934.49 1171.27C2955.72 1242.7 3003.27 1304.48 3049.23 1361.69C3063.55 1379.52 3077.35 1397.88 3091.68 1415.82C3106.01 1433.76 3120.45 1448.3 3134.14 1465.17C3154.84 1490.75 3161.63 1515.27 3146.03 1545.42L3143.37 1550.19C3138.92 1558.05 3159.72 1566.96 3172.88 1550.19C3194.11 1522.81 3191.14 1524.51 3209.61 1501.16C3220.86 1487.04 3233.7 1471.65 3244.84 1458.7C3250.22 1452.33 3253.2 1444.29 3253.28 1435.96C3253.36 1427.62 3250.53 1419.52 3245.27 1413.06V1413.06Z" fill="#2447F9"/>
<path opacity="0.7" d="M3245.27 1413.06C3200.31 1358.08 3159.3 1299.98 3122.57 1239.2C3113.65 1223.84 3105.2 1208.21 3097.2 1192.28C3092.64 1183.26 3088.29 1174.24 3084.04 1165.11C3078.47 1156.23 3074.15 1146.62 3071.2 1136.56C3058.46 1002.08 3104.53 903.05 3060.58 795.104L2885.66 863.459C2885.66 863.459 2900.52 1055.79 2934.49 1171.27C2955.72 1242.7 3003.27 1304.48 3049.23 1361.69C3063.55 1379.52 3077.35 1397.88 3091.68 1415.82C3106.01 1433.76 3120.45 1448.3 3134.14 1465.17C3154.84 1490.75 3161.63 1515.27 3146.03 1545.42L3143.37 1550.19C3138.92 1558.05 3159.72 1566.96 3172.88 1550.19C3194.11 1522.81 3191.14 1524.51 3209.61 1501.16C3220.86 1487.04 3233.7 1471.65 3244.84 1458.7C3250.22 1452.33 3253.2 1444.29 3253.28 1435.96C3253.36 1427.62 3250.53 1419.52 3245.27 1413.06V1413.06Z" fill="white"/>
<path opacity="0.3" d="M3202.49 1357.76C3174.74 1387.51 3143.93 1414.27 3110.58 1437.58C3115.14 1442.67 3119.6 1448.19 3124.16 1453.07C3157.55 1430.51 3187.88 1403.72 3214.38 1373.36L3202.49 1357.76Z" fill="#2447F9"/>
<path opacity="0.3" d="M3245.27 1413.06L3243.99 1411.57C3235.83 1420.94 3231.08 1432.8 3230.51 1445.22C3229.83 1453.74 3231.21 1462.29 3234.55 1470.16L3244.63 1458.17C3249.9 1451.87 3252.84 1443.94 3252.96 1435.73C3253.07 1427.51 3250.36 1419.51 3245.27 1413.06V1413.06Z" fill="#2447F9"/>
<path d="M2857.85 573.163C2838.89 601.557 2816.14 627.232 2790.24 649.478C2775.88 661.858 2760.14 672.543 2743.33 681.321C2734.5 685.846 2725.34 689.713 2715.94 692.89L2708.72 695.225L2706.39 695.862L2701.4 697.242C2698.33 697.971 2695.21 698.468 2692.06 698.728C2683.11 699.413 2674.1 698.587 2665.42 696.287C2654.47 693.179 2643.98 688.647 2634.21 682.807C2626.35 678.213 2618.74 673.218 2611.39 667.841C2598.12 657.97 2585.43 647.338 2573.39 635.998C2550.18 614 2528.87 590.068 2509.71 564.459C2506.02 559.47 2504.19 553.35 2504.53 547.154C2504.87 540.958 2507.36 535.076 2511.58 530.522C2515.79 525.967 2521.46 523.027 2527.61 522.208C2533.76 521.389 2540.01 522.743 2545.27 526.036H2546.12C2571.17 541.957 2596.43 558.728 2621.05 573.694C2633.58 581.017 2645.68 588.447 2657.67 594.179C2663.15 597.046 2668.78 599.597 2674.55 601.821C2678.14 603.407 2681.98 604.341 2685.9 604.581C2686.54 604.581 2685.9 603.838 2681.98 603.944C2680.74 603.87 2679.5 603.87 2678.26 603.944L2675.93 604.474L2679.43 602.67C2684.15 600.133 2688.72 597.333 2693.12 594.285C2702.62 587.589 2711.5 580.058 2719.66 571.783C2738.2 552.35 2755.57 531.829 2771.67 510.327C2780.49 500.459 2792.68 494.243 2805.84 492.898C2819.01 491.554 2832.2 495.178 2842.84 503.059C2853.47 510.941 2860.77 522.512 2863.32 535.501C2865.86 548.49 2863.46 561.96 2856.58 573.269L2857.85 573.163Z" fill="#2447F9"/>
<path opacity="0.7" d="M2857.85 573.163C2838.89 601.557 2816.14 627.232 2790.24 649.478C2775.88 661.858 2760.14 672.543 2743.33 681.321C2734.5 685.846 2725.34 689.713 2715.94 692.89L2708.72 695.225L2706.39 695.862L2701.4 697.242C2698.33 697.971 2695.21 698.468 2692.06 698.728C2683.11 699.413 2674.1 698.587 2665.42 696.287C2654.47 693.179 2643.98 688.647 2634.21 682.807C2626.35 678.213 2618.74 673.218 2611.39 667.841C2598.12 657.97 2585.43 647.338 2573.39 635.998C2550.18 614 2528.87 590.068 2509.71 564.459C2506.02 559.47 2504.19 553.35 2504.53 547.154C2504.87 540.958 2507.36 535.076 2511.58 530.522C2515.79 525.967 2521.46 523.027 2527.61 522.208C2533.76 521.389 2540.01 522.743 2545.27 526.036H2546.12C2571.17 541.957 2596.43 558.728 2621.05 573.694C2633.58 581.017 2645.68 588.447 2657.67 594.179C2663.15 597.046 2668.78 599.597 2674.55 601.821C2678.14 603.407 2681.98 604.341 2685.9 604.581C2686.54 604.581 2685.9 603.838 2681.98 603.944C2680.74 603.87 2679.5 603.87 2678.26 603.944L2675.93 604.474L2679.43 602.67C2684.15 600.133 2688.72 597.333 2693.12 594.285C2702.62 587.589 2711.5 580.058 2719.66 571.783C2738.2 552.35 2755.57 531.829 2771.67 510.327C2780.49 500.459 2792.68 494.243 2805.84 492.898C2819.01 491.554 2832.2 495.178 2842.84 503.059C2853.47 510.941 2860.77 522.512 2863.32 535.501C2865.86 548.49 2863.46 561.96 2856.58 573.269L2857.85 573.163Z" fill="white"/>
<path d="M2469.91 503.322L2482.32 524.55C2482.32 524.55 2491.77 552.359 2510.77 557.454L2562.36 540.79L2559.7 536.438C2553.12 526.461 2553.86 507.037 2556.09 490.904C2558.32 474.77 2550.04 474.239 2543.89 478.273C2539.52 483.291 2536.46 489.305 2534.97 495.786C2532.44 492.281 2529.64 488.98 2526.59 485.915L2510.88 470.206C2507.58 466.985 2503.19 465.129 2498.58 465.011C2493.98 464.893 2489.5 466.521 2486.04 469.569L2473.3 480.926C2470.28 483.721 2468.3 487.46 2467.68 491.529C2467.07 495.599 2467.85 499.757 2469.91 503.322V503.322Z" fill="#2447F9"/>
<path opacity="0.7" d="M2469.91 503.322L2482.32 524.55C2482.32 524.55 2491.77 552.359 2510.77 557.454L2562.36 540.79L2559.7 536.438C2553.12 526.461 2553.86 507.037 2556.09 490.904C2558.32 474.77 2550.04 474.239 2543.89 478.273C2539.52 483.291 2536.46 489.305 2534.97 495.786C2532.44 492.281 2529.64 488.98 2526.59 485.915L2510.88 470.206C2507.58 466.985 2503.19 465.129 2498.58 465.011C2493.98 464.893 2489.5 466.521 2486.04 469.569L2473.3 480.926C2470.28 483.721 2468.3 487.46 2467.68 491.529C2467.07 495.599 2467.85 499.757 2469.91 503.322V503.322Z" fill="white"/>
<path d="M2951.58 426.9C2894.36 442.066 2839.55 465.182 2788.75 495.574C2780.83 500.533 2774.61 507.797 2770.93 516.39C2767.25 524.984 2766.29 534.498 2768.16 543.656C2788.65 643.853 2835.25 778.015 2885.56 863.459L3120.23 766.34C3121.83 724.945 3064.83 590.995 3006.77 461.502C2996.37 438.257 2976.31 420.956 2951.58 426.9Z" fill="#2447F9"/>
<path opacity="0.8" d="M2951.58 426.9C2894.36 442.066 2839.55 465.182 2788.75 495.574C2780.83 500.533 2774.61 507.797 2770.93 516.39C2767.25 524.984 2766.29 534.498 2768.16 543.656C2788.65 643.853 2835.25 778.015 2885.56 863.459L3120.23 766.34C3121.83 724.945 3064.83 590.995 3006.77 461.502C2996.37 438.257 2976.31 420.956 2951.58 426.9Z" fill="white"/>
<path opacity="0.3" d="M3043.18 543.55L2996.58 527.947C3007.19 555.225 3044.66 589.721 3070.88 609.994C3062.39 588.766 3052.94 566.476 3043.18 543.55Z" fill="#2447F9"/>
<path d="M2936.19 321.82C2916.76 284.883 2874.84 266.309 2824.52 270.448C2782.07 274.057 2744.49 317.362 2748.95 340.713C2753.41 364.065 2789.07 374.042 2795.87 382.109L2766.47 403.337C2762.98 405.851 2760.04 409.043 2757.83 412.723C2755.61 416.402 2754.16 420.491 2753.57 424.745C2752.97 428.999 2753.24 433.33 2754.37 437.476C2755.49 441.622 2757.44 445.498 2760.1 448.871C2772.52 464.58 2788.86 480.714 2798.31 492.602C2879.61 490.479 2939.79 459.486 2961.55 429.66C2953.38 391.874 2955.08 358.545 2936.19 321.82Z" fill="#2447F9"/>
<path opacity="0.8" d="M2936.19 321.82C2916.76 284.883 2874.84 266.309 2824.52 270.448C2782.07 274.057 2744.49 317.362 2748.95 340.713C2753.41 364.065 2789.07 374.042 2795.87 382.109L2766.47 403.337C2762.98 405.851 2760.04 409.043 2757.83 412.723C2755.61 416.402 2754.16 420.491 2753.57 424.745C2752.97 428.999 2753.24 433.33 2754.37 437.476C2755.49 441.622 2757.44 445.498 2760.1 448.871C2772.52 464.58 2788.86 480.714 2798.31 492.602C2879.61 490.479 2939.79 459.486 2961.55 429.66C2953.38 391.874 2955.08 358.545 2936.19 321.82Z" fill="white"/>
<path d="M2896.28 344.747C2902.05 359.549 2903.3 375.731 2899.88 391.246C2896.46 406.761 2888.51 420.913 2877.05 431.913C2865.58 442.913 2851.11 450.267 2835.47 453.046C2819.83 455.825 2803.71 453.904 2789.16 447.526C2774.61 441.147 2762.27 430.598 2753.72 417.211C2745.16 403.825 2740.76 388.201 2741.08 372.317C2741.4 356.432 2746.43 340.998 2755.52 327.967C2764.61 314.936 2777.35 304.893 2792.15 299.106C2812.01 291.369 2834.13 291.829 2853.66 300.386C2873.18 308.943 2888.51 324.898 2896.28 344.747V344.747Z" fill="#263238"/>
<path d="M3585.45 1301.29C3584.28 1266.37 3582.69 1269.45 3581.74 1240.05C3581.1 1222 3580.99 1201.94 3580.89 1184.64C3580.85 1176.43 3577.98 1168.47 3572.76 1162.13C3567.54 1155.79 3560.29 1151.44 3552.23 1149.83C3538.22 1146.96 3524.1 1144.31 3509.77 1141.34C3491.41 1137.41 3473.26 1133.16 3455.32 1127.96C3441.31 1123.93 3427.51 1119.47 3413.82 1114.48C3400.13 1109.49 3384.74 1103.87 3370.52 1097.29C3353.75 1090.18 3337.19 1082.53 3320.84 1074.57C3302.48 1065.87 3284.33 1056.74 3266.18 1047.51C3196.34 931.92 3194.85 855.711 3119.92 766.34L2959.01 839.153C2959.01 839.153 3077.25 1048.89 3157.7 1137.83C3204.09 1188.99 3276.79 1212.13 3341.65 1228.9C3388.45 1240.9 3435.9 1250.13 3483.34 1258.94C3501.81 1262.34 3521.87 1263.61 3537.79 1274.65C3549.57 1283.68 3557.65 1296.7 3560.51 1311.27C3561.22 1314.24 3561.85 1317.21 3562.42 1320.18C3564.44 1329.1 3586.19 1322.31 3585.45 1301.29Z" fill="#2447F9"/>
<path opacity="0.8" d="M3585.45 1301.29C3584.28 1266.37 3582.69 1269.45 3581.74 1240.05C3581.1 1222 3580.99 1201.94 3580.89 1184.64C3580.85 1176.43 3577.98 1168.47 3572.76 1162.13C3567.54 1155.79 3560.29 1151.44 3552.23 1149.83C3538.22 1146.96 3524.1 1144.31 3509.77 1141.34C3491.41 1137.41 3473.26 1133.16 3455.32 1127.96C3441.31 1123.93 3427.51 1119.47 3413.82 1114.48C3400.13 1109.49 3384.74 1103.87 3370.52 1097.29C3353.75 1090.18 3337.19 1082.53 3320.84 1074.57C3302.48 1065.87 3284.33 1056.74 3266.18 1047.51C3196.34 931.92 3194.85 855.711 3119.92 766.34L2959.01 839.153C2959.01 839.153 3077.25 1048.89 3157.7 1137.83C3204.09 1188.99 3276.79 1212.13 3341.65 1228.9C3388.45 1240.9 3435.9 1250.13 3483.34 1258.94C3501.81 1262.34 3521.87 1263.61 3537.79 1274.65C3549.57 1283.68 3557.65 1296.7 3560.51 1311.27C3561.22 1314.24 3561.85 1317.21 3562.42 1320.18C3564.44 1329.1 3586.19 1322.31 3585.45 1301.29Z" fill="white"/>
<path opacity="0.3" d="M3503.83 1139.96C3497.46 1138.58 3491.09 1137.2 3484.62 1135.61C3485.15 1172.33 3467.95 1235.59 3461.69 1254.8L3481.86 1258.62C3495.07 1220.39 3502.48 1180.39 3503.83 1139.96V1139.96Z" fill="#2447F9"/>
<path opacity="0.3" d="M3581.31 1184.64C3581.28 1176.44 3578.42 1168.5 3573.22 1162.16C3568.02 1155.82 3560.8 1151.46 3552.76 1149.83L3542.15 1147.81C3543.85 1159.88 3550.03 1170.86 3559.45 1178.59C3565.51 1184.19 3572.77 1188.33 3580.67 1190.69C3581.31 1188.78 3581.31 1186.66 3581.31 1184.64Z" fill="#2447F9"/>
<path d="M2881.31 345.384C2885.56 361.517 2867.51 378.393 2853.18 364.489C2839.81 350.15 2825.17 337.042 2809.45 325.323C2794.7 316.089 2814.34 299.955 2837.58 306.217C2847.5 308.709 2856.66 313.577 2864.28 320.4C2871.9 327.224 2877.74 335.798 2881.31 345.384V345.384Z" fill="white"/>
<path d="M2882.48 858.258C2875.05 861.018 2888.63 873.755 2888.63 873.755C2888.63 873.755 3037.23 822.913 3127.45 770.585C3127.67 767.417 3127.13 764.243 3125.87 761.326C3124.62 758.409 3122.68 755.834 3120.23 753.815C3043.02 793.093 2963.64 827.964 2882.48 858.258V858.258Z" fill="#2447F9"/>
<path opacity="0.5" d="M2882.48 858.258C2875.05 861.018 2888.63 873.755 2888.63 873.755C2888.63 873.755 3037.23 822.913 3127.45 770.585C3127.67 767.417 3127.13 764.243 3125.87 761.326C3124.62 758.409 3122.68 755.834 3120.23 753.815C3043.02 793.093 2963.64 827.964 2882.48 858.258V858.258Z" fill="white"/>
<path d="M2991.8 419.895C3021.1 434.755 3048.59 450.357 3076.72 467.658C3090.41 476.362 3103.99 485.172 3117.47 494.724C3130.95 504.277 3144.33 514.042 3157.81 525.081L3162.8 529.22L3169.06 534.952C3172.79 538.291 3176.33 541.834 3179.67 545.566C3183.07 549.281 3185.94 552.89 3188.7 556.18C3191.45 559.471 3194.43 563.398 3196.87 566.794C3206.76 580.44 3215.9 594.613 3224.25 609.251C3240.7 637.637 3254.9 667.27 3266.71 697.879C3268.89 703.662 3269.01 710.022 3267.03 715.879C3265.05 721.736 3261.11 726.728 3255.87 730.005C3250.63 733.282 3244.41 734.643 3238.28 733.856C3232.15 733.069 3226.48 730.183 3222.24 725.688L3221.7 725.051C3200.48 702.443 3179.99 678.667 3159.4 656.484C3138.81 634.3 3117.9 611.798 3100.6 601.927C3076.5 586.961 3049.65 571.995 3023.01 557.348L2942.77 512.768C2930.32 506.181 2921.01 494.921 2916.87 481.465C2912.73 468.009 2914.1 453.459 2920.69 441.017C2927.28 428.574 2938.54 419.258 2951.99 415.118C2965.45 410.978 2980 412.352 2992.44 418.94L2991.8 419.895Z" fill="#2447F9"/>
<path opacity="0.8" d="M2991.8 419.895C3021.1 434.755 3048.59 450.357 3076.72 467.658C3090.41 476.362 3103.99 485.172 3117.47 494.724C3130.95 504.277 3144.33 514.042 3157.81 525.081L3162.8 529.22L3169.06 534.952C3172.79 538.291 3176.33 541.834 3179.67 545.566C3183.07 549.281 3185.94 552.89 3188.7 556.18C3191.45 559.471 3194.43 563.398 3196.87 566.794C3206.76 580.44 3215.9 594.613 3224.25 609.251C3240.7 637.637 3254.9 667.27 3266.71 697.879C3268.89 703.662 3269.01 710.022 3267.03 715.879C3265.05 721.736 3261.11 726.728 3255.87 730.005C3250.63 733.282 3244.41 734.643 3238.28 733.856C3232.15 733.069 3226.48 730.183 3222.24 725.688L3221.7 725.051C3200.48 702.443 3179.99 678.667 3159.4 656.484C3138.81 634.3 3117.9 611.798 3100.6 601.927C3076.5 586.961 3049.65 571.995 3023.01 557.348L2942.77 512.768C2930.32 506.181 2921.01 494.921 2916.87 481.465C2912.73 468.009 2914.1 453.459 2920.69 441.017C2927.28 428.574 2938.54 419.258 2951.99 415.118C2965.45 410.978 2980 412.352 2992.44 418.94L2991.8 419.895Z" fill="white"/>
<path d="M3291.86 750.843L3282.84 728.235C3282.84 728.235 3277.85 699.365 3259.92 691.298L3206.85 699.683L3208.65 704.353C3213.53 714.967 3209.82 734.391 3205.04 749.888C3200.26 765.384 3208.33 767.401 3215.12 764.323C3218.95 762.625 3222.66 755.726 3226.69 748.402C3228.67 752.091 3230.91 755.638 3233.38 759.016L3246.44 776.954C3249.16 780.671 3253.2 783.219 3257.72 784.085C3262.25 784.951 3266.94 784.072 3270.85 781.624L3285.28 772.39C3288.66 770.078 3291.15 766.685 3292.35 762.77C3293.55 758.854 3293.37 754.648 3291.86 750.843V750.843Z" fill="#2447F9"/>
<path opacity="0.8" d="M3291.86 750.843L3282.84 728.235C3282.84 728.235 3277.85 699.365 3259.92 691.298L3206.85 699.683L3208.65 704.353C3213.53 714.967 3209.82 734.391 3205.04 749.888C3200.26 765.384 3208.33 767.401 3215.12 764.323C3218.95 762.625 3222.66 755.726 3226.69 748.402C3228.67 752.091 3230.91 755.638 3233.38 759.016L3246.44 776.954C3249.16 780.671 3253.2 783.219 3257.72 784.085C3262.25 784.951 3266.94 784.072 3270.85 781.624L3285.28 772.39C3288.66 770.078 3291.15 766.685 3292.35 762.77C3293.55 758.854 3293.37 754.648 3291.86 750.843V750.843Z" fill="white"/>
<path opacity="0.3" d="M2947.01 541.957L2934.06 543.019L2854.56 734.922C2858.91 735.234 2863.28 734.876 2867.51 733.86C2867.51 733.86 2971.11 695.225 3002.42 680.79C2981.4 637.378 2947.01 541.957 2947.01 541.957Z" fill="#2447F9"/>
<path d="M2801.92 592.268C2811.58 642.433 2829.51 690.641 2854.99 734.922C2893.83 721.548 2958.58 696.286 2990 681.851C2968.88 636.581 2950.14 590.241 2933.85 543.019C2900.63 545.248 2827.71 573.163 2801.92 592.268Z" fill="white"/>
<path opacity="0.3" d="M2880.78 633.769C2879.23 638.96 2876.17 643.574 2872 647.027C2867.82 650.48 2862.72 652.617 2857.33 653.168C2851.94 653.719 2846.51 652.66 2841.72 650.123C2836.93 647.586 2833.01 643.687 2830.44 638.918C2827.87 634.149 2826.77 628.725 2827.28 623.332C2827.79 617.938 2829.9 612.819 2833.32 608.62C2836.74 604.421 2841.34 601.333 2846.51 599.745C2851.69 598.156 2857.23 598.14 2862.42 599.698C2869.37 601.785 2875.21 606.546 2878.65 612.934C2882.09 619.323 2882.86 626.816 2880.78 633.769V633.769Z" fill="#2447F9"/>
<path opacity="0.6" d="M2901.05 597.257C2900.64 599.029 2899.7 600.634 2898.36 601.862C2897.01 603.09 2895.33 603.884 2893.53 604.139C2891.73 604.394 2889.89 604.098 2888.26 603.29C2886.63 602.483 2885.28 601.201 2884.4 599.614C2883.51 598.026 2883.12 596.207 2883.28 594.395C2883.44 592.583 2884.15 590.863 2885.31 589.46C2886.47 588.057 2888.03 587.038 2889.77 586.535C2891.52 586.032 2893.38 586.07 2895.11 586.643C2897.26 587.331 2899.07 588.809 2900.17 590.779C2901.27 592.749 2901.59 595.064 2901.05 597.257Z" fill="#2447F9"/>
<path opacity="0.6" d="M2924.83 588.022C2924.58 589.254 2924.08 590.419 2923.35 591.445C2922.62 592.47 2921.69 593.333 2920.61 593.977C2919.54 594.622 2918.33 595.034 2917.09 595.188C2915.84 595.341 2914.58 595.233 2913.37 594.869C2912.17 594.505 2911.06 593.894 2910.11 593.076C2909.15 592.257 2908.38 591.248 2907.84 590.114C2907.3 588.98 2907 587.745 2906.97 586.49C2906.93 585.234 2907.16 583.985 2907.63 582.822C2907.97 581.698 2908.53 580.653 2909.28 579.746C2910.02 578.839 2910.94 578.088 2911.97 577.536C2913.01 576.984 2914.14 576.641 2915.31 576.528C2916.48 576.415 2917.66 576.534 2918.78 576.878C2921.05 577.566 2922.96 579.122 2924.09 581.208C2925.22 583.294 2925.49 585.742 2924.83 588.022V588.022Z" fill="#2447F9"/>
<path opacity="0.5" d="M2958.16 670.706L2859.98 709.448L2854.14 690.13L2952.21 651.389L2958.16 670.706Z" fill="#2447F9"/>
<path opacity="0.2" d="M2416.52 2145.86C2416.29 2207.66 2410.32 2269.31 2398.69 2330.01C2386.16 2384.57 2366.7 2424.48 2340.31 2449.74C2328.02 2461.94 2313.42 2471.58 2297.36 2478.08C2281.31 2484.59 2264.12 2487.84 2246.8 2487.63C2192.24 2487.63 2150.6 2457.88 2121.87 2398.37C2116.82 2387.68 2112.53 2376.65 2109.03 2365.36C2048.35 2417.47 1991.86 2474.25 1940.05 2535.18L1883.69 2601.63C1914.02 2632.37 1949.02 2658.13 1987.39 2677.94C2053.48 2712.12 2140.23 2729.25 2247.65 2729.32C2266.54 2729.32 2284.8 2728.79 2302.52 2727.72C2367.51 2631.57 2421.28 2528.29 2462.8 2419.91L2620.42 2008.94L2416.52 2145.86Z" fill="black"/>
<path d="M995.605 2706.6L1181.35 2892.35L1701.44 2402.29C1522.17 2333.83 1173.6 2528.18 995.605 2706.6Z" fill="#263238"/>
<path d="M1643.38 3354.06C1584.05 3294.62 1457.64 3168.32 1457.64 3168.32L1947.69 2648.22C2015.73 2827.07 1821.38 3175.96 1643.38 3354.06Z" fill="#263238"/>
<path d="M2354.32 2183.33L2556.94 1792.62L2166.24 1995.46C2040.74 2060.54 1924.87 2142.7 1821.92 2239.58L1155.88 2866.56L1483.11 3193.79L2110.09 2527.75C2207.02 2424.78 2289.21 2308.87 2354.32 2183.33V2183.33Z" fill="#2447F9"/>
<path opacity="0.6" d="M2354.32 2183.33L2556.94 1792.62L2166.24 1995.46C2040.74 2060.54 1924.87 2142.7 1821.92 2239.58L1155.88 2866.56L1483.11 3193.79L2110.09 2527.75C2207.02 2424.78 2289.21 2308.87 2354.32 2183.33V2183.33Z" fill="white"/>
<path d="M1938.25 2548.24C2013.87 2548.24 2075.17 2486.94 2075.17 2411.32C2075.17 2335.7 2013.87 2274.39 1938.25 2274.39C1862.63 2274.39 1801.32 2335.7 1801.32 2411.32C1801.32 2486.94 1862.63 2548.24 1938.25 2548.24Z" fill="white"/>
<path d="M1938.25 2499.31C1986.84 2499.31 2026.24 2459.91 2026.24 2411.32C2026.24 2362.72 1986.84 2323.33 1938.25 2323.33C1889.65 2323.33 1850.25 2362.72 1850.25 2411.32C1850.25 2459.91 1889.65 2499.31 1938.25 2499.31Z" fill="#2447F9"/>
<path opacity="0.3" d="M1593.82 3076.19L1273.38 2755.75L1535.76 2508.86L1840.7 2813.91L1593.82 3076.19Z" fill="#2447F9"/>
<path d="M1068.1 2999.76C828.22 3019.19 748.721 3172.77 721.548 3376.88C707.75 3481.01 701.594 3586.41 614.24 3647.33C608.985 3650.9 605.028 3656.08 602.962 3662.09C600.897 3668.1 600.833 3674.62 602.781 3680.66C604.73 3686.71 608.585 3691.97 613.769 3695.64C618.954 3699.31 625.189 3701.21 631.541 3701.04C953.573 3690.96 1103.76 3533.34 1122.66 3467.53C1117.7 3501.93 1108.83 3535.65 1096.23 3568.04C1093.91 3573.76 1093.46 3580.06 1094.93 3586.05C1096.4 3592.04 1099.73 3597.41 1104.44 3601.4C1109.14 3605.38 1114.98 3607.78 1121.13 3608.26C1127.28 3608.73 1133.42 3607.25 1138.68 3604.03C1229.01 3547.45 1342.37 3443.22 1349.9 3274.14C1283.46 3179.99 1068.1 2999.76 1068.1 2999.76Z" fill="#2447F9"/>
<path opacity="0.2" d="M1068.1 2999.76C828.22 3019.19 748.721 3172.77 721.548 3376.88C707.75 3481.01 701.594 3586.41 614.24 3647.33C608.985 3650.9 605.028 3656.08 602.962 3662.09C600.897 3668.1 600.833 3674.62 602.781 3680.66C604.73 3686.71 608.585 3691.97 613.769 3695.64C618.954 3699.31 625.189 3701.21 631.541 3701.04C953.573 3690.96 1103.76 3533.34 1122.66 3467.53C1117.7 3501.93 1108.83 3535.65 1096.23 3568.04C1093.91 3573.76 1093.46 3580.06 1094.93 3586.05C1096.4 3592.04 1099.73 3597.41 1104.44 3601.4C1109.14 3605.38 1114.98 3607.78 1121.13 3608.26C1127.28 3608.73 1133.42 3607.25 1138.68 3604.03C1229.01 3547.45 1342.37 3443.22 1349.9 3274.14C1283.46 3179.99 1068.1 2999.76 1068.1 2999.76Z" fill="white"/>
<path d="M1387.16 3346.63L1002.93 2962.4L1207.57 2918.14L1431.42 3141.99L1387.16 3346.63Z" fill="#2447F9"/>
</svg>
