<svg width="3410" height="2541" viewBox="0 0 3410 2541" fill="none" xmlns="http://www.w3.org/2000/svg">
<path d="M1704.78 2540.53C2434.99 2540.53 3026.94 2505.97 3026.94 2463.34C3026.94 2420.71 2434.99 2386.15 1704.78 2386.15C974.573 2386.15 382.621 2420.71 382.621 2463.34C382.621 2505.97 974.573 2540.53 1704.78 2540.53Z" fill="#F5F5F5"/>
<path d="M2374.08 411.602C2359.55 397.078 2331.6 342.047 2358.4 316.135C2385.19 290.222 2409.06 313.748 2410.9 326.363C2412.74 338.979 2407.83 445.289 2374.08 411.602Z" fill="#263238"/>
<path d="M2367.94 2391.13L2307.05 2391.67L2290.48 2250.93L2351.3 2250.38L2367.94 2391.13Z" fill="#FF8B7B"/>
<path d="M2306.98 2384.65L2373.4 2384.03C2374.62 2384.05 2375.81 2384.46 2376.79 2385.19C2377.77 2385.93 2378.49 2386.96 2378.85 2388.13L2394.95 2442.07C2395.37 2443.32 2395.49 2444.66 2395.29 2445.97C2395.09 2447.28 2394.58 2448.53 2393.8 2449.6C2393.01 2450.67 2391.98 2451.53 2390.79 2452.12C2389.61 2452.71 2388.29 2453 2386.97 2452.98C2363.03 2452.98 2328.25 2451.68 2298.32 2451.95C2263.13 2451.95 2247.45 2454.41 2206.12 2454.82C2181.17 2454.82 2172.03 2429.86 2182.6 2427.54C2229.45 2416.7 2253.65 2415.27 2292.86 2389.56C2296.99 2386.58 2301.9 2384.88 2306.98 2384.65V2384.65Z" fill="#263238"/>
<path opacity="0.2" d="M2290.48 2250.99L2299.07 2323.55L2359.9 2323L2351.37 2250.45L2290.48 2250.99Z" fill="black"/>
<path d="M2281.82 2395.49C2288.38 2395.37 2294.92 2394.57 2301.32 2393.1C2301.62 2393.06 2301.9 2392.91 2302.11 2392.69C2302.32 2392.47 2302.45 2392.18 2302.48 2391.88C2302.51 2391.58 2302.44 2391.29 2302.3 2391.03C2302.15 2390.77 2301.93 2390.57 2301.66 2390.44C2298.8 2389.01 2273.22 2376.81 2266.2 2381.1C2265.55 2381.52 2265.02 2382.09 2264.66 2382.77C2264.3 2383.46 2264.13 2384.22 2264.15 2384.99C2264.14 2386.3 2264.43 2387.6 2264.99 2388.78C2265.56 2389.96 2266.39 2391 2267.43 2391.81C2271.69 2394.58 2276.75 2395.87 2281.82 2395.49V2395.49ZM2296.41 2391.13C2283.25 2393.45 2273.22 2392.97 2269.13 2389.69C2268.42 2389.14 2267.86 2388.42 2267.49 2387.6C2267.12 2386.78 2266.96 2385.89 2267.02 2384.99C2266.98 2384.71 2267.02 2384.43 2267.14 2384.17C2267.26 2383.92 2267.46 2383.7 2267.7 2383.56C2271.52 2381.24 2285.98 2386.69 2296.41 2391.13V2391.13Z" fill="#2447F9"/>
<path d="M2301.05 2393.51C2301.37 2393.49 2301.68 2393.37 2301.93 2393.17C2302.14 2393.02 2302.29 2392.81 2302.38 2392.56C2302.46 2392.32 2302.47 2392.06 2302.41 2391.81C2302.41 2390.72 2297.64 2364.53 2283.18 2366.17C2279.36 2366.58 2278.27 2368.56 2278.07 2370.06C2277.04 2376.87 2292.66 2390.1 2300.43 2393.38L2301.05 2393.51ZM2284.41 2368.96C2293.14 2368.96 2297.5 2383.22 2299 2389.42C2290.95 2384.92 2280.32 2374.56 2280.93 2370.46C2280.93 2370.46 2280.93 2369.31 2283.52 2369.03L2284.41 2368.96Z" fill="#2447F9"/>
<path d="M2324.91 718.94L2318.64 725.759L2312.77 731.556C2308.89 735.374 2304.86 738.989 2300.84 742.534C2292.84 749.717 2284.66 756.536 2276.29 762.992C2259.41 776.408 2241.64 788.665 2223.1 799.679C2213.76 805.202 2204.15 810.453 2194.39 815.431C2184.64 820.409 2174.35 824.705 2163.98 829.069C2142.73 837.549 2120.58 843.611 2097.97 847.14L2092.93 847.89C2089.65 848.312 2086.34 848.517 2083.04 848.504C2075.44 848.433 2067.93 846.953 2060.88 844.139C2053.88 841.331 2047.47 837.237 2041.99 832.07C2037.62 827.902 2033.81 823.179 2030.67 818.022C2026.31 810.539 2023.03 802.482 2020.92 794.087C2019.26 787.585 2018.06 780.978 2017.3 774.312C2016.06 762.786 2015.72 751.181 2016.28 739.602C2016.76 728.555 2017.64 717.917 2018.87 707.484C2021.46 686.549 2025.14 666.569 2029.64 646.112C2034.15 625.655 2039.26 606.766 2045.87 586.99L2090.68 595.855C2089.04 634.179 2087.2 673.457 2088.43 710.553C2088.65 727.778 2090.48 744.946 2093.88 761.833C2094.55 764.952 2095.49 768.009 2096.68 770.97C2097.63 773.289 2098.79 774.721 2098.72 774.107C2098.33 773.068 2097.7 772.135 2096.88 771.379C2095.03 769.584 2092.85 768.151 2090.47 767.152C2088.02 766.121 2085.42 765.499 2082.77 765.31C2081.54 765.31 2080.99 765.31 2080.24 765.31H2080.99L2082.42 764.901C2098.58 760.752 2114.29 755.042 2129.34 747.853C2145.09 740.255 2160.33 731.645 2174.96 722.077C2189.76 712.258 2204.35 701.62 2218.4 690.368C2225.22 684.777 2232.38 678.912 2238.86 672.979L2248.81 663.978L2253.58 659.546L2257.74 655.591L2324.91 718.94Z" fill="#FF8B7B"/>
<path d="M2360.99 694.869C2358.67 630.565 2305.89 608.198 2239.74 652.045C2210.58 670.533 2182.51 690.683 2155.66 712.394L2198.42 849.731C2198.42 849.731 2280.25 823.751 2327.57 772.744C2359.42 738.102 2361.8 716.758 2360.99 694.869Z" fill="#263238"/>
<path opacity="0.2" d="M2280.45 722.282C2280.45 722.282 2240.97 778.744 2226.99 838.752C2246.4 830.475 2265.1 820.623 2282.91 809.294L2280.45 722.282Z" fill="black"/>
<path d="M2088.43 616.245L2111.34 564.487L2046.49 545.53C2046.49 545.53 2035.37 570.284 2041.71 612.767L2088.43 616.245Z" fill="#FF8B7B"/>
<path d="M2118.23 503.797L2061.83 510.548L2046.49 545.53L2111.34 564.487L2118.23 503.797Z" fill="#FF8B7B"/>
<path d="M2280.86 1161.02C2280.86 1161.02 2238.99 1511.94 2234.36 1699.74C2229.58 1894.83 2267.84 2288.36 2267.84 2288.36L2377.69 2286.04C2377.69 2286.04 2390.92 1864.76 2406.88 1671.71C2424.2 1461.27 2467.84 1157.21 2467.84 1157.21L2280.86 1161.02Z" fill="#2447F9"/>
<path opacity="0.6" d="M2280.86 1161.02C2280.86 1161.02 2238.99 1511.94 2234.36 1699.74C2229.58 1894.83 2267.84 2288.36 2267.84 2288.36L2377.69 2286.04C2377.69 2286.04 2390.92 1864.76 2406.88 1671.71C2424.2 1461.27 2467.84 1157.21 2467.84 1157.21L2280.86 1161.02Z" fill="white"/>
<path opacity="0.2" d="M2411.72 1260.38C2362.62 1368.6 2375.78 1610.34 2403.67 1713.99C2404.7 1698.92 2405.79 1684.67 2406.88 1671.5C2418.27 1532.8 2440.97 1353.53 2455.36 1247.35C2442 1227.99 2427.06 1226.49 2411.72 1260.38Z" fill="black"/>
<path d="M2391.19 2290.75L2262.04 2293.34L2252.49 2250.45L2389.63 2250.11L2391.19 2290.75Z" fill="#2447F9"/>
<path d="M2639.27 2391.13L2578.45 2391.67L2561.88 2250.93L2622.7 2250.38L2639.27 2391.13Z" fill="#FF8B7B"/>
<path d="M2578.31 2384.65L2644.8 2384.03C2646.02 2384.06 2647.2 2384.47 2648.18 2385.21C2649.16 2385.94 2649.88 2386.96 2650.25 2388.13L2666.35 2442.07C2666.76 2443.32 2666.86 2444.66 2666.66 2445.96C2666.45 2447.26 2665.94 2448.5 2665.16 2449.57C2664.38 2450.63 2663.35 2451.5 2662.17 2452.09C2660.99 2452.68 2659.69 2452.99 2658.37 2452.98C2634.36 2452.98 2599.66 2451.68 2569.72 2451.95C2534.53 2451.95 2518.78 2454.41 2477.52 2454.82C2452.57 2454.82 2443.43 2429.86 2454 2427.54C2500.78 2416.7 2524.99 2415.27 2564.26 2389.56C2568.37 2386.58 2573.25 2384.88 2578.31 2384.65V2384.65Z" fill="#263238"/>
<path opacity="0.2" d="M2561.88 2250.99L2570.4 2323.55L2631.3 2323L2622.77 2250.45L2561.88 2250.99Z" fill="black"/>
<path d="M2553.22 2395.49C2559.78 2395.36 2566.32 2394.56 2572.72 2393.1C2573.02 2393.06 2573.29 2392.91 2573.48 2392.69C2573.68 2392.46 2573.8 2392.18 2573.81 2391.88C2573.86 2391.59 2573.81 2391.3 2573.67 2391.04C2573.54 2390.78 2573.32 2390.57 2573.06 2390.44C2570.13 2389.01 2544.56 2376.81 2537.6 2381.1C2536.94 2381.51 2536.4 2382.08 2536.04 2382.76C2535.68 2383.45 2535.52 2384.22 2535.56 2384.99C2535.54 2386.29 2535.82 2387.58 2536.38 2388.77C2536.93 2389.95 2537.75 2390.99 2538.76 2391.81C2543.05 2394.57 2548.13 2395.86 2553.22 2395.49ZM2567.81 2391.13C2554.65 2393.45 2544.63 2392.97 2540.53 2389.69C2539.83 2389.13 2539.27 2388.42 2538.89 2387.6C2538.51 2386.78 2538.32 2385.89 2538.35 2384.99C2538.31 2384.71 2538.35 2384.43 2538.48 2384.17C2538.6 2383.92 2538.79 2383.7 2539.03 2383.56C2542.85 2381.24 2557.17 2386.69 2567.81 2391.13V2391.13Z" fill="#2447F9"/>
<path d="M2572.38 2393.51C2572.59 2393.51 2572.79 2393.45 2572.98 2393.36C2573.17 2393.27 2573.34 2393.14 2573.47 2392.98C2573.61 2392.82 2573.71 2392.63 2573.77 2392.43C2573.82 2392.23 2573.84 2392.02 2573.81 2391.81C2573.81 2390.72 2569.04 2364.53 2554.58 2366.17C2550.76 2366.58 2549.67 2368.56 2549.4 2370.06C2548.44 2376.87 2564.06 2390.1 2571.83 2393.38L2572.38 2393.51ZM2555.81 2368.96C2564.47 2368.96 2568.9 2383.22 2570.4 2389.42C2562.36 2384.92 2551.65 2374.56 2552.26 2370.46C2552.26 2370.46 2552.26 2369.31 2554.85 2369.03L2555.81 2368.96Z" fill="#2447F9"/>
<path d="M2388.06 1158.71C2388.06 1158.71 2418.4 1536.28 2440.57 1722.58C2463.55 1916.38 2539.24 2288.16 2539.24 2288.16L2649.09 2285.84C2649.09 2285.84 2618.95 1863.74 2607.29 1670.35C2594.54 1459.29 2591.27 1154.07 2591.27 1154.07L2388.06 1158.71Z" fill="#2447F9"/>
<path opacity="0.6" d="M2388.06 1158.71C2388.06 1158.71 2418.4 1536.28 2440.57 1722.58C2463.55 1916.38 2539.24 2288.16 2539.24 2288.16L2649.09 2285.84C2649.09 2285.84 2618.95 1863.74 2607.29 1670.35C2594.54 1459.29 2591.27 1154.07 2591.27 1154.07L2388.06 1158.71Z" fill="white"/>
<path d="M2662.6 2290.75L2533.37 2293.34L2523.9 2250.45L2661.03 2250.11L2662.6 2290.75Z" fill="#2447F9"/>
<path d="M2273.29 635.201C2273.29 635.201 2228.35 801.997 2280.86 1161.02C2378.92 1158.91 2543.6 1155.09 2591.27 1154.21C2592.5 1104.22 2555.6 859.141 2598.77 622.859C2567.72 617.497 2536.31 614.442 2504.8 613.721C2458.69 612.037 2412.51 613.039 2366.51 616.722C2335 620.449 2303.84 626.628 2273.29 635.201V635.201Z" fill="#263238"/>
<path opacity="0.2" d="M2579.95 791.019L2529.15 748.945C2532.49 781.813 2562.22 862.347 2577.9 903.125C2577.63 867.393 2577.97 829.683 2579.95 791.019Z" fill="black"/>
<path d="M2398.22 731.897L2342.78 841.616C2341.61 843.92 2341.2 846.536 2341.61 849.088C2342.02 851.639 2343.23 853.994 2345.07 855.814C2346.9 857.634 2349.27 858.824 2351.82 859.214C2354.37 859.604 2356.99 859.172 2359.28 857.982L2395.49 838.07C2397.46 837.012 2399.69 836.527 2401.92 836.672C2404.15 836.816 2406.29 837.585 2408.11 838.889L2443.77 864.597C2445.82 866.087 2448.29 866.878 2450.82 866.854C2453.36 866.829 2455.82 865.99 2457.83 864.461C2459.85 862.931 2461.33 860.792 2462.04 858.361C2462.75 855.929 2462.65 853.334 2461.77 850.958L2420.11 733.806C2419.38 731.577 2418.02 729.611 2416.19 728.153C2414.35 726.695 2412.13 725.808 2409.8 725.605C2407.46 725.401 2405.12 725.889 2403.06 727.008C2401 728.127 2399.32 729.827 2398.22 731.897Z" fill="white"/>
<path d="M2487.75 457.973C2479.98 502.706 2473.02 584.399 2504.8 613.381C2504.8 613.381 2495.53 653.886 2410.9 667.934C2354.03 649.658 2366.51 616.654 2366.51 616.654C2415.88 603.697 2413.77 566.942 2404.42 532.574L2487.75 457.973Z" fill="#FF8B7B"/>
<path opacity="0.2" d="M2453.79 488.317L2404.42 532.233C2406.72 540.239 2408.32 548.43 2409.2 556.713C2428.15 553.576 2453.73 532.164 2455.29 512.321C2456.26 504.295 2455.75 496.16 2453.79 488.317V488.317Z" fill="black"/>
<path d="M2514.83 402.942C2498.39 461.041 2491.78 495.887 2455.5 519.686C2400.95 555.418 2334.05 512.867 2332.76 450.881C2331.53 395.237 2358.53 309.52 2421.4 298.61C2435.21 296.16 2449.42 297.277 2462.68 301.854C2475.94 306.432 2487.8 314.319 2497.16 324.768C2506.52 335.216 2513.05 347.881 2516.14 361.562C2519.23 375.242 2518.78 389.486 2514.83 402.942V402.942Z" fill="#FF8B7B"/>
<path d="M2479.84 438.538C2472.21 419.99 2466.68 358.891 2498.53 343.889C2530.37 328.886 2563.45 365.505 2555.06 382.826C2542.17 409.693 2497.57 481.498 2479.84 438.538Z" fill="#263238"/>
<path d="M2498.87 365.437C2491.03 344.979 2397.54 333.387 2384.44 311.361C2368.9 285.176 2432.66 282.039 2476.5 295.336C2515.03 307.065 2540.74 318.385 2536.24 347.025C2533.71 363.255 2498.87 365.437 2498.87 365.437Z" fill="#263238"/>
<path d="M2519.19 344.366C2519.19 344.366 2539.65 349.958 2550.83 334.956C2547.28 349.821 2529.9 364.823 2519.19 344.366Z" fill="#263238"/>
<path d="M2425.56 281.289C2397.47 259.468 2359.21 285.108 2362.83 313.543C2366.44 341.979 2461.16 363.596 2461.16 363.596C2461.16 363.596 2462.86 310.27 2425.56 281.289Z" fill="#263238"/>
<path d="M2362.9 313.68C2367.19 333.592 2381.72 349.207 2411.11 360.8C2394.1 348.222 2381.21 330.871 2374.08 310.952L2362.9 313.68Z" fill="#263238"/>
<path d="M2421.88 400.01C2420.86 404.851 2417.52 408.193 2414.38 407.511C2411.24 406.829 2409.54 402.328 2410.56 397.555C2411.58 392.782 2414.99 389.44 2418.13 390.122C2421.27 390.804 2422.97 395.509 2421.88 400.01Z" fill="#263238"/>
<path d="M2367.74 388.281C2366.65 393.054 2363.3 396.396 2360.17 395.714C2357.03 395.032 2355.33 390.6 2356.35 385.826C2357.37 381.053 2360.78 377.711 2363.92 378.325C2367.06 378.939 2368.76 383.508 2367.74 388.281Z" fill="#263238"/>
<path d="M2384.44 394.418C2375.54 407.832 2364.83 419.949 2352.6 430.423C2359.42 440.174 2374.62 439.697 2374.62 439.697L2384.44 394.418Z" fill="#FF5652"/>
<path d="M2385.67 455.995C2392.07 457.585 2398.77 457.603 2405.18 456.048C2411.59 454.493 2417.53 451.409 2422.49 447.062C2422.63 446.928 2422.74 446.769 2422.81 446.594C2422.89 446.418 2422.92 446.229 2422.92 446.039C2422.92 445.848 2422.89 445.66 2422.81 445.484C2422.74 445.309 2422.63 445.149 2422.49 445.016C2422.22 444.757 2421.85 444.613 2421.47 444.613C2421.09 444.613 2420.73 444.757 2420.45 445.016C2415.79 448.935 2410.28 451.71 2404.36 453.119C2398.44 454.528 2392.28 454.532 2386.35 453.131C2385.97 453.049 2385.58 453.122 2385.25 453.333C2384.92 453.544 2384.7 453.876 2384.61 454.256C2384.53 454.636 2384.61 455.032 2384.82 455.358C2385.03 455.685 2385.36 455.913 2385.74 455.995H2385.67Z" fill="#263238"/>
<path d="M2442 386.099C2442.52 386.203 2443.06 386.163 2443.56 385.983C2444.07 385.802 2444.51 385.488 2444.85 385.074C2445.18 384.66 2445.4 384.162 2445.48 383.634C2445.55 383.105 2445.48 382.567 2445.27 382.076C2443.43 377.876 2440.61 374.175 2437.05 371.282C2433.5 368.388 2429.3 366.384 2424.81 365.437C2424.06 365.339 2423.29 365.541 2422.68 365.999C2422.07 366.458 2421.66 367.137 2421.54 367.892C2421.48 368.263 2421.5 368.643 2421.59 369.009C2421.67 369.374 2421.83 369.719 2422.06 370.023C2422.28 370.327 2422.56 370.584 2422.88 370.78C2423.2 370.976 2423.55 371.107 2423.93 371.165V371.165C2427.46 371.942 2430.77 373.555 2433.55 375.868C2436.34 378.182 2438.53 381.128 2439.95 384.462C2440.14 384.875 2440.43 385.238 2440.78 385.522C2441.14 385.806 2441.55 386.003 2442 386.099V386.099Z" fill="#263238"/>
<path d="M2347.96 364.482C2348.5 364.63 2349.06 364.612 2349.59 364.429C2350.11 364.246 2350.57 363.908 2350.89 363.459C2353.05 360.563 2355.86 358.214 2359.1 356.603C2362.33 354.992 2365.9 354.164 2369.51 354.185C2370.27 354.258 2371.03 354.025 2371.62 353.539C2372.2 353.053 2372.57 352.354 2372.65 351.594C2372.72 350.835 2372.49 350.077 2372 349.489C2371.51 348.901 2370.82 348.53 2370.06 348.457C2365.48 348.322 2360.94 349.292 2356.82 351.287C2352.7 353.281 2349.12 356.241 2346.39 359.913C2346.15 360.205 2345.97 360.543 2345.86 360.906C2345.76 361.27 2345.72 361.651 2345.77 362.027C2345.81 362.404 2345.93 362.767 2346.12 363.095C2346.31 363.423 2346.57 363.71 2346.87 363.937C2347.18 364.21 2347.56 364.398 2347.96 364.482V364.482Z" fill="#263238"/>
<path d="M2613.63 669.365C2626.05 691.05 2636.41 712.053 2647.18 733.67C2657.96 755.286 2667.64 777.039 2676.85 799.27C2686.05 821.5 2694.99 844.071 2702.76 867.461C2710.84 890.787 2717.67 914.529 2723.22 938.584L2727.38 957.2C2729.2 965.943 2729.97 974.87 2729.7 983.795C2729.12 1000.38 2725.44 1016.71 2718.85 1031.94C2707.28 1057.6 2690.81 1080.76 2670.37 1100.13C2652.14 1117.73 2632.27 1133.55 2611.04 1147.39C2600.75 1154.21 2590.11 1160.48 2579.4 1166.48C2568.7 1172.48 2558.06 1178 2546.13 1183.25L2523.49 1143.64C2531.74 1136.82 2540.81 1130 2549.26 1122.63C2557.72 1115.27 2565.97 1107.77 2574.15 1100.27C2589.95 1085.61 2604.61 1069.76 2618 1052.87C2629.9 1038.39 2639.14 1021.9 2645.28 1004.18C2647.39 997.583 2648.22 990.64 2647.73 983.727C2647.53 980.947 2647 978.2 2646.16 975.544L2641.52 960.269C2627.75 917.9 2611.35 876.428 2592.43 836.093C2583.09 815.635 2573.13 795.178 2563.17 774.721C2553.22 754.263 2542.72 733.806 2532.56 714.371L2613.63 669.365Z" fill="#FF8B7B"/>
<path d="M2601.09 623.2C2657.96 635.474 2697.51 783.858 2697.51 783.858L2595.84 876.121C2563.51 840.158 2538.08 798.549 2520.83 753.377C2493.89 679.117 2540.26 609.971 2601.09 623.2Z" fill="#263238"/>
<path d="M2535.83 1136.61L2470.43 1137.29L2511.35 1203.23C2511.35 1203.23 2557.92 1191.71 2562.08 1168.32L2535.83 1136.61Z" fill="#FF8B7B"/>
<path d="M2429.72 1176.23L2465.8 1229.15L2511.01 1203.23L2470.43 1137.29L2429.72 1176.23Z" fill="#FF8B7B"/>
<path d="M2532.69 456.131C2525.43 469.499 2513.17 479.452 2498.6 483.817C2479.23 489.477 2469.34 472.224 2474.52 453.881C2479.23 437.379 2494.98 414.535 2514.35 416.921C2533.71 419.308 2541.35 439.697 2532.69 456.131Z" fill="#FF8B7B"/>
<path d="M1953.09 1584.4L1880.38 1589.68L1880.88 1596.48L1953.58 1591.2L1953.09 1584.4Z" fill="#2447F9"/>
<path d="M2018.42 1579.69L1982.71 1582.28L1983.21 1589.08L2018.91 1586.49L2018.42 1579.69Z" fill="#2447F9"/>
<path d="M2332.14 779.222L1128.16 866.029C1103.1 867.984 1079.82 879.742 1063.38 898.751C1046.94 917.76 1038.65 942.487 1040.33 967.566L1081.24 1535.05C1083.18 1560.15 1094.95 1583.46 1113.99 1599.93C1133.03 1616.39 1157.8 1624.66 1182.91 1622.95L1251.11 1618.04C1256.06 1617.69 1260.95 1619.31 1264.71 1622.56C1268.47 1625.8 1270.79 1630.41 1271.15 1635.36L1278.79 1740.51C1278.92 1742.55 1279.65 1744.5 1280.89 1746.12C1282.13 1747.74 1283.83 1748.95 1285.77 1749.59C1287.7 1750.24 1289.79 1750.29 1291.75 1749.74C1293.72 1749.19 1295.47 1748.07 1296.79 1746.51L1410.95 1614.56C1415.75 1609.04 1422.53 1605.63 1429.83 1605.09L2386.69 1536.14C2411.76 1534.21 2435.06 1522.46 2451.52 1503.44C2467.97 1484.43 2476.27 1459.7 2474.59 1434.61L2433.68 867.12C2431.74 842.05 2419.99 818.756 2400.98 802.299C2381.97 785.841 2357.23 777.548 2332.14 779.222V779.222Z" fill="#2447F9"/>
<path d="M1304.02 1126.52L1369.08 1121.81L1374.39 1195.46L1445.45 1190.35L1440.13 1116.7L1505.46 1111.93L1520.67 1322.37L1455.34 1327.07L1449.2 1241.97L1378.15 1247.15L1384.28 1332.25L1319.3 1336.96L1304.02 1126.52Z" fill="white"/>
<path opacity="0.2" d="M1128.16 866.029C1103.1 867.984 1079.82 879.742 1063.38 898.751C1046.94 917.76 1038.65 942.487 1040.33 967.566L1081.24 1535.05C1083.18 1560.15 1094.95 1583.46 1113.99 1599.93C1133.03 1616.39 1157.8 1624.66 1182.91 1622.95L1192.94 1622.2C1209.59 1621 1225.39 1614.33 1237.86 1603.23C1250.34 1592.14 1258.81 1577.23 1261.95 1560.83L1399.08 846.458L1128.16 866.029Z" fill="black"/>
<path d="M1724.76 1245.58L1607.61 1254.04C1608.51 1261.63 1611.69 1268.76 1616.75 1274.49C1619.64 1277.54 1623.21 1279.88 1627.16 1281.32C1631.11 1282.77 1635.34 1283.28 1639.52 1282.81C1645.27 1282.4 1650.81 1280.53 1655.62 1277.36C1659.38 1274.51 1662.59 1271 1665.09 1266.99L1723.06 1268.15C1716.75 1282.44 1706.51 1294.65 1693.53 1303.34C1681.62 1310.89 1664.03 1315.43 1640.75 1316.98C1624.48 1318.87 1607.99 1317.13 1592.47 1311.86C1580.03 1306.64 1569.36 1297.95 1561.72 1286.84C1552.96 1274.18 1547.92 1259.32 1547.19 1243.94C1545.97 1233.27 1547.01 1222.45 1550.23 1212.2C1553.44 1201.95 1558.78 1192.48 1565.88 1184.41C1580.06 1168.59 1600.52 1159.71 1627.25 1157.75C1644.94 1155.65 1662.89 1157.75 1679.62 1163.89C1692.43 1169.36 1703.22 1178.68 1710.51 1190.55C1718.85 1205.3 1723.53 1221.83 1724.15 1238.76L1724.76 1245.58ZM1663.39 1221.85C1662.56 1212.98 1658.74 1204.66 1652.55 1198.26C1649.43 1195.86 1645.85 1194.12 1642.04 1193.17C1638.22 1192.21 1634.25 1192.04 1630.37 1192.68C1626.49 1193.32 1622.78 1194.75 1619.48 1196.88C1616.17 1199.01 1613.34 1201.8 1611.16 1205.08C1607.52 1211.49 1605.68 1218.77 1605.84 1226.15L1663.39 1221.85Z" fill="white"/>
<path d="M1742.83 1094.81L1801.41 1090.58L1816.62 1300.95L1758.04 1305.18L1742.83 1094.81Z" fill="white"/>
<path d="M1840.69 1087.72L1899.26 1083.49L1914.47 1293.86L1855.96 1298.09L1840.69 1087.72Z" fill="white"/>
<path d="M1939.15 1215.92C1938.05 1205.25 1939.2 1194.46 1942.54 1184.26C1945.87 1174.06 1951.32 1164.68 1958.52 1156.73C1973.11 1140.5 1993.78 1131.41 2020.51 1129.45C2050.97 1127.27 2074.65 1134.45 2091.56 1151C2105.61 1165.81 2113.72 1185.27 2114.37 1205.68C2115.01 1226.08 2108.13 1246.01 2095.04 1261.67C2080.58 1277.77 2059.63 1286.86 2032.17 1288.95C2010.84 1291.51 1989.29 1286.44 1971.34 1274.63C1961.8 1268.01 1953.92 1259.25 1948.33 1249.07C1942.75 1238.88 1939.61 1227.53 1939.15 1215.92V1215.92ZM1997.73 1211.55C1997.62 1222.32 2001.32 1232.78 2008.16 1241.08C2010.93 1243.91 2014.27 1246.1 2017.96 1247.51C2021.66 1248.92 2025.61 1249.51 2029.56 1249.23C2033.5 1248.96 2037.34 1247.83 2040.8 1245.93C2044.27 1244.03 2047.28 1241.4 2049.62 1238.22C2055.14 1228.72 2057.21 1217.62 2055.49 1206.78C2055.56 1196.23 2051.91 1186 2045.19 1177.87C2042.57 1174.99 2039.31 1172.75 2035.68 1171.33C2032.05 1169.91 2028.14 1169.35 2024.26 1169.68C2020.21 1169.87 2016.25 1170.99 2012.71 1172.96C2009.16 1174.92 2006.11 1177.67 2003.8 1181C1998.31 1190.18 1996.25 1201.01 1998 1211.55H1997.73Z" fill="white"/>
<path d="M2132.82 1066.58L2195.21 1062.08L2198.69 1109.81L2193.58 1206.99L2154.98 1209.78L2136.23 1114.31L2132.82 1066.58ZM2146.46 1225.33L2204.69 1221.1L2208.44 1272.65L2150.14 1276.81L2146.46 1225.33Z" fill="white"/>
<path d="M1111.52 679.185C1111.21 689.167 1111.74 699.158 1113.09 709.053C1051.29 729.688 985.397 734.908 921.128 724.26C924.213 712.595 926.087 700.644 926.719 688.595C924.57 700.728 920.348 712.4 914.24 723.1C902.102 720.782 895.283 718.804 895.283 718.804C895.283 718.804 907.694 651.704 885.327 602.879C862.96 554.054 874.144 526.778 891.055 519.072C922.423 422.65 1040.33 437.856 1080.22 476.998C1130.82 526.641 1131.09 666.501 1140.09 698.483C1132.66 701.688 1125.36 704.62 1118.06 707.212C1114.41 698.276 1112.2 688.815 1111.52 679.185V679.185Z" fill="#263238"/>
<path d="M1160.27 829.274L1166.41 848.708C1168.66 855.528 1170.91 862.347 1173.23 868.825C1177.8 882.463 1182.57 896.101 1187.69 909.194C1192.8 922.287 1197.71 936.061 1203.03 949.427L1210.94 969.884L1212.92 974.93L1213.4 976.09C1212.55 975.352 1211.58 974.774 1210.53 974.385C1209.03 973.839 1208.42 974.385 1209.37 974.385C1211.01 974.378 1212.65 974.125 1214.21 973.635C1219.55 971.945 1224.67 969.657 1229.49 966.816C1241.12 960.039 1252.24 952.428 1262.77 944.04C1273.81 935.448 1284.66 926.242 1295.29 916.763C1305.93 907.285 1316.64 897.397 1326.93 887.714L1347.87 905.444C1339.14 917.991 1329.93 929.447 1320.59 941.108C1311.25 952.768 1300.75 963.679 1289.97 974.521C1278.88 985.841 1266.81 996.155 1253.9 1005.34C1246.51 1010.52 1238.58 1014.86 1230.24 1018.3C1224.95 1020.42 1219.4 1021.84 1213.74 1022.53C1206.05 1023.49 1198.25 1022.43 1191.1 1019.46C1183.3 1016.14 1176.66 1010.59 1172 1003.5C1170.98 1001.93 1170.03 1000.37 1169.28 998.934L1167.43 995.251L1164.98 990.274C1161.77 983.454 1158.16 976.635 1155.36 970.225C1149.16 956.587 1142.95 942.949 1137.29 929.311C1131.63 915.672 1126.11 901.625 1120.86 887.577C1118.4 880.758 1115.95 873.326 1113.63 866.165C1111.31 859.005 1109.06 851.982 1106.81 843.594L1160.27 829.274Z" fill="#FFC3BD"/>
<path d="M1144.11 768.72C1167.64 774.721 1184.07 871.416 1184.07 871.416L1119.29 915.468C1119.29 915.468 1057.24 817.886 1075.31 792.042C1094.13 765.174 1109.81 759.992 1144.11 768.72Z" fill="#2447F9"/>
<path d="M1144.11 768.72C1167.64 774.721 1184.07 871.416 1184.07 871.416L1119.29 915.468C1119.29 915.468 1057.24 817.886 1075.31 792.042C1094.13 765.174 1109.81 759.992 1144.11 768.72Z" fill="#2447F9"/>
<path opacity="0.4" d="M1144.11 768.72C1167.64 774.721 1184.07 871.416 1184.07 871.416L1119.29 915.468C1119.29 915.468 1057.24 817.886 1075.31 792.042C1094.13 765.174 1109.81 759.992 1144.11 768.72Z" fill="white"/>
<path opacity="0.3" d="M1142 790.337L1160.07 887.782L1123.66 912.467L1142 790.337Z" fill="black"/>
<path d="M1325.84 890.033L1347.46 837.935L1374.12 890.033C1374.12 890.033 1356.8 915.945 1333.96 909.604L1325.84 890.033Z" fill="#FFC3BD"/>
<path d="M1371.26 832.547L1405.49 846.322L1374.12 890.033L1347.39 837.935L1371.26 832.547Z" fill="#FFC3BD"/>
<path d="M1016.94 2396.58H1074.01L1077.83 2264.5H1020.76L1016.94 2396.58Z" fill="#FFC3BD"/>
<path d="M634.247 2226.44L686.686 2248.81L755.355 2134.52L702.847 2112.16L634.247 2226.44Z" fill="#FFC3BD"/>
<path d="M696.778 2241.04L642.225 2207.49C641.293 2206.89 640.171 2206.65 639.076 2206.83C637.982 2207.01 636.99 2207.58 636.293 2208.44L603.493 2247.79C602.677 2248.82 602.09 2250.01 601.774 2251.29C601.457 2252.56 601.416 2253.89 601.655 2255.18C601.894 2256.47 602.407 2257.7 603.159 2258.78C603.911 2259.85 604.885 2260.76 606.016 2261.43C625.246 2272.81 635.065 2277.32 659.069 2292.04C673.866 2301.18 694.46 2315.91 714.849 2328.46C735.238 2341.01 748.945 2321.64 741.375 2314.48C708.303 2282.91 709.257 2267.9 703.052 2249.22C702.021 2245.82 699.791 2242.92 696.778 2241.04V2241.04Z" fill="#263238"/>
<path d="M1075.92 2389.97H1011.89C1010.79 2389.96 1009.72 2390.34 1008.88 2391.06C1008.04 2391.77 1007.49 2392.76 1007.32 2393.85L1000.02 2444.59C999.847 2445.89 999.953 2447.21 1000.34 2448.47C1000.72 2449.73 1001.37 2450.88 1002.25 2451.86C1003.12 2452.84 1004.2 2453.62 1005.41 2454.14C1006.61 2454.66 1007.92 2454.92 1009.23 2454.89C1031.6 2454.54 1042.37 2453.18 1070.6 2453.18C1087.92 2453.18 1123.79 2455.02 1147.73 2455.02C1171.66 2455.02 1172.89 2431.36 1162.93 2429.18C1118.27 2419.56 1100.68 2406.33 1085.6 2393.72C1082.94 2391.34 1079.5 2390.01 1075.92 2389.97V2389.97Z" fill="#263238"/>
<path opacity="0.2" d="M1077.76 2264.56L1075.85 2332.62H1018.78L1020.76 2264.56H1077.76Z" fill="black"/>
<path opacity="0.2" d="M702.847 2112.22L755.286 2134.52L719.895 2193.44L667.456 2171.07L702.847 2112.22Z" fill="black"/>
<path d="M1144.11 768.72C1144.11 768.72 1171.39 778.267 1116.84 1112.88H884.986C888.873 1018.64 889.01 960.542 844.071 767.084C876.491 760.384 909.355 756.054 942.403 754.127C977.431 751.601 1012.59 751.601 1047.62 754.127C1092.9 758.219 1144.11 768.72 1144.11 768.72Z" fill="#2447F9"/>
<path opacity="0.4" d="M1144.11 768.72C1144.11 768.72 1171.39 778.267 1116.84 1112.88H884.986C888.873 1018.64 889.01 960.542 844.071 767.084C876.491 760.384 909.355 756.054 942.403 754.127C977.431 751.601 1012.59 751.601 1047.62 754.127C1092.9 758.219 1144.11 768.72 1144.11 768.72Z" fill="white"/>
<path d="M942.54 754.059C977.57 751.6 1012.73 751.6 1047.76 754.059C1053.42 754.605 1059.21 755.218 1064.94 755.9C1067.33 759.484 1068.86 763.567 1069.41 767.836C1069.97 772.104 1069.54 776.443 1068.15 780.517C1060.72 798.861 1034.05 800.975 1014.69 800.975C943.017 800.975 930.879 759.105 930.402 757.332L929.72 754.809L942.54 754.059Z" fill="white"/>
<path d="M952.973 635.679C959.792 669.775 966.27 731.556 942.54 754.127C942.54 754.127 951.814 788.223 1014.69 788.223C1083.83 788.223 1047.76 754.127 1047.76 754.127C1009.98 745.126 1011 717.1 1017.55 690.846L952.973 635.679Z" fill="#FFC3BD"/>
<path d="M959.86 611.607C951.745 638.407 962.997 701.824 979.704 726.373C946.767 707.484 935.652 649.931 935.652 649.931L959.86 611.607Z" fill="#263238"/>
<path opacity="0.2" d="M979.295 658.182L1017.55 690.778C1015.87 696.888 1014.78 703.144 1014.28 709.462C999.889 707.348 980.181 691.528 978.545 676.457C977.697 670.37 977.952 664.18 979.295 658.182V658.182Z" fill="black"/>
<path d="M921.741 575.262C934.97 630.292 939.335 653.886 972.476 677.549C1022.32 713.076 1087.04 684.845 1090.51 626.951C1093.65 574.852 1071.56 493.637 1013.25 481.089C1000.41 478.253 987.05 478.747 974.448 482.524C961.847 486.301 950.419 493.236 941.251 502.67C932.083 512.105 925.478 523.726 922.064 536.431C918.649 549.135 918.538 562.502 921.741 575.262V575.262Z" fill="#FFC3BD"/>
<path d="M1116.9 1112.88C1116.9 1112.88 1161.84 1552.17 1157.82 1726.06C1153.93 1906.9 1087.65 2319.32 1087.65 2319.32H1010.59C1010.59 2319.32 1022.8 1917.33 1015.98 1739.7C1008.55 1546.03 947.04 1112.75 947.04 1112.75L1116.9 1112.88Z" fill="#2447F9"/>
<path opacity="0.4" d="M1116.9 1112.88C1116.9 1112.88 1161.84 1552.17 1157.82 1726.06C1153.93 1906.9 1087.65 2319.32 1087.65 2319.32H1010.59C1010.59 2319.32 1022.8 1917.33 1015.98 1739.7C1008.55 1546.03 947.04 1112.75 947.04 1112.75L1116.9 1112.88Z" fill="black"/>
<path d="M1004.18 2322.19H1094.61L1101.29 2293.34L999.957 2289.79L1004.18 2322.19Z" fill="#2447F9"/>
<path opacity="0.2" d="M1017 1222.19C1073.88 1336.62 1028.39 1545.35 1008.28 1623.02C997.979 1506.41 980.59 1363.89 967.02 1259.08C975.612 1200.17 990.751 1169.41 1017 1222.19Z" fill="black"/>
<path d="M1055.74 1112.88C1055.74 1112.88 1003.23 1569.76 963.611 1716.17C916.627 1890.26 737.761 2186.69 737.761 2186.69L666.229 2156.28C666.229 2156.28 776.903 1819.68 812.908 1727.97C889.623 1532.26 823.955 1240.6 885.259 1112.88H1055.74Z" fill="#2447F9"/>
<path opacity="0.4" d="M1055.74 1112.88C1055.74 1112.88 1003.23 1569.76 963.611 1716.17C916.627 1890.26 737.761 2186.69 737.761 2186.69L666.229 2156.28C666.229 2156.28 776.903 1819.68 812.908 1727.97C889.623 1532.26 823.955 1240.6 885.259 1112.88H1055.74Z" fill="black"/>
<path d="M656.341 2156.48L745.126 2194.26L766.47 2170.39L664.047 2121.23L656.341 2156.48Z" fill="#2447F9"/>
<path d="M1009.23 576.012C1010.05 580.512 1013.05 583.786 1016.05 583.24C1019.05 582.695 1020.76 578.603 1019.94 574.103C1019.12 569.602 1016.12 566.329 1013.12 566.806C1010.12 567.283 1008.07 571.443 1009.23 576.012Z" fill="#263238"/>
<path d="M1060.1 567.01C1060.85 571.511 1063.92 574.784 1066.92 574.239C1069.92 573.693 1071.69 569.602 1070.88 565.101C1070.06 560.6 1067.06 557.327 1064.06 557.805C1061.06 558.282 1059.28 562.441 1060.1 567.01Z" fill="#263238"/>
<path d="M1062.76 558.35L1073.06 553.236C1073.06 553.236 1068.97 562.714 1062.76 558.35Z" fill="#263238"/>
<path d="M1047.9 577.171C1053.75 586.795 1060.91 595.562 1069.17 603.22C1067.15 605.269 1064.7 606.854 1062.01 607.866C1059.31 608.879 1056.43 609.294 1053.56 609.084L1047.9 577.171Z" fill="#ED847E"/>
<path d="M1033.03 630.428C1035.61 630.424 1038.19 630.196 1040.74 629.747C1040.93 629.739 1041.12 629.689 1041.29 629.601C1041.47 629.514 1041.62 629.39 1041.74 629.238C1041.87 629.086 1041.95 628.909 1042 628.72C1042.05 628.532 1042.06 628.335 1042.02 628.143C1041.99 627.951 1041.91 627.769 1041.8 627.608C1041.69 627.448 1041.55 627.313 1041.38 627.213C1041.21 627.113 1041.03 627.05 1040.83 627.028C1040.64 627.007 1040.44 627.027 1040.26 627.087C1034.64 628.206 1028.84 627.98 1023.33 626.427C1017.82 624.875 1012.75 622.04 1008.55 618.154C1008.29 617.904 1007.95 617.764 1007.59 617.764C1007.24 617.764 1006.89 617.904 1006.64 618.154C1006.51 618.275 1006.4 618.423 1006.33 618.587C1006.26 618.752 1006.22 618.929 1006.22 619.109C1006.22 619.288 1006.26 619.466 1006.33 619.63C1006.4 619.794 1006.51 619.942 1006.64 620.063C1013.76 626.813 1023.22 630.531 1033.03 630.428Z" fill="#263238"/>
<path d="M941.039 543.007C942.531 557.508 944.807 571.918 947.859 586.172C947.859 586.172 981.954 543.007 987.614 519.89C986.261 528.992 983.621 537.855 979.772 546.212C979.772 546.212 1025.66 536.188 1030.17 505.911C1030.09 519.466 1028.58 532.974 1025.66 546.212C1025.66 546.212 1069.44 529.028 1065.42 499.979C1061.4 470.929 994.16 459.678 963.133 469.497C932.106 479.317 901.761 511.162 910.899 554.941C920.037 598.72 937.562 615.154 937.562 615.154C937.562 615.154 924.946 571.034 941.039 543.007Z" fill="#263238"/>
<path d="M919.355 616.722C923.564 626.823 931.607 634.842 941.721 639.02C955.36 644.476 963.474 632.815 961.088 619.313C958.974 607.107 949.359 589.65 935.243 589.923C932.154 590.059 929.148 590.963 926.497 592.553C923.845 594.142 921.63 596.367 920.054 599.027C918.477 601.686 917.587 604.696 917.465 607.786C917.343 610.875 917.993 613.946 919.355 616.722V616.722Z" fill="#FFC3BD"/>
<path d="M949.291 522.004C942.471 549.281 956.655 612.017 974.521 635.679C940.426 618.427 926.787 561.419 926.787 561.419L949.291 522.004Z" fill="#263238"/>
<path d="M990.546 560.464C990.897 560.358 991.222 560.183 991.503 559.948C991.784 559.714 992.016 559.426 992.183 559.1C993.62 556.024 995.766 553.333 998.445 551.246C1001.12 549.16 1004.26 547.739 1007.59 547.099C1008.3 546.997 1008.94 546.63 1009.38 546.072C1009.83 545.514 1010.04 544.808 1009.98 544.098C1009.95 543.742 1009.84 543.396 1009.67 543.081C1009.5 542.766 1009.27 542.489 1008.99 542.266C1008.71 542.043 1008.39 541.879 1008.04 541.784C1007.7 541.689 1007.34 541.664 1006.98 541.711C1002.75 542.445 998.758 544.185 995.34 546.784C991.922 549.383 989.179 552.765 987.341 556.645C987.11 557.119 987.02 557.651 987.085 558.174C987.149 558.698 987.363 559.192 987.703 559.596C988.042 560 988.491 560.298 988.996 560.452C989.501 560.606 990.039 560.61 990.546 560.464V560.464Z" fill="#263238"/>
<path d="M1078.72 539.325C1079.06 539.339 1079.4 539.28 1079.72 539.151C1080.04 539.021 1080.32 538.825 1080.56 538.575C1081.06 538.065 1081.34 537.379 1081.34 536.665C1081.34 535.951 1081.06 535.266 1080.56 534.756C1077.65 531.609 1074.04 529.191 1070.03 527.698C1066.01 526.205 1061.7 525.68 1057.44 526.164C1057.09 526.229 1056.75 526.364 1056.45 526.561C1056.15 526.758 1055.89 527.013 1055.68 527.311C1055.48 527.609 1055.34 527.945 1055.26 528.298C1055.19 528.651 1055.19 529.015 1055.26 529.369C1055.41 530.058 1055.82 530.664 1056.4 531.058C1056.99 531.452 1057.7 531.604 1058.4 531.483C1061.75 531.108 1065.15 531.53 1068.32 532.715C1071.48 533.899 1074.32 535.814 1076.6 538.302C1076.86 538.619 1077.18 538.876 1077.54 539.052C1077.91 539.229 1078.31 539.323 1078.72 539.325V539.325Z" fill="#263238"/>
<path d="M872.371 848.027C862.892 877.963 853.823 909.399 846.117 940.358C838.361 970.92 832.688 1001.97 829.138 1033.3L828.592 1039.03C828.592 1040.87 828.592 1041.28 828.592 1042.92C828.667 1046.13 828.918 1049.34 829.342 1052.53C830.211 1060 831.462 1067.42 833.093 1074.76C836.298 1089.97 839.912 1105.65 844.549 1121.2C849.186 1136.75 853.141 1152.57 857.778 1168.25L871.416 1215.31L846.117 1225.74C830.57 1196.01 817.068 1165.73 804.452 1134.5C798.383 1118.81 792.451 1102.99 787.541 1086.29C785.086 1077.97 782.768 1069.44 780.722 1060.17C779.751 1055.26 779.067 1050.3 778.676 1045.3C778.676 1042.78 778.676 1039.03 778.676 1036.78V1029.96C779.254 1012.58 780.848 995.258 783.449 978.068C785.7 961.02 789.041 944.381 792.655 927.811C799.751 894.624 808.86 861.9 819.932 829.82L872.371 848.027Z" fill="#FFC3BD"/>
<path d="M844.208 767.084C821.023 773.903 793.133 854.027 793.133 854.027L883.145 918.4C883.145 918.4 916.013 851.709 906.262 821.705C896.101 790.473 870.734 759.037 844.208 767.084Z" fill="#2447F9"/>
<path opacity="0.4" d="M844.208 767.084C821.023 773.903 793.133 854.027 793.133 854.027L883.145 918.4C883.145 918.4 916.013 851.709 906.262 821.705C896.101 790.473 870.734 759.037 844.208 767.084Z" fill="white"/>
<path d="M719.827 2262.72C720.936 2262.33 721.945 2261.7 722.782 2260.88C723.619 2260.05 724.263 2259.05 724.669 2257.95C725.063 2257.24 725.269 2256.44 725.269 2255.63C725.269 2254.82 725.063 2254.02 724.669 2253.31C720.577 2247.31 699.915 2247.79 697.392 2247.86C697.131 2247.86 696.876 2247.94 696.658 2248.09C696.441 2248.23 696.269 2248.44 696.165 2248.68C696.032 2248.89 695.962 2249.14 695.962 2249.39C695.962 2249.64 696.032 2249.89 696.165 2250.11C701.552 2255.49 711.644 2264.29 718.736 2262.93L719.827 2262.72ZM700.665 2250.31C708.916 2250.31 719.963 2251.47 722.146 2254.68C722.332 2254.98 722.431 2255.34 722.431 2255.7C722.431 2256.06 722.332 2256.41 722.146 2256.72C721.844 2257.54 721.344 2258.28 720.69 2258.86C720.035 2259.45 719.247 2259.86 718.395 2260.06C714.644 2261.02 708.098 2257.13 700.665 2250.31Z" fill="#2447F9"/>
<path d="M706.734 2248.88C713.008 2246.9 719.691 2243.42 721.123 2239.54C721.478 2238.53 721.483 2237.42 721.137 2236.41C720.791 2235.4 720.113 2234.53 719.213 2233.95C718.419 2233.28 717.484 2232.81 716.48 2232.56C715.476 2232.31 714.429 2232.3 713.417 2232.51C705.302 2233.95 696.574 2247.86 696.233 2248.47C696.113 2248.68 696.05 2248.91 696.05 2249.15C696.05 2249.39 696.113 2249.63 696.233 2249.83C696.355 2250.03 696.525 2250.2 696.727 2250.32C696.93 2250.44 697.158 2250.51 697.392 2250.52C700.569 2250.43 703.716 2249.88 706.734 2248.88ZM713.008 2235.24H713.894C714.536 2235.11 715.198 2235.12 715.835 2235.27C716.472 2235.42 717.067 2235.72 717.577 2236.13C718.941 2237.22 718.804 2238.04 718.6 2238.65C717.236 2242.4 706.871 2246.9 699.983 2247.79C703.117 2242.55 707.619 2238.25 713.008 2235.38V2235.24Z" fill="#2447F9"/>
<path d="M1097.33 2399.92C1102.14 2400.32 1106.94 2399.09 1110.97 2396.45C1111.91 2395.6 1112.62 2394.53 1113.05 2393.34C1113.48 2392.15 1113.61 2390.88 1113.43 2389.63C1113.37 2388.89 1113.13 2388.17 1112.73 2387.55C1112.32 2386.93 1111.76 2386.43 1111.11 2386.08C1104.29 2382.26 1081.45 2393.85 1078.85 2395.15C1078.6 2395.25 1078.39 2395.43 1078.24 2395.65C1078.09 2395.88 1078.01 2396.14 1078.01 2396.41C1078.01 2396.68 1078.09 2396.95 1078.24 2397.17C1078.39 2397.4 1078.6 2397.57 1078.85 2397.67C1084.92 2399.04 1091.11 2399.8 1097.33 2399.92V2399.92ZM1107.49 2388.13C1108.36 2388.07 1109.23 2388.24 1110.02 2388.6C1110.29 2388.75 1110.51 2388.97 1110.67 2389.23C1110.82 2389.5 1110.9 2389.8 1110.9 2390.1C1111.03 2390.89 1110.96 2391.69 1110.7 2392.44C1110.44 2393.19 1109.99 2393.86 1109.4 2394.4C1105.93 2397.54 1096.52 2398.08 1083.9 2395.97C1091.26 2392.04 1099.24 2389.39 1107.49 2388.13V2388.13Z" fill="#2447F9"/>
<path d="M1079.67 2397.95H1080.22C1087.04 2394.88 1100.68 2382.6 1099.45 2376.12C1099.45 2374.56 1098.08 2372.72 1094.33 2372.31C1092.99 2372.16 1091.63 2372.28 1090.34 2372.68C1089.05 2373.08 1087.86 2373.74 1086.83 2374.62C1080.01 2380.63 1078.38 2395.97 1078.31 2396.58C1078.3 2396.82 1078.35 2397.06 1078.46 2397.27C1078.57 2397.49 1078.73 2397.67 1078.92 2397.81C1079.15 2397.95 1079.41 2398 1079.67 2397.95V2397.95ZM1093.31 2374.83H1094.13C1096.58 2374.83 1096.79 2376.12 1096.79 2376.4C1097.47 2380.28 1088.33 2390.04 1081.38 2394.2C1081.92 2387.72 1084.47 2381.57 1088.67 2376.6C1089.92 2375.47 1091.55 2374.83 1093.24 2374.83H1093.31Z" fill="#2447F9"/>
<path d="M881.781 1099.31L875.917 1119.77C875.099 1121.34 877.008 1122.97 879.667 1122.97H1118.34C1120.45 1122.97 1122.16 1121.95 1122.29 1120.66L1124.41 1100.2C1124.41 1098.77 1122.7 1097.54 1120.45 1097.54H885.6C884.865 1097.48 884.127 1097.61 883.459 1097.93C882.79 1098.24 882.212 1098.71 881.781 1099.31V1099.31Z" fill="#263238"/>
<path d="M913.286 1125.5H906.944C905.716 1125.5 904.762 1124.88 904.83 1124.06L907.762 1096.79C907.762 1096.04 908.99 1095.36 910.217 1095.36H916.491C917.786 1095.36 918.673 1096.04 918.605 1096.79L915.672 1124.06C915.672 1125.16 914.581 1125.5 913.286 1125.5Z" fill="#2447F9"/>
<path opacity="0.4" d="M913.286 1125.5H906.944C905.716 1125.5 904.762 1124.88 904.83 1124.06L907.762 1096.79C907.762 1096.04 908.99 1095.36 910.217 1095.36H916.491C917.786 1095.36 918.673 1096.04 918.605 1096.79L915.672 1124.06C915.672 1125.16 914.581 1125.5 913.286 1125.5Z" fill="black"/>
<path d="M1100.33 1125.5H1094.06C1092.83 1125.5 1091.88 1124.88 1091.95 1124.06L1094.95 1096.79C1094.95 1096.04 1096.11 1095.36 1097.33 1095.36H1103.61C1104.9 1095.36 1105.86 1096.04 1105.72 1096.79L1102.79 1124.06C1102.72 1125.16 1101.63 1125.5 1100.33 1125.5Z" fill="#2447F9"/>
<path opacity="0.4" d="M1100.33 1125.5H1094.06C1092.83 1125.5 1091.88 1124.88 1091.95 1124.06L1094.95 1096.79C1094.95 1096.04 1096.11 1095.36 1097.33 1095.36H1103.61C1104.9 1095.36 1105.86 1096.04 1105.72 1096.79L1102.79 1124.06C1102.72 1125.16 1101.63 1125.5 1100.33 1125.5Z" fill="black"/>
<path d="M1006.84 1125.5H1000.57C999.275 1125.5 998.32 1124.88 998.456 1124.06L1001.39 1096.79C1001.39 1096.04 1002.55 1095.36 1003.84 1095.36H1010.12C1011.34 1095.36 1012.3 1096.04 1012.23 1096.79L1009.3 1124.06C1009.23 1125.16 1008.07 1125.5 1006.84 1125.5Z" fill="#2447F9"/>
<path opacity="0.4" d="M1006.84 1125.5H1000.57C999.275 1125.5 998.32 1124.88 998.456 1124.06L1001.39 1096.79C1001.39 1096.04 1002.55 1095.36 1003.84 1095.36H1010.12C1011.34 1095.36 1012.3 1096.04 1012.23 1096.79L1009.3 1124.06C1009.23 1125.16 1008.07 1125.5 1006.84 1125.5Z" fill="black"/>
<path d="M1011.55 567.283L1021.85 562.237C1021.85 562.237 1017.75 571.716 1011.55 567.283Z" fill="#263238"/>
<path d="M869.507 1207.6L918.4 1245.1L861.733 1257.58C861.733 1257.58 837.661 1230.31 845.981 1207.8L869.507 1207.6Z" fill="#FFC3BD"/>
<path d="M930.402 1291.54L882.395 1299.38L856.209 1250.15L918.4 1245.1L930.402 1291.54Z" fill="#FFC3BD"/>
</svg>
