<svg width="3410" height="2541" viewBox="0 0 3410 2541" fill="none" xmlns="http://www.w3.org/2000/svg"><path d="M1705 2541c730.3 0 1322.33-34.57 1322.33-77.21 0-42.64-592.03-77.2-1322.33-77.2-730.303 0-1322.33 34.56-1322.33 77.2S974.697 2541 1705 2541z" fill="#F5F5F5"/><path d="M2374.38 411.678c-14.52-14.528-42.49-69.568-15.68-95.486 26.8-25.917 50.67-2.387 52.51 10.231 1.84 12.618-3.07 118.947-36.83 85.255z" fill="#263238"/><path d="M2368.25 2391.57l-60.91.54-16.57-140.77 60.83-.55 16.65 140.78z" fill="#FF8B7B"/><path d="M2307.27 2385.09l66.43-.62c1.23.02 2.41.43 3.39 1.16.98.74 1.71 1.76 2.07 2.93l16.09 53.95c.43 1.26.55 2.6.35 3.91-.2 1.31-.71 2.56-1.5 3.63-.78 1.07-1.81 1.93-3 2.52-1.19.59-2.5.88-3.83.86-23.94 0-58.72-1.3-88.66-1.03-35.19 0-50.87 2.46-92.2 2.87-24.96 0-34.1-24.96-23.53-27.28 46.85-10.85 71.06-12.28 110.28-37.99 4.12-2.98 9.03-4.69 14.11-4.91z" fill="#263238"/><path opacity=".2" d="M2290.77 2251.41l8.59 72.57 60.84-.55-8.53-72.57-60.9.55z" fill="#000"/><path d="M2282.11 2395.93c6.57-.12 13.1-.92 19.5-2.39.31-.04.59-.19.8-.41.21-.22.34-.51.36-.81.03-.3-.03-.59-.18-.85s-.37-.46-.64-.59c-2.86-1.43-28.43-13.64-35.46-9.34-.65.41-1.18.99-1.54 1.67-.36.68-.53 1.45-.51 2.22-.01 1.31.28 2.61.84 3.79.57 1.18 1.4 2.22 2.44 3.03 4.26 2.77 9.32 4.06 14.39 3.68zm14.59-4.36c-13.16 2.31-23.18 1.84-27.28-1.44-.71-.55-1.27-1.27-1.64-2.09-.37-.82-.53-1.72-.47-2.61-.04-.28 0-.57.12-.82.12-.26.32-.47.56-.62 3.82-2.31 18.28 3.14 28.71 7.58z" fill="#2447F9"/><path d="M2301.34 2393.95c.32-.02.63-.14.89-.34.2-.15.36-.36.44-.61.09-.24.1-.5.03-.75 0-1.09-4.77-27.28-19.23-25.65-3.82.41-4.91 2.39-5.11 3.89-1.03 6.82 14.59 20.05 22.37 23.33l.61.13zm-16.64-24.55c8.73 0 13.09 14.25 14.59 20.46-8.04-4.5-18.68-14.87-18.07-18.96 0 0 0-1.16 2.59-1.43l.89-.07z" fill="#2447F9"/><path d="M2325.21 719.072l-6.27 6.821-5.87 5.797c-3.89 3.82-7.91 7.434-11.93 10.981-8.01 7.184-16.19 14.004-24.56 20.461-16.88 13.419-34.65 25.678-53.19 36.694-9.35 5.524-18.96 10.776-28.71 15.755-9.76 4.979-20.05 9.276-30.42 13.641-21.26 8.481-43.4 14.544-66.02 18.074l-5.05.75c-3.27.422-6.58.627-9.88.614-7.6-.071-15.11-1.552-22.17-4.365-7-2.809-13.4-6.904-18.89-12.072-4.37-4.169-8.18-8.892-11.32-14.05-4.36-7.485-7.64-15.543-9.75-23.94-1.66-6.503-2.87-13.111-3.62-19.779-1.24-11.528-1.58-23.135-1.02-34.716.47-11.049 1.36-21.689 2.59-32.124 2.59-20.938 6.27-40.922 10.77-61.383 4.51-20.461 9.62-39.354 16.24-59.133l44.8 8.867c-1.63 38.33-3.47 77.616-2.25 114.718.23 17.229 2.05 34.4 5.46 51.29.67 3.119 1.61 6.177 2.8 9.139.95 2.319 2.11 3.751 2.04 3.137-.39-1.039-1.02-1.972-1.84-2.728-1.86-1.795-4.03-3.229-6.41-4.228-2.45-1.031-5.06-1.653-7.71-1.842h-2.52.75l1.43-.409c16.16-4.15 31.87-9.861 46.92-17.051 15.75-7.6 30.99-16.212 45.63-25.781 14.8-9.822 29.39-20.461 43.44-31.715 6.82-5.593 13.98-11.458 20.46-17.392l9.96-9.003 4.77-4.433 4.16-3.956 67.18 63.361z" fill="#FF8B7B"/><path d="M2361.29 694.997c-2.32-64.316-55.11-86.687-121.26-42.832-29.16 18.492-57.24 38.645-84.09 60.36l42.76 137.363s81.84-25.986 129.17-77.002c31.85-34.648 34.24-55.996 33.42-77.889z" fill="#263238"/><path opacity=".2" d="M2280.74 722.414s-39.48 56.473-53.46 116.492c19.41-8.279 38.11-18.133 55.92-29.464l-2.46-87.028z" fill="#000"/><path d="M2088.69 616.358l22.92-51.767-64.86-18.961s-11.12 24.758-4.77 67.249l46.71 3.479z" fill="#FF8B7B"/><path d="M2118.5 503.889l-56.4 6.752-15.35 34.989 64.86 18.96 6.89-60.701z" fill="#FF8B7B"/><path d="M2281.15 1161.24s-41.87 350.97-46.51 538.81c-4.77 195.13 33.49 588.73 33.49 588.73l109.87-2.32s13.23-421.36 29.19-614.44c17.32-210.48 60.97-514.6 60.97-514.6l-187.01 3.82z" fill="#2447F9"/><path opacity=".6" d="M2281.15 1161.24s-41.87 350.97-46.51 538.81c-4.77 195.13 33.49 588.73 33.49 588.73l109.87-2.32s13.23-421.36 29.19-614.44c17.32-210.48 60.97-514.6 60.97-514.6l-187.01 3.82z" fill="#fff"/><path opacity=".2" d="M2412.03 1260.61c-49.1 108.24-35.94 350.02-8.05 453.69 1.02-15.07 2.12-29.33 3.21-42.49 11.39-138.73 34.1-318.03 48.49-424.23-13.37-19.37-28.31-20.87-43.65 13.03z" fill="#000"/><path d="M2391.5 2291.17l-129.17 2.59-9.55-42.9 137.15-.34 1.57 40.65z" fill="#2447F9"/><path d="M2639.61 2391.57l-60.83.54-16.57-140.77 60.83-.55 16.57 140.78z" fill="#FF8B7B"/><path d="M2578.64 2385.09l66.5-.62c1.22.03 2.4.44 3.38 1.17.98.74 1.7 1.76 2.07 2.92l16.1 53.95c.41 1.26.52 2.59.31 3.9-.21 1.3-.72 2.54-1.5 3.61-.78 1.06-1.8 1.93-2.98 2.52-1.19.59-2.49.9-3.81.89-24.01 0-58.72-1.3-88.66-1.03-35.19 0-50.95 2.46-92.21 2.87-24.96 0-34.1-24.96-23.53-27.28 46.79-10.85 71-12.28 110.28-37.99 4.1-2.98 8.99-4.69 14.05-4.91z" fill="#263238"/><path opacity=".2" d="M2562.21 2251.41l8.52 72.57 60.9-.55-8.52-72.57-60.9.55z" fill="#000"/><path d="M2553.54 2395.93c6.57-.13 13.11-.93 19.51-2.39.3-.04.57-.19.76-.42.2-.22.32-.51.33-.8.04-.29 0-.59-.14-.84-.13-.26-.35-.47-.61-.6-2.93-1.43-28.51-13.64-35.46-9.34-.66.4-1.2.98-1.56 1.66-.36.69-.53 1.45-.49 2.23-.01 1.3.27 2.59.82 3.77.56 1.19 1.37 2.23 2.39 3.05 4.29 2.76 9.36 4.05 14.45 3.68zm14.6-4.36c-13.16 2.31-23.19 1.84-27.28-1.44-.71-.56-1.27-1.28-1.65-2.09-.38-.82-.56-1.71-.53-2.61-.04-.28 0-.57.12-.82.12-.26.32-.47.56-.62 3.82-2.31 18.14 3.14 28.78 7.58z" fill="#2447F9"/><path d="M2572.71 2393.95c.21 0 .41-.06.6-.15s.36-.22.49-.38c.14-.16.24-.35.3-.55.05-.2.07-.41.04-.62 0-1.09-4.77-27.28-19.23-25.65-3.82.41-4.91 2.39-5.18 3.89-.96 6.82 14.66 20.05 22.43 23.33l.55.13zm-16.57-24.55c8.66 0 13.09 14.25 14.59 20.46-8.05-4.5-18.75-14.87-18.14-18.96 0 0 0-1.16 2.59-1.43l.96-.07zM2388.36 1158.92s30.35 377.64 52.52 563.98c22.98 193.83 98.68 565.68 98.68 565.68l109.87-2.32s-30.14-422.18-41.8-615.61c-12.76-211.09-16.03-516.37-16.03-516.37l-203.24 4.64z" fill="#2447F9"/><path opacity=".6" d="M2388.36 1158.92s30.35 377.64 52.52 563.98c22.98 193.83 98.68 565.68 98.68 565.68l109.87-2.32s-30.14-422.18-41.8-615.61c-12.76-211.09-16.03-516.37-16.03-516.37l-203.24 4.64z" fill="#fff"/><path d="M2662.94 2291.17l-129.24 2.59-9.48-42.9 137.15-.34 1.57 40.65z" fill="#2447F9"/><path d="M2273.58 635.318s-44.94 166.826 7.57 525.922c98.08-2.12 262.78-5.94 310.45-6.82 1.23-50-35.67-295.121 7.5-531.447-31.06-5.363-62.47-8.418-93.98-9.139-46.12-1.685-92.3-.683-138.31 3.001-31.51 3.728-62.68 9.907-93.23 18.483z" fill="#263238"/><path opacity=".2" d="M2580.28 791.164l-50.81-42.081c3.34 32.874 33.08 113.422 48.76 154.208-.27-35.739.07-73.455 2.05-112.127z" fill="#000"/><path d="M2398.53 732.031l-55.45 109.74c-1.17 2.304-1.58 4.921-1.17 7.473.41 2.552 1.62 4.907 3.46 6.727 1.83 1.821 4.2 3.011 6.75 3.401 2.56.39 5.17-.042 7.46-1.232l36.22-19.916c1.97-1.059 4.19-1.543 6.42-1.399 2.23.145 4.38.913 6.19 2.218l35.67 25.713c2.05 1.49 4.53 2.282 7.06 2.257 2.53-.025 4.99-.864 7.01-2.394 2.02-1.529 3.49-3.669 4.2-6.101s.62-5.028-.26-7.403l-41.67-117.174c-.73-2.229-2.09-4.195-3.92-5.654-1.84-1.459-4.06-2.345-6.4-2.549-2.33-.204-4.67.285-6.73 1.404-2.06 1.119-3.75 2.819-4.84 4.889z" fill="#fff"/><path d="M2488.07 458.057c-7.77 44.741-14.73 126.449 17.05 155.436 0 0-9.27 40.513-93.91 54.563-56.88-18.279-44.4-51.289-44.4-51.289 49.38-12.959 47.27-49.721 37.92-84.095l83.34-74.615z" fill="#FF8B7B"/><path opacity=".2" d="M2454.11 488.407l-49.38 43.923c2.3 8.008 3.9 16.201 4.78 24.486 18.96-3.138 44.53-24.554 46.1-44.401.97-8.027.46-16.163-1.5-24.008z" fill="#000"/><path d="M2515.15 403.016c-16.44 58.11-23.05 92.962-59.34 116.765-54.56 35.739-121.46-6.82-122.76-68.817-1.22-55.655 25.78-141.387 88.66-152.299 13.82-2.451 28.02-1.334 41.28 3.245 13.26 4.578 25.13 12.467 34.49 22.917 9.36 10.451 15.89 23.118 18.98 36.801 3.1 13.683 2.64 27.929-1.31 41.388z" fill="#FF8B7B"/><path d="M2480.16 438.619c-7.64-18.552-13.16-79.662 18.69-94.667 31.85-15.005 64.92 21.62 56.54 38.944-12.89 26.872-57.5 98.691-75.23 55.723z" fill="#263238"/><path d="M2499.19 365.504c-7.84-20.461-101.35-32.056-114.44-54.086-15.55-26.19 48.22-29.327 92.07-16.028 38.53 11.731 64.24 23.053 59.74 51.699-2.52 16.232-37.37 18.415-37.37 18.415z" fill="#263238"/><path d="M2519.51 344.429s20.46 5.593 31.65-9.412c-3.55 14.869-20.94 29.873-31.65 9.412zM2425.87 281.341c-28.09-21.826-66.35 3.819-62.74 32.26 3.61 28.441 98.34 50.062 98.34 50.062s1.71-53.336-35.6-82.322z" fill="#263238"/><path d="M2363.2 313.737c4.29 19.916 18.82 35.535 48.22 47.129-17.02-12.58-29.91-29.934-37.04-49.857l-11.18 2.728zM2422.19 400.083c-1.02 4.843-4.36 8.185-7.5 7.503-3.14-.682-4.84-5.184-3.82-9.958s4.43-8.116 7.57-7.434c3.14.682 4.84 5.388 3.75 9.889zM2368.04 388.352c-1.09 4.774-4.43 8.116-7.57 7.434-3.14-.682-4.84-5.115-3.82-9.889 1.02-4.774 4.43-8.116 7.57-7.503 3.14.614 4.84 5.184 3.82 9.958z" fill="#263238"/><path d="M2384.75 394.49c-8.9 13.417-19.62 25.536-31.85 36.012 6.82 9.753 22.03 9.276 22.03 9.276l9.82-45.288z" fill="#FF5652"/><path d="M2385.98 456.078c6.4 1.591 13.09 1.609 19.51.054 6.41-1.556 12.35-4.64 17.32-8.988.13-.134.24-.293.31-.468.08-.176.11-.365.11-.555 0-.191-.03-.379-.11-.555-.07-.176-.18-.335-.31-.468-.28-.259-.65-.403-1.03-.403s-.74.144-1.02.403c-4.66 3.919-10.17 6.694-16.09 8.104-5.92 1.409-12.09 1.413-18.01.012-.38-.082-.78-.009-1.1.202-.33.211-.56.543-.64.923-.08.38-.01.777.2 1.103.21.326.55.555.93.636h-.07zM2442.31 386.17c.52.104 1.07.064 1.57-.117.5-.18.94-.494 1.28-.908.34-.414.55-.913.63-1.441.07-.529 0-1.067-.21-1.559-1.84-4.2-4.66-7.901-8.21-10.795-3.56-2.895-7.76-4.899-12.25-5.846-.75-.098-1.52.103-2.13.562-.61.459-1.02 1.138-1.14 1.893-.06.372-.04.751.05 1.117.08.366.24.71.47 1.014.22.305.5.562.82.758.32.196.68.327 1.05.385 3.54.778 6.84 2.391 9.63 4.704 2.78 2.314 4.98 5.261 6.39 8.596.2.412.48.775.83 1.059.36.284.78.482 1.22.578zM2348.26 364.549c.54.148 1.1.13 1.63-.053.52-.183.98-.521 1.3-.97 2.16-2.897 4.97-5.246 8.21-6.857 3.23-1.612 6.8-2.44 10.41-2.419.76.073 1.52-.16 2.11-.646.59-.486.96-1.186 1.03-1.945.07-.76-.16-1.517-.65-2.106-.48-.588-1.18-.959-1.94-1.032-4.58-.135-9.12.835-13.24 2.83-4.12 1.995-7.69 4.955-10.43 8.629-.24.291-.42.629-.53.993-.1.363-.14.745-.09 1.121.04.376.16.74.35 1.068.19.328.45.615.75.842.31.273.69.461 1.09.545z" fill="#263238"/><path d="M2613.97 669.488c12.41 21.689 22.78 42.696 33.55 64.316 10.78 21.621 20.46 43.378 29.67 65.612 9.21 22.235 18.14 44.81 25.92 68.204 8.08 23.331 14.91 47.077 20.46 71.137l4.16 18.619c1.82 8.744 2.59 17.673 2.32 26.6-.58 16.584-4.26 32.914-10.85 48.154-11.58 25.67-28.05 48.83-48.49 68.2-18.23 17.61-38.1 33.43-59.33 47.27-10.3 6.82-20.94 13.09-31.65 19.09-10.7 6.01-21.34 11.53-33.28 16.78l-22.64-39.62c8.25-6.82 17.32-13.65 25.78-21.01 8.46-7.37 16.71-14.87 24.89-22.37 15.8-14.66 30.46-30.51 43.85-47.4 11.91-14.49 21.15-30.98 27.28-48.7 2.11-6.604 2.95-13.548 2.46-20.462-.2-2.781-.73-5.528-1.57-8.185l-4.64-15.277c-13.78-42.377-30.18-83.856-49.1-124.2-9.34-20.461-19.3-40.922-29.26-61.383-9.96-20.461-20.46-40.922-30.62-60.36l81.09-45.015z" fill="#FF8B7B"/><path d="M2601.42 623.314c56.88 12.277 96.44 160.688 96.44 160.688l-101.69 92.28c-32.33-35.97-57.76-77.586-75.02-122.767-26.94-74.274 19.44-143.432 80.27-130.201z" fill="#263238"/><path d="M2536.15 1136.82l-65.4.68 40.92 65.96s46.58-11.53 50.74-34.92l-26.26-31.72zM2430.03 1176.45l36.08 52.92 45.22-25.91-40.58-65.96-40.72 38.95zM2533.02 456.215c-7.27 13.371-19.53 23.325-34.1 27.691-19.37 5.661-29.26-11.595-24.08-29.942 4.71-16.505 20.46-39.353 39.83-36.966 19.37 2.387 27.01 22.78 18.35 39.217z" fill="#FF8B7B"/><path d="M1953.34 1584.69l-72.71 5.28.49 6.8 72.71-5.28-.49-6.8zM2018.68 1579.98l-35.71 2.59.49 6.8 35.71-2.59-.49-6.8z" fill="#2447F9"/><path d="M2332.44 779.365L1128.3 866.188c-25.06 1.955-48.34 13.715-64.79 32.728-16.44 19.013-24.73 43.744-23.05 68.827l40.92 567.597c1.94 25.1 13.71 48.41 32.75 64.88 19.05 16.46 43.82 24.74 68.94 23.03l68.2-4.91c4.95-.36 9.84 1.27 13.6 4.51 3.76 3.25 6.08 7.86 6.45 12.81l7.63 105.17c.13 2.04.86 3.99 2.1 5.61 1.25 1.62 2.94 2.83 4.88 3.47 1.94.65 4.02.7 5.99.15 1.96-.55 3.72-1.67 5.04-3.22l114.17-131.98c4.8-5.53 11.59-8.93 18.89-9.48l956.98-68.95c25.07-1.94 48.37-13.69 64.83-32.71 16.46-19.01 24.75-43.75 23.08-68.85l-40.92-567.591c-1.94-25.075-13.69-48.372-32.7-64.833-19.02-16.461-43.76-24.755-68.85-23.081z" fill="#2447F9"/><path d="M1304.19 1126.73l65.06-4.71 5.32 73.66 71.07-5.11-5.32-73.66 65.33-4.78 15.21 210.48-65.34 4.7-6.13-85.11-71.07 5.18 6.14 85.12-64.99 4.7-15.28-210.47z" fill="#fff"/><path opacity=".2" d="M1128.3 866.188c-25.06 1.955-48.34 13.715-64.79 32.728-16.44 19.013-24.73 43.744-23.05 68.827l40.92 567.587c1.94 25.11 13.71 48.42 32.75 64.89 19.05 16.46 43.82 24.74 68.94 23.03l10.02-.75c16.66-1.2 32.45-7.87 44.93-18.97 12.48-11.1 20.95-26.01 24.09-42.41l137.15-714.507-270.96 19.575z" fill="#000"/><path d="M1724.98 1245.81l-117.17 8.46c.9 7.59 4.09 14.72 9.14 20.46 2.9 3.05 6.47 5.39 10.42 6.83 3.95 1.44 8.18 1.95 12.36 1.49 5.75-.41 11.29-2.29 16.1-5.46 3.76-2.85 6.97-6.36 9.48-10.36l57.97 1.16c-6.31 14.29-16.55 26.5-29.53 35.19-11.92 7.55-29.51 12.09-52.79 13.64-16.28 1.89-32.77.15-48.29-5.12-12.44-5.22-23.11-13.91-30.75-25.03-8.76-12.66-13.8-27.52-14.53-42.9-1.22-10.68-.18-21.49 3.04-31.75 3.21-10.25 8.55-19.72 15.65-27.79 14.18-15.82 34.64-24.71 61.38-26.67 17.7-2.1 35.64 0 52.37 6.14 12.82 5.48 23.61 14.79 30.9 26.67 8.34 14.75 13.02 31.29 13.64 48.22l.61 6.82zm-61.38-23.73c-.83-8.87-4.65-17.2-10.84-23.6-3.12-2.4-6.7-4.14-10.51-5.1-3.82-.95-7.79-1.12-11.67-.48-3.88.64-7.59 2.07-10.9 4.2-3.3 2.13-6.14 4.92-8.32 8.2-3.64 6.41-5.48 13.7-5.32 21.07l57.56-4.29zM1743.06 1095.01l58.58-4.23 15.21 210.41-58.59 4.23-15.2-210.41zM1840.92 1087.92l58.59-4.23 15.21 210.41-58.52 4.23-15.28-210.41zM1939.4 1216.14c-1.1-10.67.05-21.46 3.39-31.66 3.33-10.2 8.78-19.58 15.98-27.54 14.6-16.23 35.26-25.33 62-27.28 30.46-2.18 54.15 5 71.06 21.55 14.05 14.82 22.16 34.28 22.81 54.69.64 20.4-6.24 40.34-19.33 56.01-14.46 16.09-35.42 25.19-62.88 27.28-21.33 2.56-42.89-2.52-60.84-14.32-9.54-6.63-17.42-15.38-23.01-25.58-5.58-10.19-8.73-21.54-9.18-33.15zm58.59-4.36c-.11 10.76 3.58 21.22 10.43 29.53 2.76 2.83 6.11 5.02 9.8 6.43 3.7 1.41 7.65 1.99 11.6 1.72 3.94-.27 7.78-1.4 11.24-3.3 3.47-1.9 6.48-4.53 8.83-7.72 5.51-9.49 7.58-20.59 5.86-31.44.07-10.55-3.58-20.78-10.3-28.92-2.62-2.88-5.88-5.11-9.51-6.53s-7.54-1.99-11.42-1.65c-4.05.19-8.01 1.31-11.56 3.27-3.54 1.96-6.59 4.72-8.9 8.05-5.5 9.18-7.55 20.01-5.8 30.56h-.27zM2133.09 1066.78l62.4-4.51 3.48 47.75-5.11 97.19-38.6 2.79-18.76-95.48-3.41-47.74zm13.64 158.77l58.24-4.22 3.76 51.56-58.32 4.16-3.68-51.5z" fill="#fff"/><path d="M1111.66 679.31c-.31 9.984.22 19.976 1.57 29.873-61.8 20.639-127.707 25.86-191.984 15.21 3.085-11.667 4.959-23.62 5.592-35.671-2.15 12.134-6.372 23.808-12.481 34.511-12.139-2.319-18.959-4.297-18.959-4.297s12.412-67.112-9.957-115.946c-22.37-48.834-11.185-76.116 5.728-83.823 31.372-96.44 149.291-81.23 189.191-42.081 50.6 49.652 50.87 189.538 59.88 221.525-7.44 3.206-14.74 6.139-22.03 8.731-3.66-8.938-5.87-18.4-6.55-28.032z" fill="#263238"/><path d="M1160.42 829.426l6.14 19.438c2.25 6.821 4.5 13.641 6.82 20.12 4.57 13.641 9.34 27.282 14.46 40.377 5.11 13.095 10.02 26.872 15.34 40.24l7.92 20.461 1.97 5.048.48 1.159c-.84-.738-1.81-1.316-2.86-1.705-1.5-.546-2.12 0-1.16 0 1.64-.007 3.27-.26 4.84-.75 5.33-1.691 10.46-3.979 15.28-6.821 11.63-6.777 22.75-14.391 33.28-22.78 11.05-8.593 21.89-17.801 32.53-27.281 10.64-9.481 21.35-19.37 31.64-29.055l20.94 17.733c-8.73 12.549-17.94 24.008-27.28 35.67-9.34 11.663-19.85 22.576-30.62 33.42-11.09 11.322-23.17 21.638-36.08 30.83-7.39 5.17-15.32 9.52-23.66 12.96-5.3 2.12-10.85 3.54-16.51 4.23-7.68.95-15.49-.1-22.64-3.07-7.8-3.33-14.44-8.88-19.1-15.96-1.02-1.57-1.97-3.14-2.72-4.573l-1.85-3.683-2.45-4.979c-3.21-6.82-6.82-13.64-9.62-20.052-6.2-13.64-12.41-27.281-18.07-40.922-5.66-13.641-11.19-27.69-16.44-41.74-2.45-6.821-4.91-14.255-7.23-21.416-2.31-7.162-4.57-14.187-6.82-22.576l53.47-14.323z" fill="#FFC3BD"/><path d="M1144.26 768.861c23.53 6.002 39.96 102.715 39.96 102.715l-64.79 44.06s-62.06-97.6-43.98-123.449c18.82-26.873 34.51-32.056 68.81-23.326z" fill="#2447F9"/><path d="M1144.26 768.861c23.53 6.002 39.96 102.715 39.96 102.715l-64.79 44.06s-62.06-97.6-43.98-123.449c18.82-26.873 34.51-32.056 68.81-23.326z" fill="#2447F9"/><path opacity=".4" d="M1144.26 768.861c23.53 6.002 39.96 102.715 39.96 102.715l-64.79 44.06s-62.06-97.6-43.98-123.449c18.82-26.873 34.51-32.056 68.81-23.326z" fill="#fff"/><path opacity=".3" d="M1142.15 790.482l18.07 97.463-36.42 24.69 18.35-122.153z" fill="#000"/><path d="M1326.01 890.196l21.62-52.108 26.67 52.108s-17.32 25.917-40.17 19.575l-8.12-19.575z" fill="#FFC3BD"/><path d="M1371.43 832.7l34.24 13.777-31.37 43.719-26.74-52.108 23.87-5.388zM1017.07 2397.02h57.08l3.82-132.11h-57.08l-3.82 132.11zM634.328 2226.85l52.446 22.37 68.677-114.31-52.514-22.37-68.609 114.31z" fill="#FFC3BD"/><path d="M696.868 2241.45l-54.56-33.56c-.933-.6-2.055-.83-3.15-.66-1.095.18-2.086.76-2.784 1.62l-32.804 39.35c-.816 1.03-1.402 2.22-1.719 3.5-.317 1.27-.358 2.6-.119 3.89.239 1.3.752 2.52 1.505 3.6.752 1.08 1.726 1.98 2.856 2.65 19.233 11.39 29.054 15.89 53.06 30.63 14.799 9.13 35.396 23.87 55.788 36.42 20.391 12.55 34.1-6.82 26.529-13.99-33.077-31.57-32.122-46.58-38.328-65.27-1.032-3.39-3.261-6.3-6.274-8.18zM1076.06 2390.41h-64.04c-1.1-.02-2.17.37-3.01 1.09-.84.71-1.4 1.7-1.56 2.79l-7.3 50.75c-.175 1.3-.07 2.62.32 3.88.38 1.26 1.03 2.41 1.91 3.39.87.98 1.95 1.76 3.16 2.28 1.2.52 2.51.78 3.82.75 22.37-.34 33.15-1.71 61.38-1.71 17.32 0 53.2 1.84 77.13 1.84 23.94 0 25.17-23.66 15.21-25.85-44.67-9.61-62.26-22.84-77.34-35.46-2.66-2.38-6.11-3.71-9.68-3.75z" fill="#263238"/><path opacity=".2" d="M1077.9 2264.98l-1.91 68.07h-57.08l1.98-68.07h57.01zM702.937 2112.61l52.446 22.3-35.396 58.93-52.445-22.37 35.395-58.86z" fill="#000"/><path d="M1144.26 768.862s27.28 9.548-27.28 344.228H885.1c3.887-94.26 4.023-152.371-40.92-345.865 32.423-6.701 65.291-11.032 98.344-12.959 35.032-2.527 70.196-2.527 105.236 0 45.28 4.092 96.5 14.596 96.5 14.596z" fill="#2447F9"/><path opacity=".4" d="M1144.26 768.862s27.28 9.548-27.28 344.228H885.1c3.887-94.26 4.023-152.371-40.92-345.865 32.423-6.701 65.291-11.032 98.344-12.959 35.032-2.527 70.196-2.527 105.236 0 45.28 4.092 96.5 14.596 96.5 14.596z" fill="#fff"/><path d="M942.66 754.198c35.035-2.46 70.2-2.46 105.23 0 5.66.545 11.46 1.159 17.19 1.841 2.38 3.584 3.91 7.669 4.47 11.938.55 4.269.12 8.608-1.27 12.684-7.43 18.347-34.1 20.461-53.46 20.461-71.682 0-83.822-41.877-84.299-43.651l-.682-2.523 12.821-.75z" fill="#fff"/><path d="M953.095 635.796c6.82 34.102 13.299 95.894-10.435 118.47 0 0 9.276 34.102 72.16 34.102 69.15 0 33.07-34.102 33.07-34.102-37.78-9.003-36.76-37.035-30.21-63.293l-64.585-55.177z" fill="#FFC3BD"/><path d="M959.983 611.72c-8.116 26.804 3.137 90.233 19.846 114.787-32.94-18.893-44.057-76.457-44.057-76.457l24.211-38.33z" fill="#263238"/><path opacity=".2" d="M979.42 658.303l38.26 32.601c-1.68 6.112-2.77 12.369-3.27 18.688-14.39-2.114-34.103-17.938-35.74-33.011-.847-6.088-.593-12.28.75-18.278z" fill="#000"/><path d="M921.859 575.367c13.231 55.041 17.596 78.639 50.741 102.306 49.85 35.534 114.58 7.298 118.05-50.607 3.14-52.108-18.96-133.339-77.27-145.888-12.84-2.837-26.204-2.343-38.807 1.434-12.603 3.778-24.032 10.714-33.201 20.151-9.17 9.436-15.775 21.059-19.19 33.766-3.415 12.707-3.526 26.076-.323 38.838z" fill="#FFC3BD"/><path d="M1117.05 1113.09s44.94 439.36 40.92 613.28c-3.89 180.88-70.18 593.38-70.18 593.38h-77.07s12.21-402.06 5.39-579.74c-7.43-193.69-68.948-627.06-68.948-627.06l169.888.14z" fill="#2447F9"/><path opacity=".4" d="M1117.05 1113.09s44.94 439.36 40.92 613.28c-3.89 180.88-70.18 593.38-70.18 593.38h-77.07s12.21-402.06 5.39-579.74c-7.43-193.69-68.948-627.06-68.948-627.06l169.888.14z" fill="#000"/><path d="M1004.31 2322.61h90.44l6.68-28.85-101.35-3.55 4.23 32.4z" fill="#2447F9"/><path opacity=".2" d="M1017.13 1222.42c56.88 114.44 11.39 323.21-8.72 400.9-10.303-116.63-27.694-259.18-41.266-364.01 8.593-58.92 23.734-89.68 49.986-36.89z" fill="#000"/><path d="M1055.87 1113.09s-52.51 456.96-92.136 603.39c-46.99 174.13-225.878 470.61-225.878 470.61l-71.542-30.42s110.689-336.65 146.698-428.39c76.725-195.74 11.049-487.45 72.36-615.19h170.498z" fill="#2447F9"/><path opacity=".4" d="M1055.87 1113.09s-52.51 456.96-92.136 603.39c-46.99 174.13-225.878 470.61-225.878 470.61l-71.542-30.42s110.689-336.65 146.698-428.39c76.725-195.74 11.049-487.45 72.36-615.19h170.498z" fill="#000"/><path d="M656.425 2156.88l88.796 37.78 21.347-23.87-102.436-49.17-7.707 35.26z" fill="#2447F9"/><path d="M1009.36 576.118c.82 4.501 3.82 7.775 6.82 7.229 3-.545 4.71-4.638 3.89-9.139-.82-4.502-3.82-7.775-6.82-7.298-3 .477-5.05 4.638-3.89 9.208zM1060.24 567.115c.75 4.501 3.82 7.775 6.82 7.229 3-.545 4.77-4.638 3.95-9.139-.82-4.502-3.82-7.775-6.82-7.298-3 .478-4.77 4.638-3.95 9.208z" fill="#263238"/><path d="M1062.9 558.453l10.3-5.116s-4.1 9.481-10.3 5.116z" fill="#263238"/><path d="M1048.03 577.277c5.85 9.626 13.02 18.394 21.28 26.054-2.03 2.049-4.47 3.634-7.17 4.647-2.69 1.012-5.58 1.428-8.45 1.218l-5.66-31.919z" fill="#ED847E"/><path d="M1033.16 630.544c2.59-.005 5.16-.233 7.71-.682.19-.008.38-.057.56-.145.17-.088.33-.212.45-.364s.21-.328.26-.517c.04-.189.05-.386.02-.578-.04-.192-.11-.374-.22-.534-.12-.161-.26-.296-.43-.396-.16-.1-.35-.163-.54-.185-.2-.021-.39-.001-.58.059-5.61 1.119-11.42.893-16.93-.66s-10.58-4.388-14.78-8.275c-.26-.25-.6-.39-.96-.39-.35 0-.7.14-.95.39-.13.122-.24.269-.31.434-.07.164-.11.342-.11.521 0 .18.04.357.11.522.07.164.18.312.31.433 7.12 6.751 16.58 10.469 26.39 10.367zM941.16 543.107c1.491 14.504 3.768 28.916 6.82 43.173 0 0 34.1-43.173 39.761-66.294-1.353 9.103-3.994 17.967-7.843 26.326 0 0 45.902-10.025 50.402-40.308-.08 13.557-1.59 27.068-4.5 40.308 0 0 43.78-17.187 39.76-46.242-4.03-29.054-71.272-40.308-102.303-30.487-31.031 9.822-61.38 41.673-52.241 85.46 9.138 43.786 26.666 60.224 26.666 60.224s-12.617-44.128 3.478-72.16z" fill="#263238"/><path d="M919.472 616.835c4.21 10.103 12.255 18.124 22.37 22.303 13.64 5.456 21.756-6.207 19.369-19.711-2.114-12.209-11.731-29.669-25.848-29.396-3.089.137-6.095 1.041-8.748 2.631-2.652 1.589-4.867 3.815-6.444 6.475-1.576 2.66-2.466 5.671-2.588 8.76-.122 3.09.527 6.162 1.889 8.938z" fill="#FFC3BD"/><path d="M949.412 522.1c-6.82 27.282 7.366 90.029 25.234 113.696-34.1-17.256-47.74-74.274-47.74-74.274l22.506-39.422zM990.673 560.567c.35-.106.676-.281.957-.516.281-.234.513-.522.68-.848 1.438-3.077 3.584-5.769 6.263-7.855 2.677-2.087 5.817-3.509 9.147-4.149.71-.102 1.35-.469 1.79-1.027.45-.557.66-1.264.6-1.974-.03-.356-.14-.702-.31-1.017-.17-.315-.4-.592-.68-.815-.28-.223-.6-.387-.95-.482-.34-.096-.71-.12-1.06-.073-4.23.734-8.224 2.474-11.642 5.074-3.419 2.599-6.162 5.982-8 9.863-.232.474-.321 1.005-.257 1.529s.279 1.018.618 1.422c.339.404.789.702 1.294.856.504.154 1.043.158 1.55.012zM1078.86 539.424c.34.015.68-.045 1-.174.32-.13.6-.326.84-.576.5-.51.78-1.196.78-1.91s-.28-1.4-.78-1.91c-2.91-3.147-6.52-5.566-10.54-7.059-4.01-1.493-8.32-2.019-12.58-1.534-.36.065-.7.2-1 .397-.3.197-.56.452-.76.75-.21.298-.35.634-.42.987s-.07.717-.01 1.071c.15.69.56 1.295 1.15 1.69.58.394 1.3.546 1.99.425 3.36-.376 6.76.046 9.92 1.231 3.17 1.185 6.01 3.1 8.29 5.589.26.317.58.574.94.751.37.177.77.27 1.18.272z" fill="#263238"/><path d="M872.483 848.183c-9.48 29.941-18.551 61.383-26.257 92.347-7.757 30.568-13.431 61.63-16.982 92.96l-.546 5.73v3.89c.076 3.22.326 6.43.75 9.62.869 7.47 2.121 14.89 3.751 22.23 3.206 15.21 6.82 30.9 11.458 46.45 4.638 15.55 8.593 31.37 13.231 47.06l13.64 47.06-25.302 10.43c-15.55-29.73-29.054-60.02-41.671-91.25-6.069-15.69-12.003-31.51-16.913-48.22-2.455-8.32-4.774-16.85-6.82-26.13-.972-4.91-1.655-9.87-2.046-14.86v-15.35c.578-17.38 2.172-34.71 4.774-51.903 2.25-17.051 5.592-33.693 9.207-50.266 7.096-33.193 16.206-65.923 27.28-98.009l52.446 18.211z" fill="#FFC3BD"/><path d="M844.316 767.224c-23.188 6.821-51.082 86.96-51.082 86.96l90.024 64.385s32.873-66.704 23.12-96.713c-10.162-31.238-35.532-62.68-62.062-54.632z" fill="#2447F9"/><path opacity=".4" d="M844.316 767.224c-23.188 6.821-51.082 86.96-51.082 86.96l90.024 64.385s32.873-66.704 23.12-96.713c-10.162-31.238-35.532-62.68-62.062-54.632z" fill="#fff"/><path d="M719.919 2263.14c1.109-.39 2.118-1.02 2.955-1.85.837-.82 1.482-1.82 1.887-2.93.395-.71.601-1.5.601-2.32 0-.81-.206-1.61-.601-2.31-4.092-6.01-24.756-5.53-27.28-5.46-.261 0-.516.08-.734.23-.217.14-.389.35-.493.59-.133.21-.203.46-.203.71 0 .26.07.5.203.72 5.388 5.39 15.481 14.19 22.574 12.82l1.091-.2zm-19.164-12.42c8.252 0 19.301 1.16 21.483 4.37.187.31.285.66.285 1.02s-.098.72-.285 1.03c-.302.82-.802 1.55-1.456 2.14-.655.58-1.443.99-2.295 1.2-3.751.95-10.298-2.93-17.732-9.76z" fill="#2447F9"/><path d="M706.825 2249.29c6.274-1.98 12.958-5.45 14.39-9.34.356-1.01.361-2.11.014-3.13-.346-1.01-1.024-1.88-1.924-2.46-.794-.67-1.729-1.14-2.733-1.39s-2.052-.26-3.064-.05c-8.115 1.44-16.845 15.35-17.186 15.96-.12.21-.183.45-.183.69 0 .23.063.47.183.68.123.2.293.36.495.48s.43.19.664.2c3.178-.09 6.325-.64 9.344-1.64zm6.274-13.64h.887c.641-.13 1.304-.12 1.941.03.636.16 1.231.45 1.742.86 1.364 1.09 1.227 1.91 1.023 2.52-1.364 3.75-11.731 8.25-18.619 9.14 3.134-5.24 7.637-9.53 13.026-12.41v-.14zM1097.47 2400.36c4.81.4 9.61-.83 13.64-3.47.94-.85 1.66-1.92 2.08-3.11.43-1.19.56-2.46.38-3.72-.05-.73-.29-1.45-.7-2.07-.41-.62-.96-1.13-1.62-1.47-6.82-3.82-29.67 7.77-32.26 9.07-.25.1-.46.28-.61.5-.15.23-.23.49-.23.76s.08.54.23.76c.15.23.36.4.61.5 6.07 1.38 12.26 2.13 18.48 2.25zm10.17-11.8c.86-.05 1.73.11 2.52.48.27.15.49.37.65.63.16.26.24.57.24.87.12.79.05 1.59-.21 2.34-.26.75-.71 1.42-1.29 1.96-3.48 3.14-12.89 3.68-25.51 1.57 7.36-3.93 15.34-6.59 23.6-7.85z" fill="#2447F9"/><path d="M1079.81 2398.39h.55c6.82-3.07 20.46-15.35 19.23-21.83 0-1.57-1.37-3.41-5.12-3.82-1.34-.15-2.7-.02-3.99.38s-2.48 1.06-3.51 1.94c-6.82 6-8.46 21.35-8.52 21.96-.01.24.04.48.15.69.1.22.26.4.46.54.22.14.49.19.75.14zm13.64-23.13h.82c2.45 0 2.66 1.3 2.66 1.57.68 3.89-8.46 13.64-15.41 17.8.54-6.48 3.09-12.63 7.29-17.59 1.25-1.14 2.88-1.77 4.57-1.78h.07z" fill="#2447F9"/><path d="M881.894 1099.51l-5.865 20.46c-.818 1.57 1.091 3.21 3.751 3.21h238.7c2.11 0 3.82-1.02 3.96-2.32l2.11-20.46c0-1.43-1.71-2.66-3.96-2.66H885.713c-.735-.06-1.472.08-2.141.39s-1.247.78-1.678 1.38z" fill="#263238"/><path d="M913.403 1125.7h-6.343c-1.228 0-2.182-.61-2.114-1.43l2.932-27.28c0-.75 1.228-1.43 2.456-1.43h6.274c1.296 0 2.182.68 2.114 1.43l-2.932 27.28c0 1.09-1.092 1.43-2.387 1.43z" fill="#2447F9"/><path opacity=".4" d="M913.403 1125.7h-6.343c-1.228 0-2.182-.61-2.114-1.43l2.932-27.28c0-.75 1.228-1.43 2.456-1.43h6.274c1.296 0 2.182.68 2.114 1.43l-2.932 27.28c0 1.09-1.092 1.43-2.387 1.43z" fill="#000"/><path d="M1100.48 1125.7h-6.28c-1.23 0-2.18-.61-2.11-1.43l3-27.28c0-.75 1.16-1.43 2.38-1.43h6.28c1.29 0 2.25.68 2.11 1.43l-2.93 27.28c-.07 1.09-1.16 1.43-2.45 1.43z" fill="#2447F9"/><path opacity=".4" d="M1100.48 1125.7h-6.28c-1.23 0-2.18-.61-2.11-1.43l3-27.28c0-.75 1.16-1.43 2.38-1.43h6.28c1.29 0 2.25.68 2.11 1.43l-2.93 27.28c-.07 1.09-1.16 1.43-2.45 1.43z" fill="#000"/><path d="M1006.97 1125.7h-6.27c-1.297 0-2.252-.61-2.116-1.43l2.936-27.28c0-.75 1.16-1.43 2.45-1.43h6.28c1.22 0 2.18.68 2.11 1.43l-2.93 27.28c-.07 1.09-1.23 1.43-2.46 1.43z" fill="#2447F9"/><path opacity=".4" d="M1006.97 1125.7h-6.27c-1.297 0-2.252-.61-2.116-1.43l2.936-27.28c0-.75 1.16-1.43 2.45-1.43h6.28c1.22 0 2.18.68 2.11 1.43l-2.93 27.28c-.07 1.09-1.23 1.43-2.46 1.43z" fill="#000"/><path d="M1011.68 567.387l10.3-5.047s-4.1 9.481-10.3 5.047z" fill="#263238"/><path d="M869.618 1207.82l48.9 37.51-56.675 12.48s-24.074-27.28-15.754-49.78l23.529-.21z" fill="#FFC3BD"/><path d="M930.521 1291.78l-48.013 7.84-26.189-49.24 62.199-5.05 12.003 46.45z" fill="#FFC3BD"/></svg>