<svg width="492" height="367" viewBox="0 0 492 367" fill="none" xmlns="http://www.w3.org/2000/svg">
<path d="M245.86 366.391C351.17 366.391 436.54 361.407 436.54 355.258C436.54 349.11 351.17 344.126 245.86 344.126C140.551 344.126 55.1809 349.11 55.1809 355.258C55.1809 361.407 140.551 366.391 245.86 366.391Z" fill="#F5F5F5"/>
<path d="M342.385 59.3605C340.29 57.2658 336.258 49.3294 340.123 45.5923C343.988 41.8552 347.43 45.2481 347.696 47.0675C347.961 48.8869 347.253 64.2187 342.385 59.3605Z" fill="#263238"/>
<path d="M341.5 344.844L332.718 344.922L330.328 324.624L339.1 324.546L341.5 344.844Z" fill="#FF8B7B"/>
<path d="M332.708 343.91L342.287 343.821C342.464 343.824 342.635 343.882 342.776 343.988C342.918 344.094 343.022 344.242 343.074 344.411L345.395 352.19C345.456 352.371 345.473 352.564 345.445 352.753C345.416 352.943 345.342 353.122 345.229 353.276C345.116 353.431 344.967 353.556 344.796 353.64C344.625 353.725 344.435 353.767 344.244 353.764C340.792 353.764 335.776 353.577 331.459 353.616C326.385 353.616 324.123 353.97 318.163 354.029C314.564 354.029 313.246 350.43 314.77 350.095C321.526 348.532 325.018 348.325 330.672 344.618C331.268 344.188 331.975 343.942 332.708 343.91Z" fill="#263238"/>
<path opacity="0.2" d="M330.328 324.634L331.567 335.098L340.34 335.019L339.11 324.555L330.328 324.634Z" fill="black"/>
<path d="M329.079 345.473C330.026 345.456 330.969 345.341 331.892 345.129C331.936 345.123 331.976 345.102 332.006 345.069C332.036 345.037 332.055 344.996 332.059 344.952C332.063 344.91 332.054 344.867 332.033 344.83C332.012 344.793 331.98 344.763 331.941 344.745C331.528 344.539 327.84 342.779 326.827 343.398C326.733 343.458 326.657 343.541 326.605 343.639C326.554 343.738 326.528 343.848 326.532 343.959C326.53 344.148 326.571 344.335 326.653 344.506C326.735 344.676 326.855 344.826 327.004 344.942C327.619 345.341 328.348 345.528 329.079 345.473ZM331.184 344.844C329.286 345.178 327.84 345.109 327.25 344.637C327.148 344.557 327.067 344.454 327.014 344.336C326.96 344.217 326.937 344.088 326.945 343.959C326.939 343.918 326.946 343.877 326.963 343.841C326.981 343.804 327.009 343.773 327.043 343.752C327.594 343.418 329.679 344.205 331.184 344.844Z" fill="#2B6CB0"/>
<path d="M331.853 345.188C331.899 345.185 331.944 345.167 331.98 345.139C332.01 345.117 332.033 345.086 332.045 345.051C332.057 345.016 332.059 344.978 332.049 344.942C332.049 344.785 331.361 341.008 329.276 341.244C328.725 341.303 328.568 341.589 328.538 341.805C328.391 342.788 330.643 344.696 331.764 345.168L331.853 345.188ZM329.453 341.648C330.712 341.648 331.341 343.703 331.558 344.598C330.397 343.949 328.863 342.454 328.951 341.864C328.951 341.864 328.951 341.697 329.325 341.657L329.453 341.648Z" fill="#2B6CB0"/>
<path d="M335.295 103.684L334.39 104.668L333.544 105.504C332.983 106.054 332.403 106.576 331.823 107.087C330.669 108.123 329.489 109.106 328.283 110.037C325.848 111.972 323.285 113.74 320.612 115.328C319.264 116.125 317.878 116.882 316.471 117.6C315.065 118.318 313.58 118.937 312.085 119.567C309.02 120.79 305.827 121.664 302.566 122.173L301.838 122.281C301.365 122.342 300.889 122.372 300.412 122.37C299.317 122.359 298.233 122.146 297.216 121.74C296.207 121.335 295.283 120.745 294.492 120C293.861 119.398 293.312 118.717 292.859 117.974C292.231 116.894 291.758 115.732 291.453 114.522C291.214 113.584 291.04 112.631 290.931 111.67C290.753 110.008 290.703 108.334 290.784 106.664C290.853 105.071 290.981 103.537 291.158 102.032C291.531 99.0129 292.062 96.1314 292.712 93.1811C293.361 90.2307 294.098 87.5066 295.052 84.6546L301.513 85.9331C301.277 91.4601 301.012 97.1247 301.189 102.475C301.221 104.959 301.484 107.435 301.976 109.87C302.073 110.32 302.207 110.761 302.379 111.188C302.516 111.522 302.684 111.729 302.674 111.64C302.617 111.49 302.526 111.356 302.408 111.247C302.141 110.988 301.827 110.781 301.484 110.637C301.13 110.489 300.755 110.399 300.373 110.372C300.196 110.372 300.117 110.372 300.009 110.372H300.117L300.323 110.313C302.653 109.714 304.919 108.891 307.089 107.854C309.36 106.758 311.558 105.516 313.669 104.137C315.803 102.72 317.907 101.186 319.933 99.5636C320.917 98.7572 321.949 97.9114 322.884 97.0558L324.319 95.7577L325.008 95.1184L325.608 94.5481L335.295 103.684Z" fill="#FF8B7B"/>
<path d="M340.497 100.213C340.163 90.9388 332.551 87.7131 323.011 94.0367C318.806 96.703 314.757 99.609 310.885 102.74L317.052 122.547C317.052 122.547 328.853 118.8 335.678 111.444C340.271 106.448 340.615 103.37 340.497 100.213Z" fill="#263238"/>
<path opacity="0.2" d="M328.883 104.166C328.883 104.166 323.188 112.309 321.172 120.963C323.972 119.77 326.669 118.349 329.237 116.715L328.883 104.166Z" fill="black"/>
<path d="M301.189 88.8736L304.493 81.4093L295.141 78.6753C295.141 78.6753 293.538 82.2452 294.452 88.3721L301.189 88.8736Z" fill="#FF8B7B"/>
<path d="M305.486 72.6567L297.353 73.6303L295.141 78.6753L304.493 81.4093L305.486 72.6567Z" fill="#FF8B7B"/>
<path d="M328.942 167.441C328.942 167.441 322.903 218.049 322.235 245.133C321.546 273.269 327.063 330.023 327.063 330.023L342.906 329.689C342.906 329.689 344.814 268.932 347.116 241.091C349.614 210.742 355.908 166.89 355.908 166.89L328.942 167.441Z" fill="#2B6CB0"/>
<path opacity="0.6" d="M328.942 167.441C328.942 167.441 322.903 218.049 322.235 245.133C321.546 273.269 327.063 330.023 327.063 330.023L342.906 329.689C342.906 329.689 344.814 268.932 347.116 241.091C349.614 210.742 355.908 166.89 355.908 166.89L328.942 167.441Z" fill="white"/>
<path opacity="0.2" d="M347.814 181.769C340.733 197.377 342.631 232.24 346.653 247.188C346.801 245.015 346.958 242.959 347.116 241.061C348.758 221.058 352.033 195.203 354.108 179.891C352.18 177.098 350.027 176.882 347.814 181.769Z" fill="black"/>
<path d="M344.854 330.367L326.227 330.741L324.85 324.555L344.627 324.506L344.854 330.367Z" fill="#2B6CB0"/>
<path d="M380.631 344.844L371.859 344.922L369.469 324.624L378.242 324.546L380.631 344.844Z" fill="#FF8B7B"/>
<path d="M371.839 343.91L381.428 343.821C381.604 343.825 381.775 343.884 381.916 343.99C382.057 344.096 382.161 344.243 382.214 344.411L384.535 352.19C384.595 352.371 384.61 352.564 384.58 352.752C384.55 352.94 384.476 353.118 384.364 353.272C384.251 353.426 384.104 353.551 383.934 353.636C383.763 353.722 383.575 353.765 383.385 353.764C379.923 353.764 374.917 353.577 370.6 353.616C365.525 353.616 363.254 353.97 357.304 354.029C353.705 354.029 352.387 350.43 353.911 350.095C360.657 348.532 364.149 348.325 369.813 344.618C370.405 344.189 371.109 343.942 371.839 343.91Z" fill="#263238"/>
<path opacity="0.2" d="M369.469 324.634L370.699 335.098L379.481 335.019L378.251 324.555L369.469 324.634Z" fill="black"/>
<path d="M368.22 345.473C369.167 345.455 370.109 345.34 371.033 345.129C371.075 345.122 371.114 345.101 371.143 345.069C371.172 345.036 371.188 344.995 371.19 344.952C371.196 344.91 371.189 344.868 371.17 344.831C371.15 344.794 371.12 344.764 371.082 344.745C370.659 344.539 366.971 342.779 365.968 343.398C365.873 343.456 365.795 343.539 365.743 343.638C365.692 343.736 365.667 343.847 365.673 343.959C365.671 344.147 365.712 344.333 365.792 344.503C365.872 344.674 365.989 344.824 366.135 344.942C366.754 345.34 367.486 345.526 368.22 345.473ZM370.325 344.844C368.427 345.178 366.981 345.109 366.391 344.637C366.289 344.556 366.208 344.453 366.153 344.335C366.099 344.217 366.072 344.088 366.076 343.959C366.07 343.918 366.077 343.877 366.094 343.841C366.112 343.804 366.14 343.773 366.175 343.752C366.725 343.418 368.79 344.205 370.325 344.844Z" fill="#2B6CB0"/>
<path d="M370.984 345.188C371.014 345.187 371.043 345.179 371.071 345.166C371.098 345.153 371.122 345.134 371.141 345.111C371.161 345.088 371.175 345.061 371.184 345.032C371.192 345.003 371.194 344.972 371.19 344.942C371.19 344.785 370.502 341.008 368.417 341.244C367.866 341.303 367.709 341.589 367.669 341.805C367.532 342.788 369.784 344.696 370.905 345.168L370.984 345.188ZM368.594 341.648C369.843 341.648 370.482 343.703 370.698 344.598C369.538 343.949 367.994 342.454 368.082 341.864C368.082 341.864 368.082 341.697 368.456 341.657L368.594 341.648Z" fill="#2B6CB0"/>
<path d="M344.401 167.106C344.401 167.106 348.777 221.56 351.974 248.427C355.288 276.377 366.204 329.994 366.204 329.994L382.047 329.659C382.047 329.659 377.7 268.784 376.019 240.894C374.18 210.456 373.708 166.438 373.708 166.438L344.401 167.106Z" fill="#2B6CB0"/>
<path opacity="0.6" d="M344.401 167.106C344.401 167.106 348.777 221.56 351.974 248.427C355.288 276.377 366.204 329.994 366.204 329.994L382.047 329.659C382.047 329.659 377.7 268.784 376.019 240.894C374.18 210.456 373.708 166.438 373.708 166.438L344.401 167.106Z" fill="white"/>
<path d="M383.995 330.367L365.358 330.741L363.991 324.555L383.768 324.506L383.995 330.367Z" fill="#2B6CB0"/>
<path d="M327.85 91.6076C327.85 91.6076 321.369 115.663 328.941 167.441C343.083 167.136 366.833 166.585 373.708 166.457C373.885 159.249 368.564 123.904 374.79 89.8275C370.311 89.0542 365.781 88.6137 361.238 88.5097C354.587 88.2669 347.928 88.4114 341.294 88.9424C336.75 89.48 332.255 90.3711 327.85 91.6076Z" fill="#263238"/>
<path opacity="0.2" d="M372.075 114.079L364.749 108.011C365.231 112.752 369.518 124.366 371.78 130.247C371.741 125.094 371.79 119.655 372.075 114.079Z" fill="black"/>
<path d="M345.867 105.553L337.871 121.376C337.702 121.709 337.643 122.086 337.703 122.454C337.762 122.822 337.936 123.161 338.201 123.424C338.466 123.686 338.807 123.858 339.175 123.914C339.544 123.97 339.92 123.908 340.251 123.737L345.473 120.865C345.757 120.712 346.078 120.642 346.4 120.663C346.722 120.684 347.031 120.795 347.293 120.983L352.436 124.691C352.731 124.905 353.088 125.02 353.453 125.016C353.819 125.012 354.173 124.891 354.464 124.671C354.755 124.45 354.968 124.142 355.07 123.791C355.173 123.44 355.159 123.066 355.032 122.724L349.023 105.828C348.919 105.507 348.722 105.223 348.458 105.013C348.193 104.803 347.873 104.675 347.536 104.645C347.2 104.616 346.862 104.686 346.565 104.848C346.268 105.009 346.025 105.254 345.867 105.553Z" fill="white"/>
<path d="M358.779 66.0479C357.658 72.4993 356.655 84.2809 361.238 88.4605C361.238 88.4605 359.9 94.3022 347.696 96.3281C339.494 93.6924 341.294 88.9326 341.294 88.9326C348.414 87.064 348.109 81.7633 346.762 76.8068L358.779 66.0479Z" fill="#FF8B7B"/>
<path opacity="0.2" d="M353.882 70.4242L346.761 76.7576C347.093 77.9123 347.323 79.0936 347.45 80.2881C350.184 79.8358 353.872 76.7478 354.098 73.8859C354.237 72.7285 354.164 71.5553 353.882 70.4242Z" fill="black"/>
<path d="M362.683 58.1115C360.313 66.4905 359.359 71.5159 354.127 74.9481C346.26 80.1013 336.612 73.9646 336.425 65.0251C336.248 57.0003 340.143 44.6384 349.21 43.0649C351.202 42.7116 353.251 42.8726 355.163 43.5328C357.075 44.193 358.786 45.3304 360.136 46.8374C361.485 48.3443 362.427 50.1707 362.873 52.1437C363.319 54.1167 363.254 56.1709 362.683 58.1115Z" fill="#FF8B7B"/>
<path d="M357.638 63.2451C356.537 60.5702 355.74 51.7585 360.333 49.595C364.926 47.4314 369.695 52.7125 368.486 55.2104C366.627 59.0852 360.195 69.4408 357.638 63.2451Z" fill="#263238"/>
<path d="M360.382 52.7026C359.251 49.7523 345.768 48.0804 343.88 44.9039C341.638 41.1275 350.833 40.6751 357.156 42.5928C362.713 44.2844 366.42 45.9169 365.771 50.0473C365.407 52.3879 360.382 52.7026 360.382 52.7026Z" fill="#263238"/>
<path d="M363.313 49.6638C363.313 49.6638 366.263 50.4702 367.876 48.3066C367.365 50.4505 364.857 52.6141 363.313 49.6638Z" fill="#263238"/>
<path d="M349.81 40.567C345.758 37.42 340.241 41.1177 340.762 45.2186C341.284 49.3196 354.944 52.4371 354.944 52.4371C354.944 52.4371 355.189 44.7466 349.81 40.567Z" fill="#263238"/>
<path d="M340.772 45.2383C341.392 48.11 343.487 50.3621 347.725 52.0339C345.272 50.2199 343.413 47.7176 342.385 44.8449L340.772 45.2383Z" fill="#263238"/>
<path d="M349.279 57.6887C349.132 58.3869 348.65 58.8688 348.197 58.7705C347.745 58.6721 347.499 58.023 347.647 57.3346C347.794 56.6462 348.286 56.1643 348.738 56.2627C349.191 56.361 349.436 57.0396 349.279 57.6887Z" fill="#263238"/>
<path d="M341.471 55.9971C341.313 56.6856 340.831 57.1674 340.379 57.0691C339.927 56.9707 339.681 56.3315 339.828 55.6431C339.976 54.9547 340.467 54.4728 340.92 54.5613C341.372 54.6498 341.618 55.3087 341.471 55.9971Z" fill="#263238"/>
<path d="M343.88 56.8822C342.596 58.8168 341.051 60.5643 339.287 62.0748C340.271 63.4811 342.464 63.4123 342.464 63.4123L343.88 56.8822Z" fill="#FF5652"/>
<path d="M344.057 65.7627C344.98 65.9921 345.946 65.9947 346.87 65.7704C347.795 65.5461 348.652 65.1014 349.368 64.4744C349.387 64.4552 349.403 64.4322 349.413 64.4069C349.424 64.3816 349.43 64.3544 349.43 64.3269C349.43 64.2994 349.424 64.2722 349.413 64.2469C349.403 64.2216 349.387 64.1986 349.368 64.1794C349.328 64.1421 349.275 64.1213 349.22 64.1213C349.165 64.1213 349.113 64.1421 349.073 64.1794C348.401 64.7445 347.607 65.1447 346.753 65.3479C345.899 65.5511 345.009 65.5517 344.155 65.3497C344.101 65.3379 344.043 65.3485 343.996 65.3789C343.949 65.4093 343.916 65.4572 343.905 65.512C343.893 65.5667 343.903 65.6239 343.934 65.671C343.964 65.718 344.012 65.751 344.067 65.7627H344.057Z" fill="#263238"/>
<path d="M352.18 55.6825C352.256 55.6975 352.334 55.6918 352.406 55.6657C352.479 55.6397 352.543 55.5944 352.591 55.5347C352.64 55.475 352.671 55.4031 352.682 55.3269C352.693 55.2507 352.682 55.173 352.652 55.1022C352.387 54.4965 351.98 53.9629 351.467 53.5456C350.954 53.1282 350.349 52.8393 349.702 52.7026C349.593 52.6885 349.482 52.7176 349.394 52.7837C349.306 52.8498 349.247 52.9478 349.23 53.0567C349.221 53.1103 349.224 53.165 349.236 53.2177C349.249 53.2705 349.272 53.3202 349.304 53.364C349.336 53.4078 349.376 53.4449 349.423 53.4732C349.469 53.5015 349.52 53.5203 349.574 53.5287C350.084 53.6409 350.56 53.8734 350.962 54.207C351.364 54.5407 351.681 54.9656 351.885 55.4464C351.913 55.5059 351.954 55.5583 352.005 55.5992C352.056 55.6402 352.116 55.6687 352.18 55.6825Z" fill="#263238"/>
<path d="M338.619 52.5649C338.696 52.5863 338.778 52.5836 338.853 52.5572C338.929 52.5309 338.994 52.4821 339.041 52.4174C339.353 51.9997 339.758 51.661 340.224 51.4286C340.691 51.1963 341.205 51.0769 341.726 51.0799C341.836 51.0904 341.945 51.0569 342.03 50.9868C342.115 50.9167 342.168 50.8158 342.179 50.7062C342.189 50.5967 342.156 50.4875 342.085 50.4026C342.015 50.3178 341.914 50.2643 341.805 50.2538C341.145 50.2343 340.49 50.3743 339.896 50.6619C339.302 50.9495 338.786 51.3763 338.392 51.906C338.357 51.9481 338.332 51.9968 338.316 52.0492C338.301 52.1016 338.296 52.1566 338.302 52.2109C338.309 52.2652 338.326 52.3176 338.354 52.3649C338.381 52.4122 338.417 52.4535 338.461 52.4863C338.506 52.5257 338.56 52.5528 338.619 52.5649Z" fill="#263238"/>
<path d="M376.933 96.5346C378.723 99.662 380.218 102.691 381.772 105.808C383.326 108.926 384.722 112.063 386.05 115.269C387.378 118.475 388.666 121.73 389.787 125.104C390.953 128.468 391.938 131.892 392.737 135.361L393.337 138.046C393.6 139.306 393.712 140.594 393.672 141.881C393.588 144.273 393.058 146.628 392.108 148.824C390.438 152.525 388.063 155.866 385.116 158.659C382.487 161.197 379.622 163.479 376.56 165.474C375.075 166.457 373.541 167.362 371.997 168.227C370.453 169.093 368.918 169.89 367.197 170.647L363.932 164.933C365.122 163.95 366.43 162.966 367.65 161.904C368.869 160.842 370.059 159.76 371.239 158.678C373.518 156.564 375.632 154.279 377.563 151.843C379.28 149.754 380.612 147.377 381.497 144.822C381.801 143.87 381.921 142.868 381.851 141.871C381.822 141.47 381.746 141.074 381.624 140.691L380.956 138.488C378.969 132.378 376.604 126.397 373.875 120.58C372.528 117.629 371.092 114.679 369.656 111.729C368.22 108.778 366.706 105.828 365.24 103.025L376.933 96.5346Z" fill="#FF8B7B"/>
<path d="M375.124 89.8767C383.326 91.6469 389.03 113.047 389.03 113.047L374.367 126.353C369.705 121.166 366.038 115.165 363.549 108.651C359.664 97.9409 366.352 87.9688 375.124 89.8767Z" fill="#263238"/>
<path d="M365.712 163.92L356.281 164.018L362.182 173.528C362.182 173.528 368.899 171.866 369.499 168.493L365.712 163.92Z" fill="#FF8B7B"/>
<path d="M350.41 169.634L355.612 177.265L362.133 173.528L356.281 164.018L350.41 169.634Z" fill="#FF8B7B"/>
<path d="M365.26 65.7824C364.212 67.7103 362.445 69.1456 360.343 69.7752C357.55 70.5914 356.124 68.1033 356.871 65.4579C357.55 63.0779 359.821 59.7834 362.614 60.1276C365.407 60.4718 366.509 63.4123 365.26 65.7824Z" fill="#FF8B7B"/>
<path d="M281.671 228.499L271.186 229.26L271.257 230.241L281.742 229.48L281.671 228.499Z" fill="#2B6CB0"/>
<path d="M291.093 227.82L285.943 228.193L286.014 229.174L291.164 228.8L291.093 227.82Z" fill="#2B6CB0"/>
<path d="M336.337 112.378L162.701 124.897C159.087 125.179 155.73 126.875 153.358 129.616C150.987 132.358 149.792 135.924 150.034 139.541L155.934 221.383C156.214 225.002 157.911 228.364 160.657 230.738C163.403 233.112 166.976 234.306 170.598 234.059L180.432 233.351C181.146 233.3 181.852 233.534 182.394 234.002C182.936 234.47 183.27 235.135 183.323 235.849L184.425 251.014C184.443 251.307 184.548 251.589 184.727 251.822C184.907 252.056 185.152 252.23 185.431 252.323C185.71 252.416 186.01 252.423 186.294 252.344C186.577 252.265 186.83 252.103 187.021 251.879L203.484 232.849C204.176 232.052 205.155 231.561 206.208 231.482L344.204 221.54C347.82 221.26 351.179 219.566 353.553 216.824C355.926 214.082 357.122 210.515 356.881 206.896L350.98 125.054C350.701 121.439 349.006 118.079 346.265 115.706C343.523 113.332 339.955 112.137 336.337 112.378Z" fill="#2B6CB0"/>
<path d="M188.063 162.465L197.446 161.786L198.213 172.407L208.46 171.67L207.693 161.048L217.114 160.36L219.307 190.709L209.886 191.388L209.001 179.114L198.753 179.862L199.639 192.135L190.266 192.814L188.063 162.465Z" fill="white"/>
<path opacity="0.2" d="M162.7 124.897C159.087 125.179 155.73 126.875 153.358 129.616C150.987 132.358 149.792 135.924 150.034 139.541L155.934 221.382C156.214 225.002 157.911 228.364 160.657 230.738C163.403 233.112 166.976 234.306 170.598 234.059L172.043 233.951C174.445 233.777 176.723 232.816 178.522 231.215C180.322 229.615 181.543 227.465 181.996 225.1L201.773 122.075L162.7 124.897Z" fill="black"/>
<path d="M248.742 179.635L231.846 180.855C231.976 181.949 232.435 182.978 233.164 183.805C233.582 184.245 234.096 184.582 234.666 184.79C235.236 184.998 235.846 185.072 236.449 185.005C237.277 184.946 238.076 184.675 238.77 184.218C239.312 183.807 239.776 183.301 240.137 182.723L248.496 182.891C247.586 184.952 246.109 186.712 244.238 187.965C242.52 189.054 239.983 189.709 236.626 189.932C234.279 190.205 231.901 189.953 229.663 189.194C227.869 188.441 226.33 187.189 225.228 185.585C223.964 183.76 223.238 181.617 223.133 179.399C222.957 177.86 223.106 176.3 223.571 174.821C224.035 173.342 224.804 171.977 225.828 170.814C227.873 168.532 230.823 167.251 234.678 166.969C237.231 166.665 239.818 166.969 242.231 167.854C244.079 168.643 245.636 169.987 246.686 171.699C247.889 173.826 248.564 176.21 248.653 178.652L248.742 179.635ZM239.891 176.213C239.771 174.934 239.22 173.734 238.327 172.81C237.877 172.464 237.362 172.214 236.811 172.076C236.261 171.938 235.689 171.914 235.129 172.006C234.569 172.098 234.034 172.305 233.558 172.612C233.081 172.92 232.672 173.322 232.358 173.794C231.833 174.719 231.568 175.769 231.59 176.833L239.891 176.213Z" fill="white"/>
<path d="M251.348 157.892L259.796 157.282L261.989 187.621L253.541 188.231L251.348 157.892Z" fill="white"/>
<path d="M265.46 156.869L273.908 156.259L276.101 186.598L267.663 187.208L265.46 156.869Z" fill="white"/>
<path d="M279.661 175.357C279.501 173.818 279.668 172.263 280.149 170.792C280.63 169.321 281.416 167.968 282.454 166.821C284.559 164.481 287.538 163.169 291.394 162.887C295.786 162.573 299.202 163.609 301.641 165.995C303.667 168.131 304.837 170.938 304.93 173.88C305.022 176.823 304.03 179.697 302.143 181.956C300.058 184.277 297.035 185.589 293.075 185.89C289.999 186.259 286.891 185.528 284.303 183.825C282.926 182.869 281.79 181.607 280.985 180.138C280.179 178.668 279.726 177.032 279.661 175.357ZM288.109 174.728C288.093 176.28 288.626 177.789 289.614 178.986C290.012 179.394 290.494 179.711 291.027 179.914C291.56 180.117 292.13 180.201 292.699 180.162C293.267 180.123 293.821 179.96 294.321 179.686C294.82 179.412 295.254 179.032 295.593 178.573C296.388 177.204 296.686 175.603 296.439 174.04C296.448 172.519 295.923 171.042 294.954 169.87C294.575 169.454 294.106 169.132 293.582 168.927C293.058 168.722 292.495 168.641 291.934 168.69C291.35 168.717 290.78 168.878 290.269 169.161C289.757 169.445 289.317 169.842 288.984 170.322C288.192 171.645 287.895 173.207 288.148 174.728H288.109Z" fill="white"/>
<path d="M307.591 153.82L316.589 153.171L317.091 160.055L316.353 174.069L310.787 174.472L308.083 160.704L307.591 153.82ZM309.558 176.715L317.956 176.105L318.497 183.54L310.089 184.14L309.558 176.715Z" fill="white"/>
<path d="M160.301 97.9508C160.257 99.3904 160.333 100.831 160.527 102.258C151.616 105.234 142.112 105.987 132.843 104.451C133.288 102.769 133.559 101.046 133.65 99.3079C133.34 101.058 132.731 102.741 131.85 104.284C130.1 103.95 129.116 103.665 129.116 103.665C129.116 103.665 130.906 93.9875 127.68 86.9461C124.455 79.9046 126.068 75.9708 128.506 74.8596C133.03 60.9537 150.034 63.1468 155.787 68.7917C163.084 75.9512 163.124 96.1216 164.422 100.734C163.35 101.196 162.298 101.619 161.245 101.993C160.718 100.704 160.4 99.3396 160.301 97.9508Z" fill="#263238"/>
<path d="M167.333 119.596L168.218 122.399C168.542 123.383 168.867 124.366 169.201 125.3C169.86 127.267 170.549 129.234 171.286 131.122C172.024 133.01 172.732 134.997 173.499 136.925L174.64 139.875L174.925 140.603L174.994 140.77C174.872 140.663 174.732 140.58 174.581 140.524C174.364 140.445 174.276 140.524 174.414 140.524C174.65 140.523 174.886 140.487 175.112 140.416C175.881 140.172 176.62 139.842 177.315 139.432C178.992 138.455 180.596 137.357 182.114 136.148C183.707 134.908 185.271 133.581 186.805 132.214C188.339 130.847 189.883 129.421 191.368 128.024L194.387 130.581C193.128 132.391 191.801 134.043 190.453 135.725C189.106 137.406 187.592 138.98 186.038 140.544C184.438 142.176 182.697 143.664 180.835 144.989C179.77 145.735 178.626 146.362 177.423 146.857C176.66 147.163 175.859 147.368 175.043 147.467C173.935 147.605 172.809 147.453 171.778 147.024C170.653 146.545 169.695 145.745 169.024 144.723C168.877 144.497 168.739 144.271 168.631 144.064L168.365 143.533L168.011 142.815C167.549 141.832 167.028 140.848 166.625 139.924C165.73 137.957 164.835 135.99 164.019 134.023C163.202 132.057 162.406 130.031 161.648 128.005C161.294 127.021 160.94 125.949 160.606 124.917C160.272 123.884 159.947 122.871 159.623 121.662L167.333 119.596Z" fill="#FFC3BD"/>
<path d="M165.002 110.863C168.395 111.729 170.765 125.674 170.765 125.674L161.422 132.027C161.422 132.027 152.473 117.954 155.079 114.227C157.793 110.352 160.055 109.605 165.002 110.863Z" fill="#2B6CB0"/>
<path d="M165.002 110.863C168.395 111.729 170.765 125.674 170.765 125.674L161.422 132.027C161.422 132.027 152.473 117.954 155.079 114.227C157.793 110.352 160.055 109.605 165.002 110.863Z" fill="#2B6CB0"/>
<path opacity="0.4" d="M165.002 110.863C168.395 111.729 170.765 125.674 170.765 125.674L161.422 132.027C161.422 132.027 152.473 117.954 155.079 114.227C157.793 110.352 160.055 109.605 165.002 110.863Z" fill="white"/>
<path opacity="0.3" d="M164.697 113.981L167.303 128.034L162.052 131.594L164.697 113.981Z" fill="black"/>
<path d="M191.211 128.359L194.328 120.845L198.173 128.359C198.173 128.359 195.676 132.096 192.381 131.181L191.211 128.359Z" fill="#FFC3BD"/>
<path d="M197.76 120.068L202.697 122.055L198.173 128.359L194.318 120.845L197.76 120.068Z" fill="#FFC3BD"/>
<path d="M146.661 345.63H154.892L155.443 326.581H147.212L146.661 345.63Z" fill="#FFC3BD"/>
<path d="M91.47 321.094L99.0326 324.319L108.936 307.837L101.363 304.611L91.47 321.094Z" fill="#FFC3BD"/>
<path d="M100.488 323.198L92.6206 318.36C92.4861 318.273 92.3244 318.239 92.1665 318.265C92.0086 318.29 91.8656 318.373 91.765 318.497L87.0347 324.172C86.917 324.32 86.8325 324.492 86.7868 324.676C86.7411 324.86 86.7352 325.052 86.7697 325.238C86.8042 325.424 86.8781 325.601 86.9866 325.756C87.0951 325.912 87.2355 326.042 87.3986 326.139C90.1719 327.781 91.588 328.43 95.0497 330.554C97.1838 331.872 100.154 333.996 103.094 335.806C106.035 337.615 108.011 334.822 106.92 333.79C102.15 329.237 102.288 327.073 101.393 324.378C101.244 323.888 100.923 323.469 100.488 323.198Z" fill="#263238"/>
<path d="M155.168 344.677H145.933C145.774 344.675 145.62 344.731 145.499 344.834C145.378 344.937 145.298 345.08 145.274 345.237L144.222 352.554C144.196 352.742 144.211 352.933 144.267 353.114C144.322 353.295 144.416 353.462 144.543 353.603C144.669 353.744 144.824 353.856 144.998 353.932C145.172 354.007 145.36 354.044 145.549 354.039C148.775 353.99 150.329 353.793 154.4 353.793C156.898 353.793 162.071 354.059 165.523 354.059C168.975 354.059 169.152 350.646 167.716 350.331C161.275 348.945 158.737 347.037 156.564 345.217C156.179 344.874 155.683 344.682 155.168 344.677Z" fill="#263238"/>
<path opacity="0.2" d="M155.433 326.591L155.158 336.406H146.926L147.211 326.591H155.433Z" fill="black"/>
<path opacity="0.2" d="M101.363 304.621L108.926 307.837L103.822 316.334L96.2593 313.108L101.363 304.621Z" fill="black"/>
<path d="M165.002 110.863C165.002 110.863 168.936 112.24 161.068 160.498H127.631C128.192 146.906 128.211 138.528 121.73 110.627C126.406 109.661 131.146 109.037 135.912 108.759C140.963 108.394 146.035 108.394 151.086 108.759C157.616 109.349 165.002 110.863 165.002 110.863Z" fill="#2B6CB0"/>
<path opacity="0.4" d="M165.002 110.863C165.002 110.863 168.936 112.24 161.068 160.498H127.631C128.192 146.906 128.211 138.528 121.73 110.627C126.406 109.661 131.146 109.037 135.912 108.759C140.963 108.394 146.035 108.394 151.086 108.759C157.616 109.349 165.002 110.863 165.002 110.863Z" fill="white"/>
<path d="M135.931 108.749C140.983 108.394 146.054 108.394 151.106 108.749C151.922 108.828 152.758 108.916 153.584 109.014C153.928 109.531 154.149 110.12 154.229 110.736C154.309 111.351 154.246 111.977 154.046 112.565C152.974 115.21 149.129 115.515 146.336 115.515C136 115.515 134.25 109.477 134.181 109.221L134.083 108.857L135.931 108.749Z" fill="white"/>
<path d="M137.436 91.6764C138.42 96.5936 139.354 105.504 135.931 108.759C135.931 108.759 137.269 113.676 146.336 113.676C156.308 113.676 151.106 108.759 151.106 108.759C145.658 107.461 145.805 103.419 146.749 99.6325L137.436 91.6764Z" fill="#FFC3BD"/>
<path d="M138.429 88.2049C137.259 92.0698 138.882 101.216 141.291 104.756C136.541 102.032 134.938 93.7318 134.938 93.7318L138.429 88.2049Z" fill="#263238"/>
<path opacity="0.2" d="M141.232 94.9218L146.749 99.6226C146.507 100.504 146.349 101.406 146.277 102.317C144.202 102.012 141.36 99.7308 141.124 97.5574C141.002 96.6795 141.039 95.7867 141.232 94.9218Z" fill="black"/>
<path d="M132.932 82.9631C134.84 90.8995 135.469 94.3022 140.249 97.7148C147.438 102.838 156.771 98.767 157.272 90.4176C157.725 82.9041 154.538 71.1913 146.13 69.3818C144.277 68.9727 142.351 69.0439 140.533 69.5887C138.716 70.1334 137.068 71.1335 135.746 72.4941C134.423 73.8548 133.471 75.5308 132.978 77.363C132.486 79.1953 132.47 81.123 132.932 82.9631Z" fill="#FFC3BD"/>
<path d="M161.078 160.498C161.078 160.498 167.559 223.851 166.979 248.929C166.418 275.01 156.859 334.488 156.859 334.488H145.746C145.746 334.488 147.507 276.514 146.523 250.896C145.451 222.966 136.581 160.478 136.581 160.478L161.078 160.498Z" fill="#2B6CB0"/>
<path opacity="0.4" d="M161.078 160.498C161.078 160.498 167.559 223.851 166.979 248.929C166.418 275.01 156.859 334.488 156.859 334.488H145.746C145.746 334.488 147.507 276.514 146.523 250.896C145.451 222.966 136.581 160.478 136.581 160.478L161.078 160.498Z" fill="black"/>
<path d="M144.822 334.901H157.862L158.826 330.741L144.212 330.23L144.822 334.901Z" fill="#2B6CB0"/>
<path opacity="0.2" d="M146.671 176.262C154.872 192.764 148.313 222.868 145.412 234.069C143.927 217.252 141.419 196.698 139.462 181.583C140.701 173.086 142.884 168.65 146.671 176.262Z" fill="black"/>
<path d="M152.256 160.498C152.256 160.498 144.684 226.388 138.97 247.503C132.194 272.61 106.399 315.36 106.399 315.36L96.0823 310.974C96.0823 310.974 112.044 262.431 117.236 249.204C128.3 220.979 118.829 178.918 127.67 160.498H152.256Z" fill="#2B6CB0"/>
<path opacity="0.4" d="M152.256 160.498C152.256 160.498 144.684 226.388 138.97 247.503C132.194 272.61 106.399 315.36 106.399 315.36L96.0823 310.974C96.0823 310.974 112.044 262.431 117.236 249.204C128.3 220.979 118.829 178.918 127.67 160.498H152.256Z" fill="black"/>
<path d="M94.6562 311.004L107.461 316.452L110.539 313.01L95.7675 305.919L94.6562 311.004Z" fill="#2B6CB0"/>
<path d="M145.549 83.0713C145.667 83.7204 146.1 84.1924 146.533 84.1137C146.966 84.0351 147.211 83.445 147.093 82.7959C146.975 82.1469 146.543 81.6748 146.11 81.7436C145.677 81.8125 145.382 82.4124 145.549 83.0713Z" fill="#263238"/>
<path d="M152.886 81.7731C152.994 82.4222 153.437 82.8943 153.869 82.8156C154.302 82.7369 154.558 82.1469 154.44 81.4978C154.322 80.8487 153.889 80.3767 153.456 80.4455C153.024 80.5144 152.768 81.1142 152.886 81.7731Z" fill="#263238"/>
<path d="M153.27 80.5242L154.755 79.7866C154.755 79.7866 154.164 81.1536 153.27 80.5242Z" fill="#263238"/>
<path d="M151.125 83.2385C151.97 84.6264 153.002 85.8907 154.194 86.9952C153.902 87.2907 153.549 87.5193 153.161 87.6653C152.772 87.8113 152.356 87.8712 151.942 87.841L151.125 83.2385Z" fill="#ED847E"/>
<path d="M148.982 90.9192C149.354 90.9185 149.726 90.8856 150.093 90.8208C150.121 90.8197 150.149 90.8125 150.174 90.7999C150.199 90.7872 150.221 90.7693 150.238 90.7474C150.256 90.7255 150.269 90.7001 150.276 90.6728C150.283 90.6456 150.284 90.6172 150.279 90.5895C150.274 90.5619 150.263 90.5356 150.247 90.5125C150.231 90.4894 150.21 90.4699 150.186 90.4555C150.162 90.4411 150.135 90.432 150.107 90.4288C150.079 90.4257 150.051 90.4286 150.024 90.4373C149.214 90.5987 148.378 90.566 147.583 90.3421C146.788 90.1182 146.058 89.7093 145.451 89.149C145.414 89.1129 145.365 89.0927 145.313 89.0927C145.262 89.0927 145.213 89.1129 145.176 89.149C145.157 89.1665 145.141 89.1877 145.131 89.2114C145.121 89.2351 145.115 89.2607 145.115 89.2866C145.115 89.3125 145.121 89.3381 145.131 89.3618C145.141 89.3855 145.157 89.4068 145.176 89.4243C146.202 90.3978 147.567 90.9339 148.982 90.9192Z" fill="#263238"/>
<path d="M135.715 78.3114C135.93 80.4028 136.258 82.4809 136.698 84.5366C136.698 84.5366 141.616 78.3114 142.432 74.9776C142.237 76.2902 141.856 77.5683 141.301 78.7737C141.301 78.7737 147.919 77.328 148.569 72.9615C148.557 74.9163 148.34 76.8645 147.919 78.7737C147.919 78.7737 154.233 76.2954 153.653 72.1059C153.073 67.9165 143.376 66.2938 138.901 67.7099C134.427 69.1261 130.05 73.7188 131.368 80.0325C132.686 86.3462 135.213 88.7163 135.213 88.7163C135.213 88.7163 133.394 82.3534 135.715 78.3114Z" fill="#263238"/>
<path d="M132.588 88.9424C133.195 90.3992 134.355 91.5557 135.813 92.1583C137.78 92.9451 138.951 91.2634 138.606 89.3162C138.302 87.5558 136.915 85.0382 134.879 85.0775C134.434 85.0972 134 85.2276 133.618 85.4568C133.235 85.6861 132.916 86.0069 132.689 86.3905C132.461 86.774 132.333 87.2082 132.315 87.6537C132.298 88.0992 132.391 88.5422 132.588 88.9424Z" fill="#FFC3BD"/>
<path d="M136.905 75.2824C135.922 79.2162 137.967 88.2639 140.544 91.6764C135.627 89.1883 133.66 80.9667 133.66 80.9667L136.905 75.2824Z" fill="#263238"/>
<path d="M142.855 80.829C142.905 80.8138 142.952 80.7885 142.993 80.7547C143.033 80.7209 143.067 80.6793 143.091 80.6324C143.298 80.1887 143.608 79.8005 143.994 79.4997C144.38 79.1988 144.833 78.9938 145.314 78.9015C145.415 78.8868 145.508 78.8338 145.571 78.7534C145.635 78.673 145.666 78.5712 145.658 78.4688C145.653 78.4174 145.638 78.3675 145.613 78.3221C145.589 78.2767 145.555 78.2367 145.515 78.2046C145.474 78.1724 145.428 78.1488 145.378 78.135C145.328 78.1213 145.276 78.1177 145.225 78.1246C144.615 78.2304 144.039 78.4813 143.546 78.8561C143.053 79.2309 142.658 79.7187 142.393 80.2783C142.359 80.3467 142.346 80.4233 142.356 80.4988C142.365 80.5744 142.396 80.6456 142.445 80.7039C142.494 80.7622 142.559 80.805 142.631 80.8272C142.704 80.8494 142.782 80.8501 142.855 80.829Z" fill="#263238"/>
<path d="M155.571 77.7804C155.62 77.7825 155.669 77.7739 155.715 77.7553C155.761 77.7366 155.802 77.7083 155.836 77.6722C155.908 77.5987 155.949 77.4998 155.949 77.3968C155.949 77.2939 155.908 77.195 155.836 77.1215C155.417 76.6676 154.897 76.3189 154.317 76.1036C153.738 75.8883 153.116 75.8125 152.502 75.8823C152.451 75.8918 152.403 75.9112 152.359 75.9396C152.315 75.968 152.278 76.0048 152.249 76.0478C152.219 76.0908 152.199 76.1391 152.188 76.1901C152.178 76.241 152.178 76.2935 152.188 76.3446C152.209 76.444 152.268 76.5313 152.352 76.5881C152.437 76.645 152.54 76.6669 152.64 76.6494C153.124 76.5953 153.614 76.6562 154.071 76.827C154.527 76.9979 154.936 77.274 155.266 77.6329C155.303 77.6786 155.349 77.7156 155.402 77.7411C155.454 77.7666 155.512 77.78 155.571 77.7804Z" fill="#263238"/>
<path d="M125.812 122.301C124.445 126.618 123.137 131.152 122.026 135.617C120.907 140.024 120.089 144.503 119.577 149.021L119.498 149.847C119.498 150.112 119.498 150.172 119.498 150.408C119.509 150.871 119.545 151.334 119.606 151.794C119.732 152.871 119.912 153.942 120.147 155C120.609 157.193 121.131 159.455 121.799 161.697C122.468 163.94 123.038 166.221 123.707 168.483L125.674 175.269L122.026 176.774C119.783 172.486 117.836 168.119 116.017 163.615C115.141 161.353 114.286 159.072 113.578 156.662C113.224 155.462 112.889 154.233 112.594 152.896C112.454 152.187 112.356 151.472 112.299 150.752C112.299 150.388 112.299 149.847 112.299 149.522V148.539C112.383 146.033 112.613 143.534 112.988 141.055C113.312 138.596 113.794 136.197 114.315 133.807C115.339 129.021 116.652 124.301 118.249 119.675L125.812 122.301Z" fill="#FFC3BD"/>
<path d="M121.75 110.627C118.407 111.611 114.384 123.166 114.384 123.166L127.366 132.45C127.366 132.45 132.106 122.832 130.7 118.505C129.234 114.001 125.576 109.467 121.75 110.627Z" fill="#2B6CB0"/>
<path opacity="0.4" d="M121.75 110.627C118.407 111.611 114.384 123.166 114.384 123.166L127.366 132.45C127.366 132.45 132.106 122.832 130.7 118.505C129.234 114.001 125.576 109.467 121.75 110.627Z" fill="white"/>
<path d="M103.812 326.326C103.972 326.269 104.118 326.178 104.238 326.059C104.359 325.94 104.452 325.796 104.51 325.637C104.567 325.535 104.597 325.42 104.597 325.303C104.597 325.186 104.567 325.071 104.51 324.968C103.92 324.103 100.941 324.172 100.577 324.182C100.539 324.182 100.502 324.194 100.471 324.215C100.439 324.236 100.415 324.265 100.4 324.3C100.38 324.331 100.37 324.366 100.37 324.403C100.37 324.439 100.38 324.475 100.4 324.506C101.177 325.283 102.632 326.552 103.655 326.355L103.812 326.326ZM101.049 324.536C102.239 324.536 103.832 324.703 104.147 325.165C104.173 325.21 104.188 325.261 104.188 325.313C104.188 325.365 104.173 325.416 104.147 325.46C104.103 325.579 104.031 325.685 103.937 325.769C103.842 325.853 103.729 325.912 103.606 325.942C103.065 326.08 102.121 325.519 101.049 324.536Z" fill="#2B6CB0"/>
<path d="M101.924 324.329C102.829 324.044 103.792 323.542 103.999 322.982C104.05 322.836 104.051 322.677 104.001 322.531C103.951 322.385 103.853 322.259 103.724 322.175C103.609 322.08 103.474 322.012 103.329 321.976C103.185 321.94 103.034 321.938 102.888 321.969C101.717 322.175 100.459 324.182 100.409 324.27C100.392 324.3 100.383 324.334 100.383 324.369C100.383 324.403 100.392 324.437 100.409 324.467C100.427 324.496 100.452 324.52 100.481 324.537C100.51 324.554 100.543 324.564 100.577 324.565C101.035 324.552 101.489 324.473 101.924 324.329ZM102.829 322.362H102.957C103.049 322.343 103.145 322.345 103.236 322.367C103.328 322.389 103.414 322.431 103.488 322.49C103.684 322.648 103.665 322.766 103.635 322.854C103.438 323.395 101.944 324.044 100.95 324.172C101.402 323.416 102.052 322.797 102.829 322.382V322.362Z" fill="#2B6CB0"/>
<path d="M158.256 346.112C158.949 346.169 159.641 345.993 160.222 345.611C160.358 345.488 160.461 345.335 160.522 345.163C160.584 344.992 160.603 344.808 160.577 344.627C160.569 344.521 160.534 344.418 160.476 344.328C160.417 344.239 160.337 344.166 160.242 344.116C159.259 343.565 155.964 345.237 155.59 345.424C155.554 345.439 155.524 345.464 155.502 345.496C155.48 345.529 155.469 345.567 155.469 345.606C155.469 345.645 155.48 345.683 155.502 345.715C155.524 345.748 155.554 345.773 155.59 345.788C156.466 345.986 157.359 346.094 158.256 346.112ZM159.721 344.411C159.846 344.403 159.971 344.427 160.085 344.48C160.124 344.501 160.156 344.532 160.178 344.57C160.201 344.609 160.213 344.652 160.213 344.696C160.231 344.809 160.221 344.925 160.183 345.033C160.145 345.142 160.081 345.239 159.996 345.316C159.495 345.768 158.138 345.847 156.318 345.542C157.38 344.975 158.531 344.593 159.721 344.411Z" fill="#2B6CB0"/>
<path d="M155.709 345.827H155.787C156.771 345.385 158.738 343.614 158.561 342.68C158.561 342.454 158.364 342.188 157.823 342.129C157.629 342.108 157.433 342.126 157.247 342.184C157.061 342.241 156.889 342.337 156.741 342.464C155.758 343.329 155.522 345.542 155.512 345.63C155.511 345.665 155.518 345.699 155.534 345.73C155.549 345.761 155.572 345.788 155.6 345.807C155.633 345.828 155.671 345.835 155.709 345.827ZM157.675 342.493H157.793C158.147 342.493 158.177 342.68 158.177 342.719C158.275 343.28 156.958 344.686 155.954 345.286C156.033 344.352 156.401 343.465 157.007 342.749C157.187 342.585 157.422 342.494 157.666 342.493H157.675Z" fill="#2B6CB0"/>
<path d="M127.169 158.541L126.323 161.491C126.205 161.717 126.481 161.953 126.864 161.953H161.285C161.589 161.953 161.835 161.806 161.855 161.619L162.16 158.668C162.16 158.462 161.914 158.285 161.589 158.285H127.72C127.614 158.277 127.507 158.296 127.411 158.341C127.314 158.385 127.231 158.454 127.169 158.541Z" fill="#263238"/>
<path d="M131.712 162.317H130.798C130.621 162.317 130.483 162.228 130.493 162.11L130.916 158.177C130.916 158.069 131.093 157.97 131.27 157.97H132.175C132.361 157.97 132.489 158.069 132.479 158.177L132.057 162.11C132.057 162.268 131.899 162.317 131.712 162.317Z" fill="#2B6CB0"/>
<path opacity="0.4" d="M131.712 162.317H130.798C130.621 162.317 130.483 162.228 130.493 162.11L130.916 158.177C130.916 158.069 131.093 157.97 131.27 157.97H132.175C132.361 157.97 132.489 158.069 132.479 158.177L132.057 162.11C132.057 162.268 131.899 162.317 131.712 162.317Z" fill="black"/>
<path d="M158.688 162.317H157.783C157.606 162.317 157.469 162.228 157.479 162.11L157.911 158.177C157.911 158.069 158.078 157.97 158.255 157.97H159.16C159.347 157.97 159.485 158.069 159.465 158.177L159.042 162.11C159.032 162.268 158.875 162.317 158.688 162.317Z" fill="#2B6CB0"/>
<path opacity="0.4" d="M158.688 162.317H157.783C157.606 162.317 157.469 162.228 157.479 162.11L157.911 158.177C157.911 158.069 158.078 157.97 158.255 157.97H159.16C159.347 157.97 159.485 158.069 159.465 158.177L159.042 162.11C159.032 162.268 158.875 162.317 158.688 162.317Z" fill="black"/>
<path d="M145.205 162.317H144.3C144.114 162.317 143.976 162.228 143.996 162.11L144.418 158.177C144.418 158.069 144.586 157.97 144.772 157.97H145.677C145.854 157.97 145.992 158.069 145.982 158.177L145.559 162.11C145.549 162.268 145.382 162.317 145.205 162.317Z" fill="#2B6CB0"/>
<path opacity="0.4" d="M145.205 162.317H144.3C144.114 162.317 143.976 162.228 143.996 162.11L144.418 158.177C144.418 158.069 144.586 157.97 144.772 157.97H145.677C145.854 157.97 145.992 158.069 145.982 158.177L145.559 162.11C145.549 162.268 145.382 162.317 145.205 162.317Z" fill="black"/>
<path d="M145.884 81.8125L147.369 81.0847C147.369 81.0847 146.779 82.4517 145.884 81.8125Z" fill="#263238"/>
<path d="M125.399 174.158L132.45 179.567L124.278 181.366C124.278 181.366 120.806 177.433 122.006 174.187L125.399 174.158Z" fill="#FFC3BD"/>
<path d="M134.181 186.264L127.257 187.395L123.481 180.294L132.45 179.567L134.181 186.264Z" fill="#FFC3BD"/>
</svg>
