<svg width="3023" height="2253" viewBox="0 0 3023 2253" fill="none" xmlns="http://www.w3.org/2000/svg"><path d="M1511.5 2253c647.42 0 1172.26-30.65 1172.26-68.46 0-37.8-524.84-68.45-1172.26-68.45-647.421 0-1172.259 30.65-1172.259 68.45 0 37.81 524.838 68.46 1172.259 68.46z" fill="#F5F5F5"/><path d="M2309.87 1920.76s-46.91-55.76-76.9-29.75c-29.99 26-14.81 81.21 19.77 83.03 20.51 1.1 40.75-5.09 57.13-17.48v-35.8z" fill="#2447F9"/><path opacity=".2" d="M2309.87 1920.76s-46.91-55.76-76.9-29.75c-29.99 26-14.81 81.21 19.77 83.03 20.51 1.1 40.75-5.09 57.13-17.48v-35.8z" fill="#fff"/><path d="M2501.11 1779.25s39.36-41.24 63.72-34.23c24.37 7.02 21.89 105.53-53.74 65.62l-9.98-31.39z" fill="#2447F9"/><path opacity=".3" d="M2501.11 1779.25s39.36-41.24 63.72-34.23c24.37 7.02 21.89 105.53-53.74 65.62l-9.98-31.39z" fill="#fff"/><path d="M2360.48 2087s-129.39-177.01-24.18-212.87c105.2-35.86 123.76 142.42 93.77 192.07-29.99 49.65-69.59 20.8-69.59 20.8zM2420.46 1724.58s80.29-186.38-38.58-192c-118.86-5.62-131.86 184.81 4.96 212.44l33.62-20.44z" fill="#2447F9"/><path opacity=".3" d="M2360.48 2087s-129.39-177.01-24.18-212.87c105.2-35.86 123.76 142.42 93.77 192.07-29.99 49.65-69.59 20.8-69.59 20.8zM2420.46 1724.58s80.29-186.38-38.58-192c-118.86-5.62-131.86 184.81 4.96 212.44l33.62-20.44z" fill="#fff"/><path d="M2391.98 1877.16s-39-164.55 36.27-177.67c75.28-13.13 149.04 135.58-6.04 210.32-.36 0-26.97-16.51-30.23-32.65z" fill="#2447F9"/><path opacity=".2" d="M2391.98 1877.16s-39-164.55 36.27-177.67c75.28-13.13 149.04 135.58-6.04 210.32-.36 0-26.97-16.51-30.23-32.65z" fill="#fff"/><path d="M2267.37 2061.9h217.17l-18.13 139.03h-180.9l-18.14-139.03z" fill="#263238"/><path d="M2380.31 1711.4c-44.74-32.72-75.76-95.97-49.34-149.25-1.08 4.96-2.41 10.34-3.62 15.3-8.83 50.5 18.86 98.69 52.96 133.95zM2351.89 1551.33c51.58 10.46 74.37 65.19 68.38 113.38-1.14 6.84-2.11 13.55-3.5 20.26.67-13.5.53-27.03-.43-40.51-3.2-39.74-25.09-78.62-64.45-93.13zM2442.58 1711.4c28.96 10.22 47.1 42.03 47.16 72.14 0 26.25-14.51 50.08-30.71 69.67-11.81 14.23-25.31 26.96-40.21 37.92 13.16-12.63 25.29-26.28 36.28-40.82 13.48-18.14 25.33-37.8 28.29-60.17 2.54-31.09-12.63-64.23-41.11-78.62l.3-.12zM2420.46 1724.58c7.73 24.19 14.63 52.92 2.05 76.62-10.52 15.36-11.61 35.44-12.09 53.76 0 6.41 0 12.76.42 19.17-3.08-12.55-4.49-25.47-4.17-38.4-.21-13.32 3.43-26.42 10.46-37.73 11.61-22.14 6.05-49.53 3.08-73.42h.25zM2367.73 1891.01c30.23 15.54 42.33 119.91 41.18 152.75-.91-6.65-1.94-13.24-3.21-19.83-5.74-32.9-11.73-65.92-20.43-98.15-4.05-12.1-6.65-26.97-17.54-34.77zM2330.97 1896.75c-7.28 23.7-8.39 48.86-3.23 73.1 5.16 24.25 16.43 46.78 32.74 65.45-4.8-4.12-9.34-8.52-13.6-13.19-14.61-17.05-23.91-38.02-26.73-60.3-2.83-22.28.94-44.9 10.82-65.06zM2531.64 1799.33c13.79-3.69 25.52-7.02 35.55-17.18-2.48 15.42-22.07 22.68-35.55 17.18zM2523.6 1772.18c6.47-13.19 28.6-21.41 37.97-7.08-13.24-5.75-26.12 1.45-37.97 7.08zM2288.47 1929.1c-15.11-10.64-30.77-28.78-50.3-19.29 15.9-18.86 42.62 2.24 50.3 19.29zM2288.47 1956.56c-19.77 7.26-59.25 7.8-61.67-19.84 11.31 22.56 40.15 17.6 61.67 19.84zM1908.42 2080.29c1.04-2.11 1.55-4.43 1.49-6.78-.06-2.35-.68-4.65-1.83-6.7-1.14-2.05-2.76-3.79-4.72-5.08-1.97-1.29-4.21-2.08-6.55-2.31 2.01-5.98 2.13-12.44.37-18.5-1.76-6.06-5.32-11.44-10.22-15.42-1.17-1.12-2.68-1.81-4.3-1.94-1.71.19-3.31.91-4.59 2.06l-27.15 19.53c-2.2 1.32-4.07 3.15-5.44 5.32-5.56 10.77 14.51 24.56 6.05 33.45-2.36 2.6-6.05 3.08-9.13 4.96-6.47 4.05-7.26 12.94-10.28 19.95-3.02 7.02-13.54 12.4-17.59 6.05 3.02-6.71-6.05-12.52-13.31-13.37-7.25-.84-14.93-1.27-18.92-8.1-10.4 9.07-33.55-16.21-33.07-26.37-4.08.74-7.83 2.73-10.73 5.7-2.89 2.97-4.79 6.77-5.41 10.87-1.18 8.42-1.49 16.93-.91 25.4 0 16.51-5.56 32.66-5.26 49.17 0 12.82 5.2 27.03 16.93 32.23 5.81 2.07 11.99 2.9 18.14 2.42l133.79-.85c3.23.25 6.47-.29 9.44-1.57 6.04-3.14 7.31-11.07 7.86-17.84 2.33-29.07 4.73-58.13 7.19-87.2l-11.85-5.08z" fill="#2447F9"/><path opacity=".3" d="M1908.42 2080.29c1.04-2.11 1.55-4.43 1.49-6.78-.06-2.35-.68-4.65-1.83-6.7-1.14-2.05-2.76-3.79-4.72-5.08-1.97-1.29-4.21-2.08-6.55-2.31 2.01-5.98 2.13-12.44.37-18.5-1.76-6.06-5.32-11.44-10.22-15.42-1.17-1.12-2.68-1.81-4.3-1.94-1.71.19-3.31.91-4.59 2.06l-27.15 19.53c-2.2 1.32-4.07 3.15-5.44 5.32-5.56 10.77 14.51 24.56 6.05 33.45-2.36 2.6-6.05 3.08-9.13 4.96-6.47 4.05-7.26 12.94-10.28 19.95-3.02 7.02-13.54 12.4-17.59 6.05 3.02-6.71-6.05-12.52-13.31-13.37-7.25-.84-14.93-1.27-18.92-8.1-10.4 9.07-33.55-16.21-33.07-26.37-4.08.74-7.83 2.73-10.73 5.7-2.89 2.97-4.79 6.77-5.41 10.87-1.18 8.42-1.49 16.93-.91 25.4 0 16.51-5.56 32.66-5.26 49.17 0 12.82 5.2 27.03 16.93 32.23 5.81 2.07 11.99 2.9 18.14 2.42l133.79-.85c3.23.25 6.47-.29 9.44-1.57 6.04-3.14 7.31-11.07 7.86-17.84 2.33-29.07 4.73-58.13 7.19-87.2l-11.85-5.08z" fill="#fff"/><path d="M1916.58 1938.54h-207.92l1.69 20.98 1.27 15 3.15 38.94 1.81 22.44 2.36 29.75 1.03 12.82.36 3.81 1.21 15 1.69 20.62 1.03 12.76 1.03 13 1.21 15 .96 11.37 1.03 12.76.42 5.56h190.51l.43-5.56 1.02-12.7.97-11.49 1.21-15 1.03-12.94 1.03-12.76 1.69-20.68 1.21-14.94.3-3.81 1.03-12.82 2.42-29.75 1.81-22.38 3.15-39 1.2-15 1.7-20.98h-23.04zm12.46 13.79l-3.99-4.06h4.35l-.36 4.06zm-1.03 12.7l-.36 5.08-18.63 18.56-21.28-21.29 19.05-19.11h4.47l16.75 16.76zm-5.38 66.52l-13.61 13.6-21.28-21.34 21.28-21.23 14.76 14.69-1.15 14.28zm-197.52-14.28l14.75-14.69 21.28 21.23-21.28 21.34-13.55-13.6-1.2-14.28zm176.78-21.65l-21.58 21.29-21.04-21.29 21.28-21.28 21.34 21.28zm-33.68-47.35h24.19l-12.09 12.1-12.1-12.1zm5.32 75.47l-21.28 21.35-21.34-21.35 21.34-21.22 21.28 21.22zm-70.79 28.25l21.34-21.29 21.22 21.29-21.22 21.28-21.34-21.28zm14.39 28.18l-21.47 21.34-20.98-21.22 21.28-21.35 21.17 21.23zm35.12-21.29l21.41 21.41-21.29 21.28-21.34-21.28 21.22-21.41zm-28.17-41.97l-21.22-21.29 21.34-21.28 21.22 21.28-21.34 21.29zm-6.95 6.83l-21.29 21.35-21.28-21.35 21.28-21.22 21.29 21.22zm-49.52-6.83l-21.16-21.29 21.28-21.28 21.34 21.28-21.46 21.29zm0 13.79l21.34 21.29-21.34 21.28-21.28-21.28 21.28-21.29zm21.34 77.71l-21.34 21.28-21.28-21.28 21.28-21.29 21.34 21.29zm6.83 6.89l21.35 21.29-21.29 21.35-21.28-21.35 21.22-21.29zm6.96-6.89l21.34-21.29 21.22 21.29-21.22 21.28-21.34-21.28zm49.51 6.89l21.28 21.29-21.28 21.35-21.34-21.35 21.34-21.29zm28.18 28.18l21.34 21.35-13.85 13.79h-14.87l-13.78-13.67 21.16-21.47zm-21.29-35.07l21.29-21.29 21.34 21.29-21.46 21.28-21.17-21.28zm0-56.42l21.17-21.29 21.34 21.29-21.34 21.28-21.17-21.28zm14.39-84.67l-21.28 21.29-21.34-21.29 19.11-19.11h4.47l19.04 19.11zm-49.45-6.89l-12.09-12.1h24.18l-12.09 12.1zm-6.95 6.89l-21.29 21.29-21.28-21.29 19.05-19.11h4.47l19.05 19.11zm-37.31-19.11l-12.09 12.1-12.09-12.1h24.18zm-38.15 0l19.05 19.11-21.29 21.29-18.56-18.57-.36-5.08 16.69-16.75h4.47zm-18.14 0l-3.93 3.99-.36-3.99h4.29zm-1.33 36.89l10.46 10.4-8.89 8.89-1.57-19.29zm6.05 71.42l-.79-10.1 5.44 5.51-4.65 4.59zm1.03 12.88l10.52-10.58 21.28 21.35-21.28 21.28-8.59-8.58-1.93-23.47zm3.2 39.37v-.91l.48.49-.42.42h-.06zm3.69 45.42l-2.66-32.66 6.05-6.05 21.28 21.29-21.28 21.29-3.63-3.63.24-.24zm1.93 24.19l-.36-4.9 2.06-2.06 6.89 6.96h-8.59zm8.59-13.79l21.28-21.35 21.34 21.35-13.84 13.79h-15l-13.78-13.79zm42.62 13.79l6.9-6.96 6.95 6.96h-13.85zm27.57 0l-14.02-13.43 21.34-21.35 21.22 21.35-13.48 13.67-15.06-.24zm28.78 0l6.96-6.96 6.89 6.96h-13.85zm65 0h-8.59l6.89-6.96 2.06 2.06-.36 4.9zm1.99-24.19l-3.69 3.62-21.28-21.28 21.28-21.29 6.05 6.05-2.36 32.9zm3.75-46.39v.97l-.42-.42.54-.55h-.12zm1.21-14.93l-8.65 8.58-21.52-21.16 21.28-21.35 10.58 10.58-1.69 23.35zm2.96-36.29l-4.71-4.65 5.5-5.51-.79 10.16zm6.05-71.54l-1.57 19.41-9.44-8.83 10.52-10.46.49-.12z" fill="#2447F9"/><path d="M1916.58 1938.54h-207.92l1.69 20.98 1.27 15 3.15 38.94 1.81 22.44 2.36 29.75 1.03 12.82.36 3.81 1.21 15 1.69 20.62 1.03 12.76 1.03 13 1.21 15 .96 11.37 1.03 12.76.42 5.56h190.51l.43-5.56 1.02-12.7.97-11.49 1.21-15 1.03-12.94 1.03-12.76 1.69-20.68 1.21-14.94.3-3.81 1.03-12.82 2.42-29.75 1.81-22.38 3.15-39 1.2-15 1.7-20.98h-23.04zm12.46 13.79l-3.99-4.06h4.35l-.36 4.06zm-1.03 12.7l-.36 5.08-18.63 18.56-21.28-21.29 19.05-19.11h4.47l16.75 16.76zm-5.38 66.52l-13.61 13.6-21.28-21.34 21.28-21.23 14.76 14.69-1.15 14.28zm-197.52-14.28l14.75-14.69 21.28 21.23-21.28 21.34-13.55-13.6-1.2-14.28zm176.78-21.65l-21.58 21.29-21.04-21.29 21.28-21.28 21.34 21.28zm-33.68-47.35h24.19l-12.09 12.1-12.1-12.1zm5.32 75.47l-21.28 21.35-21.34-21.35 21.34-21.22 21.28 21.22zm-70.79 28.25l21.34-21.29 21.22 21.29-21.22 21.28-21.34-21.28zm14.39 28.18l-21.47 21.34-20.98-21.22 21.28-21.35 21.17 21.23zm35.12-21.29l21.41 21.41-21.29 21.28-21.34-21.28 21.22-21.41zm-28.17-41.97l-21.22-21.29 21.34-21.28 21.22 21.28-21.34 21.29zm-6.95 6.83l-21.29 21.35-21.28-21.35 21.28-21.22 21.29 21.22zm-49.52-6.83l-21.16-21.29 21.28-21.28 21.34 21.28-21.46 21.29zm0 13.79l21.34 21.29-21.34 21.28-21.28-21.28 21.28-21.29zm21.34 77.71l-21.34 21.28-21.28-21.28 21.28-21.29 21.34 21.29zm6.83 6.89l21.35 21.29-21.29 21.35-21.28-21.35 21.22-21.29zm6.96-6.89l21.34-21.29 21.22 21.29-21.22 21.28-21.34-21.28zm49.51 6.89l21.28 21.29-21.28 21.35-21.34-21.35 21.34-21.29zm28.18 28.18l21.34 21.35-13.85 13.79h-14.87l-13.78-13.67 21.16-21.47zm-21.29-35.07l21.29-21.29 21.34 21.29-21.46 21.28-21.17-21.28zm0-56.42l21.17-21.29 21.34 21.29-21.34 21.28-21.17-21.28zm14.39-84.67l-21.28 21.29-21.34-21.29 19.11-19.11h4.47l19.04 19.11zm-49.45-6.89l-12.09-12.1h24.18l-12.09 12.1zm-6.95 6.89l-21.29 21.29-21.28-21.29 19.05-19.11h4.47l19.05 19.11zm-37.31-19.11l-12.09 12.1-12.09-12.1h24.18zm-38.15 0l19.05 19.11-21.29 21.29-18.56-18.57-.36-5.08 16.69-16.75h4.47zm-18.14 0l-3.93 3.99-.36-3.99h4.29zm-1.33 36.89l10.46 10.4-8.89 8.89-1.57-19.29zm6.05 71.42l-.79-10.1 5.44 5.51-4.65 4.59zm1.03 12.88l10.52-10.58 21.28 21.35-21.28 21.28-8.59-8.58-1.93-23.47zm3.2 39.37v-.91l.48.49-.42.42h-.06zm3.69 45.42l-2.66-32.66 6.05-6.05 21.28 21.29-21.28 21.29-3.63-3.63.24-.24zm1.93 24.19l-.36-4.9 2.06-2.06 6.89 6.96h-8.59zm8.59-13.79l21.28-21.35 21.34 21.35-13.84 13.79h-15l-13.78-13.79zm42.62 13.79l6.9-6.96 6.95 6.96h-13.85zm27.57 0l-14.02-13.43 21.34-21.35 21.22 21.35-13.48 13.67-15.06-.24zm28.78 0l6.96-6.96 6.89 6.96h-13.85zm65 0h-8.59l6.89-6.96 2.06 2.06-.36 4.9zm1.99-24.19l-3.69 3.62-21.28-21.28 21.28-21.29 6.05 6.05-2.36 32.9zm3.75-46.39v.97l-.42-.42.54-.55h-.12zm1.21-14.93l-8.65 8.58-21.52-21.16 21.28-21.35 10.58 10.58-1.69 23.35zm2.96-36.29l-4.71-4.65 5.5-5.51-.79 10.16zm6.05-71.54l-1.57 19.41-9.44-8.83 10.52-10.46.49-.12z" fill="#fff" opacity=".6"/><path d="M1705.27 1957.04H1943c5.48 0 9.92-4.44 9.92-9.92v-7.31c0-5.48-4.44-9.92-9.92-9.92h-237.73c-5.47 0-9.91 4.44-9.91 9.92v7.31c0 5.48 4.44 9.92 9.91 9.92zM1924.44 2173.78H1723.9c-5.48 0-9.92 4.44-9.92 9.92v7.31c0 5.48 4.44 9.92 9.92 9.92h200.54c5.48 0 9.92-4.44 9.92-9.92v-7.31c0-5.48-4.44-9.92-9.92-9.92zM2621.18 566.153H1414.1v822.017h1207.08V566.153z" fill="#2447F9"/><path opacity=".6" d="M2621.18 566.153H1414.1v822.017h1207.08V566.153z" fill="#fff"/><path opacity=".1" d="M2191.31 566.153S1844.03 891.379 1414.1 899.12V566.153h777.21zM2621.12 995.272s-238.51-24.854-474.49 112.238c-235.97 137.09-471.59 266.08-732.53 205.61v74.99h1207.02V995.272z" fill="#fff"/><path d="M2306.19 751.988h-577.22v98.874h577.22v-98.874zM2306.19 892.226h-577.22V991.1h577.22v-98.874z" fill="#fff"/><g opacity=".4" fill="#263238"><path d="M1780.67 811.07v2.601h-20.07v-28.362h19.46v2.6h-16.44v10.341h14.63v2.54h-14.63v10.522l17.05-.242zM1784.66 801.395h10.64v2.539h-10.64v-2.539zM1836.84 801.273v12.398h-2.85v-12.095c0-4.475-2.29-6.773-6.04-6.773-1-.063-2.01.097-2.94.469-.93.371-1.77.945-2.45 1.68-.68.735-1.19 1.612-1.49 2.569-.31.956-.39 1.968-.26 2.962v11.188h-2.9v-12.095c0-4.475-2.24-6.773-6.04-6.773-1-.043-1.99.131-2.91.511-.92.379-1.74.955-2.41 1.686-.68.731-1.18 1.601-1.49 2.548-.3.947-.39 1.948-.27 2.935v11.188h-3.08v-21.469h2.78v3.931c.81-1.32 1.96-2.395 3.34-3.108 1.37-.714 2.91-1.04 4.46-.944 1.56-.116 3.13.25 4.48 1.051 1.35.8 2.42 1.995 3.08 3.425.86-1.434 2.1-2.606 3.58-3.394 1.48-.787 3.15-1.161 4.82-1.082 1.21-.106 2.42.064 3.56.497 1.13.434 2.15 1.12 2.97 2.006.83.886 1.45 1.949 1.8 3.108.36 1.159.44 2.384.26 3.581zM1860.72 800.427v13.244h-2.78v-3.326c-.8 1.185-1.9 2.136-3.18 2.752-1.29.617-2.72.878-4.14.755-4.84 0-7.74-2.479-7.74-6.047 0-3.568 2.06-6.048 8.16-6.048h6.77v-1.33c.08-.795-.03-1.597-.31-2.343-.28-.747-.74-1.418-1.32-1.962-.58-.544-1.29-.946-2.05-1.175-.77-.228-1.57-.278-2.36-.144-2.61-.041-5.14.861-7.14 2.54l-1.26-2.177c2.46-1.921 5.52-2.926 8.64-2.843 1.13-.178 2.29-.096 3.39.239 1.09.334 2.1.914 2.93 1.695.84.78 1.49 1.742 1.91 2.81.41 1.069.57 2.218.48 3.36zm-2.91 6.833v-3.507h-6.65c-4.11 0-5.5 1.633-5.5 3.81s2 4.052 5.38 4.052c1.45.094 2.89-.278 4.11-1.062 1.21-.784 2.15-1.938 2.66-3.293zM1867.85 785.611c-.01-.421.1-.836.33-1.192.22-.356.55-.637.93-.806.39-.17.82-.22 1.23-.146.42.075.8.272 1.1.565.3.294.51.671.6 1.083.08.412.05.84-.11 1.231-.16.39-.43.724-.78.96-.35.235-.76.361-1.18.361-.28.008-.55-.039-.81-.139-.25-.1-.49-.25-.69-.441-.19-.192-.35-.422-.46-.675-.1-.254-.16-.526-.16-.801zm.67 6.712h2.84v21.348h-2.84v-21.348zM1879.4 783.615h2.84v30.237h-2.84v-30.237z"/></g><g opacity=".4" fill="#263238"><path d="M1782.78 935.343c0 6.048-4.35 9.736-11.54 9.736h-7.62v8.95h-3.02v-28.362h10.88c6.95 0 11.3 3.629 11.3 9.676zm-2.96 0c0-4.535-3.02-7.075-8.7-7.075h-7.5v14.151h7.5c5.68 0 8.7-2.601 8.7-7.076zM1804.49 940.786v13.243h-2.78v-3.326c-.8 1.181-1.9 2.128-3.19 2.745-1.28.616-2.71.879-4.13.763-4.83 0-7.8-2.54-7.8-6.047 0-3.508 2.12-6.048 8.23-6.048h6.89v-1.33c0-3.629-2.06-5.624-6.05-5.624-2.59-.042-5.1.861-7.07 2.54l-1.33-2.177c2.49-1.921 5.56-2.925 8.7-2.843 1.12-.159 2.27-.064 3.34.281 1.08.344 2.07.928 2.89 1.707.82.78 1.45 1.735 1.85 2.794.4 1.059.55 2.195.45 3.322zm-2.78 6.833v-3.507H1795c-4.11 0-5.44 1.633-5.44 3.81s1.99 3.991 5.38 3.991c1.43.089 2.86-.278 4.08-1.049 1.21-.771 2.16-1.907 2.69-3.245zM1809.33 951.55l1.33-2.237c2.2 1.568 4.85 2.394 7.55 2.358 4.05 0 5.69-1.33 5.69-3.447 0-5.563-13.79-1.209-13.79-9.615 0-3.508 3.02-6.047 8.41-6.047 2.64-.061 5.26.609 7.55 1.935l-1.27 2.358c-1.77-1.224-3.88-1.878-6.04-1.875-3.81 0-5.5 1.512-5.5 3.568 0 6.048 13.78 1.391 13.78 9.555 0 3.689-3.26 6.048-8.77 6.048-3.19.164-6.34-.752-8.94-2.601zM1829.16 951.55l1.27-2.237c2.21 1.556 4.85 2.381 7.55 2.358 4.05 0 5.75-1.33 5.75-3.447 0-5.564-13.85-1.209-13.85-9.615 0-3.508 3.03-6.048 8.47-6.048 2.63-.052 5.22.617 7.49 1.936l-1.27 2.358c-1.77-1.234-3.88-1.889-6.04-1.875-3.87 0-5.56 1.512-5.56 3.568 0 6.048 13.78 1.391 13.78 9.555 0 3.689-3.2 6.047-8.77 6.047-3.15.151-6.26-.765-8.82-2.6zM1882.72 932.682l-8.04 21.348h-2.72l-6.71-17.477-6.71 17.477h-2.42l-8.04-21.348h2.78l6.65 18.142 6.83-18.142h2.48l6.84 18.142 6.77-18.142h2.29zM1884.3 943.386c.01-2.138.65-4.225 1.85-5.997 1.2-1.772 2.89-3.15 4.87-3.96s4.15-1.016 6.25-.592c2.09.425 4.01 1.46 5.52 2.977 1.51 1.516 2.53 3.445 2.95 5.543.41 2.098.19 4.271-.63 6.246-.82 1.974-2.21 3.661-3.99 4.848-1.77 1.187-3.86 1.82-6 1.82-1.44.052-2.88-.195-4.22-.725-1.34-.53-2.55-1.331-3.57-2.353-1.02-1.022-1.81-2.243-2.33-3.586-.52-1.344-.76-2.781-.7-4.221zm18.74 0c-.08-1.546-.62-3.034-1.54-4.28-.92-1.246-2.18-2.195-3.63-2.73-1.45-.535-3.03-.633-4.54-.281-1.51.351-2.88 1.137-3.94 2.26-1.07 1.123-1.78 2.534-2.06 4.058-.27 1.524-.09 3.095.52 4.518.61 1.423 1.62 2.636 2.92 3.489 1.29.853 2.8 1.309 4.35 1.312 1.08.019 2.15-.187 3.15-.605s1.9-1.04 2.65-1.825c.74-.784 1.31-1.716 1.68-2.734.36-1.019.51-2.102.44-3.182zM1922.63 932.562v2.781h-.67c-1.01-.055-2.03.117-2.98.502-.94.386-1.78.976-2.47 1.727-.69.752-1.2 1.647-1.5 2.621-.31.974-.39 2.003-.24 3.012v10.885h-2.84v-21.347h2.72v4.173c.73-1.447 1.89-2.637 3.31-3.414 1.43-.777 3.05-1.105 4.67-.94zM1946.81 923.974v30.237h-2.78v-4.233c-.85 1.394-2.05 2.537-3.48 3.313-1.44.776-3.05 1.156-4.68 1.101-2.87 0-5.62-1.14-7.65-3.17-2.03-2.03-3.17-4.784-3.17-7.654 0-2.871 1.14-5.625 3.17-7.655 2.03-2.03 4.78-3.17 7.65-3.17 1.58-.053 3.16.304 4.57 1.034 1.4.731 2.6 1.812 3.47 3.138v-12.759l2.9-.182zm-2.84 19.352c-.08-1.549-.62-3.039-1.54-4.286-.92-1.247-2.19-2.196-3.65-2.73-1.45-.533-3.03-.627-4.54-.27-1.51.356-2.88 1.148-3.94 2.277-1.07 1.129-1.78 2.545-2.04 4.073-.27 1.528-.08 3.1.54 4.522.62 1.422 1.64 2.631 2.94 3.477 1.3.846 2.82 1.292 4.37 1.282 1.08.027 2.16-.171 3.16-.582 1-.41 1.9-1.025 2.65-1.804.75-.779 1.33-1.706 1.71-2.721.37-1.016.53-2.098.46-3.178l-.12-.06z"/></g><path opacity=".2" d="M2312.23 1091.91h-577.21v98.87h577.21v-98.87z" fill="#000"/><g opacity=".5" fill="#000"><path d="M1807.09 1050.97l-3.87-5.38h-6.05v5.32h-1.51v-16.81h6.05c4.29 0 6.89 2.17 6.89 6.04.06 1.2-.3 2.38-1 3.34-.7.97-1.72 1.67-2.87 1.99l4.11 5.74-1.75-.24zm0-11.07c0-2.72-1.81-4.29-5.2-4.29h-4.47v8.53h4.29c3.5 0 5.32-1.58 5.32-4l.06-.24zM1823.72 1045.16h-10.65c.04.62.2 1.23.48 1.79.27.55.65 1.05 1.12 1.46.46.41 1.01.73 1.59.93.59.2 1.21.28 1.83.24.74.02 1.47-.11 2.14-.39.68-.28 1.29-.71 1.79-1.25l.97 1.09c-.63.69-1.39 1.23-2.25 1.58-.86.36-1.78.52-2.71.48-.88.09-1.77-.01-2.6-.3-.84-.29-1.6-.76-2.24-1.38-.63-.62-1.12-1.37-1.43-2.19-.32-.83-.44-1.72-.38-2.6-.05-.83.07-1.65.35-2.43.28-.77.72-1.48 1.29-2.08.57-.6 1.25-1.08 2.01-1.41.76-.33 1.57-.49 2.4-.49.82 0 1.64.16 2.4.49.76.33 1.44.81 2.01 1.41.56.6 1 1.31 1.28 2.08.28.78.4 1.6.35 2.43 0 0 .25.36.25.54zm-10.65-1.27h9.07c0-1.2-.47-2.35-1.32-3.2-.85-.85-2.01-1.33-3.21-1.33-1.2 0-2.36.48-3.21 1.33-.85.85-1.33 2-1.33 3.2zM1848.26 1043.65v7.32h-1.75v-7.2c0-2.66-1.33-4.05-3.63-4.05-.59-.03-1.19.07-1.74.29-.56.23-1.05.57-1.46 1.01-.4.44-.7.96-.88 1.53-.18.57-.23 1.18-.15 1.77v6.65h-1.75v-7.2c0-2.66-1.33-4.05-3.63-4.05-.6-.03-1.2.07-1.75.29-.56.23-1.06.57-1.47 1.01-.41.44-.71.96-.9 1.53-.19.57-.25 1.17-.17 1.77v6.65h-1.7v-12.7h1.64v2.36c.48-.79 1.17-1.43 1.99-1.86.82-.43 1.74-.62 2.66-.56.94-.08 1.88.13 2.69.6.82.48 1.46 1.2 1.84 2.06.52-.86 1.26-1.56 2.14-2.03.89-.47 1.88-.69 2.88-.63.72-.06 1.44.04 2.11.29.68.26 1.28.66 1.78 1.19.49.52.86 1.15 1.08 1.84.22.68.28 1.41.17 2.12zM1864.04 1045.16h-10.64c.04.62.2 1.23.47 1.79.28.55.66 1.05 1.12 1.46.47.41 1.01.73 1.6.93.59.2 1.21.28 1.83.24.72.03 1.45-.11 2.12-.39.66-.28 1.26-.71 1.75-1.25l.97 1.09c-.92.96-2.09 1.62-3.38 1.9-1.28.29-2.63.2-3.86-.28-1.23-.47-2.3-1.29-3.07-2.36-.76-1.08-1.2-2.35-1.24-3.67 0-1.64.65-3.22 1.81-4.38 1.17-1.17 2.74-1.82 4.39-1.82 1.64 0 3.22.65 4.38 1.82 1.16 1.16 1.81 2.74 1.81 4.38 0 0-.06.36-.06.54zm-10.64-1.27h8.77c-.02-.57-.15-1.13-.38-1.65-.23-.53-.57-1-.98-1.39-.42-.39-.91-.7-1.44-.91-.53-.2-1.1-.3-1.68-.28-1.11.04-2.17.5-2.96 1.29-.8.78-1.27 1.83-1.33 2.94zM1888.59 1043.65v7.32h-1.75v-7.2c0-2.66-1.33-4.05-3.63-4.05-.6-.03-1.19.07-1.75.29-.55.23-1.05.57-1.45 1.01-.4.44-.71.96-.89 1.53-.17.57-.23 1.18-.14 1.77v6.65h-1.76v-7.2c0-2.66-1.33-4.05-3.69-4.05-.59-.02-1.18.09-1.73.31-.55.23-1.04.58-1.44 1.01-.4.44-.7.96-.89 1.52-.18.57-.24 1.17-.17 1.76v6.65h-1.69v-12.7h1.63v2.36c.48-.79 1.17-1.43 1.99-1.86.82-.43 1.74-.62 2.67-.56.94-.08 1.88.13 2.69.6.81.48 1.46 1.2 1.84 2.06.52-.86 1.26-1.56 2.14-2.03.89-.47 1.88-.69 2.88-.63.72-.06 1.44.04 2.11.29.67.26 1.28.66 1.77 1.19.5.52.87 1.15 1.09 1.84.21.68.27 1.41.17 2.12zM1906.12 1044.62c.06.83-.05 1.66-.33 2.44-.28.79-.71 1.5-1.28 2.11-.57.61-1.26 1.09-2.02 1.42-.76.33-1.58.5-2.41.5-.98.03-1.94-.19-2.8-.65-.86-.45-1.58-1.13-2.1-1.95v2.48h-1.63v-18.14h1.69v7.62c.53-.79 1.25-1.43 2.1-1.87.84-.43 1.79-.64 2.74-.61.84-.01 1.68.17 2.46.51.77.34 1.47.84 2.04 1.47.57.62 1 1.36 1.27 2.17.26.8.36 1.66.27 2.5zm-1.69 0c-.04-.94-.35-1.84-.89-2.6-.55-.77-1.31-1.35-2.18-1.68-.88-.34-1.83-.41-2.74-.2-.92.2-1.75.67-2.4 1.35-.65.67-1.09 1.52-1.26 2.44-.17.92-.07 1.88.3 2.74.37.86.98 1.6 1.76 2.11.78.52 1.7.8 2.63.8.65.02 1.3-.1 1.9-.35.61-.24 1.15-.61 1.61-1.07.45-.47.8-1.02 1.03-1.63.23-.61.33-1.26.3-1.91h-.06zM1920.69 1045.16h-10.64c.04.62.2 1.23.47 1.79.28.55.66 1.05 1.12 1.46.47.41 1.01.73 1.6.93.59.2 1.21.28 1.83.24.73.02 1.46-.12 2.14-.4.68-.28 1.29-.7 1.79-1.24l.91 1.09c-.61.7-1.36 1.24-2.21 1.6-.85.35-1.77.51-2.69.46-.88.09-1.77-.01-2.61-.3-.83-.29-1.59-.76-2.23-1.38-.63-.62-1.12-1.37-1.44-2.19-.31-.83-.44-1.72-.37-2.6-.05-.83.07-1.65.35-2.43.28-.77.72-1.48 1.29-2.08.56-.6 1.25-1.08 2-1.41.76-.33 1.58-.49 2.41-.49.82 0 1.64.16 2.4.49.75.33 1.44.81 2 1.41.57.6 1.01 1.31 1.29 2.08.28.78.4 1.6.35 2.43 0 0 .24.36.24.54zm-10.64-1.27h9.01c-.01-.57-.14-1.13-.38-1.65-.23-.53-.56-1-.98-1.39-.41-.39-.9-.7-1.44-.91-.53-.2-1.1-.3-1.67-.28-1.16-.02-2.28.41-3.12 1.2-.85.79-1.36 1.88-1.42 3.03zM1930.67 1038.21v1.93h-.42c-.61-.03-1.21.07-1.77.3-.56.23-1.06.58-1.47 1.02-.41.45-.72.98-.9 1.55-.19.58-.24 1.19-.16 1.79v6.47h-1.69v-12.7h1.63v2.48c.4-.91 1.08-1.68 1.94-2.19.85-.51 1.85-.74 2.84-.65zM1961.26 1043.65v7.32h-1.69v-7.2c0-2.66-1.39-4.05-3.69-4.05-.59-.03-1.19.07-1.74.29-.56.23-1.05.57-1.46 1.01-.4.44-.7.96-.88 1.53-.18.57-.23 1.18-.15 1.77v6.65h-1.75v-7.2c0-2.66-1.33-4.05-3.63-4.05-.6-.03-1.2.07-1.75.29-.56.23-1.06.57-1.47 1.01-.41.44-.71.96-.9 1.53-.19.57-.25 1.17-.17 1.77v6.65h-1.7v-12.7h1.63v2.36c.49-.79 1.18-1.43 2-1.86.82-.43 1.74-.62 2.66-.56.94-.08 1.88.13 2.69.6.81.48 1.46 1.2 1.84 2.06.52-.86 1.26-1.56 2.14-2.03.89-.47 1.88-.69 2.88-.63.72-.06 1.44.04 2.11.29.68.26 1.28.66 1.78 1.19.49.52.86 1.15 1.08 1.84.22.68.27 1.41.17 2.12zM1977.04 1045.16h-10.64c.04.62.2 1.23.47 1.79.28.55.66 1.05 1.12 1.46.47.41 1.01.73 1.6.93.59.2 1.21.28 1.83.24.72.03 1.45-.11 2.12-.39.66-.28 1.26-.71 1.75-1.25l.97 1.09c-.61.7-1.37 1.24-2.21 1.6-.85.35-1.77.51-2.69.46-.88.09-1.77-.01-2.61-.3-.83-.29-1.59-.76-2.23-1.38-.63-.62-1.12-1.37-1.44-2.19-.31-.83-.44-1.72-.37-2.6-.05-.83.07-1.65.35-2.43.28-.77.72-1.48 1.29-2.08.56-.6 1.25-1.08 2-1.41.76-.33 1.58-.49 2.4-.49.83 0 1.65.16 2.4.49.76.33 1.45.81 2.01 1.41.57.6 1.01 1.31 1.29 2.08.28.78.4 1.6.35 2.43 0 0 .24.36.24.54zm-10.64-1.27h9.01c-.02-.57-.14-1.13-.38-1.65-.23-.53-.56-1-.98-1.39-.42-.39-.9-.7-1.44-.91-.53-.2-1.1-.3-1.67-.28-1.16-.02-2.28.41-3.12 1.2-.85.79-1.36 1.88-1.42 3.03z"/></g><path d="M2306.19 1085.86h-577.22v98.88h577.22v-98.88z" fill="#2447F9"/><g opacity=".5" fill="#000"><path d="M1913.38 1247.57v6.59h8.76v1.57h-8.76v7.2h-1.82v-17.18h11.61v1.58l-9.79.24zM1924.8 1256.58c0-1.28.38-2.53 1.09-3.6.72-1.06 1.73-1.89 2.91-2.38 1.18-.49 2.48-.62 3.74-.37 1.25.25 2.4.87 3.31 1.77.9.91 1.52 2.06 1.77 3.32.25 1.25.12 2.55-.37 3.73-.49 1.19-1.32 2.2-2.38 2.91-1.07.71-2.32 1.09-3.6 1.09-.86.06-1.73-.06-2.54-.37-.82-.3-1.56-.77-2.17-1.39-.61-.61-1.09-1.35-1.39-2.16-.3-.82-.43-1.69-.37-2.55zm11.19 0c0-1.25-.5-2.45-1.38-3.34-.89-.88-2.09-1.38-3.34-1.38s-2.45.5-3.33 1.38c-.89.89-1.38 2.09-1.38 3.34s.49 2.45 1.38 3.33c.88.89 2.08 1.39 3.33 1.39s2.45-.5 3.34-1.39c.88-.88 1.38-2.08 1.38-3.33zM1947.66 1250.11v1.69h-.42c-2.67 0-4.24 1.69-4.24 4.72v6.47h-1.75v-12.7h1.63v2.48c.44-.88 1.13-1.6 1.98-2.07.85-.48 1.83-.68 2.8-.59zM1962.41 1250.23v11.13c.13.86.06 1.74-.21 2.58-.27.83-.73 1.58-1.35 2.2-.62.62-1.38 1.08-2.21 1.36-.83.27-1.71.34-2.58.21-2.18.12-4.34-.57-6.04-1.94l.84-1.33c1.41 1.16 3.19 1.79 5.02 1.75 3.21 0 4.72-1.45 4.72-4.59v-1.63c-.57.77-1.32 1.41-2.18 1.84-.86.43-1.82.65-2.78.63-.82.05-1.65-.07-2.43-.35-.77-.28-1.48-.72-2.08-1.28-.6-.57-1.08-1.25-1.41-2.01-.32-.76-.49-1.58-.49-2.4 0-.83.17-1.65.49-2.4.33-.76.81-1.45 1.41-2.01.6-.57 1.31-1.01 2.08-1.29.78-.28 1.61-.4 2.43-.35.98-.05 1.96.16 2.84.61.88.44 1.63 1.11 2.18 1.93v-2.42l1.75-.24zm-1.63 6.05c.02-.97-.24-1.91-.76-2.72-.51-.82-1.26-1.45-2.14-1.84-.88-.38-1.86-.5-2.81-.32-.94.17-1.81.62-2.5 1.29s-1.17 1.53-1.36 2.48c-.2.94-.11 1.92.25 2.81.36.89.98 1.65 1.78 2.19s1.74.82 2.7.82c.64.04 1.28-.06 1.88-.29.6-.23 1.14-.58 1.6-1.03.45-.45.81-.99 1.04-1.58.24-.6.34-1.23.32-1.87v.06zM1965.98 1256.58c0-1.72.68-3.36 1.89-4.58 1.22-1.21 2.86-1.89 4.58-1.89 1.71 0 3.36.68 4.57 1.89 1.21 1.22 1.9 2.86 1.9 4.58 0 1.71-.69 3.36-1.9 4.57-1.21 1.22-2.86 1.9-4.57 1.9-1.72 0-3.36-.68-4.58-1.9-1.21-1.21-1.89-2.86-1.89-4.57zm11.18 0c.08-.67.01-1.35-.19-1.99-.21-.64-.54-1.23-.99-1.73-.45-.5-1-.9-1.61-1.18-.62-.27-1.28-.42-1.95-.42-.68 0-1.34.15-1.95.42-.62.28-1.17.68-1.62 1.18-.44.5-.78 1.09-.98 1.73-.21.64-.27 1.32-.2 1.99-.03.64.07 1.29.29 1.89.23.61.58 1.16 1.02 1.62.45.47.99.84 1.59 1.08.59.25 1.23.38 1.88.37.63-.01 1.25-.15 1.83-.4.58-.26 1.1-.63 1.53-1.09.43-.47.76-1.01.97-1.61.22-.6.3-1.23.26-1.86h.12zM1989.13 1262.14c-.75.61-1.69.93-2.66.91-.5.06-1 0-1.48-.17-.48-.16-.91-.43-1.27-.78-.36-.36-.63-.78-.81-1.26-.17-.47-.23-.98-.18-1.48v-7.56h-2.24v-1.45h2.24v-2.78h1.75v2.78h3.87v1.45h-3.87v7.56c-.05.3-.03.61.06.9.09.3.25.56.46.79.21.22.47.39.76.49.28.11.59.15.9.12.67.03 1.34-.18 1.87-.61l.6 1.09zM2012.17 1251.8c0 3.57-2.6 6.05-6.95 6.05h-4.54v5.32h-1.75v-17.42h6.04c4.6 0 7.2 2.42 7.2 6.05zm-1.81 0c0-2.72-1.76-4.23-5.14-4.23h-4.54v8.4h4.54c3.38 0 5.14-1.51 5.14-4.17zM2025.41 1255.07v7.86h-1.63v-2c-.48.72-1.14 1.3-1.92 1.67-.77.37-1.64.53-2.5.45-2.84 0-4.65-1.51-4.65-3.69 0-2.18 1.27-3.63 4.96-3.63h3.99v-.78c0-2.18-1.21-3.33-3.57-3.33-1.54-.03-3.04.48-4.23 1.45l-.79-1.27c1.48-1.15 3.32-1.75 5.2-1.69.68-.1 1.38-.04 2.03.18.66.21 1.25.57 1.75 1.05.49.47.87 1.06 1.11 1.7.24.65.32 1.34.25 2.03zm-1.75 4.05V1257h-4.3c-2.41 0-3.26.97-3.26 2.3 0 1.33 1.21 2.36 3.26 2.36.86.07 1.72-.14 2.45-.6.73-.46 1.29-1.14 1.6-1.94h.25zM2028.07 1261.48l.79-1.39c1.28.97 2.86 1.48 4.47 1.45 2.42 0 3.45-.85 3.45-2.06 0-3.33-8.29-.72-8.29-5.74 0-2.06 1.82-3.63 5.08-3.63 1.58-.04 3.13.38 4.48 1.21l-.79 1.33c-1.08-.76-2.37-1.14-3.69-1.09-2.3 0-3.32.91-3.32 2.12 0 3.44 8.22.84 8.22 5.74 0 2.18-1.94 3.63-5.26 3.63-1.84.05-3.64-.5-5.14-1.57zM2039.86 1261.48l.79-1.39c1.31.97 2.9 1.48 4.53 1.45 2.42 0 3.39-.85 3.39-2.06 0-3.32-8.23-.72-8.23-5.74 0-2.06 1.82-3.63 5.02-3.63 1.58-.05 3.14.37 4.48 1.21l-.73 1.33c-1.09-.77-2.41-1.15-3.75-1.09-2.3 0-3.32.91-3.32 2.12 0 3.44 8.28.84 8.28 5.74 0 2.18-1.94 3.63-5.26 3.63-1.86.05-3.68-.5-5.2-1.57zM2071.9 1250.23l-4.83 12.7h-1.64l-3.99-10.4-3.99 10.4h-1.81l-4.78-12.7h1.64l3.99 10.76 4.11-10.76h1.45l4.05 10.76 4.05-10.76h1.75zM2072.87 1256.58c0-1.28.38-2.53 1.09-3.6.71-1.06 1.72-1.89 2.9-2.38 1.19-.49 2.49-.62 3.74-.37 1.26.25 2.41.87 3.31 1.77.91.91 1.53 2.06 1.78 3.32.24 1.25.12 2.55-.37 3.73-.49 1.19-1.32 2.2-2.39 2.91-1.06.71-2.31 1.09-3.59 1.09-.87.06-1.73-.06-2.55-.37-.81-.3-1.55-.77-2.16-1.39-.62-.61-1.09-1.35-1.4-2.16-.3-.82-.42-1.69-.36-2.55zm11.19 0c.07-.67.01-1.35-.2-1.99-.2-.64-.54-1.23-.99-1.73-.45-.5-.99-.9-1.61-1.18-.61-.27-1.28-.42-1.95-.42-.67 0-1.34.15-1.95.42-.62.28-1.16.68-1.61 1.18-.45.5-.79 1.09-.99 1.73-.21.64-.27 1.32-.2 1.99-.03.64.07 1.29.3 1.89.22.61.57 1.16 1.02 1.62.45.47.98.84 1.58 1.08.59.25 1.24.38 1.88.37.64.01 1.28-.12 1.87-.37.6-.24 1.13-.61 1.57-1.08.45-.47.79-1.02 1.01-1.62.22-.61.31-1.25.27-1.89zM2095.66 1250.11v1.69h-.36c-.61-.03-1.22.07-1.78.3-.57.23-1.07.59-1.49 1.04-.41.45-.71.99-.89 1.57-.18.59-.22 1.2-.13 1.81v6.47h-1.69v-12.7h1.63v2.48c.42-.87 1.1-1.59 1.94-2.07.85-.47 1.81-.68 2.77-.59zM2110.05 1244.97v18.14h-1.63v-2.54c-.51.84-1.24 1.54-2.12 2-.87.47-1.85.7-2.84.66-1.71 0-3.36-.68-4.57-1.89-1.21-1.22-1.9-2.86-1.9-4.58 0-1.72.69-3.36 1.9-4.58 1.21-1.21 2.86-1.89 4.57-1.89.96-.04 1.9.17 2.75.6.85.43 1.57 1.08 2.09 1.88v-7.62l1.75-.18zm-1.69 11.61c.08-.67.01-1.35-.19-1.99-.21-.64-.55-1.23-.99-1.73-.45-.5-1-.9-1.61-1.18-.62-.27-1.28-.42-1.96-.42-.67 0-1.33.15-1.95.42-.61.28-1.16.68-1.61 1.18-.45.5-.78 1.09-.99 1.73-.2.64-.27 1.32-.19 1.99-.08.67-.01 1.34.19 1.98.21.65.54 1.24.99 1.74.45.5 1 .9 1.61 1.18.62.27 1.28.41 1.95.41.68 0 1.34-.14 1.96-.41.61-.28 1.16-.68 1.61-1.18.44-.5.78-1.09.99-1.74.2-.64.27-1.31.19-1.98zM2122.75 1250.29c0-1.69-1.39-2.9-3.87-2.9-.86-.06-1.73.08-2.53.42-.79.34-1.5.85-2.06 1.51l-1.27-.97c.74-.85 1.68-1.52 2.73-1.95 1.05-.43 2.18-.61 3.31-.53 3.39 0 5.56 1.58 5.56 4.18 0 4.11-4.41 4.35-4.41 7.8h-1.81c-.06-3.99 4.35-4.36 4.35-7.56zm-4.78 11.49c0-.17.04-.33.1-.48.07-.15.16-.29.28-.4.12-.11.26-.2.41-.26.16-.05.32-.08.48-.07.17-.01.33.02.49.07.15.06.29.15.41.26.12.11.21.25.28.4.06.15.09.31.09.48 0 .34-.13.66-.37.9s-.56.37-.9.37c-.33-.02-.64-.15-.88-.39-.23-.23-.37-.55-.39-.88z"/></g><path d="M1762.71 1024.42h-29.32v29.33h29.32v-29.33zM1953.89 1116.82h4.83v29.64h18.14v4.17h-23.16l.19-33.81zM1979.22 1137.81c-.05-2.65.69-5.26 2.13-7.49 1.44-2.23 3.51-3.98 5.95-5.03 2.43-1.05 5.13-1.35 7.74-.86 2.6.49 5.01 1.74 6.9 3.6 1.89 1.86 3.19 4.24 3.72 6.84.54 2.6.29 5.3-.71 7.75-1.01 2.46-2.72 4.56-4.92 6.04-2.2 1.48-4.8 2.27-7.45 2.27-1.76.09-3.51-.19-5.15-.82-1.65-.63-3.14-1.59-4.4-2.82-1.25-1.23-2.24-2.71-2.9-4.34-.65-1.63-.96-3.38-.91-5.14zm21.95 0c-.09-1.69-.67-3.32-1.67-4.69-1-1.37-2.38-2.41-3.97-3-1.59-.59-3.31-.69-4.96-.31-1.65.39-3.15 1.25-4.32 2.48-1.16 1.23-1.94 2.77-2.23 4.44-.3 1.67-.1 3.39.58 4.94.67 1.56 1.79 2.88 3.21 3.81 1.42.92 3.08 1.41 4.77 1.4 1.18.04 2.36-.17 3.45-.62 1.1-.45 2.09-1.13 2.9-1.98.82-.86 1.44-1.88 1.84-2.99.39-1.12.55-2.3.46-3.48h-.06zM2036.84 1124.81V1147c.26 1.8.09 3.64-.49 5.36-.58 1.72-1.56 3.28-2.85 4.56-1.3 1.28-2.87 2.23-4.6 2.79-1.73.55-3.57.7-5.36.41-4.35.16-8.62-1.19-12.1-3.81l2.24-3.56c2.82 2.18 6.29 3.35 9.86 3.32 6.04 0 8.82-2.78 8.82-8.59v-2.05c-1.16 1.29-2.59 2.31-4.19 3-1.59.69-3.32 1.03-5.06.99-1.7.12-3.41-.11-5.02-.69-1.61-.57-3.09-1.46-4.34-2.63-1.25-1.16-2.25-2.57-2.93-4.14-.68-1.57-1.03-3.26-1.03-4.97s.35-3.4 1.03-4.96c.68-1.57 1.68-2.98 2.93-4.15 1.25-1.16 2.73-2.06 4.34-2.63 1.61-.57 3.32-.8 5.02-.69 1.8-.04 3.58.32 5.23 1.05 1.64.73 3.1 1.82 4.26 3.19v-3.99h4.24zm-4.54 12.09c.1-1.76-.34-3.51-1.24-5.03-.91-1.51-2.26-2.72-3.86-3.46-1.6-.75-3.39-.99-5.13-.71-1.74.29-3.36 1.09-4.65 2.3-1.28 1.21-2.17 2.78-2.55 4.51-.38 1.72-.24 3.52.41 5.17.66 1.64 1.78 3.05 3.24 4.04 1.46.99 3.19 1.52 4.96 1.53 1.14.09 2.29-.06 3.37-.44s2.07-.98 2.9-1.77c.83-.78 1.49-1.74 1.93-2.8.44-1.05.65-2.19.62-3.34zM2044.88 1117.07c-.03-.63.14-1.25.47-1.78.33-.54.81-.96 1.38-1.21.57-.26 1.21-.34 1.83-.23.62.1 1.19.39 1.64.83.45.43.76.99.89 1.61.14.61.08 1.25-.15 1.83-.24.58-.64 1.08-1.16 1.43-.52.35-1.13.54-1.76.54-.41.02-.81-.05-1.19-.19-.38-.15-.73-.37-1.02-.65-.3-.28-.53-.62-.69-1-.16-.37-.24-.78-.24-1.18zm.78 7.92h4.66v25.64h-4.66v-25.64zM2083.51 1135.87v14.76h-4.65v-14.21c0-5.02-2.54-7.5-6.9-7.5-1.12-.09-2.25.07-3.31.47-1.06.41-2.01 1.04-2.79 1.86-.78.81-1.37 1.79-1.73 2.86-.35 1.08-.47 2.21-.33 3.34v13.18h-4.59v-25.82h4.41v3.87c1.1-1.38 2.52-2.46 4.13-3.18 1.61-.71 3.36-1.04 5.12-.94 1.49-.11 2.98.11 4.36.65 1.39.54 2.64 1.38 3.66 2.47 1.02 1.08 1.79 2.38 2.24 3.8.45 1.42.58 2.92.38 4.39z" fill="#fff"/><path d="M1745.42 1047.16l-6.47-7.02 2.18-2.05 4.29 4.65 9.67-9.97 2.18 2.05-11.85 12.34z" fill="#263238"/><g opacity=".4" fill="#263238"><path d="M2251.41 959.956c-5.35-.236-10.55-1.783-15.16-4.503-4.6-2.721-8.47-6.532-11.26-11.099l-.61-.847.61-.846c2.61-4.726 6.44-8.666 11.1-11.409 4.65-2.743 9.95-4.19 15.35-4.19s10.7 1.447 15.35 4.19c4.65 2.743 8.49 6.683 11.1 11.409l.61.846-.61.847c-2.8 4.572-6.68 8.385-11.29 11.106-4.62 2.72-9.84 4.264-15.19 4.496zm-23.34-16.57c2.38 4.092 5.79 7.488 9.89 9.849 4.1 2.361 8.75 3.603 13.48 3.603s9.38-1.242 13.48-3.603 7.51-5.757 9.89-9.849c-2.38-4.092-5.79-7.488-9.89-9.848-4.1-2.361-8.75-3.603-13.48-3.603s-9.38 1.242-13.48 3.603c-4.1 2.36-7.51 5.756-9.89 9.848z"/><path d="M2251.41 954.695c-2.23 0-4.4-.661-6.25-1.9-1.85-1.239-3.3-2.999-4.15-5.058-.84-2.059-1.06-4.323-.63-6.507.44-2.183 1.52-4.188 3.1-5.758 1.58-1.571 3.59-2.637 5.77-3.064 2.19-.428 4.45-.196 6.51.664 2.05.861 3.8 2.312 5.03 4.17 1.23 1.858 1.88 4.038 1.87 6.265 0 1.475-.3 2.934-.86 4.296-.57 1.361-1.4 2.597-2.44 3.637-1.05 1.039-2.29 1.862-3.65 2.421-1.37.558-2.83.842-4.3.834zm0-19.412c-1.63 0-3.22.482-4.57 1.386-1.35.904-2.4 2.188-3.03 3.691-.62 1.503-.78 3.156-.46 4.752.31 1.595 1.1 3.061 2.25 4.211 1.15 1.15 2.61 1.933 4.21 2.251 1.59.317 3.24.154 4.75-.468 1.5-.623 2.78-1.677 3.69-3.029.9-1.353 1.38-2.943 1.38-4.57 0-2.181-.86-4.273-2.41-5.815-1.54-1.543-3.63-2.409-5.81-2.409z"/><path d="M2268.2 924.614l-35.65 35.663 2.14 2.138 35.65-35.663-2.14-2.138z"/></g><g opacity=".5" fill="#000"><path d="M1947.11 707.056l1.27-2.419c2.7 2.399 6.19 3.694 9.8 3.628 5.5 0 7.92-2.358 7.92-5.261 0-8.103-18.14-3.145-18.14-14.09 0-4.354 3.39-8.164 10.94-8.164 3.26-.044 6.46.882 9.19 2.661l-1.02 2.479c-2.44-1.585-5.26-2.464-8.17-2.54-5.44 0-7.86 2.359-7.86 5.322 0 8.164 18.14 3.265 18.14 14.03 0 4.354-3.44 8.103-11 8.103-4.03.17-7.97-1.167-11.07-3.749zM1974.68 681.355c.01-.286.08-.568.19-.829.12-.261.29-.497.49-.693.21-.197.46-.351.72-.453.27-.102.56-.15.84-.142.31-.053.63-.036.94.047.3.084.59.233.83.437.24.205.43.459.57.747.13.287.2.599.2.916 0 .316-.07.629-.2.916-.14.287-.33.542-.57.746-.24.205-.53.354-.83.437-.31.084-.63.1-.94.048-.29.008-.58-.043-.85-.148-.27-.106-.52-.265-.73-.468-.21-.203-.37-.446-.48-.714-.12-.268-.18-.556-.18-.847zm.67 7.014h3.02v22.315h-3.02v-22.315zM2007.27 688.369v19.594c.23 1.513.09 3.057-.39 4.51-.48 1.452-1.29 2.772-2.37 3.853-1.08 1.082-2.4 1.895-3.85 2.375-1.46.48-3 .613-4.51.389-3.76.163-7.46-1.039-10.4-3.386l1.51-2.299c2.47 2.023 5.58 3.095 8.77 3.024 5.62 0 8.22-2.6 8.22-8.103v-2.843c-.96 1.405-2.27 2.542-3.79 3.304s-3.22 1.123-4.92 1.051c-1.48.111-2.97-.086-4.38-.578-1.41-.492-2.69-1.269-3.79-2.282-1.09-1.013-1.96-2.241-2.55-3.606-.6-1.366-.91-2.839-.91-4.329 0-1.49.31-2.963.91-4.329.59-1.365 1.46-2.593 2.55-3.606 1.1-1.013 2.38-1.79 3.79-2.282 1.41-.492 2.9-.689 4.38-.578 1.73-.081 3.45.283 4.99 1.056 1.55.773 2.87 1.929 3.84 3.359v-4.294h2.9zm-2.96 10.644c.06-1.686-.39-3.352-1.28-4.783-.89-1.432-2.19-2.564-3.73-3.251-1.54-.688-3.25-.899-4.91-.607-1.66.291-3.2 1.073-4.41 2.244-1.22 1.171-2.06 2.678-2.41 4.328-.35 1.65-.2 3.368.43 4.933.63 1.564 1.72 2.905 3.11 3.849 1.4.945 3.05 1.45 4.74 1.451 1.11.085 2.23-.065 3.28-.439 1.05-.375 2.01-.966 2.82-1.735.81-.77 1.45-1.7 1.88-2.732.42-1.032.63-2.142.6-3.258h-.12zM2036.29 697.743v12.941h-3.02v-12.639c.18-.939.13-1.907-.13-2.825-.27-.918-.75-1.76-1.4-2.456-.66-.697-1.47-1.228-2.37-1.55-.9-.323-1.86-.427-2.81-.305-1.07-.068-2.13.098-3.13.486-.99.389-1.89.99-2.63 1.762-.74.773-1.3 1.697-1.64 2.708-.34 1.012-.46 2.086-.34 3.148v11.671h-3.02v-22.315h2.84v4.113c.93-1.39 2.2-2.512 3.7-3.255 1.49-.742 3.16-1.08 4.82-.979 1.26-.097 2.52.084 3.7.532 1.17.448 2.24 1.151 3.11 2.059.87.908 1.53 1.997 1.94 3.191.4 1.194.53 2.462.38 3.713zM2054.85 681.355c.09-.523.36-.998.76-1.341.41-.342.92-.53 1.45-.53.53 0 1.04.188 1.45.53.4.343.67.818.76 1.341.01.296-.05.59-.16.866-.11.275-.27.525-.48.734-.21.21-.46.374-.73.484-.28.109-.57.161-.87.153-.29 0-.58-.058-.85-.171-.26-.113-.51-.279-.71-.488-.2-.208-.36-.456-.47-.727-.1-.271-.15-.561-.15-.851zm.67 7.014h3.02v22.315h-2.9l-.12-22.315zM2087.38 697.743v12.941h-2.96v-12.639c.18-.939.13-1.907-.13-2.825-.27-.918-.75-1.76-1.41-2.456-.65-.697-1.46-1.228-2.36-1.55-.9-.323-1.86-.427-2.81-.305-1.07-.066-2.14.1-3.14.488-.99.388-1.89.988-2.64 1.759-.74.771-1.3 1.694-1.65 2.705-.35 1.012-.48 2.087-.37 3.152v11.671h-3.02v-22.315h2.9v4.113c.91-1.389 2.17-2.512 3.66-3.256 1.49-.743 3.14-1.08 4.8-.978 1.26-.109 2.53.065 3.71.509 1.18.444 2.25 1.147 3.12 2.057.88.911 1.54 2.005 1.94 3.204.4 1.199.52 2.472.36 3.725z"/></g><path d="M1096.02 563.976H922.317c-14.191 0-27.8 5.638-37.835 15.675-10.034 10.037-15.672 23.65-15.672 37.844v151.183c0 14.195 5.638 27.807 15.672 37.844 10.035 10.037 23.644 15.675 37.835 15.675h50.666l-42.322 83.998 78.599-83.998h87c7.02 0 13.98-1.384 20.47-4.075 6.49-2.69 12.38-6.633 17.34-11.604 4.97-4.97 8.9-10.87 11.59-17.363 2.68-6.493 4.06-13.451 4.05-20.477V617.495c.01-7.046-1.38-14.024-4.08-20.533-2.69-6.508-6.65-12.419-11.64-17.393s-10.91-8.912-17.43-11.588c-6.52-2.676-13.5-4.037-20.54-4.005z" fill="#2447F9"/><path opacity=".7" d="M1096.02 563.976H922.317c-14.191 0-27.8 5.638-37.835 15.675-10.034 10.037-15.672 23.65-15.672 37.844v151.183c0 14.195 5.638 27.807 15.672 37.844 10.035 10.037 23.644 15.675 37.835 15.675h50.666l-42.322 83.998 78.599-83.998h87c7.02 0 13.98-1.384 20.47-4.075 6.49-2.69 12.38-6.633 17.34-11.604 4.97-4.97 8.9-10.87 11.59-17.363 2.68-6.493 4.06-13.451 4.05-20.477V617.495c.01-7.046-1.38-14.024-4.08-20.533-2.69-6.508-6.65-12.419-11.64-17.393s-10.91-8.912-17.43-11.588c-6.52-2.676-13.5-4.037-20.54-4.005z" fill="#fff"/><path d="M1000.13 730.943c-1.15.003-2.286-.245-3.33-.725s-1.971-1.182-2.717-2.057l-33.857-39.852c-.675-.794-1.187-1.713-1.506-2.705-.32-.992-.441-2.038-.357-3.076.084-1.039.372-2.051.847-2.979.476-.928 1.129-1.752 1.923-2.427 1.603-1.364 3.683-2.034 5.78-1.864 1.039.084 2.051.372 2.978.848.927.475 1.752 1.129 2.427 1.923l27.812 32.776 45.83-54.123c.67-.795 1.5-1.448 2.43-1.923.92-.476 1.93-.764 2.97-.848 1.04-.084 2.09.037 3.08.357.99.319 1.91.831 2.7 1.506.8.675 1.45 1.5 1.93 2.428.47.927.76 1.94.84 2.978.09 1.039-.03 2.085-.35 3.077-.32.992-.83 1.911-1.51 2.705l-51.93 61.199c-.74.873-1.65 1.575-2.69 2.056-1.03.48-2.16.728-3.3.726z" fill="#fff"/><path d="M1070.09 753.407c33.67-33.677 33.67-88.278 0-121.955-33.67-33.677-88.26-33.677-121.929 0-33.67 33.677-33.67 88.278 0 121.955 33.669 33.677 88.259 33.677 121.929 0z" fill="#2447F9"/><path d="M1239.43 2189.87h351.88c1.84 0 3.61-.74 4.91-2.04 1.31-1.31 2.04-3.07 2.04-4.92v-22.43c-.02-1.84-.76-3.59-2.06-4.88s-3.06-2.02-4.89-2.02h-333.74v-718.54h328.05c3.34 0 6.55-1.33 8.92-3.68 2.37-2.36 3.7-5.56 3.72-8.9v-23.71h-358.83c-4.81 0-9.42 1.91-12.83 5.32-3.4 3.4-5.31 8.01-5.31 12.82v754.83c0 4.82 1.91 9.43 5.31 12.83 3.41 3.4 8.02 5.32 12.83 5.32z" fill="#263238"/><path d="M1221.29 1416.89v754.77c0 4.81 1.91 9.43 5.31 12.83 3.41 3.4 8.02 5.32 12.83 5.32h351.88c1.83 0 3.58-.73 4.87-2.02 1.29-1.3 2.02-3.05 2.02-4.88v-22.43c0-1.84-.72-3.6-2.02-4.9-1.29-1.3-3.04-2.04-4.87-2.06h-333.74v-718.48h328.05c3.34-.02 6.54-1.36 8.9-3.73 2.36-2.37 3.68-5.57 3.68-8.91v-23.65h-358.77c-4.81 0-9.42 1.91-12.83 5.32-3.4 3.4-5.31 8.01-5.31 12.82z" fill="#fff" opacity=".3"/><path opacity=".2" d="M1221.29 1416.89v192.49c12.09 3.06 24.19 6.03 36.28 8.89v-183.23h328.05c3.34-.02 6.54-1.36 8.9-3.73 2.36-2.37 3.68-5.57 3.68-8.91v-23.65h-358.77c-4.81 0-9.42 1.91-12.83 5.32-3.4 3.4-5.31 8.01-5.31 12.82z" fill="#000"/><path d="M584.951 2088.57l144.257-12.58v-189.22h50.726v189.47l145.104 12.33c6.158.6 11.872 3.48 16.03 8.06 4.157 4.58 6.46 10.55 6.461 16.74v19.23H562.278v-19.23c.005-6.22 2.334-12.21 6.529-16.8s9.953-7.44 16.144-8z" fill="#263238"/><path opacity=".1" d="M584.951 2088.57l144.257-12.58v-189.22h50.726v189.47l145.104 12.33c6.158.6 11.872 3.48 16.03 8.06 4.157 4.58 6.46 10.55 6.461 16.74v19.23H562.278v-19.23c.005-6.22 2.334-12.21 6.529-16.8s9.953-7.44 16.144-8z" fill="#fff"/><path d="M900.491 2156.48c0 6.57 1.947 12.99 5.594 18.45 3.647 5.46 8.831 9.71 14.897 12.23 6.065 2.51 12.739 3.17 19.177 1.89 6.439-1.28 12.353-4.45 16.995-9.09 4.642-4.64 7.804-10.56 9.085-17 1.28-6.44.623-13.11-1.889-19.18-2.513-6.07-6.767-11.25-12.225-14.9-5.459-3.65-11.876-5.6-18.441-5.6-4.361 0-8.681.85-12.712 2.52-4.031 1.66-7.693 4.11-10.777 7.19-3.083 3.09-5.528 6.75-7.193 10.78-1.666 4.03-2.519 8.35-2.511 12.71zM609.135 2156.48c0 6.57-1.949 12.99-5.599 18.46-3.65 5.46-8.837 9.71-14.906 12.22-6.068 2.51-12.745 3.17-19.186 1.88-6.44-1.28-12.354-4.45-16.994-9.1-4.64-4.65-7.796-10.57-9.07-17.02-1.274-6.44-.608-13.12 1.914-19.18 2.521-6.07 6.785-11.25 12.251-14.89 5.467-3.64 11.89-5.58 18.457-5.57 4.357 0 8.67.86 12.694 2.53 4.023 1.67 7.678 4.12 10.756 7.2 3.077 3.09 5.516 6.75 7.178 10.77 1.661 4.03 2.513 8.35 2.505 12.7zM766.209 1925.17h-23.277c-5.949 0-11.654-2.36-15.86-6.57-4.207-4.21-6.57-9.91-6.57-15.86v-163.28h68.138v163.28c0 5.95-2.363 11.65-6.57 15.86-4.206 4.21-9.912 6.57-15.861 6.57z" fill="#263238"/><path opacity=".2" d="M766.209 1925.17h-23.277c-5.949 0-11.654-2.36-15.86-6.57-4.207-4.21-6.57-9.91-6.57-15.86v-163.28h68.138v163.28c0 5.95-2.363 11.65-6.57 15.86-4.206 4.21-9.912 6.57-15.861 6.57z" fill="#fff"/><path d="M604.963 1364.64s15.598 313.44 83.072 367.38h-72.189s-64.33-106.8-69.106-367.38h58.223z" fill="#263238"/><path opacity=".1" d="M604.963 1364.64s15.598 313.44 83.072 367.38h-72.189s-64.33-106.8-69.106-367.38h58.223z" fill="#fff"/><path d="M599.098 1706.02h319.894c7.2 0 14.105 2.86 19.196 7.95 5.09 5.09 7.951 12 7.951 19.2v24.79H571.891v-24.79c0-3.57.704-7.11 2.072-10.41 1.368-3.29 3.373-6.29 5.901-8.81 2.527-2.52 5.527-4.52 8.827-5.88 3.301-1.36 6.837-2.06 10.407-2.05z" fill="#2447F9"/><path d="M949.524 1732.02H568.626c-6.043 0-10.943 4.9-10.943 10.95v4.05c0 6.04 4.9 10.94 10.943 10.94h380.898c6.044 0 10.944-4.9 10.944-10.94v-4.05c0-6.05-4.9-10.95-10.944-10.95z" fill="#263238"/><path opacity=".6" d="M949.524 1732.02H568.626c-6.043 0-10.943 4.9-10.943 10.95v4.05c0 6.04 4.9 10.94 10.943 10.94h380.898c6.044 0 10.944-4.9 10.944-10.94v-4.05c0-6.05-4.9-10.95-10.944-10.95z" fill="#fff"/><path d="M534.043 1433.22h115.66c33.858 0 58.284-30.24 54.414-68.03l-4.897-50.07c-3.749-37.56-34.16-68.04-68.018-68.04H515.724c-33.858 0-58.284 30.24-54.414 68.04l4.897 50.07c3.507 37.79 33.979 68.03 67.836 68.03z" fill="#2447F9"/><path d="M915.727 1162.84c7.195 22.8 15.659 46.57 24.97 68.34 7.86 18.14 19.045 41.24 31.802 53.4 11.609 10.34 39.241 14.27 57.191 16.63 24.19 3.08 49.94 4.23 75.04 5.26l4.47 33.86c-26.6 7.14-53.88 11.46-81.38 12.88-30.714 1.09-66.506.01-93.108-18.86-38.634-30.24-55.442-70.51-72.552-113.03-4.837-13.48-9.19-25.82-12.878-39.97l66.506-18.51h-.061z" fill="#B65B52"/><path d="M886.041 1130.85c19.045 6.54 36.276 33.93 84.221 143.81 0 0 7.799 13.43 46.678 21.83l-3.57 61.68s-55.502-2.42-68.38-11.3c-12.878-8.89-90.086-135.95-90.086-135.95l31.137-80.07z" fill="#263238"/><path opacity=".2" d="M1016.94 1296.61l-3.57 61.68s-44.498-1.93-63.06-8.76c-1.87-.63-3.657-1.48-5.32-2.54-7.437-5.2-36.276-49.89-59.553-86.66-16.869-26.73-30.23-49.29-30.23-49.29l30.834-80.19c19.045 6.54 36.276 33.93 84.282 143.75 0 .12 7.739 13.49 46.617 22.01z" fill="#fff"/><path opacity=".2" d="M950.31 1349.53c-1.87-.63-3.657-1.48-5.32-2.54-7.437-5.2-36.276-49.89-59.553-86.66 6.059-20.85 13.223-41.36 21.463-61.44 0 0 44.257 88.71 43.41 150.64z" fill="#000"/><path d="M1091.54 1309.55l43.35-15.6-5.32 58.06s-39.78 5.08-44.68-15.85l6.65-26.61z" fill="#B55B52"/><path d="M1170.81 1305.68l-6.65 47.84-34.59-1.51 5.32-58.06 35.92 11.73z" fill="#B55B52"/><path d="M1017.24 1293.95l22.13 6.65-8.1 59.99-22.13 3.81 8.1-70.45z" fill="#263238"/><path d="M917.42 1512.38s292.57 115.45 360.58 163.7c68.02 48.26 239.55 373.61 239.55 373.61l-70.92 54.42s-204.6-297.16-229.75-317.3c-25.15-20.14-350.67-120.1-350.67-120.1l51.21-154.33z" fill="#2447F9"/><path opacity=".4" d="M1517.55 2049.69l-70.92 54.42s-47.77-69.36-99.94-143.32c-55.81-79.16-116.69-163.28-129.63-173.98-18.14-14.76-197.4-72.21-292.385-101.96-34.946-11-58.465-18.14-58.465-18.14l51.15-154.51s292.51 115.44 360.58 163.7c68.08 48.26 239.61 373.79 239.61 373.79z" fill="#fff"/><path d="M1530.55 2166.1l34.15-34.35-55.86-86.42-34.1 34.35 55.81 86.42z" fill="#B55B52"/><path opacity=".2" d="M1474.74 2079.68l34.1-34.29 31.92 49.41-35.31 32.54-30.71-47.66z" fill="#000"/><path d="M1570.63 2128h.42c.43 0 0 0 0 0 4.02-1.48 7.88-3.38 11.49-5.68 2.82-1.51 4.97-4.01 6.05-7.02.22-1.13.12-2.29-.3-3.36-.42-1.08-1.13-2.01-2.06-2.69-.5-.51-1.12-.9-1.81-1.11-.69-.21-1.42-.24-2.12-.09-3.33.78-6.59 5.5-9.07 10.03.52-4.23-.46-8.51-2.78-12.09-.68-.69-1.57-1.12-2.53-1.23-.95-.11-1.92.11-2.73.62-.76.36-1.42.89-1.94 1.55-.51.67-.87 1.44-1.02 2.26-1.39 6.54 7.37 17.06 7.8 17.66l.6-.6-.54.66s-.43.67-.43.73c.09.17.24.29.42.36s.37.07.55 0zm.3-4.47c0 .36-.3.72-.42 1.02-2.66-3.74-6.59-10.34-5.74-14.21.07-.45.23-.89.48-1.27.25-.39.58-.71.97-.96h.42c1.45-.73 2.24-.31 2.72 0 2.31 4.79 2.87 10.25 1.57 15.42zm2.06 1.45c2.66-6.05 7.07-13.91 10.4-14.64.34-.08.71-.08 1.05.03.34.11.65.31.88.58.57.43 1.01 1.01 1.28 1.66.28.66.38 1.38.29 2.09-.66 3.14-5.8 6.89-13.9 10.28z" fill="#2447F9"/><path d="M1564.04 2124.92l-45.1 30.23c-.39.23-.73.54-1 .9-.27.37-.47.78-.57 1.22-.11.44-.13.9-.06 1.34.08.45.24.88.48 1.26l21.76 37.19c1.25 1.88 3.19 3.19 5.4 3.65 2.21.45 4.51.01 6.39-1.23 15.54-10.82 22.43-16.75 42.32-30.24 18.11-11.14 35.43-23.52 51.82-37.07 14.87-13.84.79-28.18-6.71-23.64-18.14 10.7-48.85 15.3-66.15 14.03-3.04-.24-6.08.59-8.58 2.36z" fill="#263238"/><path d="M1449.95 2128.12l88.58-58.96-20.44-41.67-95.95 66.59 27.81 34.04z" fill="#2447F9"/><path opacity=".2" d="M1449.95 2128.12l88.58-58.96-20.44-41.67-95.95 66.59 27.81 34.04z" fill="#fff"/><path opacity=".2" d="M1346.81 1961.03c-55.81-79.16-116.69-163.27-129.63-173.98-18.14-14.75-197.4-72.2-292.384-101.96l-11.064-114.9 34.704-6.04 3.93 8.83s216.814 49.16 278.114 79.88c39.48 19.41 92.51 213.41 116.33 308.17z" fill="#000"/><path d="M1333.81 2139.49c.06.03.14.04.21.04.07 0 .14-.01.21-.04 4.3-.05 8.57-.55 12.76-1.51 3.2-.45 6.11-2.09 8.16-4.6.6-.96.92-2.07.92-3.2 0-1.13-.32-2.25-.92-3.21-.3-.66-.76-1.23-1.34-1.66-.58-.44-1.27-.72-1.98-.82-3.39-.42-8.05 3.03-12.1 6.47 1.85-3.75 2.31-8.04 1.27-12.09-.4-.87-1.09-1.58-1.94-2-.86-.43-1.84-.56-2.77-.36-.83.13-1.62.42-2.33.87s-1.32 1.04-1.78 1.73c-3.45 5.75 1.33 18.57 1.57 19.29l.72-.42-.72.48s-.67.49-.61.55l.67.48zm1.81-4.17l-.78.85c-1.88-4.92-2.13-10.3-.73-15.36.23-.4.53-.74.9-1.01.36-.27.78-.46 1.22-.57h.54c1.57 0 2.18.49 2.42 1.09.61 5.26-.66 10.57-3.57 15zm1.39 2.05c4.54-4.83 11.31-10.76 14.69-10.34.36.04.7.17.99.39.28.21.51.49.65.82.34.62.51 1.32.51 2.03 0 .71-.17 1.4-.51 2.03-1.45 2.72-7.5 4.59-16.33 5.07z" fill="#2447F9"/><path d="M1283.38 2162.11l43.6-21.11-25.94-103.89-43.53 21.11 25.87 103.89z" fill="#B55B52"/><path opacity=".2" d="M1257.51 2058.22l43.53-21.05 14.81 59.39-44.13 18.92-14.21-57.26z" fill="#000"/><path d="M1328.61 2134.35l-52.6 13.61c-.44.08-.87.26-1.24.51-.38.25-.7.58-.95.95-.24.38-.41.8-.49 1.25-.09.44-.08.9.02 1.34l8.22 42.33c.6 2.16 2.01 4 3.94 5.13 1.93 1.12 4.23 1.46 6.4.92 18.14-5.08 26.72-8.41 49.82-14.58 20.7-4.42 41.07-10.3 60.94-17.59 18.62-8.11 10.1-26.31 1.51-24.5-20.43 4.18-51.21-1.81-67.05-8.76-2.7-1.11-5.69-1.32-8.52-.61z" fill="#263238"/><path d="M1322.26 2056.82s-73.76-370.15-88.88-392.17c-24.54-36.28-319.708-94.76-319.708-94.76l34.643-6.05-40.024-106.43-262.82 10.34s5.502 173.68 32.225 220.25c26.724 46.56 422.074 67.97 447.764 78.61 25.7 10.65 104.12 300.98 104.12 300.98l92.68-10.77z" fill="#2447F9"/><path opacity=".4" d="M1322.26 2056.82s-73.76-370.15-88.88-392.17c-24.54-36.28-319.708-94.76-319.708-94.76l34.643-6.05-40.024-106.43-262.82 10.34s5.502 173.68 32.225 220.25c26.724 46.56 422.074 67.97 447.764 78.61 25.7 10.65 104.12 300.98 104.12 300.98l92.68-10.77z" fill="#fff"/><path d="M1231.15 2100.36l103.14-26.24-5.5-46.08-112.58 31.02 14.94 41.3z" fill="#2447F9"/><path opacity=".2" d="M1231.15 2100.36l103.14-26.24-5.5-46.08-112.58 31.02 14.94 41.3z" fill="#fff"/><path d="M728.664 1471.8l-76.18-1.27-1.632 23.04 81.077 1.94-3.265-23.71zM740.393 1471.38l3.326 23.95 170.013-2.42-5.502-21.83-167.837.3z" fill="#263238"/><path d="M822.256 1475.55l2.176 15.79c.318 1.92 1.317 3.67 2.815 4.93 1.497 1.25 3.395 1.93 5.348 1.9l27.207-.85c.9.02 1.793-.17 2.613-.54.82-.37 1.546-.92 2.125-1.61.58-.69.998-1.5 1.224-2.37.226-.88.255-1.79.084-2.67l-2.238-15.85c-.319-1.92-1.32-3.66-2.819-4.91-1.499-1.24-3.395-1.9-5.343-1.86l-27.146.85c-.901-.02-1.794.17-2.614.54-.819.37-1.546.92-2.125 1.61-.58.69-.998 1.5-1.224 2.37-.226.88-.254 1.79-.083 2.67z" fill="#fff"/><path d="M652.122 1467.15h249.7c2.989.02 5.879-1.07 8.112-3.06 2.233-1.99 3.651-4.74 3.98-7.71 30.834-241.89-28.054-325.4-28.054-325.4-22.422-6.41-45.303-11.08-68.441-13.97-33.808-2.66-67.741-3.39-101.633-2.18-23.089.62-46.103 2.9-68.864 6.83-12.092 5.26-24.607 59.15-12.092 227.02 3.265 43.96 3.749 81.94 3.446 104.2-.048 3.72 1.382 7.32 3.976 9.99 2.595 2.68 6.144 4.21 9.87 4.28z" fill="#263238"/><path d="M851.035 1216.54h48.126l3.628 57.45-25.817 16.76-25.937-12.82v-61.39z" fill="#263238"/><path opacity=".2" d="M914.095 1456.38c-.329 2.97-1.747 5.72-3.98 7.71-2.233 1.99-5.123 3.08-8.112 3.06h-249.7c-1.87.01-3.724-.36-5.452-1.07-1.728-.72-3.296-1.77-4.613-3.1-1.317-1.33-2.356-2.91-3.057-4.64-.701-1.74-1.05-3.59-1.026-5.46 0-22.26 0-60.48-3.385-104.2-1.734-24.19-3.003-46.04-3.809-65.55-1.972-35.7-1.77-71.49.604-107.16 3.023-36.29 9.251-51.59 15.538-54.43 22.841-3.94 45.937-6.22 69.106-6.83 33.872-1.21 67.784-.49 101.573 2.17 23.077 2.91 45.897 7.58 68.259 13.97 0 0 58.888 83.88 28.054 325.53z" fill="#fff"/><path d="M718.265 1112.35l80.654 27.51 3.264-23.1c-7.859-13.78-9.855-22.49-3.204-38.52l-53.809-61.86c1.39 31.69-4.354 74.99-26.905 95.97z" fill="#B55B52"/><path d="M769.293 1151.84l15.841 6.59 13.785 8.65s18.44 105.58 13.301 194.72l15.478 12.7 16.324-13.12s-20.315-163.7-27.63-195.57l3.204-7.68 7.436-15.85-13.724-7.19-21.826 4.77h-15.236l-6.953 11.98z" fill="#fff"/><path opacity=".2" d="M767.056 1041.6l31.862 36.64c-2.392 5.62-4.313 11.42-5.743 17.36-13.483-4.05-30.23-22.01-29.444-36.65.044-5.94 1.171-11.82 3.325-17.35z" fill="#000"/><path d="M723.283 1097.71c22.762 15.16 47.086 27.83 72.552 37.8 2.781-11.26 2.781-23.03 0-34.29l35.611 17.78s2.963 27.64-5.2 42.33l-26.179-19.17-29.383 24.19s-55.624-21.47-64.33-50.61l16.929-18.03z" fill="#263238"/><path opacity=".2" d="M904.724 1312.27l-82.468 66.53c-118.381 26.36-170.437-47.48-191.356-95.86-1.972-35.69-1.77-71.48.605-107.15 28.416-1.33 63.785-1.33 73.338 6.04 16.626 12.76 74.547 102.2 83.193 108.86 8.646 6.65 116.688 21.58 116.688 21.58z" fill="#000"/><path d="M951.641 1309.13l43.349-15.66-5.32 58.05s-39.783 5.08-44.68-15.84l6.651-26.55z" fill="#B55B52"/><path d="M1030.84 1305.2l-6.59 47.83-34.58-1.51 5.32-58.05 35.85 11.73z" fill="#B55B52"/><path d="M699.462 1191.99c12.787 25.27 26.914 49.84 42.322 73.6 9.477 15.54 21.353 29.48 35.188 41.3 1.044.91 2.256 1.61 3.567 2.06 15.142 4 30.776 5.84 46.433 5.44 43.894.42 88.574-3.63 132.649-7.38l7.195 33.38c-29.528 9.63-59.637 17.36-90.146 23.17-33.072 6.04-63.241 10.58-98.429 7.19-11.351-1.19-22.371-4.53-32.467-9.85-39.178-22.92-63.181-59.99-85.913-96.76-8.163-14.27-15.599-27.58-22.492-42.82l62.274-29.45-.181.12z" fill="#B65B52"/><path d="M646.922 1121.66c-77.993 28.12 23.156 222.48 65.72 244.25 42.564 21.77 114.39 12.89 114.39 12.89l5.079-67.55s-37.243-4.54-48.368-7.2c-17.715-4.23-53.507-82.49-77.631-125-13.314-24.8-33.996-44.85-59.19-57.39z" fill="#263238"/><path opacity=".2" d="M646.922 1121.66c-77.993 28.12 23.156 222.48 65.72 244.25 42.564 21.77 114.39 12.89 114.39 12.89l5.079-67.55s-37.243-4.54-48.368-7.2c-17.715-4.23-53.507-82.49-77.631-125-13.314-24.8-33.996-44.85-59.19-57.39z" fill="#fff"/><path d="M822.075 1306.17l-6.288 78.43 22.37-4.17 5.865-70.09-21.947-4.17zM883.804 952.639c3.084 18.142-4.716 53.341-27.388 38.461-22.673-14.877 22.007-69.545 27.388-38.461z" fill="#263238"/><path d="M755.75 959.109c-8.706 44.271-16.082 69.731 0 97.661 24.184 41.97 83.616 35.56 105.442-5.26 19.65-36.83 30.593-102.802-7.678-131.043-8.476-6.181-18.377-10.117-28.782-11.444-10.405-1.326-20.977 0-30.732 3.856-9.755 3.856-18.377 10.116-25.064 18.199-6.688 8.082-11.224 17.725-13.186 28.031z" fill="#B55B52"/><path d="M734.468 910.307l50.121-2.298 1.331 28.786-2.963-1.633s-3.144 42.331-27.147 56.422c-32.467-24.794-42.019-65.372-21.342-81.277z" fill="#263238"/><path d="M729.268 991.039c.314 5.586 1.731 11.051 4.169 16.091 2.439 5.03 5.851 9.53 10.04 13.24 11.306 9.86 23.518 1.33 25.876-12.7 2.117-12.639-1.209-33.019-15.175-37.494-3.084-.905-6.343-1.034-9.489-.377-3.146.657-6.081 2.081-8.545 4.145-2.464 2.063-4.381 4.703-5.58 7.686-1.199 2.982-1.644 6.214-1.296 9.409z" fill="#B55B52"/><path d="M818.749 987.955c-.967 3.568 0 6.894 2.54 7.499 2.539.605 4.957-1.814 6.046-5.382 1.088-3.568 0-6.894-2.54-7.438-2.539-.545-5.139 1.814-6.046 5.321zM858.955 998.115c-.907 3.505 0 6.895 2.539 7.435 2.54.55 5.019-1.81 6.046-5.32 1.028-3.506 0-6.892-2.539-7.497-2.539-.605-5.079 1.814-6.046 5.382z" fill="#263238"/><path d="M845.715 996.664c1.638 11.586 4.895 22.886 9.673 33.566-2.885 1.02-5.953 1.43-9.005 1.19-3.052-.24-6.02-1.12-8.71-2.58l8.042-32.176z" fill="#A02724"/><path d="M815.061 1037.6c1.47.62 2.986 1.13 4.535 1.52.28.05.571 0 .817-.14.246-.15.429-.38.513-.65.036-.14.045-.28.025-.43-.02-.14-.068-.28-.141-.4-.073-.12-.17-.23-.285-.32-.115-.08-.246-.15-.385-.18-4.438-.99-8.575-3.03-12.067-5.94-3.492-2.92-6.236-6.62-8.006-10.81-.108-.27-.31-.48-.567-.6-.257-.13-.55-.15-.823-.07-.141.04-.271.11-.382.21-.112.09-.202.21-.265.34-.063.13-.097.27-.1.42-.003.14.025.29.082.42 1.537 3.8 3.845 7.25 6.78 10.11 2.935 2.86 6.432 5.08 10.269 6.52zM809.741 971.93c.353.134.735.171 1.107.107.372-.064.72-.226 1.009-.47 2.087-1.738 4.551-2.966 7.196-3.585 2.645-.619 5.398-.613 8.04.017.269.094.555.132.84.112.285-.02.562-.097.817-.227.254-.13.479-.31.662-.529.183-.219.319-.473.401-.747.094-.261.134-.539.118-.817-.016-.278-.089-.549-.213-.798-.125-.249-.298-.469-.51-.649-.213-.18-.459-.315-.725-.397-3.323-.887-6.811-.959-10.168-.212-3.357.747-6.485 2.293-9.119 4.506-.226.172-.416.387-.557.634-.141.246-.232.519-.266.801-.033.282-.01.568.069.841s.212.527.392.748c.249.287.558.514.907.665zM879.935 988.681c.367.132.763.166 1.148.097.385-.068.745-.236 1.044-.487.3-.25.529-.575.664-.942s.172-.762.106-1.148c-.638-3.356-2.068-6.512-4.171-9.205-2.103-2.693-4.819-4.844-7.921-6.276-.538-.202-1.133-.189-1.663.036-.529.225-.951.645-1.178 1.174-.2.53-.186 1.116.04 1.636.226.519.645.93 1.169 1.145 2.408 1.122 4.51 2.807 6.131 4.911 1.62 2.105 2.711 4.569 3.18 7.184.048.415.209.809.465 1.139.256.33.596.585.986.736z" fill="#263238"/><path d="M767.479 945.926c.962.815 1.994 1.543 3.084 2.177 2.902 1.737 6.194 2.718 9.573 2.856 3.38.137 6.74-.575 9.774-2.07 12.455-6.047 16.385-41.605 51.814-23.524 3.893-.938 7.973-.73 11.75.601 3.776 1.331 7.087 3.726 9.532 6.898 9.13 11.187 2.842 52.007 22.31 46.383 19.468-5.624 16.082-11.671 16.082-11.671s-5.441 3.447-8.646.725c2.887-2.428 4.944-5.696 5.887-9.349.943-3.652.724-7.508-.627-11.03 0 0-4.716 5.624-7.859 4.535 3.247-16.514 1.369-33.627-5.381-49.044-11.306-28.18-80.473-21.891-80.473-21.891s-8.706-14.574-39.964-4.415c-31.258 10.16-45.526 47.835-40.568 64.223M1180.18 1346.99l-4.47-16.88H992.33l-84.402 8.41-3.205 8.47h275.457z" fill="#263238"/><path opacity=".5" d="M1180.18 1346.99l-4.47-16.88H992.33l-84.402 8.41-3.205 8.47h275.457z" fill="#fff"/><path opacity=".2" d="M992.33 1330.11v16.88h187.85l-4.47-16.88H992.33z" fill="#000"/><path d="M1054.36 1249.32c-.24 2.05-.04 4.12.58 6.08.63 1.97 1.67 3.77 3.05 5.3 1.38 1.53 3.07 2.75 4.95 3.57 1.89.82 3.93 1.23 5.99 1.2h280.9c4.39-.11 8.59-1.8 11.83-4.77 3.23-2.97 5.28-7.01 5.76-11.38l16.69-179.85c.16-1.74.04-3.49-.36-5.2-.77-3.17-2.6-5.98-5.18-7.97-2.59-1.99-5.77-3.04-9.03-2.97h-280.9c-4.39.1-8.59 1.8-11.83 4.77-3.23 2.97-5.28 7.01-5.76 11.37l-16.69 179.85z" fill="#263238"/><path opacity=".5" d="M1054.36 1249.32c-.24 2.05-.04 4.12.58 6.08.63 1.97 1.67 3.77 3.05 5.3 1.38 1.53 3.07 2.75 4.95 3.57 1.89.82 3.93 1.23 5.99 1.2h280.9c4.39-.11 8.59-1.8 11.83-4.77 3.23-2.97 5.28-7.01 5.76-11.38l16.69-179.85c.16-1.74.04-3.49-.36-5.2-.77-3.17-2.6-5.98-5.18-7.97-2.59-1.99-5.77-3.04-9.03-2.97h-280.9c-4.39.1-8.59 1.8-11.83 4.77-3.23 2.97-5.28 7.01-5.76 11.37l-16.69 179.85z" fill="#fff"/><path opacity=".1" d="M1070.14 1265.47h279.87c4.39-.11 8.59-1.8 11.83-4.77 3.23-2.97 5.28-7.01 5.77-11.38l16.68-179.85c.16-1.74.04-3.49-.36-5.2H1104c-4.38.12-8.57 1.82-11.79 4.79-3.22 2.97-5.26 7-5.74 11.36l-16.69 179.85c-.19 1.74-.07 3.5.36 5.2z" fill="#000"/><path d="M1262.89 1155.16h-58.1l15.47 166.43-91.83 13.79v11.61h193.53v-11.61l-39.66-13.79-19.41-166.43z" fill="#263238"/><path opacity=".5" d="M1262.89 1155.16h-58.1l15.47 166.43-91.83 13.79v11.61h193.53v-11.61l-39.66-13.79-19.41-166.43z" fill="#fff"/><path opacity=".2" d="M1204.79 1155.16l43.04 189.17 34.47-1.03-19.41-188.14h-58.1z" fill="#fff"/><path d="M725.157 2189.87h351.873c.91 0 1.82-.18 2.66-.53.84-.36 1.6-.87 2.24-1.51.64-.65 1.15-1.42 1.49-2.26.34-.85.51-1.75.51-2.66v-22.43c0-1.83-.73-3.59-2.02-4.88s-3.05-2.02-4.88-2.02H743.295v-718.54h328.055c3.34 0 6.54-1.33 8.89-3.69 2.36-2.36 3.69-5.56 3.69-8.89v-23.71H725.157c-4.81 0-9.424 1.91-12.825 5.32-3.402 3.4-5.313 8.01-5.313 12.82v754.83c0 4.82 1.911 9.43 5.313 12.83 3.401 3.4 8.015 5.32 12.825 5.32z" fill="#263238"/><path d="M725.157 2189.87h351.873c.91 0 1.82-.18 2.66-.53.84-.36 1.6-.87 2.24-1.51.64-.65 1.15-1.42 1.49-2.26.34-.85.51-1.75.51-2.66v-22.43c0-1.83-.73-3.59-2.02-4.88s-3.05-2.02-4.88-2.02H743.295v-718.54h328.055c3.34 0 6.54-1.33 8.89-3.69 2.36-2.36 3.69-5.56 3.69-8.89v-23.71H725.157c-4.81 0-9.424 1.91-12.825 5.32-3.402 3.4-5.313 8.01-5.313 12.82v754.83c0 4.82 1.911 9.43 5.313 12.83 3.401 3.4 8.015 5.32 12.825 5.32z" fill="#fff" opacity=".4"/><path d="M1607.63 1404.8H680.054c-3.111 0-6.094-1.24-8.294-3.44s-3.435-5.18-3.435-8.29v-28.55h951.035v28.61c-.02 3.1-1.26 6.07-3.46 8.25-2.19 2.19-5.17 3.42-8.27 3.42z" fill="#2447F9"/><path opacity=".2" d="M668.325 1384.6h951.035v-20.14H668.325v20.14z" fill="#000"/><path d="M648.434 1369.66h990.936c3.01 0 5.89-1.19 8.02-3.3 2.13-2.12 3.33-5 3.35-8 0-3.02-1.2-5.91-3.33-8.04-2.13-2.14-5.02-3.33-8.04-3.33H648.434c-3.015 0-5.906 1.19-8.038 3.33-2.131 2.13-3.329 5.02-3.329 8.04.016 3 1.221 5.88 3.351 8 2.129 2.11 5.011 3.3 8.016 3.3z" fill="#2447F9"/></svg>