<svg width="3024" height="2253" viewBox="0 0 3024 2253" fill="none" xmlns="http://www.w3.org/2000/svg">
<path d="M1511.55 2252.57C2158.99 2252.57 2683.85 2221.93 2683.85 2184.13C2683.85 2146.33 2158.99 2115.69 1511.55 2115.69C864.108 2115.69 339.252 2146.33 339.252 2184.13C339.252 2221.93 864.108 2252.57 1511.55 2252.57Z" fill="#F5F5F5"/>
<path d="M2309.95 1920.39C2309.95 1920.39 2263.03 1864.65 2233.04 1890.65C2203.05 1916.65 2218.23 1971.85 2252.81 1973.66C2273.33 1974.77 2293.57 1968.58 2309.95 1956.19V1920.39Z" fill="#2447F9"/>
<path opacity="0.2" d="M2309.95 1920.39C2309.95 1920.39 2263.03 1864.65 2233.04 1890.65C2203.05 1916.65 2218.23 1971.85 2252.81 1973.66C2273.33 1974.77 2293.57 1968.58 2309.95 1956.19V1920.39Z" fill="white"/>
<path d="M2501.19 1778.91C2501.19 1778.91 2540.55 1737.68 2564.92 1744.69C2589.29 1751.71 2586.81 1850.2 2511.17 1810.29L2501.19 1778.91Z" fill="#2447F9"/>
<path opacity="0.3" d="M2501.19 1778.91C2501.19 1778.91 2540.55 1737.68 2564.92 1744.69C2589.29 1751.71 2586.81 1850.2 2511.17 1810.29L2501.19 1778.91Z" fill="white"/>
<path d="M2360.56 2086.6C2360.56 2086.6 2231.17 1909.63 2336.37 1873.78C2441.58 1837.92 2460.14 2016.17 2430.15 2065.81C2400.16 2115.45 2360.56 2086.6 2360.56 2086.6Z" fill="#2447F9"/>
<path d="M2420.54 1724.26C2420.54 1724.26 2500.83 1537.91 2381.96 1532.29C2263.09 1526.67 2250.09 1717.06 2386.92 1744.69L2420.54 1724.26Z" fill="#2447F9"/>
<path opacity="0.3" d="M2360.56 2086.6C2360.56 2086.6 2231.17 1909.63 2336.37 1873.78C2441.58 1837.92 2460.14 2016.17 2430.15 2065.81C2400.16 2115.45 2360.56 2086.6 2360.56 2086.6Z" fill="white"/>
<path opacity="0.3" d="M2420.54 1724.26C2420.54 1724.26 2500.83 1537.91 2381.96 1532.29C2263.09 1526.67 2250.09 1717.06 2386.92 1744.69L2420.54 1724.26Z" fill="white"/>
<path d="M2392.06 1876.8C2392.06 1876.8 2353.06 1712.28 2428.34 1699.16C2503.61 1686.04 2577.38 1834.72 2422.29 1909.45C2421.93 1909.45 2395.32 1892.94 2392.06 1876.8Z" fill="#2447F9"/>
<path opacity="0.2" d="M2392.06 1876.8C2392.06 1876.8 2353.06 1712.28 2428.34 1699.16C2503.61 1686.04 2577.38 1834.72 2422.29 1909.45C2421.93 1909.45 2395.32 1892.94 2392.06 1876.8Z" fill="white"/>
<path d="M2267.45 2061.51H2484.63L2466.49 2200.52H2285.59L2267.45 2061.51Z" fill="#263238"/>
<path d="M2380.39 1711.08C2335.65 1678.37 2304.63 1615.12 2331.05 1561.85C2329.96 1566.81 2328.63 1572.19 2327.43 1577.15C2318.6 1627.64 2346.29 1675.83 2380.39 1711.08V1711.08Z" fill="#2447F9"/>
<path d="M2351.97 1551.03C2403.55 1561.49 2426.34 1616.21 2420.36 1664.4C2419.21 1671.23 2418.24 1677.94 2416.85 1684.65C2417.52 1671.15 2417.38 1657.63 2416.43 1644.14C2413.22 1604.42 2391.33 1565.54 2351.97 1551.03V1551.03Z" fill="#2447F9"/>
<path d="M2442.67 1711.08C2471.63 1721.29 2489.77 1753.1 2489.83 1783.21C2489.83 1809.45 2475.32 1833.27 2459.11 1852.86C2447.3 1867.08 2433.8 1879.81 2418.9 1890.77C2432.06 1878.15 2444.19 1864.5 2455.18 1849.96C2468.66 1831.82 2480.51 1812.17 2483.48 1789.8C2486.02 1758.72 2470.84 1725.59 2442.36 1711.2L2442.67 1711.08Z" fill="#2447F9"/>
<path d="M2420.54 1724.26C2428.28 1748.44 2435.17 1777.16 2422.59 1800.86C2412.07 1816.22 2410.98 1836.29 2410.5 1854.61C2410.5 1861.02 2410.5 1867.37 2410.92 1873.78C2407.84 1861.22 2406.43 1848.31 2406.75 1835.39C2406.55 1822.07 2410.18 1808.97 2417.21 1797.66C2428.82 1775.53 2423.26 1748.14 2420.29 1724.26H2420.54Z" fill="#2447F9"/>
<path d="M2367.81 1890.65C2398.04 1906.19 2410.14 2010.54 2408.99 2043.37C2408.08 2036.72 2407.05 2030.13 2405.78 2023.54C2400.04 1990.65 2394.05 1957.64 2385.35 1925.41C2381.3 1913.32 2378.7 1898.45 2367.81 1890.65V1890.65Z" fill="#2447F9"/>
<path d="M2331.05 1896.39C2323.77 1920.08 2322.66 1945.24 2327.82 1969.48C2332.98 1993.72 2344.25 2016.24 2360.56 2034.91C2355.76 2030.8 2351.22 2026.39 2346.95 2021.73C2332.34 2004.68 2323.05 1983.72 2320.23 1961.44C2317.4 1939.17 2321.16 1916.55 2331.05 1896.39V1896.39Z" fill="#2447F9"/>
<path d="M2531.73 1798.99C2545.51 1795.3 2557.24 1791.97 2567.28 1781.82C2564.8 1797.23 2545.21 1804.49 2531.73 1798.99Z" fill="#2447F9"/>
<path d="M2523.68 1771.84C2530.15 1758.66 2552.28 1750.44 2561.65 1764.77C2548.41 1759.02 2535.54 1766.22 2523.68 1771.84Z" fill="#2447F9"/>
<path d="M2288.55 1928.74C2273.43 1918.1 2257.77 1899.96 2238.24 1909.45C2254.15 1890.59 2280.87 1911.69 2288.55 1928.74Z" fill="#2447F9"/>
<path d="M2288.55 1956.19C2268.78 1963.44 2229.3 1963.99 2226.88 1936.36C2238.18 1958.91 2267.02 1953.95 2288.55 1956.19Z" fill="#2447F9"/>
<path d="M1908.48 2079.89C1909.52 2077.79 1910.03 2075.46 1909.98 2073.12C1909.92 2070.77 1909.29 2068.47 1908.15 2066.42C1907.01 2064.37 1905.38 2062.63 1903.42 2061.34C1901.46 2060.05 1899.21 2059.26 1896.88 2059.03C1898.88 2053.05 1899.01 2046.6 1897.25 2040.53C1895.49 2034.47 1891.92 2029.09 1887.02 2025.12C1885.85 2023.99 1884.34 2023.31 1882.73 2023.18C1881.02 2023.36 1879.41 2024.08 1878.13 2025.24L1850.98 2044.77C1848.78 2046.09 1846.91 2047.91 1845.54 2050.09C1839.98 2060.85 1860.05 2074.63 1851.59 2083.52C1849.23 2086.12 1845.54 2086.6 1842.46 2088.48C1835.99 2092.53 1835.2 2101.42 1832.18 2108.43C1829.16 2115.45 1818.64 2120.83 1814.59 2114.48C1817.61 2107.77 1808.54 2101.96 1801.28 2101.12C1794.03 2100.27 1786.35 2099.85 1782.36 2093.01C1771.96 2102.08 1748.8 2076.81 1749.29 2066.65C1745.21 2067.39 1741.45 2069.38 1738.56 2072.35C1735.67 2075.32 1733.77 2079.12 1733.14 2083.22C1731.96 2091.63 1731.66 2100.14 1732.24 2108.61C1732.24 2125.12 1726.67 2141.26 1726.98 2157.77C1726.98 2170.59 1732.18 2184.8 1743.91 2189.99C1749.72 2192.07 1755.9 2192.89 1762.04 2192.41L1895.85 2191.57C1899.07 2191.82 1902.31 2191.28 1905.28 2189.99C1911.33 2186.85 1912.6 2178.93 1913.14 2172.16C1915.48 2143.1 1917.88 2114.03 1920.33 2084.97L1908.48 2079.89Z" fill="#2447F9"/>
<path opacity="0.3" d="M1908.48 2079.89C1909.52 2077.79 1910.03 2075.46 1909.98 2073.12C1909.92 2070.77 1909.29 2068.47 1908.15 2066.42C1907.01 2064.37 1905.38 2062.63 1903.42 2061.34C1901.46 2060.05 1899.21 2059.26 1896.88 2059.03C1898.88 2053.05 1899.01 2046.6 1897.25 2040.53C1895.49 2034.47 1891.92 2029.09 1887.02 2025.12C1885.85 2023.99 1884.34 2023.31 1882.73 2023.18C1881.02 2023.36 1879.41 2024.08 1878.13 2025.24L1850.98 2044.77C1848.78 2046.09 1846.91 2047.91 1845.54 2050.09C1839.98 2060.85 1860.05 2074.63 1851.59 2083.52C1849.23 2086.12 1845.54 2086.6 1842.46 2088.48C1835.99 2092.53 1835.2 2101.42 1832.18 2108.43C1829.16 2115.45 1818.64 2120.83 1814.59 2114.48C1817.61 2107.77 1808.54 2101.96 1801.28 2101.12C1794.03 2100.27 1786.35 2099.85 1782.36 2093.01C1771.96 2102.08 1748.8 2076.81 1749.29 2066.65C1745.21 2067.39 1741.45 2069.38 1738.56 2072.35C1735.67 2075.32 1733.77 2079.12 1733.14 2083.22C1731.96 2091.63 1731.66 2100.14 1732.24 2108.61C1732.24 2125.12 1726.67 2141.26 1726.98 2157.77C1726.98 2170.59 1732.18 2184.8 1743.91 2189.99C1749.72 2192.07 1755.9 2192.89 1762.04 2192.41L1895.85 2191.57C1899.07 2191.82 1902.31 2191.28 1905.28 2189.99C1911.33 2186.85 1912.6 2178.93 1913.14 2172.16C1915.48 2143.1 1917.88 2114.03 1920.33 2084.97L1908.48 2079.89Z" fill="white"/>
<path d="M1916.65 1938.17H1708.72L1710.41 1959.15L1711.68 1974.15L1714.82 2013.08L1716.64 2035.51L1719 2065.26L1720.02 2078.08L1720.39 2081.89L1721.6 2096.88L1723.29 2117.5L1724.32 2130.26L1725.34 2143.26L1726.55 2158.25L1727.52 2169.62L1728.55 2182.38L1728.97 2187.94H1919.49L1919.91 2182.38L1920.94 2169.68L1921.91 2158.19L1923.12 2143.2L1924.14 2130.26L1925.17 2117.5L1926.86 2096.82L1928.07 2081.89L1928.38 2078.08L1929.4 2065.26L1931.82 2035.51L1933.64 2013.14L1936.78 1974.15L1937.99 1959.15L1939.68 1938.17H1916.65ZM1929.1 1951.96L1925.11 1947.9H1929.46L1929.1 1951.96ZM1928.07 1964.65L1927.71 1969.73L1909.09 1988.29L1887.81 1967.01L1906.85 1947.9H1911.33L1928.07 1964.65ZM1922.69 2031.16L1909.09 2044.76L1887.81 2023.42L1909.09 2002.2L1923.84 2016.89L1922.69 2031.16ZM1725.16 2016.89L1739.92 2002.2L1761.2 2023.42L1739.92 2044.76L1726.37 2031.16L1725.16 2016.89ZM1901.95 1995.25L1880.37 2016.53L1859.33 1995.25L1880.61 1973.96L1901.95 1995.25ZM1868.28 1947.9H1892.46L1880.37 1960L1868.28 1947.9ZM1873.6 2023.36L1852.31 2044.7L1830.97 2023.36L1852.31 2002.14L1873.6 2023.36ZM1802.8 2051.6L1824.14 2030.31L1845.36 2051.6L1824.14 2072.88L1802.8 2051.6ZM1817.19 2079.77L1795.72 2101.12L1774.74 2079.89L1796.02 2058.55L1817.19 2079.77ZM1852.31 2058.49L1873.72 2079.89L1852.44 2101.18L1831.09 2079.89L1852.31 2058.49ZM1824.14 2016.53L1802.92 1995.25L1824.26 1973.96L1845.48 1995.25L1824.14 2016.53ZM1817.19 2023.36L1795.9 2044.7L1774.62 2023.36L1795.9 2002.14L1817.19 2023.36ZM1767.67 2016.53L1746.51 1995.25L1767.79 1973.96L1789.13 1995.25L1767.67 2016.53ZM1767.67 2030.31L1789.01 2051.6L1767.67 2072.88L1746.38 2051.6L1767.67 2030.31ZM1789.01 2108.01L1767.67 2129.29L1746.38 2108.01L1767.67 2086.73L1789.01 2108.01ZM1795.84 2114.9L1817.19 2136.18L1795.9 2157.53L1774.62 2136.18L1795.84 2114.9ZM1802.8 2108.01L1824.14 2086.73L1845.36 2108.01L1824.14 2129.29L1802.8 2108.01ZM1852.31 2114.9L1873.6 2136.18L1852.31 2157.53L1830.97 2136.18L1852.31 2114.9ZM1880.49 2143.08L1901.83 2164.42L1887.99 2178.2H1873.11L1859.33 2164.54L1880.49 2143.08ZM1859.21 2108.01L1880.49 2086.73L1901.83 2108.01L1880.37 2129.29L1859.21 2108.01ZM1859.21 2051.6L1880.37 2030.31L1901.71 2051.6L1880.37 2072.88L1859.21 2051.6ZM1873.6 1966.95L1852.31 1988.23L1830.97 1966.95L1850.08 1947.84H1854.55L1873.6 1966.95ZM1824.14 1960.06L1812.05 1947.97H1836.23L1824.14 1960.06ZM1817.19 1966.95L1795.9 1988.23L1774.62 1966.95L1793.67 1947.84H1798.14L1817.19 1966.95ZM1779.88 1947.84L1767.79 1959.94L1755.7 1947.84H1779.88ZM1741.73 1947.84L1760.77 1966.95L1739.49 1988.23L1720.93 1969.67L1720.57 1964.59L1737.26 1947.84H1741.73ZM1723.59 1947.84L1719.66 1951.83L1719.3 1947.84H1723.59ZM1722.26 1984.73L1732.72 1995.13L1723.83 2004.01L1722.26 1984.73ZM1728.31 2056.13L1727.52 2046.03L1732.96 2051.54L1728.31 2056.13ZM1729.33 2069.01L1739.86 2058.43L1761.14 2079.77L1739.86 2101.06L1731.27 2092.47L1729.33 2069.01ZM1732.54 2108.37V2107.46L1733.02 2107.95L1732.6 2108.37H1732.54ZM1736.23 2153.78L1733.57 2121.13L1739.61 2115.08L1760.9 2136.36L1739.61 2157.65L1735.99 2154.02L1736.23 2153.78ZM1738.16 2177.96L1737.8 2173.07L1739.86 2171.01L1746.75 2177.96H1738.16ZM1746.75 2164.18L1768.03 2142.83L1789.37 2164.18L1775.53 2177.96H1760.53L1746.75 2164.18ZM1789.37 2177.96L1796.27 2171.01L1803.22 2177.96H1789.37ZM1816.94 2177.96L1802.92 2164.54L1824.26 2143.2L1845.48 2164.54L1832 2178.2L1816.94 2177.96ZM1845.72 2177.96L1852.68 2171.01L1859.57 2177.96H1845.72ZM1910.72 2177.96H1902.14L1909.03 2171.01L1911.08 2173.07L1910.72 2177.96ZM1912.72 2153.78L1909.03 2157.41L1887.75 2136.12L1909.03 2114.84L1915.07 2120.89L1912.72 2153.78ZM1916.46 2107.4V2108.37L1916.04 2107.95L1916.59 2107.4H1916.46ZM1917.67 2092.47L1909.03 2101.06L1887.5 2079.89L1908.79 2058.55L1919.37 2069.13L1917.67 2092.47ZM1920.64 2056.19L1915.92 2051.54L1921.42 2046.03L1920.64 2056.19ZM1926.68 1984.67L1925.11 2004.07L1915.68 1995.25L1926.2 1984.79L1926.68 1984.67Z" fill="#2447F9"/>
<g opacity="0.6">
<path d="M1916.65 1938.17H1708.72L1710.41 1959.15L1711.68 1974.15L1714.82 2013.08L1716.64 2035.51L1719 2065.26L1720.02 2078.08L1720.39 2081.89L1721.6 2096.88L1723.29 2117.5L1724.32 2130.26L1725.34 2143.26L1726.55 2158.25L1727.52 2169.62L1728.55 2182.38L1728.97 2187.94H1919.49L1919.91 2182.38L1920.94 2169.68L1921.91 2158.19L1923.12 2143.2L1924.14 2130.26L1925.17 2117.5L1926.86 2096.82L1928.07 2081.89L1928.38 2078.08L1929.4 2065.26L1931.82 2035.51L1933.64 2013.14L1936.78 1974.15L1937.99 1959.15L1939.68 1938.17H1916.65ZM1929.1 1951.96L1925.11 1947.9H1929.46L1929.1 1951.96ZM1928.07 1964.65L1927.71 1969.73L1909.09 1988.29L1887.81 1967.01L1906.85 1947.9H1911.33L1928.07 1964.65ZM1922.69 2031.16L1909.09 2044.76L1887.81 2023.42L1909.09 2002.2L1923.84 2016.89L1922.69 2031.16ZM1725.16 2016.89L1739.92 2002.2L1761.2 2023.42L1739.92 2044.76L1726.37 2031.16L1725.16 2016.89ZM1901.95 1995.25L1880.37 2016.53L1859.33 1995.25L1880.61 1973.96L1901.95 1995.25ZM1868.28 1947.9H1892.46L1880.37 1960L1868.28 1947.9ZM1873.6 2023.36L1852.31 2044.7L1830.97 2023.36L1852.31 2002.14L1873.6 2023.36ZM1802.8 2051.6L1824.14 2030.31L1845.36 2051.6L1824.14 2072.88L1802.8 2051.6ZM1817.19 2079.77L1795.72 2101.12L1774.74 2079.89L1796.02 2058.55L1817.19 2079.77ZM1852.31 2058.49L1873.72 2079.89L1852.44 2101.18L1831.09 2079.89L1852.31 2058.49ZM1824.14 2016.53L1802.92 1995.25L1824.26 1973.96L1845.48 1995.25L1824.14 2016.53ZM1817.19 2023.36L1795.9 2044.7L1774.62 2023.36L1795.9 2002.14L1817.19 2023.36ZM1767.67 2016.53L1746.51 1995.25L1767.79 1973.96L1789.13 1995.25L1767.67 2016.53ZM1767.67 2030.31L1789.01 2051.6L1767.67 2072.88L1746.38 2051.6L1767.67 2030.31ZM1789.01 2108.01L1767.67 2129.29L1746.38 2108.01L1767.67 2086.73L1789.01 2108.01ZM1795.84 2114.9L1817.19 2136.18L1795.9 2157.53L1774.62 2136.18L1795.84 2114.9ZM1802.8 2108.01L1824.14 2086.73L1845.36 2108.01L1824.14 2129.29L1802.8 2108.01ZM1852.31 2114.9L1873.6 2136.18L1852.31 2157.53L1830.97 2136.18L1852.31 2114.9ZM1880.49 2143.08L1901.83 2164.42L1887.99 2178.2H1873.11L1859.33 2164.54L1880.49 2143.08ZM1859.21 2108.01L1880.49 2086.73L1901.83 2108.01L1880.37 2129.29L1859.21 2108.01ZM1859.21 2051.6L1880.37 2030.31L1901.71 2051.6L1880.37 2072.88L1859.21 2051.6ZM1873.6 1966.95L1852.31 1988.23L1830.97 1966.95L1850.08 1947.84H1854.55L1873.6 1966.95ZM1824.14 1960.06L1812.05 1947.97H1836.23L1824.14 1960.06ZM1817.19 1966.95L1795.9 1988.23L1774.62 1966.95L1793.67 1947.84H1798.14L1817.19 1966.95ZM1779.88 1947.84L1767.79 1959.94L1755.7 1947.84H1779.88ZM1741.73 1947.84L1760.77 1966.95L1739.49 1988.23L1720.93 1969.67L1720.57 1964.59L1737.26 1947.84H1741.73ZM1723.59 1947.84L1719.66 1951.83L1719.3 1947.84H1723.59ZM1722.26 1984.73L1732.72 1995.13L1723.83 2004.01L1722.26 1984.73ZM1728.31 2056.13L1727.52 2046.03L1732.96 2051.54L1728.31 2056.13ZM1729.33 2069.01L1739.86 2058.43L1761.14 2079.77L1739.86 2101.06L1731.27 2092.47L1729.33 2069.01ZM1732.54 2108.37V2107.46L1733.02 2107.95L1732.6 2108.37H1732.54ZM1736.23 2153.78L1733.57 2121.13L1739.61 2115.08L1760.9 2136.36L1739.61 2157.65L1735.99 2154.02L1736.23 2153.78ZM1738.16 2177.96L1737.8 2173.07L1739.86 2171.01L1746.75 2177.96H1738.16ZM1746.75 2164.18L1768.03 2142.83L1789.37 2164.18L1775.53 2177.96H1760.53L1746.75 2164.18ZM1789.37 2177.96L1796.27 2171.01L1803.22 2177.96H1789.37ZM1816.94 2177.96L1802.92 2164.54L1824.26 2143.2L1845.48 2164.54L1832 2178.2L1816.94 2177.96ZM1845.72 2177.96L1852.68 2171.01L1859.57 2177.96H1845.72ZM1910.72 2177.96H1902.14L1909.03 2171.01L1911.08 2173.07L1910.72 2177.96ZM1912.72 2153.78L1909.03 2157.41L1887.75 2136.12L1909.03 2114.84L1915.07 2120.89L1912.72 2153.78ZM1916.46 2107.4V2108.37L1916.04 2107.95L1916.59 2107.4H1916.46ZM1917.67 2092.47L1909.03 2101.06L1887.5 2079.89L1908.79 2058.55L1919.37 2069.13L1917.67 2092.47ZM1920.64 2056.19L1915.92 2051.54L1921.42 2046.03L1920.64 2056.19ZM1926.68 1984.67L1925.11 2004.07L1915.68 1995.25L1926.2 1984.79L1926.68 1984.67Z" fill="white"/>
</g>
<path d="M1705.33 1956.67H1943.07C1948.54 1956.67 1952.98 1952.23 1952.98 1946.76V1939.44C1952.98 1933.96 1948.54 1929.52 1943.07 1929.52H1705.33C1699.86 1929.52 1695.42 1933.96 1695.42 1939.44V1946.76C1695.42 1952.23 1699.86 1956.67 1705.33 1956.67Z" fill="#2447F9"/>
<path d="M1924.51 2173.37H1723.95C1718.48 2173.37 1714.04 2177.81 1714.04 2183.28V2190.6C1714.04 2196.08 1718.48 2200.52 1723.95 2200.52H1924.51C1929.98 2200.52 1934.42 2196.08 1934.42 2190.6V2183.28C1934.42 2177.81 1929.98 2173.37 1924.51 2173.37Z" fill="#2447F9"/>
<path d="M2621.27 566.045H1414.15V1387.91H2621.27V566.045Z" fill="#2447F9"/>
<path opacity="0.6" d="M2621.27 566.045H1414.15V1387.91H2621.27V566.045Z" fill="white"/>
<path opacity="0.1" d="M2191.39 566.045C2191.39 566.045 1844.09 891.21 1414.15 898.949V566.045H2191.39Z" fill="white"/>
<path opacity="0.1" d="M2621.21 995.084C2621.21 995.084 2382.69 970.234 2146.7 1107.3C1910.72 1244.37 1675.1 1373.33 1414.15 1312.87V1387.85H2621.21V995.084Z" fill="white"/>
<path d="M2306.26 751.845H1729.03V850.701H2306.26V751.845Z" fill="white"/>
<path d="M2306.26 892.057H1729.03V990.912H2306.26V892.057Z" fill="white"/>
<g opacity="0.4">
<path d="M1780.73 810.916V813.516H1760.65V785.16H1780.12V787.759H1763.68V798.099H1778.31V800.638H1763.68V811.158L1780.73 810.916Z" fill="#263238"/>
<path d="M1784.72 801.243H1795.36V803.782H1784.72V801.243Z" fill="#263238"/>
<path d="M1836.9 801.122V813.516H1834.05V801.424C1834.05 796.95 1831.76 794.652 1828.01 794.652C1827.01 794.589 1826.01 794.749 1825.07 795.121C1824.14 795.492 1823.3 796.066 1822.62 796.801C1821.94 797.536 1821.43 798.413 1821.13 799.369C1820.82 800.326 1820.74 801.337 1820.87 802.331V813.516H1817.97V801.424C1817.97 796.95 1815.73 794.652 1811.93 794.652C1810.93 794.609 1809.94 794.783 1809.02 795.163C1808.1 795.542 1807.28 796.118 1806.61 796.849C1805.93 797.58 1805.43 798.449 1805.12 799.396C1804.82 800.343 1804.73 801.344 1804.85 802.331V813.516H1801.77V792.052H1804.55V795.982C1805.36 794.662 1806.51 793.588 1807.89 792.874C1809.26 792.161 1810.8 791.835 1812.35 791.931C1813.92 791.815 1815.48 792.181 1816.83 792.981C1818.18 793.781 1819.26 794.976 1819.91 796.406C1820.78 794.972 1822.01 793.8 1823.49 793.013C1824.97 792.226 1826.64 791.852 1828.31 791.931C1829.52 791.825 1830.73 791.995 1831.87 792.428C1833 792.862 1834.02 793.547 1834.84 794.433C1835.67 795.319 1836.29 796.382 1836.64 797.54C1837 798.699 1837.08 799.924 1836.9 801.122V801.122Z" fill="#263238"/>
<path d="M1860.78 800.275V813.516H1858V810.191C1857.2 811.376 1856.11 812.327 1854.82 812.943C1853.53 813.56 1852.1 813.821 1850.68 813.698C1845.85 813.698 1842.94 811.219 1842.94 807.652C1842.94 804.084 1845 801.605 1851.11 801.605H1857.88V800.275C1857.95 799.48 1857.85 798.679 1857.56 797.932C1857.28 797.186 1856.83 796.515 1856.24 795.971C1855.66 795.427 1854.96 795.025 1854.19 794.797C1853.43 794.568 1852.62 794.519 1851.83 794.652C1849.22 794.612 1846.69 795.514 1844.7 797.192L1843.43 795.015C1845.89 793.094 1848.95 792.09 1852.07 792.173C1853.2 791.995 1854.36 792.076 1855.46 792.411C1856.55 792.746 1857.56 793.326 1858.4 794.106C1859.24 794.887 1859.89 795.848 1860.3 796.916C1860.71 797.985 1860.88 799.134 1860.78 800.275ZM1857.88 807.107V803.601H1851.23C1847.11 803.601 1845.72 805.233 1845.72 807.41C1845.72 809.586 1847.72 811.461 1851.11 811.461C1852.55 811.555 1853.99 811.183 1855.21 810.4C1856.43 809.616 1857.36 808.462 1857.88 807.107Z" fill="#263238"/>
<path d="M1867.91 785.462C1867.9 785.041 1868.02 784.626 1868.24 784.27C1868.47 783.914 1868.79 783.634 1869.18 783.464C1869.56 783.295 1869.99 783.244 1870.4 783.319C1870.82 783.394 1871.2 783.59 1871.5 783.884C1871.81 784.177 1872.01 784.554 1872.1 784.966C1872.19 785.378 1872.15 785.807 1871.99 786.197C1871.83 786.587 1871.56 786.921 1871.21 787.156C1870.86 787.392 1870.45 787.518 1870.03 787.518C1869.75 787.526 1869.48 787.479 1869.22 787.379C1868.97 787.279 1868.73 787.129 1868.54 786.937C1868.34 786.746 1868.18 786.516 1868.08 786.263C1867.97 786.009 1867.91 785.737 1867.91 785.462V785.462ZM1868.58 792.173H1871.42V813.516H1868.58V792.173Z" fill="#263238"/>
<path d="M1879.46 783.467H1882.3V813.698H1879.46V783.467Z" fill="#263238"/>
</g>
<g opacity="0.4">
<path d="M1782.84 935.166C1782.84 941.212 1778.49 944.9 1771.3 944.9H1763.68V953.849H1760.65V925.492H1771.54C1778.49 925.492 1782.84 929.12 1782.84 935.166ZM1779.88 935.166C1779.88 930.631 1776.86 928.092 1771.17 928.092H1763.68V942.24H1771.17C1776.86 942.24 1779.88 939.64 1779.88 935.166Z" fill="#263238"/>
<path d="M1804.55 940.608V953.849H1801.77V950.523C1800.97 951.704 1799.87 952.651 1798.58 953.267C1797.3 953.883 1795.87 954.146 1794.45 954.03C1789.62 954.03 1786.65 951.491 1786.65 947.984C1786.65 944.477 1788.77 941.938 1794.88 941.938H1801.77V940.608C1801.77 936.98 1799.71 934.985 1795.72 934.985C1793.13 934.942 1790.62 935.845 1788.65 937.524L1787.32 935.347C1789.81 933.427 1792.88 932.423 1796.02 932.506C1797.14 932.346 1798.29 932.442 1799.36 932.786C1800.44 933.13 1801.43 933.714 1802.25 934.493C1803.07 935.273 1803.7 936.228 1804.1 937.286C1804.5 938.345 1804.65 939.481 1804.55 940.608V940.608ZM1801.77 947.44V943.933H1795.06C1790.95 943.933 1789.62 945.565 1789.62 947.742C1789.62 949.919 1791.61 951.733 1795 951.733C1796.43 951.822 1797.86 951.455 1799.08 950.684C1800.29 949.913 1801.24 948.777 1801.77 947.44Z" fill="#263238"/>
<path d="M1809.39 951.37L1810.72 949.133C1812.92 950.7 1815.57 951.526 1818.27 951.491C1822.33 951.491 1823.96 950.161 1823.96 948.044C1823.96 942.482 1810.17 946.835 1810.17 938.431C1810.17 934.924 1813.2 932.385 1818.58 932.385C1821.23 932.325 1823.84 932.994 1826.13 934.32L1824.86 936.678C1823.09 935.454 1820.98 934.8 1818.82 934.803C1815.01 934.803 1813.32 936.315 1813.32 938.371C1813.32 944.417 1827.1 939.761 1827.1 947.924C1827.1 951.612 1823.84 953.97 1818.33 953.97C1815.14 954.134 1811.99 953.218 1809.39 951.37Z" fill="#263238"/>
<path d="M1829.22 951.37L1830.49 949.133C1832.7 950.689 1835.34 951.514 1838.05 951.491C1842.1 951.491 1843.79 950.16 1843.79 948.044C1843.79 942.482 1829.94 946.835 1829.94 938.431C1829.94 934.924 1832.97 932.385 1838.41 932.385C1841.04 932.333 1843.63 933.002 1845.91 934.319L1844.64 936.677C1842.86 935.443 1840.75 934.788 1838.59 934.803C1834.72 934.803 1833.03 936.315 1833.03 938.37C1833.03 944.417 1846.81 939.761 1846.81 947.923C1846.81 951.612 1843.61 953.97 1838.05 953.97C1834.89 954.12 1831.78 953.204 1829.22 951.37V951.37Z" fill="#263238"/>
<path d="M1882.79 932.506L1874.75 953.849H1872.03L1865.31 936.375L1858.6 953.849H1856.18L1848.14 932.506H1850.92L1857.57 950.644L1864.41 932.506H1866.89L1873.72 950.644L1880.49 932.506H1882.79Z" fill="#263238"/>
<path d="M1884.36 943.207C1884.37 941.069 1885.02 938.983 1886.21 937.211C1887.41 935.439 1889.1 934.062 1891.08 933.252C1893.06 932.442 1895.23 932.236 1897.33 932.66C1899.43 933.085 1901.35 934.12 1902.86 935.636C1904.36 937.152 1905.39 939.081 1905.8 941.178C1906.21 943.276 1906 945.449 1905.17 947.423C1904.35 949.397 1902.97 951.084 1901.19 952.271C1899.41 953.457 1897.32 954.09 1895.18 954.091C1893.74 954.142 1892.31 953.895 1890.97 953.365C1889.63 952.835 1888.41 952.035 1887.39 951.013C1886.38 949.991 1885.58 948.77 1885.06 947.427C1884.54 946.084 1884.3 944.647 1884.36 943.207ZM1903.1 943.207C1903.02 941.662 1902.49 940.174 1901.57 938.928C1900.65 937.682 1899.38 936.733 1897.93 936.198C1896.48 935.663 1894.9 935.565 1893.39 935.917C1891.89 936.269 1890.51 937.055 1889.45 938.178C1888.38 939.3 1887.67 940.711 1887.4 942.234C1887.12 943.758 1887.3 945.329 1887.91 946.751C1888.52 948.174 1889.54 949.387 1890.83 950.24C1892.12 951.093 1893.63 951.549 1895.18 951.551C1896.26 951.571 1897.34 951.365 1898.34 950.947C1899.33 950.528 1900.23 949.907 1900.98 949.123C1901.72 948.338 1902.3 947.407 1902.66 946.388C1903.03 945.37 1903.18 944.287 1903.1 943.207V943.207Z" fill="#263238"/>
<path d="M1922.69 932.385V935.166H1922.03C1921.01 935.111 1919.99 935.282 1919.05 935.668C1918.11 936.053 1917.26 936.643 1916.57 937.395C1915.88 938.146 1915.37 939.041 1915.07 940.015C1914.77 940.989 1914.69 942.017 1914.83 943.026V953.909H1911.99V932.566H1914.71V936.738C1915.45 935.292 1916.6 934.102 1918.03 933.325C1919.45 932.548 1921.08 932.221 1922.69 932.385Z" fill="#263238"/>
<path d="M1946.88 923.799V954.03H1944.1V949.798C1943.25 951.191 1942.05 952.335 1940.61 953.11C1939.18 953.886 1937.56 954.266 1935.93 954.212C1933.06 954.212 1930.31 953.071 1928.28 951.042C1926.25 949.012 1925.11 946.259 1925.11 943.389C1925.11 940.518 1926.25 937.766 1928.28 935.736C1930.31 933.706 1933.06 932.566 1935.93 932.566C1937.52 932.514 1939.09 932.87 1940.5 933.6C1941.91 934.331 1943.1 935.411 1943.97 936.738V923.981L1946.88 923.799ZM1944.04 943.147C1943.95 941.599 1943.42 940.109 1942.5 938.862C1941.57 937.615 1940.31 936.666 1938.85 936.133C1937.39 935.6 1935.81 935.506 1934.3 935.862C1932.8 936.219 1931.42 937.011 1930.36 938.139C1929.3 939.268 1928.59 940.684 1928.32 942.211C1928.06 943.739 1928.25 945.311 1928.86 946.733C1929.48 948.154 1930.51 949.363 1931.81 950.209C1933.11 951.055 1934.62 951.5 1936.18 951.491C1937.26 951.518 1938.33 951.32 1939.33 950.909C1940.33 950.499 1941.24 949.884 1941.99 949.105C1942.74 948.326 1943.32 947.4 1943.69 946.384C1944.07 945.369 1944.22 944.287 1944.16 943.207L1944.04 943.147Z" fill="#263238"/>
</g>
<path opacity="0.2" d="M2312.31 1091.7H1735.08V1190.56H2312.31V1091.7Z" fill="black"/>
<g opacity="0.5">
<path d="M1807.15 1050.77L1803.28 1045.39H1797.23V1050.71H1795.72V1033.9H1801.77C1806.06 1033.9 1808.66 1036.08 1808.66 1039.95C1808.72 1041.14 1808.36 1042.32 1807.66 1043.29C1806.96 1044.25 1805.95 1044.95 1804.79 1045.27L1808.9 1051.01L1807.15 1050.77ZM1807.15 1039.71C1807.15 1036.98 1805.34 1035.41 1801.95 1035.41H1797.48V1043.94H1801.77C1805.28 1043.94 1807.09 1042.37 1807.09 1039.95L1807.15 1039.71Z" fill="black"/>
<path d="M1823.78 1044.97H1813.14C1813.17 1045.58 1813.33 1046.19 1813.61 1046.75C1813.88 1047.31 1814.26 1047.8 1814.73 1048.21C1815.19 1048.62 1815.74 1048.94 1816.32 1049.14C1816.91 1049.34 1817.53 1049.42 1818.15 1049.38C1818.89 1049.4 1819.62 1049.27 1820.3 1048.99C1820.97 1048.71 1821.58 1048.28 1822.08 1047.75L1823.05 1048.83C1822.42 1049.52 1821.66 1050.06 1820.8 1050.41C1819.94 1050.77 1819.02 1050.93 1818.09 1050.89C1817.21 1050.98 1816.32 1050.88 1815.49 1050.59C1814.65 1050.3 1813.89 1049.83 1813.26 1049.21C1812.62 1048.59 1812.13 1047.84 1811.82 1047.02C1811.5 1046.19 1811.38 1045.3 1811.44 1044.42C1811.39 1043.6 1811.51 1042.77 1811.79 1042C1812.08 1041.22 1812.51 1040.51 1813.08 1039.91C1813.65 1039.31 1814.33 1038.83 1815.09 1038.5C1815.85 1038.18 1816.66 1038.01 1817.49 1038.01C1818.31 1038.01 1819.13 1038.18 1819.89 1038.5C1820.65 1038.83 1821.33 1039.31 1821.9 1039.91C1822.46 1040.51 1822.9 1041.22 1823.18 1042C1823.46 1042.77 1823.58 1043.6 1823.53 1044.42C1823.53 1044.42 1823.78 1044.78 1823.78 1044.97ZM1813.14 1043.7H1822.2C1822.2 1042.49 1821.73 1041.34 1820.88 1040.49C1820.03 1039.64 1818.87 1039.16 1817.67 1039.16C1816.47 1039.16 1815.31 1039.64 1814.46 1040.49C1813.61 1041.34 1813.14 1042.49 1813.14 1043.7Z" fill="black"/>
<path d="M1848.32 1043.45V1050.77H1846.57V1043.57C1846.57 1040.91 1845.24 1039.52 1842.94 1039.52C1842.35 1039.49 1841.75 1039.59 1841.2 1039.82C1840.65 1040.04 1840.15 1040.39 1839.74 1040.82C1839.34 1041.26 1839.04 1041.79 1838.86 1042.36C1838.68 1042.93 1838.63 1043.53 1838.71 1044.12V1050.77H1836.96V1043.57C1836.96 1040.91 1835.63 1039.52 1833.33 1039.52C1832.73 1039.49 1832.13 1039.59 1831.58 1039.82C1831.02 1040.04 1830.52 1040.39 1830.11 1040.82C1829.71 1041.26 1829.4 1041.78 1829.21 1042.35C1829.02 1042.92 1828.97 1043.52 1829.04 1044.12V1050.77H1827.34V1038.07H1828.98V1040.43C1829.46 1039.64 1830.15 1039 1830.97 1038.57C1831.79 1038.15 1832.71 1037.95 1833.63 1038.01C1834.57 1037.93 1835.51 1038.14 1836.32 1038.62C1837.14 1039.09 1837.78 1039.81 1838.17 1040.67C1838.68 1039.81 1839.42 1039.11 1840.31 1038.64C1841.19 1038.18 1842.19 1037.96 1843.18 1038.01C1843.9 1037.95 1844.62 1038.05 1845.3 1038.31C1845.97 1038.56 1846.57 1038.97 1847.07 1039.49C1847.56 1040.01 1847.93 1040.64 1848.15 1041.33C1848.37 1042.01 1848.43 1042.74 1848.32 1043.45V1043.45Z" fill="black"/>
<path d="M1864.1 1044.97H1853.46C1853.5 1045.58 1853.66 1046.19 1853.94 1046.75C1854.21 1047.31 1854.59 1047.8 1855.06 1048.21C1855.52 1048.62 1856.06 1048.94 1856.65 1049.14C1857.24 1049.34 1857.86 1049.42 1858.48 1049.38C1859.21 1049.41 1859.93 1049.27 1860.6 1048.99C1861.27 1048.71 1861.86 1048.29 1862.35 1047.75L1863.32 1048.83C1862.4 1049.79 1861.23 1050.45 1859.94 1050.74C1858.66 1051.02 1857.31 1050.93 1856.08 1050.46C1854.85 1049.98 1853.78 1049.16 1853.02 1048.09C1852.25 1047.01 1851.82 1045.74 1851.77 1044.42C1851.77 1042.78 1852.42 1041.2 1853.59 1040.04C1854.75 1038.88 1856.32 1038.22 1857.97 1038.22C1859.61 1038.22 1861.19 1038.88 1862.35 1040.04C1863.51 1041.2 1864.17 1042.78 1864.17 1044.42C1864.17 1044.42 1864.1 1044.78 1864.1 1044.97ZM1853.46 1043.7H1862.23C1862.21 1043.12 1862.09 1042.56 1861.85 1042.04C1861.62 1041.52 1861.29 1041.05 1860.87 1040.65C1860.45 1040.26 1859.97 1039.95 1859.43 1039.75C1858.9 1039.54 1858.33 1039.45 1857.76 1039.46C1856.64 1039.51 1855.58 1039.96 1854.79 1040.75C1854 1041.53 1853.52 1042.58 1853.46 1043.7V1043.7Z" fill="black"/>
<path d="M1888.65 1043.45V1050.77H1886.9V1043.57C1886.9 1040.91 1885.57 1039.52 1883.27 1039.52C1882.68 1039.49 1882.08 1039.59 1881.53 1039.82C1880.97 1040.04 1880.48 1040.39 1880.07 1040.82C1879.67 1041.26 1879.37 1041.79 1879.19 1042.36C1879.01 1042.93 1878.96 1043.53 1879.04 1044.12V1050.77H1877.29V1043.57C1877.29 1040.91 1875.96 1039.52 1873.6 1039.52C1873 1039.5 1872.41 1039.61 1871.87 1039.84C1871.32 1040.07 1870.83 1040.41 1870.42 1040.85C1870.02 1041.28 1869.72 1041.8 1869.54 1042.37C1869.35 1042.93 1869.29 1043.53 1869.36 1044.12V1050.77H1867.67V1038.07H1869.3V1040.43C1869.79 1039.64 1870.48 1039 1871.3 1038.57C1872.12 1038.15 1873.04 1037.95 1873.96 1038.01C1874.9 1037.93 1875.84 1038.14 1876.65 1038.62C1877.46 1039.09 1878.11 1039.81 1878.49 1040.67C1879.01 1039.81 1879.75 1039.11 1880.63 1038.64C1881.52 1038.18 1882.51 1037.96 1883.51 1038.01C1884.23 1037.95 1884.95 1038.05 1885.62 1038.31C1886.3 1038.56 1886.9 1038.97 1887.4 1039.49C1887.89 1040.01 1888.26 1040.64 1888.48 1041.33C1888.7 1042.01 1888.75 1042.74 1888.65 1043.45V1043.45Z" fill="black"/>
<path d="M1906.19 1044.42C1906.24 1045.25 1906.13 1046.08 1905.85 1046.86C1905.58 1047.65 1905.14 1048.37 1904.57 1048.97C1904 1049.58 1903.32 1050.06 1902.56 1050.39C1901.79 1050.72 1900.97 1050.89 1900.14 1050.89C1899.17 1050.92 1898.2 1050.7 1897.34 1050.24C1896.48 1049.79 1895.76 1049.11 1895.24 1048.29V1050.77H1893.61V1032.63H1895.3V1040.25C1895.83 1039.46 1896.56 1038.82 1897.4 1038.39C1898.25 1037.95 1899.19 1037.74 1900.14 1037.77C1900.99 1037.77 1901.83 1037.94 1902.6 1038.28C1903.38 1038.62 1904.07 1039.12 1904.64 1039.75C1905.21 1040.38 1905.65 1041.12 1905.91 1041.92C1906.18 1042.73 1906.27 1043.58 1906.19 1044.42ZM1904.49 1044.42C1904.46 1043.48 1904.15 1042.58 1903.6 1041.82C1903.06 1041.06 1902.3 1040.47 1901.42 1040.14C1900.55 1039.81 1899.59 1039.74 1898.68 1039.94C1897.76 1040.15 1896.93 1040.61 1896.28 1041.29C1895.63 1041.96 1895.19 1042.81 1895.02 1043.74C1894.85 1044.66 1894.96 1045.61 1895.32 1046.47C1895.69 1047.33 1896.3 1048.07 1897.08 1048.58C1897.86 1049.1 1898.78 1049.38 1899.72 1049.38C1900.37 1049.4 1901.01 1049.28 1901.62 1049.03C1902.22 1048.79 1902.77 1048.42 1903.22 1047.96C1903.67 1047.49 1904.03 1046.94 1904.26 1046.33C1904.49 1045.72 1904.59 1045.07 1904.55 1044.42H1904.49Z" fill="black"/>
<path d="M1920.76 1044.97H1910.12C1910.15 1045.58 1910.32 1046.19 1910.59 1046.75C1910.86 1047.31 1911.24 1047.8 1911.71 1048.21C1912.17 1048.62 1912.72 1048.94 1913.31 1049.14C1913.89 1049.34 1914.51 1049.42 1915.13 1049.38C1915.87 1049.4 1916.6 1049.26 1917.27 1048.98C1917.95 1048.7 1918.56 1048.28 1919.06 1047.75L1919.97 1048.83C1919.37 1049.53 1918.61 1050.07 1917.76 1050.43C1916.91 1050.79 1915.99 1050.94 1915.07 1050.89C1914.19 1050.98 1913.3 1050.88 1912.47 1050.59C1911.63 1050.3 1910.87 1049.83 1910.24 1049.21C1909.6 1048.59 1909.11 1047.84 1908.8 1047.02C1908.48 1046.19 1908.36 1045.3 1908.42 1044.42C1908.37 1043.6 1908.49 1042.77 1908.77 1042C1909.06 1041.22 1909.49 1040.51 1910.06 1039.91C1910.63 1039.31 1911.31 1038.83 1912.07 1038.5C1912.83 1038.18 1913.64 1038.01 1914.47 1038.01C1915.29 1038.01 1916.11 1038.18 1916.87 1038.5C1917.63 1038.83 1918.31 1039.31 1918.88 1039.91C1919.44 1040.51 1919.88 1041.22 1920.16 1042C1920.45 1042.77 1920.57 1043.6 1920.52 1044.42C1920.52 1044.42 1920.76 1044.78 1920.76 1044.97ZM1910.12 1043.7H1919.13C1919.11 1043.12 1918.98 1042.56 1918.75 1042.04C1918.51 1041.52 1918.18 1041.05 1917.76 1040.65C1917.35 1040.26 1916.86 1039.95 1916.33 1039.75C1915.79 1039.54 1915.22 1039.45 1914.65 1039.46C1913.49 1039.45 1912.38 1039.88 1911.53 1040.67C1910.69 1041.46 1910.18 1042.54 1910.12 1043.7V1043.7Z" fill="black"/>
<path d="M1930.73 1038.01V1039.95H1930.31C1929.71 1039.91 1929.1 1040.02 1928.54 1040.24C1927.98 1040.47 1927.48 1040.82 1927.07 1041.27C1926.66 1041.71 1926.35 1042.24 1926.17 1042.82C1925.99 1043.39 1925.94 1044 1926.02 1044.6V1051.07H1924.32V1038.37H1925.96V1040.85C1926.36 1039.94 1927.03 1039.18 1927.89 1038.67C1928.75 1038.16 1929.74 1037.93 1930.73 1038.01V1038.01Z" fill="black"/>
<path d="M1961.33 1043.45V1050.77H1959.63V1043.57C1959.63 1040.91 1958.24 1039.52 1955.95 1039.52C1955.35 1039.49 1954.75 1039.59 1954.2 1039.82C1953.65 1040.04 1953.15 1040.39 1952.75 1040.82C1952.34 1041.26 1952.04 1041.79 1951.86 1042.36C1951.68 1042.93 1951.63 1043.53 1951.71 1044.12V1050.77H1949.96V1043.57C1949.96 1040.91 1948.63 1039.52 1946.33 1039.52C1945.73 1039.49 1945.14 1039.59 1944.58 1039.82C1944.03 1040.04 1943.53 1040.39 1943.12 1040.82C1942.71 1041.26 1942.4 1041.78 1942.21 1042.35C1942.03 1042.92 1941.97 1043.52 1942.04 1044.12V1050.77H1940.35V1038.07H1941.98V1040.43C1942.46 1039.64 1943.15 1039 1943.97 1038.57C1944.79 1038.15 1945.71 1037.95 1946.64 1038.01C1947.57 1037.93 1948.51 1038.14 1949.33 1038.62C1950.14 1039.09 1950.78 1039.81 1951.17 1040.67C1951.69 1039.81 1952.43 1039.11 1953.31 1038.64C1954.19 1038.18 1955.19 1037.96 1956.19 1038.01C1956.91 1037.95 1957.63 1038.05 1958.3 1038.31C1958.97 1038.56 1959.58 1038.97 1960.07 1039.49C1960.57 1040.01 1960.94 1040.64 1961.15 1041.33C1961.37 1042.01 1961.43 1042.74 1961.33 1043.45V1043.45Z" fill="black"/>
<path d="M1977.11 1044.97H1966.47C1966.51 1045.58 1966.67 1046.19 1966.94 1046.75C1967.21 1047.31 1967.59 1047.8 1968.06 1048.21C1968.53 1048.62 1969.07 1048.94 1969.66 1049.14C1970.24 1049.34 1970.87 1049.42 1971.49 1049.38C1972.21 1049.41 1972.93 1049.27 1973.6 1048.99C1974.27 1048.71 1974.87 1048.29 1975.35 1047.75L1976.32 1048.83C1975.72 1049.53 1974.96 1050.07 1974.11 1050.43C1973.26 1050.79 1972.34 1050.94 1971.42 1050.89C1970.54 1050.98 1969.66 1050.88 1968.82 1050.59C1967.98 1050.3 1967.22 1049.83 1966.59 1049.21C1965.95 1048.59 1965.46 1047.84 1965.15 1047.02C1964.84 1046.19 1964.71 1045.3 1964.77 1044.42C1964.72 1043.6 1964.84 1042.77 1965.13 1042C1965.41 1041.22 1965.84 1040.51 1966.41 1039.91C1966.98 1039.31 1967.66 1038.83 1968.42 1038.5C1969.18 1038.18 1969.99 1038.01 1970.82 1038.01C1971.65 1038.01 1972.46 1038.18 1973.22 1038.5C1973.98 1038.83 1974.66 1039.31 1975.23 1039.91C1975.8 1040.51 1976.23 1041.22 1976.51 1042C1976.8 1042.77 1976.92 1043.6 1976.87 1044.42C1976.87 1044.42 1977.11 1044.78 1977.11 1044.97ZM1966.47 1043.7H1975.48C1975.46 1043.12 1975.33 1042.56 1975.1 1042.04C1974.86 1041.52 1974.53 1041.05 1974.12 1040.65C1973.7 1040.26 1973.21 1039.95 1972.68 1039.75C1972.14 1039.54 1971.57 1039.45 1971 1039.46C1969.85 1039.45 1968.73 1039.88 1967.88 1040.67C1967.04 1041.46 1966.53 1042.54 1966.47 1043.7V1043.7Z" fill="black"/>
</g>
<path d="M2306.26 1085.66H1729.03V1184.51H2306.26V1085.66Z" fill="#2447F9"/>
<g opacity="0.5">
<path d="M1913.44 1247.33V1253.92H1922.21V1255.49H1913.44V1262.69H1911.63V1245.52H1923.24V1247.09L1913.44 1247.33Z" fill="black"/>
<path d="M1924.87 1256.34C1924.87 1255.06 1925.25 1253.81 1925.96 1252.75C1926.67 1251.68 1927.68 1250.85 1928.86 1250.36C1930.04 1249.87 1931.35 1249.75 1932.6 1250C1933.86 1250.24 1935.01 1250.86 1935.91 1251.77C1936.82 1252.67 1937.43 1253.82 1937.68 1255.08C1937.93 1256.33 1937.8 1257.63 1937.32 1258.82C1936.83 1260 1936 1261.01 1934.93 1261.72C1933.87 1262.43 1932.62 1262.81 1931.34 1262.81C1930.47 1262.87 1929.6 1262.75 1928.79 1262.45C1927.98 1262.14 1927.24 1261.67 1926.62 1261.05C1926.01 1260.44 1925.54 1259.7 1925.23 1258.89C1924.93 1258.08 1924.81 1257.21 1924.87 1256.34V1256.34ZM1936.05 1256.34C1936.05 1255.09 1935.56 1253.89 1934.67 1253.01C1933.79 1252.12 1932.59 1251.62 1931.34 1251.62C1930.09 1251.62 1928.89 1252.12 1928 1253.01C1927.12 1253.89 1926.62 1255.09 1926.62 1256.34C1926.62 1257.59 1927.12 1258.79 1928 1259.68C1928.89 1260.56 1930.09 1261.06 1931.34 1261.06C1932.59 1261.06 1933.79 1260.56 1934.67 1259.68C1935.56 1258.79 1936.05 1257.59 1936.05 1256.34V1256.34Z" fill="black"/>
<path d="M1947.72 1249.87V1251.56H1947.3C1944.64 1251.56 1943.07 1253.26 1943.07 1256.28V1262.75H1941.31V1250.05H1942.95V1252.53C1943.38 1251.66 1944.07 1250.94 1944.92 1250.46C1945.78 1249.99 1946.75 1249.78 1947.72 1249.87V1249.87Z" fill="black"/>
<path d="M1962.48 1249.99V1261.12C1962.61 1261.98 1962.54 1262.86 1962.27 1263.7C1962 1264.53 1961.53 1265.28 1960.91 1265.9C1960.29 1266.52 1959.54 1266.98 1958.71 1267.26C1957.88 1267.53 1956.99 1267.6 1956.13 1267.47C1953.94 1267.59 1951.79 1266.9 1950.08 1265.53L1950.93 1264.2C1952.34 1265.36 1954.12 1265.99 1955.95 1265.95C1959.15 1265.95 1960.66 1264.5 1960.66 1261.36V1259.73C1960.09 1260.5 1959.35 1261.14 1958.48 1261.57C1957.62 1262 1956.67 1262.22 1955.7 1262.21C1954.88 1262.25 1954.06 1262.13 1953.28 1261.85C1952.5 1261.57 1951.79 1261.13 1951.19 1260.57C1950.59 1260 1950.11 1259.32 1949.79 1258.56C1949.46 1257.8 1949.29 1256.98 1949.3 1256.16C1949.29 1255.33 1949.46 1254.52 1949.79 1253.76C1950.11 1253 1950.59 1252.32 1951.19 1251.75C1951.79 1251.18 1952.5 1250.75 1953.28 1250.46C1954.06 1250.18 1954.88 1250.06 1955.7 1250.11C1956.69 1250.06 1957.67 1250.27 1958.55 1250.72C1959.43 1251.16 1960.18 1251.83 1960.72 1252.65V1250.23L1962.48 1249.99ZM1960.84 1256.04C1960.87 1255.08 1960.6 1254.13 1960.09 1253.32C1959.57 1252.51 1958.82 1251.87 1957.94 1251.48C1957.06 1251.1 1956.09 1250.99 1955.14 1251.16C1954.19 1251.33 1953.32 1251.78 1952.63 1252.45C1951.94 1253.13 1951.47 1253.99 1951.27 1254.93C1951.08 1255.87 1951.17 1256.85 1951.53 1257.74C1951.89 1258.63 1952.51 1259.39 1953.31 1259.93C1954.11 1260.47 1955.05 1260.75 1956.01 1260.75C1956.65 1260.79 1957.29 1260.69 1957.88 1260.46C1958.48 1260.23 1959.03 1259.88 1959.48 1259.44C1959.94 1258.99 1960.29 1258.45 1960.53 1257.85C1960.76 1257.25 1960.87 1256.62 1960.84 1255.98V1256.04Z" fill="black"/>
<path d="M1966.04 1256.34C1966.04 1254.62 1966.73 1252.98 1967.94 1251.77C1969.15 1250.55 1970.8 1249.87 1972.51 1249.87C1974.23 1249.87 1975.87 1250.55 1977.09 1251.77C1978.3 1252.98 1978.98 1254.62 1978.98 1256.34C1978.98 1258.06 1978.3 1259.7 1977.09 1260.91C1975.87 1262.13 1974.23 1262.81 1972.51 1262.81C1970.8 1262.81 1969.15 1262.13 1967.94 1260.91C1966.73 1259.7 1966.04 1258.06 1966.04 1256.34V1256.34ZM1977.23 1256.34C1977.3 1255.67 1977.24 1255 1977.03 1254.35C1976.83 1253.71 1976.49 1253.12 1976.04 1252.62C1975.6 1252.12 1975.05 1251.72 1974.43 1251.44C1973.82 1251.17 1973.16 1251.03 1972.48 1251.03C1971.81 1251.03 1971.15 1251.17 1970.53 1251.44C1969.92 1251.72 1969.37 1252.12 1968.92 1252.62C1968.47 1253.12 1968.14 1253.71 1967.93 1254.35C1967.73 1255 1967.66 1255.67 1967.74 1256.34C1967.7 1256.98 1967.8 1257.63 1968.03 1258.23C1968.25 1258.84 1968.6 1259.39 1969.05 1259.85C1969.5 1260.32 1970.04 1260.69 1970.63 1260.94C1971.23 1261.18 1971.87 1261.31 1972.51 1261.3C1973.15 1261.29 1973.77 1261.16 1974.35 1260.9C1974.93 1260.64 1975.45 1260.27 1975.88 1259.81C1976.31 1259.34 1976.64 1258.8 1976.85 1258.2C1977.06 1257.6 1977.15 1256.97 1977.11 1256.34H1977.23Z" fill="black"/>
<path d="M1989.2 1261.9C1988.45 1262.51 1987.51 1262.83 1986.54 1262.81C1986.04 1262.87 1985.53 1262.81 1985.06 1262.65C1984.58 1262.48 1984.15 1262.21 1983.79 1261.86C1983.43 1261.51 1983.15 1261.08 1982.98 1260.6C1982.81 1260.13 1982.74 1259.62 1982.79 1259.12V1251.56H1980.55V1250.11H1982.79V1247.33H1984.54V1250.11H1988.41V1251.56H1984.54V1259.12C1984.5 1259.42 1984.52 1259.73 1984.61 1260.02C1984.7 1260.32 1984.86 1260.58 1985.07 1260.81C1985.28 1261.03 1985.54 1261.2 1985.82 1261.31C1986.11 1261.41 1986.42 1261.45 1986.72 1261.42C1987.4 1261.45 1988.07 1261.24 1988.6 1260.81L1989.2 1261.9Z" fill="black"/>
<path d="M2012.24 1251.56C2012.24 1255.13 2009.64 1257.61 2005.28 1257.61H2000.75V1262.93H1999V1245.52H2005.04C2009.64 1245.52 2012.24 1247.94 2012.24 1251.56ZM2010.42 1251.56C2010.42 1248.84 2008.67 1247.33 2005.28 1247.33H2000.75V1255.74H2005.28C2008.67 1255.74 2010.42 1254.22 2010.42 1251.56Z" fill="black"/>
<path d="M2025.48 1254.83V1262.69H2023.85V1260.69C2023.37 1261.41 2022.71 1261.99 2021.93 1262.36C2021.15 1262.73 2020.29 1262.89 2019.43 1262.81C2016.59 1262.81 2014.78 1261.3 2014.78 1259.12C2014.78 1256.95 2016.05 1255.49 2019.73 1255.49H2023.72V1254.71C2023.72 1252.53 2022.52 1251.38 2020.16 1251.38C2018.62 1251.35 2017.12 1251.87 2015.92 1252.83L2015.14 1251.56C2016.62 1250.41 2018.46 1249.81 2020.34 1249.87C2021.02 1249.78 2021.71 1249.84 2022.37 1250.05C2023.02 1250.26 2023.62 1250.62 2024.12 1251.1C2024.61 1251.58 2024.99 1252.16 2025.23 1252.81C2025.46 1253.45 2025.55 1254.14 2025.48 1254.83ZM2023.72 1258.88V1256.76H2019.43C2017.01 1256.76 2016.17 1257.73 2016.17 1259.06C2016.17 1260.39 2017.38 1261.42 2019.43 1261.42C2020.29 1261.49 2021.15 1261.28 2021.88 1260.82C2022.61 1260.37 2023.17 1259.68 2023.48 1258.88H2023.72Z" fill="black"/>
<path d="M2028.14 1261.24L2028.92 1259.85C2030.21 1260.82 2031.79 1261.33 2033.4 1261.3C2035.82 1261.3 2036.84 1260.45 2036.84 1259.24C2036.84 1255.92 2028.56 1258.52 2028.56 1253.5C2028.56 1251.44 2030.38 1249.87 2033.64 1249.87C2035.22 1249.83 2036.77 1250.25 2038.11 1251.08L2037.33 1252.41C2036.25 1251.66 2034.96 1251.27 2033.64 1251.32C2031.34 1251.32 2030.31 1252.23 2030.31 1253.44C2030.31 1256.88 2038.54 1254.28 2038.54 1259.18C2038.54 1261.36 2036.6 1262.81 2033.28 1262.81C2031.44 1262.86 2029.63 1262.31 2028.14 1261.24V1261.24Z" fill="black"/>
<path d="M2039.93 1261.24L2040.71 1259.85C2042.02 1260.82 2043.62 1261.33 2045.25 1261.3C2047.67 1261.3 2048.63 1260.45 2048.63 1259.24C2048.63 1255.92 2040.41 1258.52 2040.41 1253.5C2040.41 1251.44 2042.23 1249.87 2045.43 1249.87C2047.01 1249.82 2048.57 1250.24 2049.9 1251.08L2049.18 1252.41C2048.08 1251.64 2046.77 1251.26 2045.43 1251.32C2043.13 1251.32 2042.1 1252.23 2042.1 1253.44C2042.1 1256.88 2050.39 1254.28 2050.39 1259.18C2050.39 1261.36 2048.45 1262.81 2045.13 1262.81C2043.27 1262.86 2041.45 1262.31 2039.93 1261.24V1261.24Z" fill="black"/>
<path d="M2071.97 1249.99L2067.14 1262.69H2065.5L2061.51 1252.29L2057.52 1262.69H2055.71L2050.93 1249.99H2052.56L2056.56 1260.75L2060.67 1249.99H2062.12L2066.17 1260.75L2070.22 1249.99H2071.97Z" fill="black"/>
<path d="M2072.94 1256.34C2072.94 1255.06 2073.32 1253.81 2074.03 1252.75C2074.74 1251.68 2075.75 1250.85 2076.93 1250.36C2078.12 1249.87 2079.42 1249.75 2080.67 1250C2081.93 1250.24 2083.08 1250.86 2083.98 1251.77C2084.89 1252.67 2085.51 1253.82 2085.75 1255.08C2086 1256.33 2085.88 1257.63 2085.39 1258.82C2084.9 1260 2084.07 1261.01 2083 1261.72C2081.94 1262.43 2080.69 1262.81 2079.41 1262.81C2078.54 1262.87 2077.67 1262.75 2076.86 1262.45C2076.05 1262.14 2075.31 1261.67 2074.7 1261.05C2074.08 1260.44 2073.61 1259.7 2073.3 1258.89C2073 1258.08 2072.88 1257.21 2072.94 1256.34V1256.34ZM2084.13 1256.34C2084.2 1255.67 2084.13 1255 2083.93 1254.35C2083.73 1253.71 2083.39 1253.12 2082.94 1252.62C2082.49 1252.12 2081.94 1251.72 2081.33 1251.44C2080.72 1251.17 2080.05 1251.03 2079.38 1251.03C2078.71 1251.03 2078.04 1251.17 2077.43 1251.44C2076.81 1251.72 2076.27 1252.12 2075.82 1252.62C2075.37 1253.12 2075.03 1253.71 2074.83 1254.35C2074.62 1255 2074.56 1255.67 2074.63 1256.34C2074.6 1256.98 2074.7 1257.63 2074.93 1258.23C2075.15 1258.84 2075.5 1259.39 2075.95 1259.85C2076.39 1260.32 2076.93 1260.69 2077.53 1260.94C2078.12 1261.18 2078.76 1261.31 2079.41 1261.3C2080.05 1261.31 2080.69 1261.18 2081.28 1260.94C2081.88 1260.69 2082.41 1260.32 2082.85 1259.85C2083.3 1259.39 2083.64 1258.83 2083.86 1258.23C2084.08 1257.62 2084.17 1256.98 2084.13 1256.34V1256.34Z" fill="black"/>
<path d="M2095.73 1249.87V1251.56H2095.37C2094.76 1251.53 2094.15 1251.63 2093.59 1251.86C2093.02 1252.1 2092.52 1252.45 2092.1 1252.9C2091.69 1253.35 2091.39 1253.89 2091.21 1254.47C2091.03 1255.06 2090.99 1255.68 2091.08 1256.28V1262.75H2089.39V1250.05H2091.02V1252.53C2091.44 1251.66 2092.12 1250.94 2092.96 1250.47C2093.81 1249.99 2094.77 1249.78 2095.73 1249.87Z" fill="black"/>
<path d="M2110.12 1244.73V1262.87H2108.49V1260.33C2107.98 1261.17 2107.25 1261.87 2106.37 1262.33C2105.5 1262.8 2104.52 1263.03 2103.53 1262.99C2101.82 1262.99 2100.17 1262.31 2098.96 1261.1C2097.75 1259.88 2097.06 1258.24 2097.06 1256.52C2097.06 1254.81 2097.75 1253.16 2098.96 1251.95C2100.17 1250.73 2101.82 1250.05 2103.53 1250.05C2104.49 1250.01 2105.43 1250.22 2106.28 1250.65C2107.13 1251.09 2107.85 1251.73 2108.37 1252.53V1244.91L2110.12 1244.73ZM2108.43 1256.34C2108.51 1255.67 2108.44 1255 2108.24 1254.35C2108.03 1253.71 2107.7 1253.12 2107.25 1252.62C2106.8 1252.12 2106.25 1251.72 2105.64 1251.44C2105.02 1251.17 2104.36 1251.03 2103.69 1251.03C2103.01 1251.03 2102.35 1251.17 2101.73 1251.44C2101.12 1251.72 2100.57 1252.12 2100.12 1252.62C2099.68 1253.12 2099.34 1253.71 2099.13 1254.35C2098.93 1255 2098.86 1255.67 2098.94 1256.34C2098.86 1257.01 2098.93 1257.69 2099.13 1258.33C2099.34 1258.97 2099.68 1259.56 2100.12 1260.06C2100.57 1260.56 2101.12 1260.96 2101.73 1261.24C2102.35 1261.51 2103.01 1261.65 2103.69 1261.65C2104.36 1261.65 2105.02 1261.51 2105.64 1261.24C2106.25 1260.96 2106.8 1260.56 2107.25 1260.06C2107.7 1259.56 2108.03 1258.97 2108.24 1258.33C2108.44 1257.69 2108.51 1257.01 2108.43 1256.34Z" fill="black"/>
<path d="M2122.82 1250.05C2122.82 1248.36 2121.43 1247.15 2118.95 1247.15C2118.09 1247.09 2117.22 1247.24 2116.43 1247.57C2115.63 1247.91 2114.92 1248.43 2114.36 1249.08L2113.09 1248.12C2113.83 1247.26 2114.77 1246.6 2115.82 1246.17C2116.87 1245.74 2118 1245.55 2119.13 1245.64C2122.52 1245.64 2124.7 1247.21 2124.7 1249.81C2124.7 1253.92 2120.28 1254.16 2120.28 1257.61H2118.47C2118.41 1253.62 2122.82 1253.26 2122.82 1250.05ZM2118.05 1261.54C2118.04 1261.38 2118.08 1261.21 2118.14 1261.06C2118.21 1260.91 2118.3 1260.78 2118.42 1260.66C2118.54 1260.55 2118.68 1260.46 2118.83 1260.4C2118.99 1260.35 2119.15 1260.32 2119.31 1260.33C2119.48 1260.32 2119.64 1260.35 2119.8 1260.4C2119.95 1260.46 2120.09 1260.55 2120.21 1260.66C2120.33 1260.78 2120.42 1260.91 2120.49 1261.06C2120.55 1261.21 2120.58 1261.38 2120.58 1261.54C2120.58 1261.88 2120.45 1262.2 2120.21 1262.44C2119.97 1262.68 2119.65 1262.81 2119.31 1262.81C2118.98 1262.79 2118.67 1262.66 2118.43 1262.42C2118.2 1262.19 2118.06 1261.87 2118.05 1261.54V1261.54Z" fill="black"/>
</g>
<path d="M1762.77 1024.23H1733.45V1053.55H1762.77V1024.23Z" fill="white"/>
<path d="M1953.95 1116.61H1958.79V1146.24H1976.93V1150.41H1953.77L1953.95 1116.61Z" fill="white"/>
<path d="M1979.28 1137.59C1979.24 1134.94 1979.98 1132.33 1981.42 1130.1C1982.86 1127.88 1984.93 1126.13 1987.36 1125.08C1989.8 1124.03 1992.49 1123.73 1995.1 1124.22C1997.71 1124.7 2000.11 1125.96 2002.01 1127.82C2003.9 1129.68 2005.2 1132.06 2005.73 1134.65C2006.27 1137.25 2006.02 1139.95 2005.01 1142.41C2004.01 1144.86 2002.3 1146.96 2000.1 1148.44C1997.89 1149.92 1995.3 1150.71 1992.65 1150.71C1990.89 1150.8 1989.14 1150.52 1987.49 1149.89C1985.85 1149.26 1984.35 1148.31 1983.1 1147.07C1981.84 1145.84 1980.86 1144.36 1980.2 1142.73C1979.54 1141.1 1979.23 1139.35 1979.28 1137.59ZM2001.23 1137.59C2001.15 1135.9 2000.57 1134.27 1999.57 1132.9C1998.57 1131.54 1997.19 1130.5 1995.6 1129.91C1994.01 1129.32 1992.28 1129.21 1990.63 1129.6C1988.98 1129.98 1987.48 1130.84 1986.32 1132.07C1985.15 1133.3 1984.38 1134.85 1984.08 1136.52C1983.79 1138.18 1983.99 1139.9 1984.66 1141.46C1985.34 1143.01 1986.45 1144.33 1987.87 1145.26C1989.29 1146.18 1990.95 1146.67 1992.65 1146.66C1993.83 1146.7 1995.01 1146.49 1996.1 1146.04C1997.19 1145.59 1998.18 1144.92 1999 1144.06C1999.81 1143.21 2000.44 1142.19 2000.84 1141.07C2001.23 1139.96 2001.39 1138.77 2001.29 1137.59H2001.23Z" fill="white"/>
<path d="M2036.91 1124.59V1146.78C2037.16 1148.58 2037 1150.42 2036.42 1152.14C2035.84 1153.86 2034.86 1155.43 2033.57 1156.7C2032.27 1157.98 2030.7 1158.93 2028.97 1159.49C2027.24 1160.05 2025.4 1160.19 2023.6 1159.9C2019.26 1160.06 2014.99 1158.71 2011.51 1156.09L2013.75 1152.53C2016.57 1154.71 2020.04 1155.88 2023.6 1155.85C2029.65 1155.85 2032.43 1153.07 2032.43 1147.27V1145.21C2031.27 1146.5 2029.84 1147.53 2028.24 1148.22C2026.64 1148.9 2024.92 1149.24 2023.18 1149.2C2021.48 1149.32 2019.76 1149.09 2018.15 1148.52C2016.54 1147.95 2015.07 1147.05 2013.82 1145.89C2012.57 1144.72 2011.57 1143.31 2010.89 1141.74C2010.21 1140.18 2009.86 1138.49 2009.86 1136.78C2009.86 1135.07 2010.21 1133.38 2010.89 1131.81C2011.57 1130.24 2012.57 1128.83 2013.82 1127.67C2015.07 1126.5 2016.54 1125.61 2018.15 1125.04C2019.76 1124.47 2021.48 1124.23 2023.18 1124.35C2024.98 1124.31 2026.76 1124.66 2028.4 1125.4C2030.05 1126.13 2031.5 1127.22 2032.67 1128.58V1124.59H2036.91ZM2032.37 1136.69C2032.47 1134.92 2032.03 1133.17 2031.12 1131.66C2030.21 1130.14 2028.87 1128.94 2027.27 1128.19C2025.67 1127.45 2023.88 1127.21 2022.14 1127.49C2020.39 1127.77 2018.78 1128.57 2017.49 1129.79C2016.21 1131 2015.32 1132.57 2014.94 1134.29C2014.56 1136.02 2014.7 1137.82 2015.35 1139.46C2016 1141.1 2017.13 1142.51 2018.59 1143.5C2020.05 1144.49 2021.78 1145.03 2023.54 1145.03C2024.68 1145.12 2025.83 1144.98 2026.91 1144.6C2028 1144.22 2028.98 1143.61 2029.82 1142.83C2030.65 1142.04 2031.31 1141.09 2031.75 1140.03C2032.19 1138.97 2032.4 1137.83 2032.37 1136.69V1136.69Z" fill="white"/>
<path d="M2044.95 1116.85C2044.92 1116.23 2045.09 1115.61 2045.42 1115.08C2045.75 1114.54 2046.23 1114.12 2046.8 1113.87C2047.37 1113.61 2048.01 1113.53 2048.63 1113.64C2049.24 1113.74 2049.82 1114.03 2050.27 1114.47C2050.72 1114.9 2051.03 1115.46 2051.16 1116.07C2051.29 1116.69 2051.24 1117.33 2051 1117.91C2050.77 1118.49 2050.37 1118.99 2049.85 1119.34C2049.33 1119.69 2048.72 1119.88 2048.09 1119.88C2047.68 1119.89 2047.28 1119.83 2046.9 1119.68C2046.52 1119.54 2046.17 1119.32 2045.87 1119.04C2045.58 1118.75 2045.35 1118.41 2045.19 1118.04C2045.03 1117.67 2044.95 1117.26 2044.95 1116.85V1116.85ZM2045.73 1124.78H2050.39V1150.41H2045.73V1124.78Z" fill="white"/>
<path d="M2083.58 1135.66V1150.41H2078.93V1136.2C2078.93 1131.18 2076.39 1128.7 2072.03 1128.7C2070.91 1128.62 2069.78 1128.78 2068.72 1129.18C2067.66 1129.58 2066.71 1130.21 2065.93 1131.03C2065.15 1131.85 2064.56 1132.83 2064.2 1133.9C2063.85 1134.97 2063.73 1136.11 2063.87 1137.23V1150.41H2059.28V1124.59H2063.69V1128.46C2064.79 1127.09 2066.21 1126 2067.82 1125.29C2069.43 1124.57 2071.18 1124.25 2072.94 1124.35C2074.43 1124.24 2075.92 1124.46 2077.3 1125C2078.69 1125.54 2079.94 1126.38 2080.96 1127.46C2081.98 1128.55 2082.75 1129.84 2083.2 1131.26C2083.65 1132.68 2083.78 1134.18 2083.58 1135.66Z" fill="white"/>
<path d="M1745.48 1046.96L1739.01 1039.95L1741.19 1037.89L1745.48 1042.55L1755.15 1032.57L1757.33 1034.63L1745.48 1046.96Z" fill="#263238"/>
<g opacity="0.4">
<path d="M2251.48 959.774C2246.14 959.538 2240.93 957.992 2236.33 955.272C2231.72 952.552 2227.85 948.741 2225.06 944.175L2224.46 943.328L2225.06 942.482C2227.68 937.757 2231.51 933.818 2236.16 931.076C2240.81 928.333 2246.11 926.886 2251.52 926.886C2256.92 926.886 2262.22 928.333 2266.87 931.076C2271.52 933.818 2275.35 937.757 2277.97 942.482L2278.57 943.328L2277.97 944.175C2275.17 948.746 2271.29 952.559 2266.67 955.279C2262.05 957.999 2256.84 959.542 2251.48 959.774V959.774ZM2228.15 943.208C2230.52 947.299 2233.93 950.694 2238.03 953.054C2242.13 955.415 2246.78 956.657 2251.52 956.657C2256.25 956.657 2260.9 955.415 2265 953.054C2269.1 950.694 2272.51 947.299 2274.88 943.208C2272.51 939.116 2269.1 935.721 2265 933.361C2260.9 931 2256.25 929.758 2251.52 929.758C2246.78 929.758 2242.13 931 2238.03 933.361C2233.93 935.721 2230.52 939.116 2228.15 943.208V943.208Z" fill="#263238"/>
<path d="M2251.48 954.514C2249.26 954.514 2247.08 953.853 2245.23 952.614C2243.38 951.376 2241.94 949.616 2241.09 947.558C2240.24 945.499 2240.02 943.235 2240.46 941.052C2240.9 938.868 2241.98 936.865 2243.55 935.294C2245.13 933.724 2247.14 932.658 2249.33 932.231C2251.51 931.804 2253.78 932.035 2255.83 932.895C2257.88 933.756 2259.64 935.207 2260.86 937.064C2262.09 938.921 2262.74 941.102 2262.73 943.328C2262.73 944.802 2262.44 946.262 2261.87 947.623C2261.31 948.984 2260.48 950.22 2259.43 951.259C2258.39 952.299 2257.15 953.121 2255.78 953.68C2254.42 954.238 2252.96 954.522 2251.48 954.514V954.514ZM2251.48 935.106C2249.86 935.106 2248.27 935.588 2246.92 936.491C2245.56 937.395 2244.51 938.679 2243.89 940.182C2243.27 941.684 2243.1 943.338 2243.42 944.933C2243.74 946.528 2244.52 947.993 2245.67 949.143C2246.82 950.293 2248.29 951.076 2249.88 951.393C2251.48 951.711 2253.13 951.548 2254.63 950.925C2256.13 950.303 2257.42 949.249 2258.32 947.897C2259.23 946.545 2259.71 944.955 2259.71 943.328C2259.71 941.148 2258.84 939.056 2257.3 937.514C2255.76 935.972 2253.67 935.106 2251.48 935.106V935.106Z" fill="#263238"/>
<path d="M2268.28 924.439L2232.62 960.095L2234.76 962.233L2270.42 926.577L2268.28 924.439Z" fill="#263238"/>
</g>
<g opacity="0.5">
<path d="M1947.18 706.922L1948.45 704.503C1951.14 706.902 1954.64 708.197 1958.24 708.131C1963.75 708.131 1966.16 705.773 1966.16 702.871C1966.16 694.769 1948.03 699.727 1948.03 688.783C1948.03 684.43 1951.41 680.621 1958.97 680.621C1962.23 680.577 1965.43 681.503 1968.16 683.281L1967.13 685.76C1964.7 684.176 1961.87 683.297 1958.97 683.221C1953.53 683.221 1951.11 685.579 1951.11 688.541C1951.11 696.704 1969.25 691.806 1969.25 702.569C1969.25 706.922 1965.8 710.67 1958.24 710.67C1954.22 710.84 1950.27 709.504 1947.18 706.922V706.922Z" fill="black"/>
<path d="M1974.75 681.225C1974.76 680.94 1974.82 680.658 1974.94 680.397C1975.06 680.136 1975.22 679.9 1975.43 679.704C1975.64 679.507 1975.88 679.354 1976.15 679.252C1976.42 679.15 1976.7 679.101 1976.99 679.109C1977.3 679.057 1977.62 679.073 1977.92 679.156C1978.23 679.24 1978.51 679.389 1978.75 679.594C1979 679.798 1979.19 680.053 1979.32 680.34C1979.46 680.627 1979.53 680.939 1979.53 681.256C1979.53 681.572 1979.46 681.885 1979.32 682.172C1979.19 682.459 1979 682.713 1978.75 682.918C1978.51 683.122 1978.23 683.271 1977.92 683.355C1977.62 683.439 1977.3 683.455 1976.99 683.402C1976.7 683.41 1976.41 683.36 1976.14 683.254C1975.86 683.148 1975.62 682.989 1975.41 682.786C1975.2 682.583 1975.03 682.341 1974.92 682.073C1974.81 681.805 1974.75 681.516 1974.75 681.225ZM1975.42 688.239H1978.44V710.55H1975.42V688.239Z" fill="black"/>
<path d="M2007.34 688.239V707.829C2007.56 709.342 2007.43 710.886 2006.95 712.338C2006.47 713.79 2005.66 715.109 2004.58 716.191C2003.49 717.272 2002.18 718.085 2000.72 718.565C1999.27 719.045 1997.73 719.178 1996.21 718.954C1992.45 719.117 1988.76 717.915 1985.81 715.568L1987.33 713.27C1989.79 715.292 1992.9 716.365 1996.09 716.293C2001.72 716.293 2004.32 713.694 2004.32 708.192V705.35C2003.35 706.754 2002.05 707.891 2000.53 708.653C1999 709.414 1997.31 709.776 1995.61 709.703C1994.12 709.814 1992.63 709.618 1991.23 709.126C1989.82 708.634 1988.53 707.857 1987.44 706.844C1986.35 705.831 1985.48 704.604 1984.88 703.238C1984.29 701.873 1983.98 700.4 1983.98 698.911C1983.98 697.421 1984.29 695.948 1984.88 694.583C1985.48 693.218 1986.35 691.99 1987.44 690.977C1988.53 689.964 1989.82 689.187 1991.23 688.695C1992.63 688.203 1994.12 688.007 1995.61 688.118C1997.34 688.037 1999.05 688.4 2000.6 689.173C2002.14 689.946 2003.47 691.102 2004.44 692.532V688.239H2007.34ZM2004.38 698.88C2004.44 697.195 2003.99 695.529 2003.1 694.098C2002.21 692.667 2000.91 691.535 1999.37 690.848C1997.83 690.161 1996.11 689.949 1994.45 690.241C1992.79 690.533 1991.26 691.314 1990.04 692.485C1988.83 693.656 1987.99 695.163 1987.64 696.812C1987.29 698.462 1987.44 700.179 1988.07 701.744C1988.7 703.308 1989.78 704.648 1991.18 705.592C1992.58 706.537 1994.22 707.042 1995.91 707.043C1997.02 707.128 1998.14 706.978 1999.2 706.604C2000.25 706.229 2001.21 705.638 2002.02 704.869C2002.83 704.1 2003.47 703.169 2003.89 702.138C2004.32 701.106 2004.53 699.996 2004.5 698.88H2004.38Z" fill="black"/>
<path d="M2036.36 697.611V710.55H2033.34V697.913C2033.52 696.974 2033.47 696.006 2033.21 695.088C2032.94 694.17 2032.46 693.329 2031.8 692.632C2031.15 691.936 2030.34 691.405 2029.44 691.083C2028.54 690.761 2027.57 690.656 2026.63 690.778C2025.56 690.71 2024.49 690.876 2023.5 691.264C2022.5 691.653 2021.61 692.254 2020.87 693.026C2020.13 693.798 2019.57 694.722 2019.23 695.734C2018.89 696.745 2018.77 697.819 2018.89 698.88V710.55H2015.86V688.239H2018.71V692.35C2019.63 690.961 2020.91 689.84 2022.4 689.097C2023.9 688.354 2025.56 688.017 2027.23 688.118C2028.49 688.02 2029.75 688.202 2030.93 688.649C2032.1 689.097 2033.17 689.8 2034.04 690.708C2034.91 691.615 2035.57 692.705 2035.97 693.899C2036.38 695.092 2036.51 696.36 2036.36 697.611V697.611Z" fill="black"/>
<path d="M2054.92 681.226C2055.01 680.703 2055.28 680.228 2055.68 679.885C2056.09 679.543 2056.6 679.355 2057.13 679.355C2057.66 679.355 2058.17 679.543 2058.58 679.885C2058.98 680.228 2059.25 680.703 2059.34 681.226C2059.34 681.522 2059.29 681.816 2059.18 682.091C2059.07 682.367 2058.91 682.617 2058.7 682.826C2058.49 683.035 2058.24 683.2 2057.97 683.309C2057.69 683.419 2057.4 683.471 2057.1 683.463C2056.81 683.463 2056.52 683.404 2056.25 683.291C2055.98 683.178 2055.74 683.012 2055.54 682.804C2055.34 682.595 2055.18 682.348 2055.07 682.077C2054.96 681.806 2054.91 681.516 2054.92 681.226V681.226ZM2055.59 688.239H2058.61V710.55H2055.71L2055.59 688.239Z" fill="black"/>
<path d="M2087.45 697.611V710.55H2084.49V697.913C2084.67 696.974 2084.62 696.006 2084.36 695.088C2084.09 694.17 2083.61 693.329 2082.95 692.632C2082.3 691.936 2081.49 691.405 2080.59 691.083C2079.69 690.761 2078.73 690.656 2077.78 690.778C2076.71 690.712 2075.64 690.878 2074.64 691.266C2073.65 691.654 2072.74 692.254 2072 693.025C2071.26 693.795 2070.7 694.718 2070.35 695.73C2070 696.741 2069.87 697.816 2069.98 698.88V710.55H2066.95V688.239H2069.86V692.35C2070.77 690.962 2072.03 689.839 2073.52 689.096C2075.01 688.353 2076.66 688.015 2078.32 688.118C2079.58 688.009 2080.85 688.183 2082.03 688.627C2083.21 689.07 2084.28 689.773 2085.15 690.683C2086.03 691.594 2086.69 692.688 2087.09 693.887C2087.49 695.085 2087.61 696.358 2087.45 697.611Z" fill="black"/>
</g>
<path d="M1096.06 563.869H922.348C908.157 563.869 894.547 569.506 884.512 579.541C874.477 589.576 868.839 603.186 868.839 617.378V768.533C868.839 782.724 874.477 796.334 884.512 806.369C894.547 816.404 908.157 822.042 922.348 822.042H973.015L930.692 906.023L1009.29 822.042H1096.3C1103.32 822.042 1110.28 820.657 1116.77 817.967C1123.25 815.277 1129.15 811.335 1134.11 806.366C1139.08 801.396 1143.01 795.497 1145.69 789.005C1148.38 782.513 1149.75 775.557 1149.75 768.533V617.378C1149.75 610.333 1148.37 603.357 1145.67 596.849C1142.97 590.342 1139.02 584.432 1134.03 579.459C1129.04 574.486 1123.11 570.549 1116.6 567.873C1110.08 565.198 1103.1 563.837 1096.06 563.869Z" fill="#2447F9"/>
<path opacity="0.7" d="M1096.06 563.869H922.348C908.157 563.869 894.547 569.506 884.512 579.541C874.477 589.576 868.839 603.186 868.839 617.378V768.533C868.839 782.724 874.477 796.334 884.512 806.369C894.547 816.404 908.157 822.042 922.348 822.042H973.015L930.692 906.023L1009.29 822.042H1096.3C1103.32 822.042 1110.28 820.657 1116.77 817.967C1123.25 815.277 1129.15 811.335 1134.11 806.366C1139.08 801.396 1143.01 795.497 1145.69 789.005C1148.38 782.513 1149.75 775.557 1149.75 768.533V617.378C1149.75 610.333 1148.37 603.357 1145.67 596.849C1142.97 590.342 1139.02 584.432 1134.03 579.459C1129.04 574.486 1123.11 570.549 1116.6 567.873C1110.08 565.198 1103.1 563.837 1096.06 563.869Z" fill="white"/>
<path d="M1000.16 730.804C999.014 730.807 997.878 730.56 996.833 730.08C995.789 729.599 994.862 728.898 994.117 728.023L960.258 688.179C959.583 687.385 959.071 686.466 958.752 685.474C958.432 684.482 958.311 683.437 958.395 682.398C958.479 681.359 958.767 680.347 959.242 679.42C959.718 678.493 960.371 677.668 961.165 676.993C962.768 675.63 964.848 674.96 966.945 675.13C967.984 675.214 968.996 675.502 969.923 675.978C970.851 676.453 971.676 677.106 972.35 677.9L1000.16 710.67L1045.99 656.557C1046.67 655.763 1047.49 655.11 1048.42 654.634C1049.35 654.159 1050.36 653.871 1051.4 653.787C1052.44 653.703 1053.48 653.824 1054.47 654.144C1055.47 654.463 1056.38 654.975 1057.18 655.65C1057.97 656.325 1058.63 657.15 1059.1 658.077C1059.58 659.004 1059.86 660.016 1059.95 661.055C1060.03 662.094 1059.91 663.139 1059.59 664.131C1059.27 665.122 1058.76 666.042 1058.09 666.836L1006.15 728.023C1005.41 728.896 1004.5 729.598 1003.46 730.078C1002.43 730.559 1001.3 730.807 1000.16 730.804V730.804Z" fill="white"/>
<path d="M1070.12 753.264C1103.79 719.594 1103.79 665.003 1070.12 631.333C1036.45 597.662 981.863 597.662 948.193 631.333C914.522 665.003 914.522 719.594 948.192 753.264C981.863 786.935 1036.45 786.935 1070.12 753.264Z" fill="#2447F9"/>
<path d="M1239.47 2189.45H1591.36C1593.2 2189.45 1594.97 2188.72 1596.28 2187.41C1597.58 2186.11 1598.31 2184.34 1598.31 2182.5V2160.07C1598.3 2158.23 1597.56 2156.48 1596.26 2155.19C1594.95 2153.9 1593.19 2153.17 1591.36 2153.17H1257.61V1434.76H1585.68C1589.02 1434.76 1592.22 1433.44 1594.59 1431.08C1596.96 1428.73 1598.3 1425.53 1598.31 1422.19V1398.49H1239.47C1234.66 1398.49 1230.05 1400.4 1226.65 1403.8C1223.24 1407.2 1221.33 1411.81 1221.33 1416.62V2171.31C1221.33 2176.12 1223.24 2180.74 1226.65 2184.14C1230.05 2187.54 1234.66 2189.45 1239.47 2189.45Z" fill="#263238"/>
<g opacity="0.3">
<path d="M1221.33 1416.62V2171.25C1221.33 2176.06 1223.24 2180.68 1226.65 2184.08C1230.05 2187.48 1234.66 2189.39 1239.47 2189.39H1591.36C1593.19 2189.39 1594.94 2188.66 1596.23 2187.37C1597.53 2186.08 1598.25 2184.33 1598.25 2182.5V2160.07C1598.25 2158.23 1597.53 2156.47 1596.24 2155.17C1594.95 2153.87 1593.19 2153.13 1591.36 2153.11H1257.61V1434.76H1585.68C1589.02 1434.75 1592.22 1433.41 1594.57 1431.04C1596.93 1428.67 1598.25 1425.47 1598.25 1422.13V1398.49H1239.47C1234.66 1398.49 1230.05 1400.4 1226.65 1403.8C1223.24 1407.2 1221.33 1411.81 1221.33 1416.62Z" fill="white"/>
</g>
<path opacity="0.2" d="M1221.33 1416.62V1609.08C1233.43 1612.14 1245.52 1615.1 1257.61 1617.96V1434.76H1585.68C1589.02 1434.75 1592.22 1433.41 1594.57 1431.04C1596.93 1428.67 1598.25 1425.47 1598.25 1422.13V1398.49H1239.47C1234.66 1398.49 1230.05 1400.4 1226.65 1403.8C1223.24 1407.2 1221.33 1411.81 1221.33 1416.62Z" fill="black"/>
<path d="M584.97 2088.18L729.233 2075.6V1886.42H779.96V2075.84L925.069 2088.18C931.227 2088.78 936.941 2091.65 941.099 2096.23C945.257 2100.81 947.56 2106.78 947.561 2112.97V2132.19H562.297V2112.97C562.302 2106.75 564.631 2100.76 568.826 2096.17C573.021 2091.59 578.779 2088.73 584.97 2088.18Z" fill="#263238"/>
<path opacity="0.1" d="M584.97 2088.18L729.233 2075.6V1886.42H779.96V2075.84L925.069 2088.18C931.227 2088.78 936.941 2091.65 941.099 2096.23C945.257 2100.81 947.56 2106.78 947.561 2112.97V2132.19H562.297V2112.97C562.302 2106.75 564.631 2100.76 568.826 2096.17C573.021 2091.59 578.779 2088.73 584.97 2088.18Z" fill="white"/>
<path d="M900.521 2156.08C900.521 2162.64 902.468 2169.06 906.115 2174.52C909.763 2179.98 914.947 2184.23 921.012 2186.74C927.078 2189.25 933.752 2189.91 940.191 2188.63C946.63 2187.35 952.544 2184.19 957.186 2179.55C961.829 2174.9 964.99 2168.99 966.271 2162.55C967.552 2156.11 966.894 2149.44 964.382 2143.37C961.87 2137.31 957.615 2132.12 952.156 2128.48C946.698 2124.83 940.28 2122.88 933.715 2122.88C929.354 2122.87 925.034 2123.73 921.003 2125.39C916.972 2127.06 913.31 2129.5 910.226 2132.59C907.142 2135.67 904.697 2139.33 903.032 2143.36C901.366 2147.39 900.513 2151.71 900.521 2156.08V2156.08Z" fill="#263238"/>
<path d="M609.155 2156.08C609.155 2162.64 607.207 2169.06 603.556 2174.52C599.906 2179.98 594.719 2184.24 588.65 2186.75C582.581 2189.26 575.904 2189.91 569.463 2188.63C563.023 2187.34 557.108 2184.17 552.468 2179.53C547.829 2174.88 544.672 2168.96 543.398 2162.51C542.124 2156.07 542.79 2149.4 545.312 2143.33C547.833 2137.27 552.097 2132.09 557.564 2128.45C563.03 2124.81 569.454 2122.87 576.022 2122.88C580.378 2122.88 584.691 2123.74 588.715 2125.41C592.739 2127.08 596.394 2129.52 599.472 2132.61C602.549 2135.69 604.989 2139.35 606.65 2143.38C608.312 2147.4 609.163 2151.72 609.155 2156.08V2156.08Z" fill="#263238"/>
<path d="M766.235 1924.81H742.957C737.008 1924.81 731.303 1922.45 727.096 1918.24C722.889 1914.03 720.526 1908.33 720.526 1902.38V1739.13H788.667V1902.38C788.667 1908.33 786.303 1914.03 782.096 1918.24C777.89 1922.45 772.184 1924.81 766.235 1924.81V1924.81Z" fill="#263238"/>
<path opacity="0.2" d="M766.235 1924.81H742.957C737.008 1924.81 731.303 1922.45 727.096 1918.24C722.889 1914.03 720.526 1908.33 720.526 1902.38V1739.13H788.667V1902.38C788.667 1908.33 786.303 1914.03 782.096 1918.24C777.89 1922.45 772.184 1924.81 766.235 1924.81V1924.81Z" fill="white"/>
<path d="M604.983 1364.39C604.983 1364.39 620.582 1677.76 688.058 1731.69H615.866C615.866 1731.69 551.535 1624.92 546.758 1364.39H604.983Z" fill="#263238"/>
<path opacity="0.1" d="M604.983 1364.39C604.983 1364.39 620.582 1677.76 688.058 1731.69H615.866C615.866 1731.69 551.535 1624.92 546.758 1364.39H604.983Z" fill="white"/>
<path d="M599.118 1705.69H919.023C926.223 1705.69 933.128 1708.55 938.219 1713.65C943.31 1718.74 946.17 1725.64 946.17 1732.84V1757.63H571.91V1732.84C571.91 1729.27 572.614 1725.74 573.982 1722.44C575.35 1719.14 577.356 1716.15 579.883 1713.62C582.41 1711.1 585.41 1709.1 588.711 1707.74C592.011 1706.38 595.548 1705.69 599.118 1705.69V1705.69Z" fill="#2447F9"/>
<path d="M949.556 1731.69H568.645C562.601 1731.69 557.702 1736.59 557.702 1742.64V1746.69C557.702 1752.73 562.601 1757.63 568.645 1757.63H949.556C955.6 1757.63 960.5 1752.73 960.5 1746.69V1742.64C960.5 1736.59 955.6 1731.69 949.556 1731.69Z" fill="#263238"/>
<path opacity="0.6" d="M949.556 1731.69H568.645C562.601 1731.69 557.702 1736.59 557.702 1742.64V1746.69C557.702 1752.73 562.601 1757.63 568.645 1757.63H949.556C955.6 1757.63 960.5 1752.73 960.5 1746.69V1742.64C960.5 1736.59 955.6 1731.69 949.556 1731.69Z" fill="white"/>
<path d="M534.061 1432.95H649.725C683.584 1432.95 708.01 1402.72 704.141 1364.93L699.243 1314.87C695.495 1277.32 665.082 1246.85 631.224 1246.85H515.741C481.882 1246.85 457.456 1277.08 461.325 1314.87L466.223 1364.93C469.729 1402.72 500.202 1432.95 534.061 1432.95Z" fill="#2447F9"/>
<path d="M915.758 1162.62C922.953 1185.42 931.417 1209.18 940.729 1230.95C948.589 1249.08 959.774 1272.18 972.532 1284.33C984.14 1294.67 1011.77 1298.6 1029.73 1300.96C1053.91 1304.04 1079.67 1305.19 1104.76 1306.22L1109.24 1340.08C1082.64 1347.22 1055.36 1351.54 1027.85 1352.96C997.14 1354.05 961.346 1352.96 934.743 1334.09C896.108 1303.86 879.299 1263.6 862.188 1221.09C857.352 1207.61 852.998 1195.27 849.31 1181.13L915.818 1162.62H915.758Z" fill="#B65B52"/>
<path d="M886.071 1130.64C905.116 1137.17 922.348 1164.56 970.294 1274.42C970.294 1274.42 978.094 1287.84 1016.97 1296.25L1013.4 1357.92C1013.4 1357.92 957.9 1355.5 945.021 1346.61C932.143 1337.72 854.933 1210.69 854.933 1210.69L886.071 1130.64Z" fill="#263238"/>
<path opacity="0.2" d="M1016.97 1296.37L1013.4 1358.04C1013.4 1358.04 968.904 1356.1 950.342 1349.27C948.472 1348.64 946.685 1347.79 945.021 1346.73C937.585 1341.53 908.744 1296.85 885.466 1260.09C868.597 1233.36 855.235 1210.81 855.235 1210.81L886.071 1130.64C905.117 1137.17 922.348 1164.56 970.355 1274.36C970.355 1274.48 978.094 1287.84 1016.97 1296.37Z" fill="white"/>
<path opacity="0.2" d="M950.342 1349.27C948.472 1348.64 946.685 1347.79 945.021 1346.73C937.585 1341.53 908.744 1296.85 885.466 1260.09C891.525 1239.25 898.69 1218.74 906.93 1198.66C906.93 1198.66 951.189 1287.36 950.342 1349.27Z" fill="black"/>
<path d="M1091.58 1309.3L1134.93 1293.71L1129.61 1351.75C1129.61 1351.75 1089.83 1356.83 1084.93 1335.91L1091.58 1309.3Z" fill="#B55B52"/>
<path d="M1170.85 1305.44L1164.2 1353.26L1129.61 1351.75L1134.93 1293.71L1170.85 1305.44Z" fill="#B55B52"/>
<path d="M1017.27 1293.71L1039.4 1300.36L1031.3 1360.33L1009.17 1364.14L1017.27 1293.71Z" fill="#263238"/>
<path d="M917.451 1512.09C917.451 1512.09 1210.03 1627.52 1278.05 1675.77C1346.07 1724.01 1517.6 2049.3 1517.6 2049.3L1446.67 2103.72C1446.67 2103.72 1242.07 1806.61 1216.92 1786.47C1191.77 1766.34 866.24 1666.39 866.24 1666.39L917.451 1512.09Z" fill="#2447F9"/>
<path opacity="0.4" d="M1517.6 2049.3L1446.67 2103.72C1446.67 2103.72 1398.91 2034.37 1346.73 1960.42C1290.92 1881.28 1230.04 1797.17 1217.1 1786.47C1198.96 1771.72 1019.69 1714.28 924.706 1684.53C889.759 1673.53 866.24 1666.39 866.24 1666.39L917.39 1511.91C917.39 1511.91 1209.91 1627.34 1277.99 1675.58C1346.07 1723.83 1517.6 2049.3 1517.6 2049.3Z" fill="white"/>
<path d="M1530.6 2165.69L1564.76 2131.35L1508.89 2044.95L1474.79 2079.29L1530.6 2165.69Z" fill="#B55B52"/>
<path opacity="0.2" d="M1474.79 2079.29L1508.89 2045.01L1540.81 2094.4L1505.5 2126.93L1474.79 2079.29Z" fill="black"/>
<path d="M1570.68 2127.6C1570.68 2127.6 1570.68 2127.6 1571.11 2127.6C1571.53 2127.6 1571.11 2127.6 1571.11 2127.6C1575.13 2126.12 1578.98 2124.22 1582.59 2121.91C1585.41 2120.41 1587.56 2117.91 1588.64 2114.9C1588.86 2113.77 1588.76 2112.61 1588.34 2111.53C1587.92 2110.46 1587.21 2109.53 1586.28 2108.85C1585.78 2108.34 1585.16 2107.95 1584.47 2107.74C1583.79 2107.53 1583.06 2107.5 1582.35 2107.65C1579.03 2108.43 1575.76 2113.15 1573.28 2117.68C1573.81 2113.45 1572.82 2109.17 1570.5 2105.59C1569.82 2104.91 1568.93 2104.47 1567.98 2104.36C1567.02 2104.25 1566.06 2104.47 1565.24 2104.99C1564.48 2105.34 1563.82 2105.87 1563.3 2106.53C1562.79 2107.2 1562.44 2107.97 1562.28 2108.79C1560.89 2115.32 1569.65 2125.84 1570.08 2126.45L1570.68 2125.84L1570.14 2126.51C1570.14 2126.51 1569.71 2127.17 1569.71 2127.24C1569.81 2127.4 1569.95 2127.53 1570.13 2127.6C1570.31 2127.66 1570.5 2127.66 1570.68 2127.6V2127.6ZM1570.98 2123.12C1570.98 2123.49 1570.68 2123.85 1570.56 2124.15C1567.9 2120.4 1563.97 2113.81 1564.82 2109.94C1564.89 2109.49 1565.05 2109.06 1565.3 2108.67C1565.55 2108.28 1565.88 2107.96 1566.27 2107.71H1566.69C1568.14 2106.98 1568.93 2107.4 1569.41 2107.71C1571.73 2112.5 1572.28 2117.96 1570.98 2123.12ZM1573.04 2124.58C1575.7 2118.53 1580.11 2110.67 1583.44 2109.94C1583.79 2109.86 1584.15 2109.86 1584.49 2109.97C1584.83 2110.08 1585.14 2110.28 1585.37 2110.55C1585.94 2110.98 1586.38 2111.56 1586.66 2112.21C1586.93 2112.87 1587.03 2113.59 1586.95 2114.3C1586.28 2117.44 1581.14 2121.19 1573.04 2124.58V2124.58Z" fill="#2447F9"/>
<path d="M1564.09 2124.51L1518.99 2154.75C1518.6 2154.98 1518.26 2155.28 1517.99 2155.64C1517.72 2156.01 1517.52 2156.42 1517.42 2156.86C1517.31 2157.3 1517.29 2157.76 1517.36 2158.2C1517.44 2158.65 1517.6 2159.08 1517.84 2159.46L1539.6 2196.65C1540.85 2198.53 1542.79 2199.84 1545 2200.29C1547.21 2200.74 1549.51 2200.3 1551.39 2199.06C1566.93 2188.24 1573.83 2182.32 1593.72 2168.83C1611.83 2157.69 1629.14 2145.31 1645.53 2131.77C1660.41 2117.92 1646.32 2103.59 1638.82 2108.13C1620.68 2118.83 1589.97 2123.43 1572.68 2122.16C1569.63 2121.92 1566.59 2122.75 1564.09 2124.51Z" fill="#263238"/>
<path d="M1450 2127.72L1538.58 2068.77L1518.14 2027.11L1422.19 2093.68L1450 2127.72Z" fill="#2447F9"/>
<path opacity="0.2" d="M1450 2127.72L1538.58 2068.77L1518.14 2027.11L1422.19 2093.68L1450 2127.72Z" fill="white"/>
<path opacity="0.2" d="M1346.85 1960.66C1291.05 1881.52 1230.16 1797.41 1217.22 1786.71C1199.08 1771.96 1019.81 1714.52 924.827 1684.77L913.763 1569.9L948.468 1563.85L952.398 1572.68C952.398 1572.68 1169.21 1621.83 1230.52 1652.55C1270 1671.96 1323.03 1865.92 1346.85 1960.66Z" fill="black"/>
<path d="M1333.85 2139.09C1333.92 2139.11 1333.99 2139.13 1334.06 2139.13C1334.14 2139.13 1334.21 2139.11 1334.28 2139.09C1338.57 2139.04 1342.85 2138.53 1347.03 2137.57C1350.23 2137.12 1353.15 2135.48 1355.2 2132.98C1355.8 2132.02 1356.11 2130.91 1356.11 2129.77C1356.11 2128.64 1355.8 2127.53 1355.2 2126.57C1354.9 2125.91 1354.43 2125.34 1353.85 2124.9C1353.27 2124.47 1352.59 2124.19 1351.87 2124.09C1348.48 2123.67 1343.83 2127.11 1339.78 2130.56C1341.63 2126.81 1342.08 2122.52 1341.05 2118.47C1340.64 2117.6 1339.96 2116.89 1339.1 2116.47C1338.25 2116.04 1337.27 2115.91 1336.33 2116.11C1335.5 2116.24 1334.71 2116.53 1334 2116.98C1333.3 2117.43 1332.69 2118.02 1332.22 2118.71C1328.77 2124.45 1333.55 2137.27 1333.79 2138L1334.52 2137.57L1333.79 2138.06C1333.79 2138.06 1333.13 2138.54 1333.19 2138.6L1333.85 2139.09ZM1335.67 2134.91L1334.88 2135.76C1333 2130.85 1332.75 2125.47 1334.15 2120.4C1334.38 2120.01 1334.69 2119.67 1335.05 2119.4C1335.41 2119.13 1335.83 2118.94 1336.27 2118.83H1336.82C1338.39 2118.83 1338.99 2119.31 1339.23 2119.92C1339.84 2125.18 1338.58 2130.49 1335.67 2134.91V2134.91ZM1337.06 2136.97C1341.59 2132.13 1348.36 2126.21 1351.75 2126.63C1352.1 2126.67 1352.44 2126.8 1352.73 2127.01C1353.02 2127.22 1353.24 2127.51 1353.38 2127.84C1353.72 2128.46 1353.9 2129.16 1353.9 2129.87C1353.9 2130.57 1353.72 2131.27 1353.38 2131.89C1351.93 2134.61 1345.88 2136.49 1337.06 2136.97V2136.97Z" fill="#2447F9"/>
<path d="M1283.43 2161.7L1327.02 2140.6L1301.08 2036.72L1257.55 2057.83L1283.43 2161.7Z" fill="#B55B52"/>
<path opacity="0.2" d="M1257.55 2057.83L1301.08 2036.78L1315.9 2096.16L1271.76 2115.08L1257.55 2057.83Z" fill="black"/>
<path d="M1328.65 2133.95L1276.05 2147.55C1275.61 2147.64 1275.19 2147.81 1274.81 2148.06C1274.44 2148.31 1274.12 2148.64 1273.87 2149.02C1273.62 2149.39 1273.45 2149.82 1273.37 2150.26C1273.29 2150.7 1273.29 2151.16 1273.39 2151.6V2151.6L1281.61 2193.92C1282.21 2196.08 1283.62 2197.92 1285.55 2199.05C1287.49 2200.18 1289.78 2200.51 1291.95 2199.97C1310.09 2194.89 1318.68 2191.57 1341.77 2185.4C1362.48 2180.98 1382.84 2175.1 1402.72 2167.81C1421.34 2159.7 1412.82 2141.5 1404.23 2143.32C1383.79 2147.49 1353.02 2141.5 1337.18 2134.55C1334.47 2133.44 1331.49 2133.23 1328.65 2133.95Z" fill="#263238"/>
<path d="M1322.3 2056.43C1322.3 2056.43 1248.54 1686.35 1233.43 1664.34C1208.88 1628.06 913.702 1569.59 913.702 1569.59L948.347 1563.55L908.321 1457.13L645.493 1467.47C645.493 1467.47 650.995 1641.12 677.719 1687.68C704.443 1734.23 1099.8 1755.64 1125.5 1766.28C1151.2 1776.92 1229.62 2067.2 1229.62 2067.2L1322.3 2056.43Z" fill="#2447F9"/>
<path opacity="0.4" d="M1322.3 2056.43C1322.3 2056.43 1248.54 1686.35 1233.43 1664.34C1208.88 1628.06 913.702 1569.59 913.702 1569.59L948.347 1563.55L908.321 1457.13L645.493 1467.47C645.493 1467.47 650.995 1641.12 677.719 1687.68C704.443 1734.23 1099.8 1755.64 1125.5 1766.28C1151.2 1776.92 1229.62 2067.2 1229.62 2067.2L1322.3 2056.43Z" fill="white"/>
<path d="M1231.19 2099.97L1334.34 2073.73L1328.83 2027.65L1216.25 2058.67L1231.19 2099.97Z" fill="#2447F9"/>
<path opacity="0.2" d="M1231.19 2099.97L1334.34 2073.73L1328.83 2027.65L1216.25 2058.67L1231.19 2099.97Z" fill="white"/>
<path d="M728.688 1471.52L652.506 1470.25L650.874 1493.29L731.953 1495.23L728.688 1471.52Z" fill="#263238"/>
<path d="M740.418 1471.1L743.743 1495.04L913.763 1492.63L908.261 1470.8L740.418 1471.1Z" fill="#263238"/>
<path d="M822.283 1475.27L824.46 1491.05C824.778 1492.98 825.777 1494.73 827.274 1495.98C828.772 1497.24 830.67 1497.91 832.622 1497.89L859.83 1497.04C860.731 1497.06 861.624 1496.87 862.444 1496.5C863.264 1496.13 863.99 1495.57 864.569 1494.88C865.149 1494.19 865.567 1493.38 865.793 1492.51C866.019 1491.64 866.048 1490.73 865.877 1489.84L863.639 1474C863.32 1472.08 862.319 1470.34 860.82 1469.1C859.321 1467.85 857.424 1467.19 855.477 1467.23L828.33 1468.08C827.429 1468.06 826.536 1468.25 825.716 1468.62C824.896 1468.99 824.17 1469.54 823.59 1470.23C823.011 1470.92 822.593 1471.73 822.367 1472.61C822.141 1473.48 822.112 1474.39 822.283 1475.27V1475.27Z" fill="white"/>
<path d="M652.143 1466.87H901.852C904.841 1466.89 907.731 1465.8 909.964 1463.81C912.197 1461.82 913.615 1459.08 913.944 1456.11C944.78 1214.26 885.89 1130.76 885.89 1130.76C863.467 1124.36 840.585 1119.69 817.447 1116.79C783.637 1114.13 749.703 1113.41 715.81 1114.62C692.72 1115.24 669.705 1117.52 646.944 1121.45C634.851 1126.71 622.336 1180.58 634.851 1348.42C638.116 1392.38 638.6 1430.35 638.298 1452.6C638.249 1456.33 639.679 1459.92 642.274 1462.59C644.869 1465.27 648.418 1466.81 652.143 1466.87V1466.87Z" fill="#263238"/>
<path d="M851.063 1216.31H899.191L902.819 1273.75L877.002 1290.5L851.063 1277.68V1216.31Z" fill="#263238"/>
<path opacity="0.2" d="M914.125 1456.11C913.796 1459.08 912.379 1461.82 910.146 1463.81C907.912 1465.8 905.022 1466.89 902.033 1466.87H652.325C650.454 1466.88 648.601 1466.51 646.873 1465.8C645.145 1465.08 643.576 1464.03 642.259 1462.7C640.942 1461.37 639.903 1459.8 639.202 1458.06C638.501 1456.33 638.152 1454.47 638.177 1452.6C638.177 1430.35 638.177 1392.14 634.791 1348.42C633.057 1324.24 631.788 1302.39 630.982 1282.88C629.01 1247.19 629.212 1211.41 631.586 1175.74C634.609 1139.47 640.837 1124.17 647.125 1121.33C669.967 1117.39 693.063 1115.11 716.233 1114.5C750.106 1113.29 784.02 1114.01 817.809 1116.67C840.887 1119.58 863.708 1124.25 886.071 1130.64C886.071 1130.64 944.961 1214.5 914.125 1456.11Z" fill="white"/>
<path d="M718.289 1112.14L798.945 1139.65L802.21 1116.55C794.35 1102.77 792.355 1094.06 799.006 1078.04L745.194 1016.19C746.585 1047.87 740.841 1091.16 718.289 1112.14Z" fill="#B55B52"/>
<path d="M769.319 1151.62L785.16 1158.21L798.945 1166.86C798.945 1166.86 817.386 1272.42 812.247 1361.54L827.725 1374.24L844.05 1361.12C844.05 1361.12 823.735 1197.45 816.419 1165.59L819.623 1157.91L827.06 1142.07L813.335 1134.87L791.508 1139.65H776.272L769.319 1151.62Z" fill="white"/>
<path opacity="0.2" d="M767.082 1041.4L798.945 1078.04C796.553 1083.65 794.632 1089.46 793.201 1095.39C779.718 1091.34 762.97 1073.38 763.756 1058.75C763.801 1052.81 764.928 1046.93 767.082 1041.4Z" fill="black"/>
<path d="M723.307 1097.51C746.07 1112.66 770.394 1125.33 795.862 1135.3C798.643 1124.04 798.643 1112.27 795.862 1101.01L831.474 1118.79C831.474 1118.79 834.437 1146.42 826.274 1161.11L800.094 1141.95L770.71 1166.13C770.71 1166.13 715.084 1144.67 706.378 1115.52L723.307 1097.51Z" fill="#263238"/>
<path opacity="0.2" d="M904.754 1312.03L822.284 1378.53C703.899 1404.9 651.841 1331.07 630.921 1282.7C628.949 1247.01 629.151 1211.23 631.526 1175.56C659.943 1174.23 695.313 1174.23 704.866 1181.61C721.493 1194.37 779.416 1283.79 788.062 1290.44C796.708 1297.09 904.754 1312.03 904.754 1312.03Z" fill="black"/>
<path d="M951.672 1308.88L995.024 1293.22L989.703 1351.27C989.703 1351.27 949.919 1356.34 945.021 1335.42L951.672 1308.88Z" fill="#B55B52"/>
<path d="M1030.88 1304.95L1024.29 1352.78L989.703 1351.27L995.024 1293.22L1030.88 1304.95Z" fill="#B55B52"/>
<path d="M699.485 1191.77C712.273 1217.03 726.401 1241.59 741.809 1265.35C751.286 1280.88 763.163 1294.82 776.997 1306.64C778.042 1307.55 779.254 1308.25 780.565 1308.7C795.707 1312.7 811.342 1314.54 827 1314.14C870.895 1314.57 915.576 1310.51 959.653 1306.77L966.848 1340.14C937.32 1349.76 907.209 1357.5 876.699 1363.3C843.627 1369.34 813.456 1373.88 778.267 1370.49C766.916 1369.31 755.895 1365.96 745.799 1360.64C706.62 1337.72 682.616 1300.66 659.883 1263.9C651.72 1249.63 644.283 1236.33 637.391 1221.09L699.667 1191.65L699.485 1191.77Z" fill="#B65B52"/>
<path d="M646.944 1121.45C568.948 1149.56 670.101 1343.89 712.666 1365.66C755.231 1387.42 827.06 1378.53 827.06 1378.53L832.139 1311C832.139 1311 794.894 1306.46 783.769 1303.8C766.054 1299.57 730.26 1221.33 706.136 1178.83C692.821 1154.04 672.139 1133.99 646.944 1121.45V1121.45Z" fill="#263238"/>
<path opacity="0.2" d="M646.944 1121.45C568.948 1149.56 670.101 1343.89 712.666 1365.66C755.231 1387.42 827.06 1378.53 827.06 1378.53L832.139 1311C832.139 1311 794.894 1306.46 783.769 1303.8C766.054 1299.57 730.26 1221.33 706.136 1178.83C692.821 1154.04 672.139 1133.99 646.944 1121.45V1121.45Z" fill="white"/>
<path d="M822.102 1305.92L815.814 1384.34L838.185 1380.17L844.05 1310.09L822.102 1305.92Z" fill="#263238"/>
<path d="M883.834 952.458C886.917 970.597 879.118 1005.79 856.444 990.912C833.771 976.038 878.453 921.381 883.834 952.458Z" fill="#263238"/>
<path d="M755.775 958.928C747.069 1003.19 739.692 1028.64 755.775 1056.57C779.96 1098.53 839.394 1092.13 861.221 1051.31C880.871 1014.49 891.815 948.528 853.542 920.293C845.066 914.113 835.165 910.177 824.759 908.851C814.354 907.525 803.782 908.851 794.027 912.706C784.271 916.561 775.649 922.82 768.961 930.901C762.274 938.982 757.738 948.623 755.775 958.928V958.928Z" fill="#B55B52"/>
<path d="M734.493 910.135L784.616 907.837L785.946 936.617L782.983 934.985C782.983 934.985 779.839 977.308 755.836 991.396C723.368 966.606 713.815 926.036 734.493 910.135Z" fill="#263238"/>
<path d="M729.293 990.852C729.606 996.436 731.023 1001.9 733.462 1006.94C735.901 1011.97 739.313 1016.47 743.501 1020.18C754.808 1030.03 767.021 1021.51 769.379 1007.48C771.495 994.842 768.17 974.466 754.203 969.992C751.119 969.088 747.86 968.958 744.714 969.615C741.568 970.272 738.633 971.696 736.169 973.759C733.705 975.822 731.788 978.462 730.588 981.443C729.389 984.425 728.944 987.657 729.293 990.852V990.852Z" fill="#B55B52"/>
<path d="M818.777 987.768C817.809 991.335 818.777 994.661 821.316 995.265C823.855 995.87 826.274 993.451 827.362 989.884C828.451 986.317 827.362 982.992 824.823 982.447C822.283 981.903 819.684 984.261 818.777 987.768Z" fill="#263238"/>
<path d="M858.984 997.926C858.077 1001.43 858.984 1004.82 861.523 1005.36C864.063 1005.91 866.542 1003.55 867.569 1000.04C868.597 996.535 867.569 993.149 865.03 992.545C862.491 991.94 859.951 994.358 858.984 997.926Z" fill="#263238"/>
<path d="M845.743 996.475C847.382 1008.06 850.638 1019.35 855.417 1030.03C852.531 1031.05 849.463 1031.46 846.411 1031.22C843.359 1030.98 840.392 1030.1 837.701 1028.64L845.743 996.475Z" fill="#A02724"/>
<path d="M815.088 1037.41C816.558 1038.03 818.075 1038.53 819.623 1038.92C819.903 1038.98 820.194 1038.93 820.44 1038.78C820.686 1038.64 820.869 1038.41 820.953 1038.13C820.99 1037.99 820.998 1037.85 820.978 1037.71C820.958 1037.56 820.91 1037.43 820.837 1037.3C820.764 1037.18 820.667 1037.07 820.552 1036.99C820.437 1036.9 820.306 1036.84 820.167 1036.8C815.729 1035.81 811.592 1033.78 808.1 1030.86C804.608 1027.95 801.863 1024.24 800.094 1020.05C799.986 1019.79 799.784 1019.58 799.527 1019.45C799.27 1019.33 798.976 1019.31 798.703 1019.39C798.563 1019.43 798.433 1019.5 798.321 1019.59C798.21 1019.69 798.12 1019.8 798.057 1019.93C797.994 1020.07 797.96 1020.21 797.957 1020.36C797.953 1020.5 797.981 1020.65 798.038 1020.78C799.575 1024.58 801.884 1028.02 804.819 1030.88C807.754 1033.74 811.251 1035.97 815.088 1037.41V1037.41Z" fill="#263238"/>
<path d="M809.768 971.746C810.121 971.88 810.503 971.916 810.875 971.853C811.247 971.789 811.596 971.627 811.884 971.383C813.972 969.645 816.436 968.418 819.081 967.798C821.725 967.179 824.478 967.185 827.12 967.816C827.39 967.909 827.676 967.947 827.961 967.928C828.245 967.908 828.523 967.831 828.777 967.701C829.032 967.571 829.257 967.391 829.44 967.172C829.623 966.952 829.759 966.698 829.841 966.425C829.935 966.163 829.975 965.885 829.959 965.608C829.942 965.33 829.87 965.059 829.745 964.81C829.621 964.562 829.447 964.341 829.235 964.161C829.023 963.981 828.777 963.846 828.511 963.765C825.188 962.878 821.7 962.805 818.342 963.552C814.985 964.3 811.857 965.845 809.224 968.058C808.997 968.229 808.808 968.445 808.666 968.691C808.525 968.938 808.434 969.21 808.401 969.492C808.367 969.774 808.39 970.06 808.469 970.333C808.548 970.606 808.681 970.86 808.861 971.081C809.11 971.367 809.42 971.595 809.768 971.746V971.746Z" fill="#263238"/>
<path d="M879.964 988.494C880.332 988.626 880.728 988.659 881.112 988.591C881.497 988.523 881.857 988.355 882.157 988.104C882.456 987.853 882.685 987.529 882.82 987.162C882.955 986.795 882.992 986.4 882.927 986.015C882.289 982.658 880.858 979.503 878.755 976.811C876.652 974.119 873.936 971.968 870.835 970.536C870.296 970.334 869.701 970.347 869.172 970.572C868.642 970.797 868.22 971.217 867.993 971.746C867.793 972.275 867.808 972.862 868.033 973.381C868.259 973.901 868.678 974.312 869.202 974.527C871.61 975.648 873.713 977.332 875.333 979.437C876.954 981.541 878.044 984.005 878.513 986.619C878.562 987.034 878.723 987.428 878.978 987.758C879.234 988.088 879.575 988.343 879.964 988.494V988.494Z" fill="#263238"/>
<path d="M767.505 945.747C768.467 946.561 769.499 947.29 770.588 947.923C773.491 949.66 776.783 950.641 780.162 950.778C783.542 950.916 786.902 950.204 789.936 948.71C802.391 942.663 806.322 907.112 841.752 925.19C845.645 924.251 849.726 924.46 853.502 925.791C857.279 927.121 860.59 929.516 863.035 932.687C872.165 943.872 865.877 984.684 885.345 979.061C904.814 973.438 901.428 967.392 901.428 967.392C901.428 967.392 895.987 970.839 892.782 968.118C895.669 965.69 897.726 962.423 898.669 958.771C899.612 955.119 899.393 951.264 898.042 947.742C898.042 947.742 893.326 953.365 890.182 952.277C893.429 935.765 891.552 918.656 884.801 903.242C873.495 875.067 804.326 881.355 804.326 881.355C804.326 881.355 795.62 866.783 764.361 876.941C733.102 887.099 718.833 924.767 723.791 941.152" fill="#263238"/>
<path d="M1180.22 1346.73L1175.74 1329.86H992.363L907.958 1338.27L904.754 1346.73H1180.22Z" fill="#263238"/>
<path opacity="0.5" d="M1180.22 1346.73L1175.74 1329.86H992.363L907.958 1338.27L904.754 1346.73H1180.22Z" fill="white"/>
<path opacity="0.2" d="M992.363 1329.86V1346.73H1180.22L1175.74 1329.86H992.363Z" fill="black"/>
<path d="M1054.4 1249.08C1054.16 1251.13 1054.35 1253.2 1054.98 1255.17C1055.6 1257.13 1056.64 1258.93 1058.02 1260.46C1059.4 1261.99 1061.09 1263.21 1062.98 1264.03C1064.87 1264.85 1066.91 1265.26 1068.97 1265.23H1349.88C1354.27 1265.12 1358.47 1263.43 1361.7 1260.46C1364.94 1257.49 1366.99 1253.45 1367.47 1249.08L1384.16 1069.27C1384.32 1067.53 1384.19 1065.77 1383.79 1064.07C1383.02 1060.9 1381.2 1058.09 1378.61 1056.1C1376.03 1054.11 1372.85 1053.06 1369.59 1053.13H1088.68C1084.29 1053.23 1080.09 1054.93 1076.85 1057.9C1073.62 1060.86 1071.57 1064.91 1071.08 1069.27L1054.4 1249.08Z" fill="#263238"/>
<path opacity="0.5" d="M1054.4 1249.08C1054.16 1251.13 1054.35 1253.2 1054.98 1255.17C1055.6 1257.13 1056.64 1258.93 1058.02 1260.46C1059.4 1261.99 1061.09 1263.21 1062.98 1264.03C1064.87 1264.85 1066.91 1265.26 1068.97 1265.23H1349.88C1354.27 1265.12 1358.47 1263.43 1361.7 1260.46C1364.94 1257.49 1366.99 1253.45 1367.47 1249.08L1384.16 1069.27C1384.32 1067.53 1384.19 1065.77 1383.79 1064.07C1383.02 1060.9 1381.2 1058.09 1378.61 1056.1C1376.03 1054.11 1372.85 1053.06 1369.59 1053.13H1088.68C1084.29 1053.23 1080.09 1054.93 1076.85 1057.9C1073.62 1060.86 1071.57 1064.91 1071.08 1069.27L1054.4 1249.08Z" fill="white"/>
<path opacity="0.1" d="M1070.18 1265.23H1350.06C1354.45 1265.12 1358.65 1263.43 1361.88 1260.46C1365.12 1257.49 1367.17 1253.45 1367.65 1249.08L1384.34 1069.27C1384.5 1067.53 1384.38 1065.77 1383.98 1064.07H1104.04C1099.66 1064.19 1095.47 1065.89 1092.25 1068.86C1089.02 1071.83 1086.98 1075.86 1086.5 1080.21L1069.81 1260.03C1069.62 1261.77 1069.75 1263.53 1070.18 1265.23V1265.23Z" fill="black"/>
<path d="M1262.93 1154.95H1204.83L1220.3 1321.34L1128.46 1335.12V1346.73H1322V1335.12L1282.34 1321.34L1262.93 1154.95Z" fill="#263238"/>
<path opacity="0.5" d="M1262.93 1154.95H1204.83L1220.3 1321.34L1128.46 1335.12V1346.73H1322V1335.12L1282.34 1321.34L1262.93 1154.95Z" fill="white"/>
<path opacity="0.2" d="M1204.83 1154.95L1247.88 1344.07L1282.34 1343.04L1262.93 1154.95H1204.83Z" fill="white"/>
<path d="M725.182 2189.45H1077.07C1077.98 2189.45 1078.88 2189.27 1079.72 2188.92C1080.56 2188.57 1081.33 2188.06 1081.97 2187.41C1082.61 2186.76 1083.11 2186 1083.46 2185.15C1083.8 2184.31 1083.97 2183.41 1083.96 2182.5V2160.07C1083.96 2158.24 1083.24 2156.48 1081.94 2155.19C1080.65 2153.9 1078.9 2153.17 1077.07 2153.17H743.32V1434.76H1071.39C1074.72 1434.76 1077.92 1433.44 1080.28 1431.08C1082.64 1428.72 1083.96 1425.52 1083.96 1422.19V1398.49H725.182C720.371 1398.49 715.757 1400.4 712.356 1403.8C708.954 1407.2 707.043 1411.81 707.043 1416.62V2171.31C707.043 2176.12 708.954 2180.74 712.356 2184.14C715.757 2187.54 720.371 2189.45 725.182 2189.45Z" fill="#263238"/>
<g opacity="0.4">
<path d="M725.182 2189.45H1077.07C1077.98 2189.45 1078.88 2189.27 1079.72 2188.92C1080.56 2188.57 1081.33 2188.06 1081.97 2187.41C1082.61 2186.76 1083.11 2186 1083.46 2185.15C1083.8 2184.31 1083.97 2183.41 1083.96 2182.5V2160.07C1083.96 2158.24 1083.24 2156.48 1081.94 2155.19C1080.65 2153.9 1078.9 2153.17 1077.07 2153.17H743.32V1434.76H1071.39C1074.72 1434.76 1077.92 1433.44 1080.28 1431.08C1082.64 1428.72 1083.96 1425.52 1083.96 1422.19V1398.49H725.182C720.371 1398.49 715.757 1400.4 712.356 1403.8C708.954 1407.2 707.043 1411.81 707.043 1416.62V2171.31C707.043 2176.12 708.954 2180.74 712.356 2184.14C715.757 2187.54 720.371 2189.45 725.182 2189.45Z" fill="white"/>
</g>
<path d="M1607.69 1404.53L680.077 1404.53C676.966 1404.53 673.982 1403.3 671.783 1401.1C669.583 1398.9 668.347 1395.91 668.347 1392.8V1364.26H1619.41V1392.86C1619.4 1395.96 1618.16 1398.93 1615.96 1401.12C1613.76 1403.31 1610.79 1404.53 1607.69 1404.53V1404.53Z" fill="#2447F9"/>
<path opacity="0.2" d="M668.347 1384.34L1619.41 1384.34V1364.2L668.347 1364.2V1384.34Z" fill="black"/>
<path d="M648.455 1369.4H1639.43C1642.43 1369.4 1645.31 1368.22 1647.44 1366.1C1649.57 1363.98 1650.78 1361.1 1650.79 1358.1V1358.1C1650.79 1355.08 1649.6 1352.19 1647.47 1350.06C1645.33 1347.93 1642.44 1346.73 1639.43 1346.73H648.455C645.441 1346.73 642.549 1347.93 640.418 1350.06C638.286 1352.19 637.088 1355.08 637.088 1358.1V1358.1C637.104 1361.1 638.309 1363.98 640.439 1366.1C642.569 1368.22 645.451 1369.4 648.455 1369.4V1369.4Z" fill="#2447F9"/>
</svg>
